<?xml version="1.0" encoding="utf-8" standalone="no"?>
<!DOCTYPE svg PUBLIC "-//W3C//DTD SVG 1.1//EN"
  "http://www.w3.org/Graphics/SVG/1.1/DTD/svg11.dtd">
<svg xmlns:xlink="http://www.w3.org/1999/xlink" width="460.8pt" height="345.6pt" viewBox="0 0 460.8 345.6" xmlns="http://www.w3.org/2000/svg" version="1.1">
 <metadata>
  <rdf:RDF xmlns:dc="http://purl.org/dc/elements/1.1/" xmlns:cc="http://creativecommons.org/ns#" xmlns:rdf="http://www.w3.org/1999/02/22-rdf-syntax-ns#">
   <cc:Work>
    <dc:type rdf:resource="http://purl.org/dc/dcmitype/StillImage"/>
    <dc:date>2025-11-21T20:21:21.577375</dc:date>
    <dc:format>image/svg+xml</dc:format>
    <dc:creator>
     <cc:Agent>
      <dc:title>Matplotlib v3.10.7, https://matplotlib.org/</dc:title>
     </cc:Agent>
    </dc:creator>
   </cc:Work>
  </rdf:RDF>
 </metadata>
 <defs>
  <style type="text/css">*{stroke-linejoin: round; stroke-linecap: butt}</style>
 </defs>
 <g id="figure_1">
  <g id="patch_1">
   <path d="M 0 345.6 
L 460.8 345.6 
L 460.8 0 
L 0 0 
z
" style="fill: #ffffff"/>
  </g>
  <g id="axes_1">
   <g id="patch_2">
    <path d="M 57.6 307.584 
L 414.72 307.584 
L 414.72 41.472 
L 57.6 41.472 
z
" style="fill: #ffffff"/>
   </g>
   <g id="matplotlib.axis_1">
    <g id="xtick_1">
     <g id="line2d_1">
      <path d="M 73.832727 307.584 
L 73.832727 41.472 
" clip-path="url(#p1d7125410b)" style="fill: none; stroke: #b0b0b0; stroke-width: 0.8; stroke-linecap: square"/>
     </g>
     <g id="line2d_2">
      <defs>
       <path id="m3bb9503f23" d="M 0 0 
L 0 3.5 
" style="stroke: #000000; stroke-width: 0.8"/>
      </defs>
      <g>
       <use xlink:href="#m3bb9503f23" x="73.832727" y="307.584" style="stroke: #000000; stroke-width: 0.8"/>
      </g>
     </g>
     <g id="text_1">
      <!-- 0 -->
      <g transform="translate(70.651477 322.182437) scale(0.1 -0.1)">
       <defs>
        <path id="DejaVuSans-30" d="M 2034 4250 
Q 1547 4250 1301 3770 
Q 1056 3291 1056 2328 
Q 1056 1369 1301 889 
Q 1547 409 2034 409 
Q 2525 409 2770 889 
Q 3016 1369 3016 2328 
Q 3016 3291 2770 3770 
Q 2525 4250 2034 4250 
z
M 2034 4750 
Q 2819 4750 3233 4129 
Q 3647 3509 3647 2328 
Q 3647 1150 3233 529 
Q 2819 -91 2034 -91 
Q 1250 -91 836 529 
Q 422 1150 422 2328 
Q 422 3509 836 4129 
Q 1250 4750 2034 4750 
z
" transform="scale(0.015625)"/>
       </defs>
       <use xlink:href="#DejaVuSans-30"/>
      </g>
     </g>
    </g>
    <g id="xtick_2">
     <g id="line2d_3">
      <path d="M 114.434847 307.584 
L 114.434847 41.472 
" clip-path="url(#p1d7125410b)" style="fill: none; stroke: #b0b0b0; stroke-width: 0.8; stroke-linecap: square"/>
     </g>
     <g id="line2d_4">
      <g>
       <use xlink:href="#m3bb9503f23" x="114.434847" y="307.584" style="stroke: #000000; stroke-width: 0.8"/>
      </g>
     </g>
     <g id="text_2">
      <!-- 250 -->
      <g transform="translate(104.891097 322.182437) scale(0.1 -0.1)">
       <defs>
        <path id="DejaVuSans-32" d="M 1228 531 
L 3431 531 
L 3431 0 
L 469 0 
L 469 531 
Q 828 903 1448 1529 
Q 2069 2156 2228 2338 
Q 2531 2678 2651 2914 
Q 2772 3150 2772 3378 
Q 2772 3750 2511 3984 
Q 2250 4219 1831 4219 
Q 1534 4219 1204 4116 
Q 875 4013 500 3803 
L 500 4441 
Q 881 4594 1212 4672 
Q 1544 4750 1819 4750 
Q 2544 4750 2975 4387 
Q 3406 4025 3406 3419 
Q 3406 3131 3298 2873 
Q 3191 2616 2906 2266 
Q 2828 2175 2409 1742 
Q 1991 1309 1228 531 
z
" transform="scale(0.015625)"/>
        <path id="DejaVuSans-35" d="M 691 4666 
L 3169 4666 
L 3169 4134 
L 1269 4134 
L 1269 2991 
Q 1406 3038 1543 3061 
Q 1681 3084 1819 3084 
Q 2600 3084 3056 2656 
Q 3513 2228 3513 1497 
Q 3513 744 3044 326 
Q 2575 -91 1722 -91 
Q 1428 -91 1123 -41 
Q 819 9 494 109 
L 494 744 
Q 775 591 1075 516 
Q 1375 441 1709 441 
Q 2250 441 2565 725 
Q 2881 1009 2881 1497 
Q 2881 1984 2565 2268 
Q 2250 2553 1709 2553 
Q 1456 2553 1204 2497 
Q 953 2441 691 2322 
L 691 4666 
z
" transform="scale(0.015625)"/>
       </defs>
       <use xlink:href="#DejaVuSans-32"/>
       <use xlink:href="#DejaVuSans-35" transform="translate(63.623047 0)"/>
       <use xlink:href="#DejaVuSans-30" transform="translate(127.246094 0)"/>
      </g>
     </g>
    </g>
    <g id="xtick_3">
     <g id="line2d_5">
      <path d="M 155.036966 307.584 
L 155.036966 41.472 
" clip-path="url(#p1d7125410b)" style="fill: none; stroke: #b0b0b0; stroke-width: 0.8; stroke-linecap: square"/>
     </g>
     <g id="line2d_6">
      <g>
       <use xlink:href="#m3bb9503f23" x="155.036966" y="307.584" style="stroke: #000000; stroke-width: 0.8"/>
      </g>
     </g>
     <g id="text_3">
      <!-- 500 -->
      <g transform="translate(145.493216 322.182437) scale(0.1 -0.1)">
       <use xlink:href="#DejaVuSans-35"/>
       <use xlink:href="#DejaVuSans-30" transform="translate(63.623047 0)"/>
       <use xlink:href="#DejaVuSans-30" transform="translate(127.246094 0)"/>
      </g>
     </g>
    </g>
    <g id="xtick_4">
     <g id="line2d_7">
      <path d="M 195.639085 307.584 
L 195.639085 41.472 
" clip-path="url(#p1d7125410b)" style="fill: none; stroke: #b0b0b0; stroke-width: 0.8; stroke-linecap: square"/>
     </g>
     <g id="line2d_8">
      <g>
       <use xlink:href="#m3bb9503f23" x="195.639085" y="307.584" style="stroke: #000000; stroke-width: 0.8"/>
      </g>
     </g>
     <g id="text_4">
      <!-- 750 -->
      <g transform="translate(186.095335 322.182437) scale(0.1 -0.1)">
       <defs>
        <path id="DejaVuSans-37" d="M 525 4666 
L 3525 4666 
L 3525 4397 
L 1831 0 
L 1172 0 
L 2766 4134 
L 525 4134 
L 525 4666 
z
" transform="scale(0.015625)"/>
       </defs>
       <use xlink:href="#DejaVuSans-37"/>
       <use xlink:href="#DejaVuSans-35" transform="translate(63.623047 0)"/>
       <use xlink:href="#DejaVuSans-30" transform="translate(127.246094 0)"/>
      </g>
     </g>
    </g>
    <g id="xtick_5">
     <g id="line2d_9">
      <path d="M 236.241204 307.584 
L 236.241204 41.472 
" clip-path="url(#p1d7125410b)" style="fill: none; stroke: #b0b0b0; stroke-width: 0.8; stroke-linecap: square"/>
     </g>
     <g id="line2d_10">
      <g>
       <use xlink:href="#m3bb9503f23" x="236.241204" y="307.584" style="stroke: #000000; stroke-width: 0.8"/>
      </g>
     </g>
     <g id="text_5">
      <!-- 1000 -->
      <g transform="translate(223.516204 322.182437) scale(0.1 -0.1)">
       <defs>
        <path id="DejaVuSans-31" d="M 794 531 
L 1825 531 
L 1825 4091 
L 703 3866 
L 703 4441 
L 1819 4666 
L 2450 4666 
L 2450 531 
L 3481 531 
L 3481 0 
L 794 0 
L 794 531 
z
" transform="scale(0.015625)"/>
       </defs>
       <use xlink:href="#DejaVuSans-31"/>
       <use xlink:href="#DejaVuSans-30" transform="translate(63.623047 0)"/>
       <use xlink:href="#DejaVuSans-30" transform="translate(127.246094 0)"/>
       <use xlink:href="#DejaVuSans-30" transform="translate(190.869141 0)"/>
      </g>
     </g>
    </g>
    <g id="xtick_6">
     <g id="line2d_11">
      <path d="M 276.843323 307.584 
L 276.843323 41.472 
" clip-path="url(#p1d7125410b)" style="fill: none; stroke: #b0b0b0; stroke-width: 0.8; stroke-linecap: square"/>
     </g>
     <g id="line2d_12">
      <g>
       <use xlink:href="#m3bb9503f23" x="276.843323" y="307.584" style="stroke: #000000; stroke-width: 0.8"/>
      </g>
     </g>
     <g id="text_6">
      <!-- 1250 -->
      <g transform="translate(264.118323 322.182437) scale(0.1 -0.1)">
       <use xlink:href="#DejaVuSans-31"/>
       <use xlink:href="#DejaVuSans-32" transform="translate(63.623047 0)"/>
       <use xlink:href="#DejaVuSans-35" transform="translate(127.246094 0)"/>
       <use xlink:href="#DejaVuSans-30" transform="translate(190.869141 0)"/>
      </g>
     </g>
    </g>
    <g id="xtick_7">
     <g id="line2d_13">
      <path d="M 317.445443 307.584 
L 317.445443 41.472 
" clip-path="url(#p1d7125410b)" style="fill: none; stroke: #b0b0b0; stroke-width: 0.8; stroke-linecap: square"/>
     </g>
     <g id="line2d_14">
      <g>
       <use xlink:href="#m3bb9503f23" x="317.445443" y="307.584" style="stroke: #000000; stroke-width: 0.8"/>
      </g>
     </g>
     <g id="text_7">
      <!-- 1500 -->
      <g transform="translate(304.720443 322.182437) scale(0.1 -0.1)">
       <use xlink:href="#DejaVuSans-31"/>
       <use xlink:href="#DejaVuSans-35" transform="translate(63.623047 0)"/>
       <use xlink:href="#DejaVuSans-30" transform="translate(127.246094 0)"/>
       <use xlink:href="#DejaVuSans-30" transform="translate(190.869141 0)"/>
      </g>
     </g>
    </g>
    <g id="xtick_8">
     <g id="line2d_15">
      <path d="M 358.047562 307.584 
L 358.047562 41.472 
" clip-path="url(#p1d7125410b)" style="fill: none; stroke: #b0b0b0; stroke-width: 0.8; stroke-linecap: square"/>
     </g>
     <g id="line2d_16">
      <g>
       <use xlink:href="#m3bb9503f23" x="358.047562" y="307.584" style="stroke: #000000; stroke-width: 0.8"/>
      </g>
     </g>
     <g id="text_8">
      <!-- 1750 -->
      <g transform="translate(345.322562 322.182437) scale(0.1 -0.1)">
       <use xlink:href="#DejaVuSans-31"/>
       <use xlink:href="#DejaVuSans-37" transform="translate(63.623047 0)"/>
       <use xlink:href="#DejaVuSans-35" transform="translate(127.246094 0)"/>
       <use xlink:href="#DejaVuSans-30" transform="translate(190.869141 0)"/>
      </g>
     </g>
    </g>
    <g id="xtick_9">
     <g id="line2d_17">
      <path d="M 398.649681 307.584 
L 398.649681 41.472 
" clip-path="url(#p1d7125410b)" style="fill: none; stroke: #b0b0b0; stroke-width: 0.8; stroke-linecap: square"/>
     </g>
     <g id="line2d_18">
      <g>
       <use xlink:href="#m3bb9503f23" x="398.649681" y="307.584" style="stroke: #000000; stroke-width: 0.8"/>
      </g>
     </g>
     <g id="text_9">
      <!-- 2000 -->
      <g transform="translate(385.924681 322.182437) scale(0.1 -0.1)">
       <use xlink:href="#DejaVuSans-32"/>
       <use xlink:href="#DejaVuSans-30" transform="translate(63.623047 0)"/>
       <use xlink:href="#DejaVuSans-30" transform="translate(127.246094 0)"/>
       <use xlink:href="#DejaVuSans-30" transform="translate(190.869141 0)"/>
      </g>
     </g>
    </g>
    <g id="text_10">
     <!-- Iteration -->
     <g transform="translate(214.951406 335.860562) scale(0.1 -0.1)">
      <defs>
       <path id="DejaVuSans-49" d="M 628 4666 
L 1259 4666 
L 1259 0 
L 628 0 
L 628 4666 
z
" transform="scale(0.015625)"/>
       <path id="DejaVuSans-74" d="M 1172 4494 
L 1172 3500 
L 2356 3500 
L 2356 3053 
L 1172 3053 
L 1172 1153 
Q 1172 725 1289 603 
Q 1406 481 1766 481 
L 2356 481 
L 2356 0 
L 1766 0 
Q 1100 0 847 248 
Q 594 497 594 1153 
L 594 3053 
L 172 3053 
L 172 3500 
L 594 3500 
L 594 4494 
L 1172 4494 
z
" transform="scale(0.015625)"/>
       <path id="DejaVuSans-65" d="M 3597 1894 
L 3597 1613 
L 953 1613 
Q 991 1019 1311 708 
Q 1631 397 2203 397 
Q 2534 397 2845 478 
Q 3156 559 3463 722 
L 3463 178 
Q 3153 47 2828 -22 
Q 2503 -91 2169 -91 
Q 1331 -91 842 396 
Q 353 884 353 1716 
Q 353 2575 817 3079 
Q 1281 3584 2069 3584 
Q 2775 3584 3186 3129 
Q 3597 2675 3597 1894 
z
M 3022 2063 
Q 3016 2534 2758 2815 
Q 2500 3097 2075 3097 
Q 1594 3097 1305 2825 
Q 1016 2553 972 2059 
L 3022 2063 
z
" transform="scale(0.015625)"/>
       <path id="DejaVuSans-72" d="M 2631 2963 
Q 2534 3019 2420 3045 
Q 2306 3072 2169 3072 
Q 1681 3072 1420 2755 
Q 1159 2438 1159 1844 
L 1159 0 
L 581 0 
L 581 3500 
L 1159 3500 
L 1159 2956 
Q 1341 3275 1631 3429 
Q 1922 3584 2338 3584 
Q 2397 3584 2469 3576 
Q 2541 3569 2628 3553 
L 2631 2963 
z
" transform="scale(0.015625)"/>
       <path id="DejaVuSans-61" d="M 2194 1759 
Q 1497 1759 1228 1600 
Q 959 1441 959 1056 
Q 959 750 1161 570 
Q 1363 391 1709 391 
Q 2188 391 2477 730 
Q 2766 1069 2766 1631 
L 2766 1759 
L 2194 1759 
z
M 3341 1997 
L 3341 0 
L 2766 0 
L 2766 531 
Q 2569 213 2275 61 
Q 1981 -91 1556 -91 
Q 1019 -91 701 211 
Q 384 513 384 1019 
Q 384 1609 779 1909 
Q 1175 2209 1959 2209 
L 2766 2209 
L 2766 2266 
Q 2766 2663 2505 2880 
Q 2244 3097 1772 3097 
Q 1472 3097 1187 3025 
Q 903 2953 641 2809 
L 641 3341 
Q 956 3463 1253 3523 
Q 1550 3584 1831 3584 
Q 2591 3584 2966 3190 
Q 3341 2797 3341 1997 
z
" transform="scale(0.015625)"/>
       <path id="DejaVuSans-69" d="M 603 3500 
L 1178 3500 
L 1178 0 
L 603 0 
L 603 3500 
z
M 603 4863 
L 1178 4863 
L 1178 4134 
L 603 4134 
L 603 4863 
z
" transform="scale(0.015625)"/>
       <path id="DejaVuSans-6f" d="M 1959 3097 
Q 1497 3097 1228 2736 
Q 959 2375 959 1747 
Q 959 1119 1226 758 
Q 1494 397 1959 397 
Q 2419 397 2687 759 
Q 2956 1122 2956 1747 
Q 2956 2369 2687 2733 
Q 2419 3097 1959 3097 
z
M 1959 3584 
Q 2709 3584 3137 3096 
Q 3566 2609 3566 1747 
Q 3566 888 3137 398 
Q 2709 -91 1959 -91 
Q 1206 -91 779 398 
Q 353 888 353 1747 
Q 353 2609 779 3096 
Q 1206 3584 1959 3584 
z
" transform="scale(0.015625)"/>
       <path id="DejaVuSans-6e" d="M 3513 2113 
L 3513 0 
L 2938 0 
L 2938 2094 
Q 2938 2591 2744 2837 
Q 2550 3084 2163 3084 
Q 1697 3084 1428 2787 
Q 1159 2491 1159 1978 
L 1159 0 
L 581 0 
L 581 3500 
L 1159 3500 
L 1159 2956 
Q 1366 3272 1645 3428 
Q 1925 3584 2291 3584 
Q 2894 3584 3203 3211 
Q 3513 2838 3513 2113 
z
" transform="scale(0.015625)"/>
      </defs>
      <use xlink:href="#DejaVuSans-49"/>
      <use xlink:href="#DejaVuSans-74" transform="translate(29.492188 0)"/>
      <use xlink:href="#DejaVuSans-65" transform="translate(68.701172 0)"/>
      <use xlink:href="#DejaVuSans-72" transform="translate(130.224609 0)"/>
      <use xlink:href="#DejaVuSans-61" transform="translate(171.337891 0)"/>
      <use xlink:href="#DejaVuSans-74" transform="translate(232.617188 0)"/>
      <use xlink:href="#DejaVuSans-69" transform="translate(271.826172 0)"/>
      <use xlink:href="#DejaVuSans-6f" transform="translate(299.609375 0)"/>
      <use xlink:href="#DejaVuSans-6e" transform="translate(360.791016 0)"/>
     </g>
    </g>
   </g>
   <g id="matplotlib.axis_2">
    <g id="ytick_1">
     <g id="line2d_19">
      <path d="M 57.6 281.69301 
L 414.72 281.69301 
" clip-path="url(#p1d7125410b)" style="fill: none; stroke: #b0b0b0; stroke-width: 0.8; stroke-linecap: square"/>
     </g>
     <g id="line2d_20">
      <defs>
       <path id="m01764eb428" d="M 0 0 
L -3.5 0 
" style="stroke: #000000; stroke-width: 0.8"/>
      </defs>
      <g>
       <use xlink:href="#m01764eb428" x="57.6" y="281.69301" style="stroke: #000000; stroke-width: 0.8"/>
      </g>
     </g>
     <g id="text_11">
      <!-- $\mathdefault{10^{-4}}$ -->
      <g transform="translate(27.1 285.492229) scale(0.1 -0.1)">
       <defs>
        <path id="DejaVuSans-2212" d="M 678 2272 
L 4684 2272 
L 4684 1741 
L 678 1741 
L 678 2272 
z
" transform="scale(0.015625)"/>
        <path id="DejaVuSans-34" d="M 2419 4116 
L 825 1625 
L 2419 1625 
L 2419 4116 
z
M 2253 4666 
L 3047 4666 
L 3047 1625 
L 3713 1625 
L 3713 1100 
L 3047 1100 
L 3047 0 
L 2419 0 
L 2419 1100 
L 313 1100 
L 313 1709 
L 2253 4666 
z
" transform="scale(0.015625)"/>
       </defs>
       <use xlink:href="#DejaVuSans-31" transform="translate(0 0.684375)"/>
       <use xlink:href="#DejaVuSans-30" transform="translate(63.623047 0.684375)"/>
       <use xlink:href="#DejaVuSans-2212" transform="translate(128.203125 38.965625) scale(0.7)"/>
       <use xlink:href="#DejaVuSans-34" transform="translate(186.855469 38.965625) scale(0.7)"/>
      </g>
     </g>
    </g>
    <g id="ytick_2">
     <g id="line2d_21">
      <path d="M 57.6 253.473366 
L 414.72 253.473366 
" clip-path="url(#p1d7125410b)" style="fill: none; stroke: #b0b0b0; stroke-width: 0.8; stroke-linecap: square"/>
     </g>
     <g id="line2d_22">
      <g>
       <use xlink:href="#m01764eb428" x="57.6" y="253.473366" style="stroke: #000000; stroke-width: 0.8"/>
      </g>
     </g>
     <g id="text_12">
      <!-- $\mathdefault{10^{-3}}$ -->
      <g transform="translate(27.1 257.272585) scale(0.1 -0.1)">
       <defs>
        <path id="DejaVuSans-33" d="M 2597 2516 
Q 3050 2419 3304 2112 
Q 3559 1806 3559 1356 
Q 3559 666 3084 287 
Q 2609 -91 1734 -91 
Q 1441 -91 1130 -33 
Q 819 25 488 141 
L 488 750 
Q 750 597 1062 519 
Q 1375 441 1716 441 
Q 2309 441 2620 675 
Q 2931 909 2931 1356 
Q 2931 1769 2642 2001 
Q 2353 2234 1838 2234 
L 1294 2234 
L 1294 2753 
L 1863 2753 
Q 2328 2753 2575 2939 
Q 2822 3125 2822 3475 
Q 2822 3834 2567 4026 
Q 2313 4219 1838 4219 
Q 1578 4219 1281 4162 
Q 984 4106 628 3988 
L 628 4550 
Q 988 4650 1302 4700 
Q 1616 4750 1894 4750 
Q 2613 4750 3031 4423 
Q 3450 4097 3450 3541 
Q 3450 3153 3228 2886 
Q 3006 2619 2597 2516 
z
" transform="scale(0.015625)"/>
       </defs>
       <use xlink:href="#DejaVuSans-31" transform="translate(0 0.765625)"/>
       <use xlink:href="#DejaVuSans-30" transform="translate(63.623047 0.765625)"/>
       <use xlink:href="#DejaVuSans-2212" transform="translate(128.203125 39.046875) scale(0.7)"/>
       <use xlink:href="#DejaVuSans-33" transform="translate(186.855469 39.046875) scale(0.7)"/>
      </g>
     </g>
    </g>
    <g id="ytick_3">
     <g id="line2d_23">
      <path d="M 57.6 225.253721 
L 414.72 225.253721 
" clip-path="url(#p1d7125410b)" style="fill: none; stroke: #b0b0b0; stroke-width: 0.8; stroke-linecap: square"/>
     </g>
     <g id="line2d_24">
      <g>
       <use xlink:href="#m01764eb428" x="57.6" y="225.253721" style="stroke: #000000; stroke-width: 0.8"/>
      </g>
     </g>
     <g id="text_13">
      <!-- $\mathdefault{10^{-2}}$ -->
      <g transform="translate(27.1 229.05294) scale(0.1 -0.1)">
       <use xlink:href="#DejaVuSans-31" transform="translate(0 0.765625)"/>
       <use xlink:href="#DejaVuSans-30" transform="translate(63.623047 0.765625)"/>
       <use xlink:href="#DejaVuSans-2212" transform="translate(128.203125 39.046875) scale(0.7)"/>
       <use xlink:href="#DejaVuSans-32" transform="translate(186.855469 39.046875) scale(0.7)"/>
      </g>
     </g>
    </g>
    <g id="ytick_4">
     <g id="line2d_25">
      <path d="M 57.6 197.034077 
L 414.72 197.034077 
" clip-path="url(#p1d7125410b)" style="fill: none; stroke: #b0b0b0; stroke-width: 0.8; stroke-linecap: square"/>
     </g>
     <g id="line2d_26">
      <g>
       <use xlink:href="#m01764eb428" x="57.6" y="197.034077" style="stroke: #000000; stroke-width: 0.8"/>
      </g>
     </g>
     <g id="text_14">
      <!-- $\mathdefault{10^{-1}}$ -->
      <g transform="translate(27.1 200.833296) scale(0.1 -0.1)">
       <use xlink:href="#DejaVuSans-31" transform="translate(0 0.684375)"/>
       <use xlink:href="#DejaVuSans-30" transform="translate(63.623047 0.684375)"/>
       <use xlink:href="#DejaVuSans-2212" transform="translate(128.203125 38.965625) scale(0.7)"/>
       <use xlink:href="#DejaVuSans-31" transform="translate(186.855469 38.965625) scale(0.7)"/>
      </g>
     </g>
    </g>
    <g id="ytick_5">
     <g id="line2d_27">
      <path d="M 57.6 168.814432 
L 414.72 168.814432 
" clip-path="url(#p1d7125410b)" style="fill: none; stroke: #b0b0b0; stroke-width: 0.8; stroke-linecap: square"/>
     </g>
     <g id="line2d_28">
      <g>
       <use xlink:href="#m01764eb428" x="57.6" y="168.814432" style="stroke: #000000; stroke-width: 0.8"/>
      </g>
     </g>
     <g id="text_15">
      <!-- $\mathdefault{10^{0}}$ -->
      <g transform="translate(33 172.613651) scale(0.1 -0.1)">
       <use xlink:href="#DejaVuSans-31" transform="translate(0 0.765625)"/>
       <use xlink:href="#DejaVuSans-30" transform="translate(63.623047 0.765625)"/>
       <use xlink:href="#DejaVuSans-30" transform="translate(128.203125 39.046875) scale(0.7)"/>
      </g>
     </g>
    </g>
    <g id="ytick_6">
     <g id="line2d_29">
      <path d="M 57.6 140.594788 
L 414.72 140.594788 
" clip-path="url(#p1d7125410b)" style="fill: none; stroke: #b0b0b0; stroke-width: 0.8; stroke-linecap: square"/>
     </g>
     <g id="line2d_30">
      <g>
       <use xlink:href="#m01764eb428" x="57.6" y="140.594788" style="stroke: #000000; stroke-width: 0.8"/>
      </g>
     </g>
     <g id="text_16">
      <!-- $\mathdefault{10^{1}}$ -->
      <g transform="translate(33 144.394006) scale(0.1 -0.1)">
       <use xlink:href="#DejaVuSans-31" transform="translate(0 0.684375)"/>
       <use xlink:href="#DejaVuSans-30" transform="translate(63.623047 0.684375)"/>
       <use xlink:href="#DejaVuSans-31" transform="translate(128.203125 38.965625) scale(0.7)"/>
      </g>
     </g>
    </g>
    <g id="ytick_7">
     <g id="line2d_31">
      <path d="M 57.6 112.375143 
L 414.72 112.375143 
" clip-path="url(#p1d7125410b)" style="fill: none; stroke: #b0b0b0; stroke-width: 0.8; stroke-linecap: square"/>
     </g>
     <g id="line2d_32">
      <g>
       <use xlink:href="#m01764eb428" x="57.6" y="112.375143" style="stroke: #000000; stroke-width: 0.8"/>
      </g>
     </g>
     <g id="text_17">
      <!-- $\mathdefault{10^{2}}$ -->
      <g transform="translate(33 116.174362) scale(0.1 -0.1)">
       <use xlink:href="#DejaVuSans-31" transform="translate(0 0.765625)"/>
       <use xlink:href="#DejaVuSans-30" transform="translate(63.623047 0.765625)"/>
       <use xlink:href="#DejaVuSans-32" transform="translate(128.203125 39.046875) scale(0.7)"/>
      </g>
     </g>
    </g>
    <g id="ytick_8">
     <g id="line2d_33">
      <path d="M 57.6 84.155499 
L 414.72 84.155499 
" clip-path="url(#p1d7125410b)" style="fill: none; stroke: #b0b0b0; stroke-width: 0.8; stroke-linecap: square"/>
     </g>
     <g id="line2d_34">
      <g>
       <use xlink:href="#m01764eb428" x="57.6" y="84.155499" style="stroke: #000000; stroke-width: 0.8"/>
      </g>
     </g>
     <g id="text_18">
      <!-- $\mathdefault{10^{3}}$ -->
      <g transform="translate(33 87.954717) scale(0.1 -0.1)">
       <use xlink:href="#DejaVuSans-31" transform="translate(0 0.765625)"/>
       <use xlink:href="#DejaVuSans-30" transform="translate(63.623047 0.765625)"/>
       <use xlink:href="#DejaVuSans-33" transform="translate(128.203125 39.046875) scale(0.7)"/>
      </g>
     </g>
    </g>
    <g id="ytick_9">
     <g id="line2d_35">
      <path d="M 57.6 55.935854 
L 414.72 55.935854 
" clip-path="url(#p1d7125410b)" style="fill: none; stroke: #b0b0b0; stroke-width: 0.8; stroke-linecap: square"/>
     </g>
     <g id="line2d_36">
      <g>
       <use xlink:href="#m01764eb428" x="57.6" y="55.935854" style="stroke: #000000; stroke-width: 0.8"/>
      </g>
     </g>
     <g id="text_19">
      <!-- $\mathdefault{10^{4}}$ -->
      <g transform="translate(33 59.735073) scale(0.1 -0.1)">
       <use xlink:href="#DejaVuSans-31" transform="translate(0 0.684375)"/>
       <use xlink:href="#DejaVuSans-30" transform="translate(63.623047 0.684375)"/>
       <use xlink:href="#DejaVuSans-34" transform="translate(128.203125 38.965625) scale(0.7)"/>
      </g>
     </g>
    </g>
    <g id="ytick_10">
     <g id="line2d_37">
      <defs>
       <path id="m6ac79db8d8" d="M 0 0 
L -2 0 
" style="stroke: #000000; stroke-width: 0.6"/>
      </defs>
      <g>
       <use xlink:href="#m6ac79db8d8" x="57.6" y="301.417696" style="stroke: #000000; stroke-width: 0.6"/>
      </g>
     </g>
    </g>
    <g id="ytick_11">
     <g id="line2d_38">
      <g>
       <use xlink:href="#m6ac79db8d8" x="57.6" y="296.448463" style="stroke: #000000; stroke-width: 0.6"/>
      </g>
     </g>
    </g>
    <g id="ytick_12">
     <g id="line2d_39">
      <g>
       <use xlink:href="#m6ac79db8d8" x="57.6" y="292.922736" style="stroke: #000000; stroke-width: 0.6"/>
      </g>
     </g>
    </g>
    <g id="ytick_13">
     <g id="line2d_40">
      <g>
       <use xlink:href="#m6ac79db8d8" x="57.6" y="290.18797" style="stroke: #000000; stroke-width: 0.6"/>
      </g>
     </g>
    </g>
    <g id="ytick_14">
     <g id="line2d_41">
      <g>
       <use xlink:href="#m6ac79db8d8" x="57.6" y="287.953503" style="stroke: #000000; stroke-width: 0.6"/>
      </g>
     </g>
    </g>
    <g id="ytick_15">
     <g id="line2d_42">
      <g>
       <use xlink:href="#m6ac79db8d8" x="57.6" y="286.064289" style="stroke: #000000; stroke-width: 0.6"/>
      </g>
     </g>
    </g>
    <g id="ytick_16">
     <g id="line2d_43">
      <g>
       <use xlink:href="#m6ac79db8d8" x="57.6" y="284.427777" style="stroke: #000000; stroke-width: 0.6"/>
      </g>
     </g>
    </g>
    <g id="ytick_17">
     <g id="line2d_44">
      <g>
       <use xlink:href="#m6ac79db8d8" x="57.6" y="282.984271" style="stroke: #000000; stroke-width: 0.6"/>
      </g>
     </g>
    </g>
    <g id="ytick_18">
     <g id="line2d_45">
      <g>
       <use xlink:href="#m6ac79db8d8" x="57.6" y="273.198051" style="stroke: #000000; stroke-width: 0.6"/>
      </g>
     </g>
    </g>
    <g id="ytick_19">
     <g id="line2d_46">
      <g>
       <use xlink:href="#m6ac79db8d8" x="57.6" y="268.228818" style="stroke: #000000; stroke-width: 0.6"/>
      </g>
     </g>
    </g>
    <g id="ytick_20">
     <g id="line2d_47">
      <g>
       <use xlink:href="#m6ac79db8d8" x="57.6" y="264.703092" style="stroke: #000000; stroke-width: 0.6"/>
      </g>
     </g>
    </g>
    <g id="ytick_21">
     <g id="line2d_48">
      <g>
       <use xlink:href="#m6ac79db8d8" x="57.6" y="261.968325" style="stroke: #000000; stroke-width: 0.6"/>
      </g>
     </g>
    </g>
    <g id="ytick_22">
     <g id="line2d_49">
      <g>
       <use xlink:href="#m6ac79db8d8" x="57.6" y="259.733859" style="stroke: #000000; stroke-width: 0.6"/>
      </g>
     </g>
    </g>
    <g id="ytick_23">
     <g id="line2d_50">
      <g>
       <use xlink:href="#m6ac79db8d8" x="57.6" y="257.844644" style="stroke: #000000; stroke-width: 0.6"/>
      </g>
     </g>
    </g>
    <g id="ytick_24">
     <g id="line2d_51">
      <g>
       <use xlink:href="#m6ac79db8d8" x="57.6" y="256.208132" style="stroke: #000000; stroke-width: 0.6"/>
      </g>
     </g>
    </g>
    <g id="ytick_25">
     <g id="line2d_52">
      <g>
       <use xlink:href="#m6ac79db8d8" x="57.6" y="254.764626" style="stroke: #000000; stroke-width: 0.6"/>
      </g>
     </g>
    </g>
    <g id="ytick_26">
     <g id="line2d_53">
      <g>
       <use xlink:href="#m6ac79db8d8" x="57.6" y="244.978406" style="stroke: #000000; stroke-width: 0.6"/>
      </g>
     </g>
    </g>
    <g id="ytick_27">
     <g id="line2d_54">
      <g>
       <use xlink:href="#m6ac79db8d8" x="57.6" y="240.009174" style="stroke: #000000; stroke-width: 0.6"/>
      </g>
     </g>
    </g>
    <g id="ytick_28">
     <g id="line2d_55">
      <g>
       <use xlink:href="#m6ac79db8d8" x="57.6" y="236.483447" style="stroke: #000000; stroke-width: 0.6"/>
      </g>
     </g>
    </g>
    <g id="ytick_29">
     <g id="line2d_56">
      <g>
       <use xlink:href="#m6ac79db8d8" x="57.6" y="233.748681" style="stroke: #000000; stroke-width: 0.6"/>
      </g>
     </g>
    </g>
    <g id="ytick_30">
     <g id="line2d_57">
      <g>
       <use xlink:href="#m6ac79db8d8" x="57.6" y="231.514214" style="stroke: #000000; stroke-width: 0.6"/>
      </g>
     </g>
    </g>
    <g id="ytick_31">
     <g id="line2d_58">
      <g>
       <use xlink:href="#m6ac79db8d8" x="57.6" y="229.625" style="stroke: #000000; stroke-width: 0.6"/>
      </g>
     </g>
    </g>
    <g id="ytick_32">
     <g id="line2d_59">
      <g>
       <use xlink:href="#m6ac79db8d8" x="57.6" y="227.988487" style="stroke: #000000; stroke-width: 0.6"/>
      </g>
     </g>
    </g>
    <g id="ytick_33">
     <g id="line2d_60">
      <g>
       <use xlink:href="#m6ac79db8d8" x="57.6" y="226.544981" style="stroke: #000000; stroke-width: 0.6"/>
      </g>
     </g>
    </g>
    <g id="ytick_34">
     <g id="line2d_61">
      <g>
       <use xlink:href="#m6ac79db8d8" x="57.6" y="216.758762" style="stroke: #000000; stroke-width: 0.6"/>
      </g>
     </g>
    </g>
    <g id="ytick_35">
     <g id="line2d_62">
      <g>
       <use xlink:href="#m6ac79db8d8" x="57.6" y="211.789529" style="stroke: #000000; stroke-width: 0.6"/>
      </g>
     </g>
    </g>
    <g id="ytick_36">
     <g id="line2d_63">
      <g>
       <use xlink:href="#m6ac79db8d8" x="57.6" y="208.263802" style="stroke: #000000; stroke-width: 0.6"/>
      </g>
     </g>
    </g>
    <g id="ytick_37">
     <g id="line2d_64">
      <g>
       <use xlink:href="#m6ac79db8d8" x="57.6" y="205.529036" style="stroke: #000000; stroke-width: 0.6"/>
      </g>
     </g>
    </g>
    <g id="ytick_38">
     <g id="line2d_65">
      <g>
       <use xlink:href="#m6ac79db8d8" x="57.6" y="203.29457" style="stroke: #000000; stroke-width: 0.6"/>
      </g>
     </g>
    </g>
    <g id="ytick_39">
     <g id="line2d_66">
      <g>
       <use xlink:href="#m6ac79db8d8" x="57.6" y="201.405355" style="stroke: #000000; stroke-width: 0.6"/>
      </g>
     </g>
    </g>
    <g id="ytick_40">
     <g id="line2d_67">
      <g>
       <use xlink:href="#m6ac79db8d8" x="57.6" y="199.768843" style="stroke: #000000; stroke-width: 0.6"/>
      </g>
     </g>
    </g>
    <g id="ytick_41">
     <g id="line2d_68">
      <g>
       <use xlink:href="#m6ac79db8d8" x="57.6" y="198.325337" style="stroke: #000000; stroke-width: 0.6"/>
      </g>
     </g>
    </g>
    <g id="ytick_42">
     <g id="line2d_69">
      <g>
       <use xlink:href="#m6ac79db8d8" x="57.6" y="188.539117" style="stroke: #000000; stroke-width: 0.6"/>
      </g>
     </g>
    </g>
    <g id="ytick_43">
     <g id="line2d_70">
      <g>
       <use xlink:href="#m6ac79db8d8" x="57.6" y="183.569885" style="stroke: #000000; stroke-width: 0.6"/>
      </g>
     </g>
    </g>
    <g id="ytick_44">
     <g id="line2d_71">
      <g>
       <use xlink:href="#m6ac79db8d8" x="57.6" y="180.044158" style="stroke: #000000; stroke-width: 0.6"/>
      </g>
     </g>
    </g>
    <g id="ytick_45">
     <g id="line2d_72">
      <g>
       <use xlink:href="#m6ac79db8d8" x="57.6" y="177.309392" style="stroke: #000000; stroke-width: 0.6"/>
      </g>
     </g>
    </g>
    <g id="ytick_46">
     <g id="line2d_73">
      <g>
       <use xlink:href="#m6ac79db8d8" x="57.6" y="175.074925" style="stroke: #000000; stroke-width: 0.6"/>
      </g>
     </g>
    </g>
    <g id="ytick_47">
     <g id="line2d_74">
      <g>
       <use xlink:href="#m6ac79db8d8" x="57.6" y="173.18571" style="stroke: #000000; stroke-width: 0.6"/>
      </g>
     </g>
    </g>
    <g id="ytick_48">
     <g id="line2d_75">
      <g>
       <use xlink:href="#m6ac79db8d8" x="57.6" y="171.549198" style="stroke: #000000; stroke-width: 0.6"/>
      </g>
     </g>
    </g>
    <g id="ytick_49">
     <g id="line2d_76">
      <g>
       <use xlink:href="#m6ac79db8d8" x="57.6" y="170.105692" style="stroke: #000000; stroke-width: 0.6"/>
      </g>
     </g>
    </g>
    <g id="ytick_50">
     <g id="line2d_77">
      <g>
       <use xlink:href="#m6ac79db8d8" x="57.6" y="160.319473" style="stroke: #000000; stroke-width: 0.6"/>
      </g>
     </g>
    </g>
    <g id="ytick_51">
     <g id="line2d_78">
      <g>
       <use xlink:href="#m6ac79db8d8" x="57.6" y="155.35024" style="stroke: #000000; stroke-width: 0.6"/>
      </g>
     </g>
    </g>
    <g id="ytick_52">
     <g id="line2d_79">
      <g>
       <use xlink:href="#m6ac79db8d8" x="57.6" y="151.824513" style="stroke: #000000; stroke-width: 0.6"/>
      </g>
     </g>
    </g>
    <g id="ytick_53">
     <g id="line2d_80">
      <g>
       <use xlink:href="#m6ac79db8d8" x="57.6" y="149.089747" style="stroke: #000000; stroke-width: 0.6"/>
      </g>
     </g>
    </g>
    <g id="ytick_54">
     <g id="line2d_81">
      <g>
       <use xlink:href="#m6ac79db8d8" x="57.6" y="146.85528" style="stroke: #000000; stroke-width: 0.6"/>
      </g>
     </g>
    </g>
    <g id="ytick_55">
     <g id="line2d_82">
      <g>
       <use xlink:href="#m6ac79db8d8" x="57.6" y="144.966066" style="stroke: #000000; stroke-width: 0.6"/>
      </g>
     </g>
    </g>
    <g id="ytick_56">
     <g id="line2d_83">
      <g>
       <use xlink:href="#m6ac79db8d8" x="57.6" y="143.329554" style="stroke: #000000; stroke-width: 0.6"/>
      </g>
     </g>
    </g>
    <g id="ytick_57">
     <g id="line2d_84">
      <g>
       <use xlink:href="#m6ac79db8d8" x="57.6" y="141.886048" style="stroke: #000000; stroke-width: 0.6"/>
      </g>
     </g>
    </g>
    <g id="ytick_58">
     <g id="line2d_85">
      <g>
       <use xlink:href="#m6ac79db8d8" x="57.6" y="132.099828" style="stroke: #000000; stroke-width: 0.6"/>
      </g>
     </g>
    </g>
    <g id="ytick_59">
     <g id="line2d_86">
      <g>
       <use xlink:href="#m6ac79db8d8" x="57.6" y="127.130595" style="stroke: #000000; stroke-width: 0.6"/>
      </g>
     </g>
    </g>
    <g id="ytick_60">
     <g id="line2d_87">
      <g>
       <use xlink:href="#m6ac79db8d8" x="57.6" y="123.604869" style="stroke: #000000; stroke-width: 0.6"/>
      </g>
     </g>
    </g>
    <g id="ytick_61">
     <g id="line2d_88">
      <g>
       <use xlink:href="#m6ac79db8d8" x="57.6" y="120.870103" style="stroke: #000000; stroke-width: 0.6"/>
      </g>
     </g>
    </g>
    <g id="ytick_62">
     <g id="line2d_89">
      <g>
       <use xlink:href="#m6ac79db8d8" x="57.6" y="118.635636" style="stroke: #000000; stroke-width: 0.6"/>
      </g>
     </g>
    </g>
    <g id="ytick_63">
     <g id="line2d_90">
      <g>
       <use xlink:href="#m6ac79db8d8" x="57.6" y="116.746421" style="stroke: #000000; stroke-width: 0.6"/>
      </g>
     </g>
    </g>
    <g id="ytick_64">
     <g id="line2d_91">
      <g>
       <use xlink:href="#m6ac79db8d8" x="57.6" y="115.109909" style="stroke: #000000; stroke-width: 0.6"/>
      </g>
     </g>
    </g>
    <g id="ytick_65">
     <g id="line2d_92">
      <g>
       <use xlink:href="#m6ac79db8d8" x="57.6" y="113.666403" style="stroke: #000000; stroke-width: 0.6"/>
      </g>
     </g>
    </g>
    <g id="ytick_66">
     <g id="line2d_93">
      <g>
       <use xlink:href="#m6ac79db8d8" x="57.6" y="103.880184" style="stroke: #000000; stroke-width: 0.6"/>
      </g>
     </g>
    </g>
    <g id="ytick_67">
     <g id="line2d_94">
      <g>
       <use xlink:href="#m6ac79db8d8" x="57.6" y="98.910951" style="stroke: #000000; stroke-width: 0.6"/>
      </g>
     </g>
    </g>
    <g id="ytick_68">
     <g id="line2d_95">
      <g>
       <use xlink:href="#m6ac79db8d8" x="57.6" y="95.385224" style="stroke: #000000; stroke-width: 0.6"/>
      </g>
     </g>
    </g>
    <g id="ytick_69">
     <g id="line2d_96">
      <g>
       <use xlink:href="#m6ac79db8d8" x="57.6" y="92.650458" style="stroke: #000000; stroke-width: 0.6"/>
      </g>
     </g>
    </g>
    <g id="ytick_70">
     <g id="line2d_97">
      <g>
       <use xlink:href="#m6ac79db8d8" x="57.6" y="90.415991" style="stroke: #000000; stroke-width: 0.6"/>
      </g>
     </g>
    </g>
    <g id="ytick_71">
     <g id="line2d_98">
      <g>
       <use xlink:href="#m6ac79db8d8" x="57.6" y="88.526777" style="stroke: #000000; stroke-width: 0.6"/>
      </g>
     </g>
    </g>
    <g id="ytick_72">
     <g id="line2d_99">
      <g>
       <use xlink:href="#m6ac79db8d8" x="57.6" y="86.890265" style="stroke: #000000; stroke-width: 0.6"/>
      </g>
     </g>
    </g>
    <g id="ytick_73">
     <g id="line2d_100">
      <g>
       <use xlink:href="#m6ac79db8d8" x="57.6" y="85.446759" style="stroke: #000000; stroke-width: 0.6"/>
      </g>
     </g>
    </g>
    <g id="ytick_74">
     <g id="line2d_101">
      <g>
       <use xlink:href="#m6ac79db8d8" x="57.6" y="75.660539" style="stroke: #000000; stroke-width: 0.6"/>
      </g>
     </g>
    </g>
    <g id="ytick_75">
     <g id="line2d_102">
      <g>
       <use xlink:href="#m6ac79db8d8" x="57.6" y="70.691306" style="stroke: #000000; stroke-width: 0.6"/>
      </g>
     </g>
    </g>
    <g id="ytick_76">
     <g id="line2d_103">
      <g>
       <use xlink:href="#m6ac79db8d8" x="57.6" y="67.16558" style="stroke: #000000; stroke-width: 0.6"/>
      </g>
     </g>
    </g>
    <g id="ytick_77">
     <g id="line2d_104">
      <g>
       <use xlink:href="#m6ac79db8d8" x="57.6" y="64.430813" style="stroke: #000000; stroke-width: 0.6"/>
      </g>
     </g>
    </g>
    <g id="ytick_78">
     <g id="line2d_105">
      <g>
       <use xlink:href="#m6ac79db8d8" x="57.6" y="62.196347" style="stroke: #000000; stroke-width: 0.6"/>
      </g>
     </g>
    </g>
    <g id="ytick_79">
     <g id="line2d_106">
      <g>
       <use xlink:href="#m6ac79db8d8" x="57.6" y="60.307132" style="stroke: #000000; stroke-width: 0.6"/>
      </g>
     </g>
    </g>
    <g id="ytick_80">
     <g id="line2d_107">
      <g>
       <use xlink:href="#m6ac79db8d8" x="57.6" y="58.67062" style="stroke: #000000; stroke-width: 0.6"/>
      </g>
     </g>
    </g>
    <g id="ytick_81">
     <g id="line2d_108">
      <g>
       <use xlink:href="#m6ac79db8d8" x="57.6" y="57.227114" style="stroke: #000000; stroke-width: 0.6"/>
      </g>
     </g>
    </g>
    <g id="ytick_82">
     <g id="line2d_109">
      <g>
       <use xlink:href="#m6ac79db8d8" x="57.6" y="47.440894" style="stroke: #000000; stroke-width: 0.6"/>
      </g>
     </g>
    </g>
    <g id="ytick_83">
     <g id="line2d_110">
      <g>
       <use xlink:href="#m6ac79db8d8" x="57.6" y="42.471662" style="stroke: #000000; stroke-width: 0.6"/>
      </g>
     </g>
    </g>
    <g id="text_20">
     <!-- Residual -->
     <g transform="translate(21.020312 195.643625) rotate(-90) scale(0.1 -0.1)">
      <defs>
       <path id="DejaVuSans-52" d="M 2841 2188 
Q 3044 2119 3236 1894 
Q 3428 1669 3622 1275 
L 4263 0 
L 3584 0 
L 2988 1197 
Q 2756 1666 2539 1819 
Q 2322 1972 1947 1972 
L 1259 1972 
L 1259 0 
L 628 0 
L 628 4666 
L 2053 4666 
Q 2853 4666 3247 4331 
Q 3641 3997 3641 3322 
Q 3641 2881 3436 2590 
Q 3231 2300 2841 2188 
z
M 1259 4147 
L 1259 2491 
L 2053 2491 
Q 2509 2491 2742 2702 
Q 2975 2913 2975 3322 
Q 2975 3731 2742 3939 
Q 2509 4147 2053 4147 
L 1259 4147 
z
" transform="scale(0.015625)"/>
       <path id="DejaVuSans-73" d="M 2834 3397 
L 2834 2853 
Q 2591 2978 2328 3040 
Q 2066 3103 1784 3103 
Q 1356 3103 1142 2972 
Q 928 2841 928 2578 
Q 928 2378 1081 2264 
Q 1234 2150 1697 2047 
L 1894 2003 
Q 2506 1872 2764 1633 
Q 3022 1394 3022 966 
Q 3022 478 2636 193 
Q 2250 -91 1575 -91 
Q 1294 -91 989 -36 
Q 684 19 347 128 
L 347 722 
Q 666 556 975 473 
Q 1284 391 1588 391 
Q 1994 391 2212 530 
Q 2431 669 2431 922 
Q 2431 1156 2273 1281 
Q 2116 1406 1581 1522 
L 1381 1569 
Q 847 1681 609 1914 
Q 372 2147 372 2553 
Q 372 3047 722 3315 
Q 1072 3584 1716 3584 
Q 2034 3584 2315 3537 
Q 2597 3491 2834 3397 
z
" transform="scale(0.015625)"/>
       <path id="DejaVuSans-64" d="M 2906 2969 
L 2906 4863 
L 3481 4863 
L 3481 0 
L 2906 0 
L 2906 525 
Q 2725 213 2448 61 
Q 2172 -91 1784 -91 
Q 1150 -91 751 415 
Q 353 922 353 1747 
Q 353 2572 751 3078 
Q 1150 3584 1784 3584 
Q 2172 3584 2448 3432 
Q 2725 3281 2906 2969 
z
M 947 1747 
Q 947 1113 1208 752 
Q 1469 391 1925 391 
Q 2381 391 2643 752 
Q 2906 1113 2906 1747 
Q 2906 2381 2643 2742 
Q 2381 3103 1925 3103 
Q 1469 3103 1208 2742 
Q 947 2381 947 1747 
z
" transform="scale(0.015625)"/>
       <path id="DejaVuSans-75" d="M 544 1381 
L 544 3500 
L 1119 3500 
L 1119 1403 
Q 1119 906 1312 657 
Q 1506 409 1894 409 
Q 2359 409 2629 706 
Q 2900 1003 2900 1516 
L 2900 3500 
L 3475 3500 
L 3475 0 
L 2900 0 
L 2900 538 
Q 2691 219 2414 64 
Q 2138 -91 1772 -91 
Q 1169 -91 856 284 
Q 544 659 544 1381 
z
M 1991 3584 
L 1991 3584 
z
" transform="scale(0.015625)"/>
       <path id="DejaVuSans-6c" d="M 603 4863 
L 1178 4863 
L 1178 0 
L 603 0 
L 603 4863 
z
" transform="scale(0.015625)"/>
      </defs>
      <use xlink:href="#DejaVuSans-52"/>
      <use xlink:href="#DejaVuSans-65" transform="translate(64.982422 0)"/>
      <use xlink:href="#DejaVuSans-73" transform="translate(126.505859 0)"/>
      <use xlink:href="#DejaVuSans-69" transform="translate(178.605469 0)"/>
      <use xlink:href="#DejaVuSans-64" transform="translate(206.388672 0)"/>
      <use xlink:href="#DejaVuSans-75" transform="translate(269.865234 0)"/>
      <use xlink:href="#DejaVuSans-61" transform="translate(333.244141 0)"/>
      <use xlink:href="#DejaVuSans-6c" transform="translate(394.523438 0)"/>
     </g>
    </g>
   </g>
   <g id="line2d_111">
    <path d="M 73.832727 53.568 
L 74.157544 64.626144 
L 74.319953 60.422326 
L 74.64477 71.625392 
L 74.807178 69.088283 
L 75.131995 76.187739 
L 75.294404 74.268041 
L 75.456812 77.726335 
L 76.106446 81.287063 
L 76.268854 81.565928 
L 76.593671 82.421411 
L 76.75608 83.646835 
L 77.080897 83.92142 
L 77.243305 84.614783 
L 77.568122 84.980037 
L 77.730531 85.873883 
L 78.055348 86.105745 
L 78.217756 86.80193 
L 78.542573 87.06343 
L 78.704982 87.794684 
L 79.029799 88.008722 
L 79.192207 88.661382 
L 79.517024 88.882786 
L 79.679432 89.526887 
L 80.004249 89.731328 
L 80.166658 90.341254 
L 80.491475 90.543839 
L 80.653883 91.140572 
L 80.9787 91.335792 
L 81.141109 91.915051 
L 81.465926 92.107453 
L 81.628334 92.676507 
L 81.953151 92.865163 
L 82.11556 93.424368 
L 82.440377 93.610854 
L 82.602785 94.163242 
L 82.927602 94.347626 
L 83.09001 94.89419 
L 83.414827 95.07713 
L 83.577236 95.61937 
L 83.902053 95.801071 
L 84.064461 96.339798 
L 84.389278 96.520584 
L 84.551687 97.056625 
L 84.876504 97.236668 
L 85.038912 97.770572 
L 85.363729 97.950046 
L 85.526138 98.482296 
L 85.850955 98.661319 
L 86.013363 99.192265 
L 86.33818 99.370939 
L 86.500588 99.900873 
L 86.825405 100.07927 
L 86.987814 100.608409 
L 87.312631 100.786593 
L 87.475039 101.315113 
L 87.799856 101.493129 
L 87.962265 102.021162 
L 88.287082 102.199047 
L 88.44949 102.726704 
L 88.774307 102.904485 
L 88.936716 103.431843 
L 89.261533 103.609546 
L 89.423941 104.136674 
L 89.748758 104.314314 
L 89.911166 104.841261 
L 90.235983 105.018851 
L 90.398392 105.545657 
L 90.723209 105.723207 
L 90.885617 106.249907 
L 91.210434 106.427429 
L 91.372843 106.954035 
L 91.69766 107.131536 
L 91.860068 107.658078 
L 92.184885 107.835559 
L 92.347294 108.36205 
L 92.672111 108.539516 
L 92.834519 109.065966 
L 93.159336 109.243422 
L 93.321745 109.769837 
L 93.646561 109.947284 
L 93.80897 110.473677 
L 94.133787 110.651117 
L 94.296195 111.17749 
L 94.621012 111.354924 
L 94.783421 111.881279 
L 95.108238 112.058712 
L 95.270646 112.585055 
L 95.595463 112.762483 
L 95.757872 113.288819 
L 96.082689 113.466244 
L 96.245097 113.992572 
L 96.569914 114.169996 
L 96.732323 114.696317 
L 97.057139 114.873739 
L 97.219548 115.400054 
L 97.544365 115.577476 
L 97.706773 116.103793 
L 98.03159 116.281212 
L 98.193999 116.807521 
L 98.518816 116.984942 
L 98.681224 117.51125 
L 99.006041 117.688669 
L 99.16845 118.214974 
L 99.493267 118.392395 
L 99.655675 118.918703 
L 99.980492 119.09612 
L 100.142901 119.622426 
L 100.467717 119.799842 
L 100.630126 120.326147 
L 100.954943 120.503566 
L 101.117351 121.029868 
L 101.442168 121.207284 
L 101.604577 121.733588 
L 101.929394 121.911001 
L 102.091802 122.437307 
L 102.416619 122.614727 
L 102.579028 123.14103 
L 102.903845 123.318445 
L 103.066253 123.844748 
L 103.39107 124.022163 
L 103.553479 124.548467 
L 103.878296 124.725885 
L 104.040704 125.252187 
L 104.365521 125.429603 
L 104.527929 125.955903 
L 104.852746 126.133321 
L 105.015155 126.65962 
L 105.339972 126.837038 
L 105.50238 127.363347 
L 105.827197 127.54076 
L 105.989606 128.067058 
L 106.314423 128.244475 
L 106.476831 128.770781 
L 106.801648 128.948195 
L 106.964057 129.474492 
L 107.288874 129.651914 
L 107.451282 130.178213 
L 107.776099 130.355628 
L 107.938507 130.881937 
L 108.263324 131.059351 
L 108.425733 131.585648 
L 108.75055 131.76307 
L 108.912958 132.289375 
L 109.237775 132.466788 
L 109.400184 132.993096 
L 109.725001 133.170509 
L 109.887409 133.696814 
L 110.212226 133.874227 
L 110.374635 134.400521 
L 110.699452 134.577943 
L 110.86186 135.10424 
L 111.186677 135.281661 
L 111.349085 135.807967 
L 111.673902 135.985384 
L 111.836311 136.511675 
L 112.161128 136.689094 
L 112.323536 137.215404 
L 112.648353 137.392821 
L 112.810762 137.919108 
L 113.135579 138.096531 
L 113.297987 138.622849 
L 113.622804 138.800256 
L 113.785213 139.326537 
L 114.11003 139.503967 
L 114.272438 140.030272 
L 114.597255 140.207691 
L 114.759663 140.733981 
L 115.08448 140.911397 
L 115.246889 141.437706 
L 115.571706 141.615126 
L 115.734114 142.141413 
L 116.058931 142.318831 
L 116.22134 142.845149 
L 116.546157 143.022575 
L 116.708565 143.548855 
L 117.033382 143.726279 
L 117.195791 144.252588 
L 117.520608 144.429991 
L 117.683016 144.956297 
L 118.007833 145.133716 
L 118.170241 145.660001 
L 118.495058 145.837421 
L 118.657467 146.363735 
L 118.982284 146.541152 
L 119.144692 147.067443 
L 119.469509 147.244859 
L 119.631918 147.771186 
L 119.956735 147.948606 
L 120.119143 148.474874 
L 120.44396 148.652302 
L 120.606369 149.178587 
L 120.931186 149.356024 
L 121.093594 149.882309 
L 121.418411 150.05973 
L 121.58082 150.586044 
L 121.905636 150.763464 
L 122.068045 151.289767 
L 122.392862 151.467196 
L 122.55527 151.993481 
L 122.880087 152.170905 
L 123.042496 152.697189 
L 123.367313 152.87461 
L 123.529721 153.40092 
L 123.854538 153.578356 
L 124.016947 154.104672 
L 124.341764 154.282039 
L 124.504172 154.808417 
L 124.828989 154.985793 
L 124.991398 155.512031 
L 125.316214 155.689477 
L 125.478623 156.215779 
L 125.80344 156.393195 
L 125.965848 156.919519 
L 126.290665 157.096933 
L 126.453074 157.623204 
L 126.777891 157.800625 
L 126.940299 158.327 
L 127.265116 158.50436 
L 127.427525 159.030671 
L 127.752342 159.208102 
L 127.91475 159.734414 
L 128.239567 159.911808 
L 128.401976 160.438129 
L 128.726792 160.615528 
L 128.889201 161.141851 
L 129.214018 161.31926 
L 129.376426 161.845527 
L 129.701243 162.022961 
L 129.863652 162.549251 
L 130.188469 162.726669 
L 130.350877 163.252967 
L 130.675694 163.43039 
L 130.838103 163.956697 
L 131.16292 164.134087 
L 131.325328 164.660359 
L 131.650145 164.837779 
L 131.812554 165.364188 
L 132.137371 165.541611 
L 132.299779 166.067855 
L 132.624596 166.245358 
L 132.787004 166.771573 
L 133.111821 166.949009 
L 133.27423 167.475285 
L 133.599047 167.652718 
L 133.761455 168.179234 
L 134.086272 168.356472 
L 134.248681 168.88262 
L 134.573498 169.060073 
L 134.735906 169.58662 
L 135.060723 169.763965 
L 135.223132 170.289995 
L 135.547949 170.467537 
L 135.710357 170.994129 
L 136.035174 171.171398 
L 136.197582 171.697473 
L 136.522399 171.874956 
L 136.684808 172.40134 
L 137.009625 172.578878 
L 137.172033 173.104814 
L 137.49685 173.282447 
L 137.659259 173.808843 
L 137.984076 173.98622 
L 138.146484 174.512326 
L 138.471301 174.689866 
L 138.63371 175.216288 
L 138.958527 175.393617 
L 139.120935 175.919966 
L 139.445752 176.097319 
L 139.60816 176.623729 
L 139.932977 176.801162 
L 140.095386 177.32742 
L 140.420203 177.504834 
L 140.582611 178.031437 
L 140.907428 178.208608 
L 141.069837 178.734961 
L 141.394654 178.912074 
L 141.557062 179.438869 
L 141.881879 179.616075 
L 142.044288 180.142301 
L 142.369105 180.319812 
L 142.531513 180.845974 
L 142.85633 181.023155 
L 143.018738 181.549827 
L 143.343555 181.727145 
L 143.505964 182.253978 
L 143.830781 182.431103 
L 143.993189 182.956941 
L 144.318006 183.134333 
L 144.480415 183.660917 
L 144.805232 183.838321 
L 144.96764 184.364553 
L 145.292457 184.541956 
L 145.454866 185.068093 
L 145.779683 185.245346 
L 145.942091 185.772228 
L 146.266908 185.949478 
L 146.429316 186.475399 
L 146.754133 186.652772 
L 146.916542 187.178883 
L 147.241359 187.356598 
L 147.403767 187.883636 
L 147.728584 188.060678 
L 147.890993 188.586721 
L 148.21581 188.76434 
L 148.378218 189.291114 
L 148.703035 189.467625 
L 148.865444 189.994891 
L 149.190261 190.172082 
L 149.352669 190.697684 
L 149.677486 190.875492 
L 149.839894 191.401609 
L 150.164711 191.579191 
L 150.32712 192.104495 
L 150.651937 192.281978 
L 150.814345 192.808909 
L 151.139162 192.986295 
L 151.301571 193.513773 
L 151.626388 193.690667 
L 151.788796 194.215763 
L 152.113613 194.394028 
L 152.276022 194.921026 
L 152.600839 195.098493 
L 152.763247 195.623292 
L 153.088064 195.800871 
L 153.250473 196.329704 
L 153.575289 196.506473 
L 153.737698 197.030727 
L 154.062515 197.209183 
L 154.224923 197.736316 
L 154.54974 197.913176 
L 154.712149 198.439175 
L 155.036966 198.616977 
L 155.199374 199.142749 
L 155.524191 199.320225 
L 155.6866 199.846572 
L 156.011417 200.023439 
L 156.173825 200.550838 
L 156.498642 200.729212 
L 156.661051 201.253175 
L 156.985867 201.430848 
L 157.148276 201.955828 
L 157.473093 202.13491 
L 157.635501 202.66025 
L 157.960318 202.838653 
L 158.122727 203.365192 
L 158.447544 203.541432 
L 158.609952 204.066739 
L 158.934769 204.244562 
L 159.097178 204.771965 
L 159.421995 204.948932 
L 159.584403 205.475962 
L 159.90922 205.652827 
L 160.071629 206.181573 
L 160.396445 206.356918 
L 160.558854 206.887077 
L 160.883671 207.061977 
L 161.046079 207.583242 
L 161.370896 207.763515 
L 161.533305 208.291732 
L 161.858122 208.46862 
L 162.02053 208.994525 
L 162.345347 209.17116 
L 162.507756 209.696024 
L 162.832573 209.873883 
L 162.994981 210.39759 
L 163.319798 210.578615 
L 163.482207 211.104709 
L 163.807024 211.285408 
L 163.969432 211.804701 
L 164.294249 211.98372 
L 164.456657 212.509891 
L 164.781474 212.689177 
L 164.943883 213.212421 
L 165.2687 213.396645 
L 165.431108 213.914538 
L 165.755925 214.09667 
L 165.918334 214.62961 
L 166.243151 214.80379 
L 166.405559 215.331717 
L 166.730376 215.509981 
L 166.892785 216.026538 
L 167.217602 216.210198 
L 167.38001 216.73064 
L 167.704827 216.916686 
L 167.867235 217.435693 
L 168.192052 217.619927 
L 168.354461 218.140007 
L 168.679278 218.318914 
L 168.841686 218.839057 
L 169.166503 219.023924 
L 169.328912 219.54428 
L 169.653729 219.722184 
L 169.816137 220.233291 
L 170.140954 220.422591 
L 170.303363 220.950747 
L 170.62818 221.134607 
L 170.790588 221.648399 
L 171.115405 221.839329 
L 171.277813 222.357582 
L 171.60263 222.548492 
L 171.765039 223.069736 
L 172.089856 223.250808 
L 172.252264 223.748543 
L 172.577081 223.952402 
L 172.73949 224.445322 
L 173.064307 224.654839 
L 173.226715 225.15205 
L 173.551532 225.36699 
L 173.713941 225.867583 
L 174.038758 226.05569 
L 174.363575 226.67381 
L 174.525983 226.760121 
L 174.8508 227.357885 
L 175.013208 227.45288 
L 175.175617 227.934883 
L 175.500434 228.166944 
L 175.825251 228.765676 
L 175.987659 228.873127 
L 176.150068 229.348825 
L 176.474885 229.574564 
L 176.637293 230.053904 
L 176.96211 230.276853 
L 177.124519 230.769096 
L 177.449336 230.971169 
L 177.611744 231.450413 
L 177.936561 231.681468 
L 178.261378 232.306041 
L 178.423786 232.397646 
L 178.748603 232.992288 
L 178.911012 233.098203 
L 179.235829 233.693967 
L 179.398237 233.808474 
L 179.723054 234.346463 
L 179.885463 234.466854 
L 180.21028 235.112972 
L 180.372688 235.204957 
L 180.697505 235.79335 
L 180.859914 235.88585 
L 181.184731 236.497734 
L 181.347139 236.601379 
L 182.159181 237.921024 
L 182.483998 238.12005 
L 182.646407 238.60709 
L 182.808815 238.696948 
L 183.458449 239.749954 
L 187.193844 245.018334 
L 187.356253 244.979355 
L 187.518661 245.568159 
L 187.843478 245.764294 
L 188.168295 246.431573 
L 188.330704 246.476084 
L 188.493112 247.023014 
L 188.65552 247.122931 
L 188.817929 247.019778 
L 188.980337 247.674307 
L 189.305154 247.926049 
L 189.467563 248.423681 
L 189.629971 248.508644 
L 189.79238 248.292078 
L 189.954788 249.007704 
L 190.117197 249.21199 
L 190.279605 248.718402 
L 190.442014 249.654167 
L 190.604422 249.835527 
L 190.766831 249.433901 
L 190.929239 250.366772 
L 191.091648 250.579799 
L 191.254056 250.131124 
L 191.416465 251.006494 
L 191.578873 251.264098 
L 191.741282 250.77542 
L 192.066099 252.034979 
L 192.228507 251.474607 
L 192.390915 252.470455 
L 192.553324 252.628646 
L 192.715732 252.354631 
L 192.878141 253.154345 
L 193.040549 253.313471 
L 193.202958 252.36007 
L 193.365366 253.708853 
L 193.527775 253.997801 
L 193.690183 253.127881 
L 193.852592 254.396848 
L 194.015 254.690862 
L 194.177409 254.128731 
L 194.339817 255.152344 
L 194.502226 255.331527 
L 194.664634 254.655183 
L 194.827043 255.719565 
L 194.989451 255.996396 
L 195.15186 255.667237 
L 195.476677 256.679377 
L 195.639085 255.576716 
L 195.801493 257.1579 
L 195.963902 257.436324 
L 196.12631 255.627891 
L 196.288719 257.368002 
L 196.451127 257.883524 
L 196.613536 256.5471 
L 196.775944 258.467295 
L 196.938353 258.822113 
L 197.100761 258.135305 
L 197.425578 259.332662 
L 197.587987 257.806096 
L 197.750395 259.609034 
L 197.912804 260.127147 
L 198.075212 258.383812 
L 198.237621 260.440979 
L 198.400029 260.696439 
L 198.562438 258.515995 
L 198.724846 260.94297 
L 198.887255 261.433936 
L 199.049663 259.021426 
L 199.212071 261.701689 
L 199.37448 262.225143 
L 199.536888 260.536234 
L 199.699297 262.388298 
L 199.861705 262.636873 
L 200.024114 260.175754 
L 200.186522 262.923028 
L 200.348931 263.468573 
L 200.511339 261.489013 
L 200.673748 263.45328 
L 200.836156 263.989101 
L 200.998565 261.253419 
L 201.160973 264.127096 
L 201.323382 264.683269 
L 201.48579 262.0881 
L 201.648199 264.852165 
L 201.810607 265.247316 
L 201.973016 263.266204 
L 202.135424 265.934207 
L 202.297833 265.922306 
L 202.460241 263.590443 
L 202.62265 266.66611 
L 202.785058 266.931234 
L 202.947466 263.47881 
L 203.109875 266.592308 
L 203.272283 267.266407 
L 203.434692 263.749199 
L 203.5971 267.432988 
L 203.759509 267.861311 
L 203.921917 263.407638 
L 204.084326 267.366956 
L 204.246734 268.583591 
L 204.409143 265.616353 
L 204.571551 268.941305 
L 204.73396 269.322123 
L 204.896368 264.741754 
L 205.058777 268.821984 
L 205.221185 269.722515 
L 205.383594 266.364129 
L 205.546002 270.054939 
L 205.708411 270.582215 
L 205.870819 266.285124 
L 206.033228 270.918508 
L 206.195636 271.487951 
L 206.358044 267.303421 
L 206.520453 271.587359 
L 206.682861 271.786174 
L 206.84527 268.872745 
L 207.007678 272.039859 
L 207.170087 272.362196 
L 207.332495 267.669117 
L 207.494904 272.355809 
L 207.657312 273.289052 
L 207.819721 268.825315 
L 207.982129 272.775516 
L 208.144538 273.718441 
L 208.306946 268.78731 
L 208.469355 273.61605 
L 208.631763 274.532785 
L 208.794172 270.062055 
L 208.95658 273.919479 
L 209.118989 274.866805 
L 209.281397 269.24563 
L 209.443806 274.692271 
L 209.606214 275.050416 
L 209.768622 269.447566 
L 209.931031 274.196596 
L 210.093439 275.211748 
L 210.255848 267.838551 
L 210.418256 273.990334 
L 210.580665 275.202123 
L 210.743073 270.425076 
L 210.905482 274.774838 
L 211.06789 275.773205 
L 211.230299 270.117483 
L 211.392707 276.086827 
L 211.555116 276.834013 
L 211.717524 270.086979 
L 211.879933 276.702732 
L 212.042341 277.531619 
L 212.20475 271.171541 
L 212.367158 276.970438 
L 212.529567 278.461384 
L 212.691975 271.596627 
L 212.854384 277.057527 
L 213.016792 278.268281 
L 213.179201 270.77778 
L 213.341609 276.714918 
L 213.504017 278.178731 
L 213.666426 270.65988 
L 213.828834 277.781565 
L 213.991243 279.531609 
L 214.153651 271.726162 
L 214.31606 278.842827 
L 214.478468 280.652035 
L 214.640877 272.992698 
L 214.803285 279.464037 
L 214.965694 281.456264 
L 215.128102 273.091478 
L 215.452919 282.071882 
L 215.615328 273.732562 
L 215.777736 280.563887 
L 215.940145 281.25471 
L 216.102553 271.607885 
L 216.42737 281.265431 
L 216.589779 271.881988 
L 216.752187 280.194377 
L 216.914595 281.511254 
L 217.077004 272.177468 
L 217.401821 284.1837 
L 217.564229 273.595506 
L 217.726638 282.791775 
L 217.889046 282.743213 
L 218.051455 273.845779 
L 218.213863 281.394978 
L 218.376272 283.634408 
L 218.53868 274.949186 
L 218.701089 282.184643 
L 218.863497 283.810483 
L 219.025906 274.30236 
L 219.350723 284.965084 
L 219.513131 273.020433 
L 219.837948 283.734875 
L 220.000357 271.810171 
L 220.162765 281.759435 
L 220.325173 284.208962 
L 220.487582 273.671294 
L 220.812399 285.835301 
L 220.974807 276.050844 
L 221.299624 286.978181 
L 221.462033 275.579167 
L 221.624441 284.101244 
L 221.78685 286.744019 
L 221.949258 275.527068 
L 222.274075 287.15916 
L 222.436484 276.644509 
L 222.761301 286.922556 
L 222.923709 275.146246 
L 223.248526 287.166428 
L 223.410935 276.033681 
L 223.735752 288.168534 
L 223.89816 277.29659 
L 224.060568 285.266445 
L 224.222977 285.935158 
L 224.385385 274.318558 
L 224.547794 284.818108 
L 224.710202 286.790618 
L 224.872611 274.872666 
L 225.035019 284.166289 
L 225.197428 286.45648 
L 225.359836 279.54153 
L 225.522245 287.346539 
L 225.684653 288.263461 
L 225.847062 277.245787 
L 226.00947 286.949295 
L 226.171879 289.280669 
L 226.334287 274.030161 
L 226.659104 289.458454 
L 226.821513 277.12964 
L 227.14633 289.304556 
L 227.308738 276.451002 
L 227.471146 287.739817 
L 227.633555 289.320474 
L 227.795963 276.103008 
L 228.12078 288.996321 
L 228.283189 275.952068 
L 228.445597 286.626135 
L 228.608006 289.183465 
L 228.770414 277.388187 
L 228.932823 288.974297 
L 229.095231 288.99725 
L 229.25764 273.053783 
L 229.420048 285.797442 
L 229.582457 289.417684 
L 229.744865 274.951095 
L 230.069682 288.555129 
L 230.232091 274.225541 
L 230.556908 290.079483 
L 230.719316 276.363451 
L 231.044133 290.06072 
L 231.206541 274.166976 
L 231.531358 288.922097 
L 231.693767 277.539226 
L 231.856175 288.310228 
L 232.018584 290.398515 
L 232.180992 276.085346 
L 232.343401 286.759148 
L 232.505809 288.493712 
L 232.668218 273.119382 
L 232.993035 290.563816 
L 233.155443 274.732115 
L 233.48026 290.240654 
L 233.642669 275.457983 
L 233.967486 289.592587 
L 234.129894 273.884011 
L 234.292303 286.187378 
L 234.454711 290.020766 
L 234.617119 274.596151 
L 234.941936 290.362595 
L 235.104345 274.523607 
L 235.429162 289.820075 
L 235.59157 274.40656 
L 235.916387 288.909048 
L 236.078796 274.304938 
L 236.403613 288.728769 
L 236.566021 273.909715 
L 236.890838 289.150516 
L 237.053247 274.177994 
L 237.378064 290.363242 
L 237.540472 274.51084 
L 237.865289 290.720249 
L 238.027697 273.120275 
L 238.190106 286.216839 
L 238.352514 289.494938 
L 238.514923 275.944057 
L 238.83974 291.610501 
L 239.002148 275.707087 
L 239.164557 287.671824 
L 239.326965 291.308222 
L 239.489374 275.010797 
L 239.814191 293.039267 
L 239.976599 276.657236 
L 240.139008 288.98791 
L 240.301416 291.889048 
L 240.463825 274.792036 
L 240.788642 292.980667 
L 240.95105 277.753219 
L 241.113459 290.027785 
L 241.275867 292.179469 
L 241.438276 275.873699 
L 241.763092 294.765092 
L 241.925501 278.405595 
L 242.087909 289.557353 
L 242.250318 291.716573 
L 242.412726 275.206461 
L 242.737543 293.247169 
L 242.899952 273.897445 
L 243.224769 291.718311 
L 243.387177 275.680623 
L 243.711994 294.122376 
L 243.874403 278.249128 
L 244.036811 291.933027 
L 244.19922 292.803247 
L 244.361628 275.754428 
L 244.686445 293.834585 
L 244.848854 275.076308 
L 245.011262 288.446324 
L 245.17367 291.986848 
L 245.336079 276.046502 
L 245.498487 288.407471 
L 245.660896 292.112651 
L 245.823304 274.915334 
L 246.148121 291.138582 
L 246.31053 274.77716 
L 246.472938 287.896378 
L 246.635347 291.082257 
L 246.797755 275.030636 
L 247.122572 292.746833 
L 247.284981 275.481233 
L 247.609798 295.33766 
L 247.772206 276.370852 
L 248.097023 293.778237 
L 248.259432 275.522975 
L 248.42184 287.452259 
L 248.584248 290.152614 
L 248.746657 274.664777 
L 249.071474 291.288349 
L 249.233882 275.522958 
L 249.558699 291.894179 
L 249.721108 273.998151 
L 250.045925 290.835024 
L 250.208333 274.178431 
L 250.370742 287.467492 
L 250.53315 291.027597 
L 250.695559 273.229526 
L 251.020376 289.901923 
L 251.182784 273.673057 
L 251.345193 286.431142 
L 251.507601 290.426998 
L 251.67001 276.582121 
L 251.832418 289.887881 
L 251.994827 292.929674 
L 252.157235 276.505115 
L 252.482052 293.063265 
L 252.64446 277.194872 
L 252.969277 291.39406 
L 253.131686 274.640278 
L 253.456503 290.769699 
L 253.618911 274.972224 
L 253.943728 290.998532 
L 254.106137 276.066082 
L 254.430954 291.287394 
L 254.593362 274.785634 
L 254.918179 290.049862 
L 255.080588 273.586946 
L 255.405405 289.841432 
L 255.567813 275.887153 
L 255.730221 288.51801 
L 255.89263 291.314869 
L 256.055038 273.987484 
L 256.379855 290.609773 
L 256.542264 276.272569 
L 256.867081 290.968522 
L 257.029489 273.984424 
L 257.354306 289.987726 
L 257.516715 276.994181 
L 257.679123 287.719101 
L 257.841532 290.660894 
L 258.00394 272.528281 
L 258.328757 293.03975 
L 258.491166 275.942597 
L 258.815983 291.800774 
L 258.978391 274.54479 
L 259.303208 293.755473 
L 259.465616 275.953579 
L 259.628025 288.22255 
L 259.790433 291.928615 
L 259.952842 274.598526 
L 260.11525 288.950765 
L 260.277659 292.258238 
L 260.440067 277.656126 
L 260.602476 290.374668 
L 260.764884 291.525649 
L 260.927293 275.396192 
L 261.089701 286.959283 
L 261.25211 289.595589 
L 261.414518 276.193502 
L 261.576927 290.722102 
L 261.739335 293.605743 
L 261.901744 276.413403 
L 262.226561 292.136814 
L 262.388969 276.531584 
L 262.713786 292.375508 
L 262.876194 276.119025 
L 263.201011 290.976589 
L 263.36342 274.633253 
L 263.525828 288.485247 
L 263.688237 290.437523 
L 263.850645 273.69376 
L 264.013054 287.942027 
L 264.175462 290.826775 
L 264.337871 275.155905 
L 264.500279 286.460304 
L 264.662688 289.365141 
L 264.825096 274.352281 
L 265.149913 292.624929 
L 265.312322 277.009737 
L 265.47473 288.611829 
L 265.637139 290.512275 
L 265.799547 276.374214 
L 266.124364 291.623283 
L 266.286772 274.371387 
L 266.611589 291.696863 
L 266.773998 276.244478 
L 267.098815 291.765152 
L 267.261223 275.406949 
L 267.423632 287.084177 
L 267.58604 290.539428 
L 267.748449 274.847773 
L 268.073266 291.706474 
L 268.235674 274.866947 
L 268.560491 292.256364 
L 268.7229 274.745408 
L 268.885308 286.181168 
L 269.047717 288.95698 
L 269.210125 272.502035 
L 269.534942 290.948632 
L 269.69735 274.164191 
L 269.859759 288.476134 
L 270.022167 292.739547 
L 270.184576 276.311189 
L 270.509393 291.211316 
L 270.671801 276.562902 
L 270.83421 288.790468 
L 270.996618 291.988945 
L 271.159027 277.604758 
L 271.321435 286.809147 
L 271.483844 288.777571 
L 271.646252 275.309195 
L 271.971069 291.846531 
L 272.133478 275.960973 
L 272.458295 292.872888 
L 272.620703 275.023476 
L 272.94552 292.438272 
L 273.107929 278.483956 
L 273.270337 290.438861 
L 273.432745 293.200146 
L 273.595154 275.454856 
L 273.757562 289.063884 
L 273.919971 291.619762 
L 274.082379 272.998865 
L 274.244788 287.810191 
L 274.407196 292.394404 
L 274.569605 275.317175 
L 274.894422 291.618013 
L 275.05683 274.46963 
L 275.219239 286.048883 
L 275.381647 289.222688 
L 275.544056 274.645827 
L 275.706464 289.864319 
L 275.868873 292.772707 
L 276.031281 276.856372 
L 276.356098 292.800285 
L 276.518507 278.437016 
L 276.843323 291.345078 
L 277.005732 279.218786 
L 277.16814 288.620498 
L 277.330549 291.012707 
L 277.492957 276.337508 
L 277.817774 292.697738 
L 277.980183 274.560071 
L 278.142591 288.186408 
L 278.305 290.877652 
L 278.467408 273.581664 
L 278.629817 288.600676 
L 278.792225 292.514287 
L 278.954634 276.24825 
L 279.279451 291.435279 
L 279.441859 275.991181 
L 279.766676 293.451386 
L 279.929085 278.177658 
L 280.253901 293.086311 
L 280.41631 278.320979 
L 280.741127 291.98528 
L 280.903535 275.733868 
L 281.065944 287.633208 
L 281.228352 290.452137 
L 281.390761 274.554315 
L 281.553169 288.187193 
L 281.715578 290.953675 
L 281.877986 273.628851 
L 282.202803 291.163644 
L 282.365212 276.110426 
L 282.690029 291.151317 
L 282.852437 274.729677 
L 283.177254 294.255236 
L 283.339663 275.574895 
L 283.66448 293.027834 
L 283.826888 277.515294 
L 284.151705 292.756856 
L 284.314113 276.674781 
L 284.63893 293.933378 
L 284.801339 273.94956 
L 284.963747 286.880582 
L 285.126156 290.481758 
L 285.288564 273.777147 
L 285.613381 292.507828 
L 285.77579 274.108518 
L 285.938198 288.172316 
L 286.100607 289.490942 
L 286.263015 274.732151 
L 286.587832 290.69095 
L 286.750241 275.395432 
L 287.075058 292.491534 
L 287.237466 274.721253 
L 287.562283 290.834337 
L 287.724691 275.566427 
L 287.8871 288.184999 
L 288.049508 291.053064 
L 288.211917 273.488065 
L 288.536734 292.562682 
L 288.699142 275.453588 
L 289.023959 292.051383 
L 289.186368 276.243649 
L 289.511185 289.239318 
L 289.673593 276.958501 
L 289.99841 291.500467 
L 290.160819 276.431498 
L 290.485636 292.949484 
L 290.648044 276.177633 
L 290.810452 289.767728 
L 290.972861 290.286132 
L 291.135269 274.026184 
L 291.460086 291.520552 
L 291.622495 275.415733 
L 291.947312 289.369324 
L 292.10972 275.519006 
L 292.272129 289.644842 
L 292.434537 292.371672 
L 292.596946 276.329383 
L 292.921763 293.546378 
L 293.084171 274.538137 
L 293.408988 293.269589 
L 293.571397 280.044843 
L 293.896214 293.711422 
L 294.058622 275.312209 
L 294.383439 291.334436 
L 294.545847 274.660976 
L 294.870664 292.308165 
L 295.033073 275.439893 
L 295.195481 287.412429 
L 295.35789 289.839485 
L 295.520298 275.833832 
L 295.682707 289.632112 
L 295.845115 292.374407 
L 296.007524 277.662876 
L 296.332341 292.311557 
L 296.494749 273.444325 
L 296.819566 290.853827 
L 296.981975 274.675739 
L 297.306792 293.802618 
L 297.4692 277.406522 
L 297.631609 287.859092 
L 297.794017 290.080008 
L 297.956425 272.879824 
L 298.281242 292.465922 
L 298.443651 275.489867 
L 298.606059 287.163478 
L 298.768468 289.997964 
L 298.930876 274.799178 
L 299.255693 293.808476 
L 299.418102 276.785618 
L 299.742919 294.003331 
L 299.905327 276.760383 
L 300.230144 290.88606 
L 300.392553 273.87951 
L 300.554961 288.427117 
L 300.71737 292.578137 
L 300.879778 273.85153 
L 301.042187 286.442116 
L 301.204595 290.158656 
L 301.367004 275.3991 
L 301.69182 290.632499 
L 301.854229 275.937803 
L 302.179046 291.432816 
L 302.341454 272.643355 
L 302.503863 287.671733 
L 302.666271 292.318895 
L 302.82868 276.396146 
L 303.153497 293.063368 
L 303.315905 277.953266 
L 303.478314 289.830383 
L 303.640722 293.005343 
L 303.803131 275.803728 
L 304.127948 292.501232 
L 304.290356 276.691365 
L 304.452765 288.850283 
L 304.615173 291.7491 
L 304.777582 276.83711 
L 305.102398 294.647948 
L 305.264807 275.285248 
L 305.589624 292.980195 
L 305.752032 277.598552 
L 306.076849 291.864823 
L 306.239258 275.908677 
L 306.401666 289.039598 
L 306.564075 293.103499 
L 306.726483 274.161241 
L 306.888892 287.06001 
L 307.0513 290.327298 
L 307.213709 274.989388 
L 307.538526 290.851763 
L 307.700934 276.603441 
L 308.025751 290.402452 
L 308.18816 274.709662 
L 308.350568 286.620812 
L 308.512976 288.390299 
L 308.675385 272.907548 
L 309.000202 289.326452 
L 309.16261 274.227072 
L 309.487427 291.439324 
L 309.649836 274.81717 
L 309.974653 291.988573 
L 310.137061 275.538038 
L 310.461878 292.939355 
L 310.624287 274.522295 
L 310.786695 287.919576 
L 310.949104 290.979033 
L 311.111512 275.396584 
L 311.436329 292.23093 
L 311.598738 274.234046 
L 311.923555 293.685043 
L 312.085963 277.908526 
L 312.41078 290.963674 
L 312.573188 278.106616 
L 312.898005 289.96667 
L 313.060414 274.415328 
L 313.385231 291.449475 
L 313.547639 274.267646 
L 313.872456 290.335397 
L 314.034865 275.224122 
L 314.359682 293.888276 
L 314.52209 277.626615 
L 314.846907 293.529752 
L 315.009316 276.599028 
L 315.334133 293.418559 
L 315.496541 274.268144 
L 315.658949 287.971983 
L 315.821358 290.583013 
L 315.983766 273.850958 
L 316.146175 288.358 
L 316.308583 292.928367 
L 316.470992 275.269325 
L 316.795809 293.790213 
L 316.958217 275.231466 
L 317.120626 287.767511 
L 317.283034 289.794303 
L 317.445443 276.412851 
L 317.77026 293.995332 
L 317.932668 275.965041 
L 318.095077 288.86998 
L 318.257485 292.7875 
L 318.419894 272.680531 
L 318.744711 290.011433 
L 318.907119 274.775849 
L 319.069527 290.405241 
L 319.231936 292.666403 
L 319.394344 275.62822 
L 319.556753 287.892651 
L 319.719161 290.954696 
L 319.88157 274.686042 
L 320.206387 290.575895 
L 320.368795 273.916156 
L 320.693612 294.275543 
L 320.856021 275.352069 
L 321.180838 290.117758 
L 321.343246 275.211123 
L 321.668063 293.06841 
L 321.830472 277.005111 
L 322.155289 290.670173 
L 322.317697 274.082416 
L 322.642514 293.875278 
L 322.804922 277.582091 
L 322.967331 290.079595 
L 323.129739 293.933047 
L 323.292148 279.182785 
L 323.454556 288.286294 
L 323.616965 290.946671 
L 323.779373 273.708273 
L 324.10419 288.64626 
L 324.266599 273.979658 
L 324.591416 291.227642 
L 324.753824 275.417463 
L 324.916233 287.783624 
L 325.078641 289.417789 
L 325.24105 274.079042 
L 325.565867 292.403631 
L 325.728275 275.636682 
L 326.053092 290.971774 
L 326.2155 274.470589 
L 326.540317 290.442291 
L 326.702726 273.209417 
L 326.865134 288.487862 
L 327.027543 292.475655 
L 327.189951 277.16034 
L 327.514768 293.630504 
L 327.677177 275.772572 
L 328.001994 291.464638 
L 328.164402 273.698464 
L 328.326811 288.231624 
L 328.489219 291.387154 
L 328.651628 276.47975 
L 328.976445 289.933769 
L 329.138853 272.076842 
L 329.46367 288.805779 
L 329.626078 274.441358 
L 329.788487 287.913303 
L 329.950895 290.160198 
L 330.113304 273.082227 
L 330.438121 290.190124 
L 330.600529 274.356459 
L 330.925346 290.739615 
L 331.087755 273.006429 
L 331.412572 290.215419 
L 331.57498 276.056228 
L 331.899797 290.982313 
L 332.062206 276.301301 
L 332.224614 288.693741 
L 332.387023 289.840853 
L 332.549431 275.980127 
L 332.874248 292.772495 
L 333.036657 278.266368 
L 333.199065 289.711318 
L 333.361473 292.765595 
L 333.523882 278.639068 
L 333.68629 289.872688 
L 333.848699 291.223304 
L 334.011107 275.615116 
L 334.173516 288.821262 
L 334.335924 291.151516 
L 334.498333 273.571945 
L 334.660741 287.995671 
L 334.82315 290.888082 
L 334.985558 275.184408 
L 335.147967 288.926585 
L 335.310375 290.71006 
L 335.472784 273.954528 
L 335.635192 288.344805 
L 335.797601 292.735222 
L 335.960009 274.525931 
L 336.284826 292.9586 
L 336.447235 275.065729 
L 336.609643 285.756769 
L 336.772051 288.717285 
L 336.93446 274.305704 
L 337.259277 290.699925 
L 337.421685 273.55917 
L 337.584094 286.604706 
L 337.746502 290.504347 
L 337.908911 274.730215 
L 338.233728 292.523065 
L 338.396136 274.993582 
L 338.558545 286.819248 
L 338.720953 288.572087 
L 338.883362 272.629031 
L 339.04577 288.129788 
L 339.208179 292.024076 
L 339.370587 273.845504 
L 339.695404 291.878639 
L 339.857813 274.863649 
L 340.020221 287.537534 
L 340.182629 291.481509 
L 340.345038 274.594752 
L 340.669855 291.53345 
L 340.832263 275.015573 
L 341.15708 290.799994 
L 341.319489 278.103978 
L 341.644306 291.064059 
L 341.806714 276.31736 
L 341.969123 289.659785 
L 342.131531 291.914731 
L 342.29394 273.596981 
L 342.618757 293.689034 
L 342.781165 274.331767 
L 343.105982 290.987094 
L 343.268391 274.275299 
L 343.430799 287.55408 
L 343.593208 288.250777 
L 343.755616 274.324591 
L 344.080433 293.656166 
L 344.242841 275.878092 
L 344.40525 288.572472 
L 344.567658 290.600681 
L 344.730067 273.738144 
L 345.054884 292.600125 
L 345.217292 277.639724 
L 345.542109 291.836883 
L 345.704518 278.270704 
L 346.029335 292.748694 
L 346.191743 275.530657 
L 346.354152 287.410158 
L 346.51656 290.991109 
L 346.678969 276.265185 
L 347.003786 292.949978 
L 347.166194 277.815255 
L 347.491011 295.488 
L 347.653419 277.209293 
L 347.815828 289.940276 
L 347.978236 290.343867 
L 348.140645 275.809753 
L 348.303053 288.302679 
L 348.465462 291.019265 
L 348.62787 277.362057 
L 348.790279 289.014597 
L 348.952687 292.262355 
L 349.115096 275.997285 
L 349.439913 291.702917 
L 349.602321 274.672247 
L 349.927138 291.545377 
L 350.089547 274.788769 
L 350.414364 292.341279 
L 350.576772 277.924819 
L 350.901589 291.651257 
L 351.063997 274.481418 
L 351.226406 288.049267 
L 351.388814 292.068202 
L 351.551223 276.233702 
L 351.713631 286.856179 
L 351.87604 290.042821 
L 352.038448 272.154944 
L 352.363265 289.428772 
L 352.525674 272.300628 
L 352.850491 289.423946 
L 353.012899 275.821053 
L 353.175308 287.357146 
L 353.337716 288.913792 
L 353.500125 274.984775 
L 353.824942 293.211873 
L 353.98735 276.85613 
L 354.312167 292.55258 
L 354.474575 276.729824 
L 354.799392 292.198571 
L 354.961801 277.437002 
L 355.286618 292.494323 
L 355.449026 275.429757 
L 355.773843 289.647673 
L 355.936252 275.876974 
L 356.261069 292.27106 
L 356.423477 275.59202 
L 356.585886 289.126988 
L 356.748294 292.57636 
L 356.910703 276.609261 
L 357.073111 289.941285 
L 357.23552 292.599795 
L 357.397928 276.774591 
L 357.560337 290.853485 
L 357.722745 293.092976 
L 357.885153 275.961693 
L 358.047562 288.632125 
L 358.20997 291.344384 
L 358.372379 275.160129 
L 358.697196 293.534265 
L 358.859604 276.803048 
L 359.184421 294.155638 
L 359.34683 274.832018 
L 359.671647 290.992347 
L 359.834055 274.364096 
L 360.158872 288.899368 
L 360.321281 274.049115 
L 360.646098 290.572034 
L 360.808506 274.102591 
L 360.970915 288.309204 
L 361.133323 291.575447 
L 361.295732 275.592225 
L 361.620548 289.524419 
L 361.782957 276.305113 
L 361.945365 286.738079 
L 362.107774 289.532326 
L 362.270182 275.010199 
L 362.594999 292.173531 
L 362.757408 275.044383 
L 363.082225 290.949744 
L 363.244633 275.955706 
L 363.56945 294.235158 
L 363.731859 278.270416 
L 363.894267 289.739447 
L 364.056676 291.629223 
L 364.219084 278.119522 
L 364.543901 293.716842 
L 364.70631 276.787781 
L 365.031126 292.904334 
L 365.193535 276.664476 
L 365.355943 289.334643 
L 365.518352 292.084084 
L 365.68076 274.841222 
L 366.005577 292.441696 
L 366.167986 274.306139 
L 366.330394 285.891892 
L 366.492803 289.437059 
L 366.655211 274.569775 
L 366.81762 288.325549 
L 366.980028 289.964397 
L 367.142437 273.570211 
L 367.467254 294.559252 
L 367.629662 276.544658 
L 367.954479 291.790587 
L 368.116888 276.069354 
L 368.441704 292.224215 
L 368.604113 274.355154 
L 368.92893 291.199335 
L 369.091338 278.033437 
L 369.416155 292.925318 
L 369.578564 279.290692 
L 369.903381 294.044982 
L 370.065789 276.306561 
L 370.390606 291.606838 
L 370.553015 274.879112 
L 370.877832 291.908434 
L 371.04024 276.506698 
L 371.365057 292.88386 
L 371.527466 276.183382 
L 371.689874 288.370169 
L 371.852283 291.436735 
L 372.014691 276.974611 
L 372.339508 293.356491 
L 372.501916 276.049828 
L 372.826733 292.68927 
L 372.989142 273.572179 
L 373.15155 288.727186 
L 373.313959 292.963566 
L 373.476367 275.096108 
L 373.638776 288.573775 
L 373.801184 291.888225 
L 373.963593 274.736729 
L 374.126001 287.280157 
L 374.28841 290.642929 
L 374.450818 277.786761 
L 374.775635 294.854998 
L 374.938044 280.137248 
L 375.100452 288.859379 
L 375.262861 290.727413 
L 375.425269 277.503326 
L 375.587677 290.447334 
L 375.750086 293.108973 
L 375.912494 273.843301 
L 376.237311 293.327275 
L 376.39972 277.273885 
L 376.562128 289.972168 
L 376.724537 292.97416 
L 376.886945 275.520896 
L 377.211762 292.459636 
L 377.374171 275.830129 
L 377.698988 291.395537 
L 377.861396 275.640843 
L 378.186213 293.698515 
L 378.348622 275.109184 
L 378.673439 291.180529 
L 378.835847 275.059788 
L 379.160664 291.509916 
L 379.323072 277.042352 
L 379.485481 289.458065 
L 379.647889 291.474145 
L 379.810298 277.541639 
L 379.972706 287.938192 
L 380.135115 289.614361 
L 380.297523 275.750517 
L 380.459932 288.923817 
L 380.62234 292.763427 
L 380.784749 276.482308 
L 380.947157 290.368936 
L 381.109566 294.598942 
L 381.271974 277.458074 
L 381.434383 287.744582 
L 381.596791 289.245905 
L 381.7592 271.910611 
L 382.084017 288.374392 
L 382.246425 273.774276 
L 382.408834 287.566544 
L 382.571242 290.258037 
L 382.73365 276.268135 
L 383.058467 292.141989 
L 383.220876 275.128822 
L 383.383284 287.247402 
L 383.545693 290.505991 
L 383.708101 274.196564 
L 383.87051 286.895163 
L 384.032918 290.357073 
L 384.195327 274.606781 
L 384.520144 288.684663 
L 384.682552 276.978386 
L 385.007369 290.380272 
L 385.169778 273.170622 
L 385.494595 291.697392 
L 385.657003 276.735093 
L 385.98182 291.867132 
L 386.144228 274.085902 
L 386.469045 290.072067 
L 386.631454 275.283058 
L 386.956271 290.741955 
L 387.118679 277.536797 
L 387.281088 289.00501 
L 387.443496 291.36343 
L 387.605905 273.487204 
L 387.930722 291.409035 
L 388.09313 275.93313 
L 388.417947 292.05265 
L 388.580356 275.58272 
L 388.742764 287.978544 
L 388.905173 291.753907 
L 389.067581 275.416072 
L 389.392398 292.831834 
L 389.554806 276.526481 
L 389.879623 292.385262 
L 390.042032 275.546628 
L 390.366849 292.062416 
L 390.529257 274.98985 
L 390.854074 293.428365 
L 391.016483 280.211688 
L 391.178891 291.125684 
L 391.3413 292.821861 
L 391.503708 275.723114 
L 391.666117 290.833055 
L 391.828525 291.167649 
L 391.990934 277.227487 
L 392.153342 290.206068 
L 392.315751 291.841307 
L 392.478159 273.673133 
L 392.802976 291.63749 
L 392.965385 276.131514 
L 393.127793 287.664014 
L 393.290201 289.237836 
L 393.45261 273.825475 
L 393.777427 289.924741 
L 393.939835 273.129378 
L 394.264652 292.132346 
L 394.427061 275.278608 
L 394.751878 291.129734 
L 394.914286 276.384504 
L 395.076695 289.376187 
L 395.239103 292.0006 
L 395.401512 277.598802 
L 395.56392 289.174249 
L 395.726329 290.782189 
L 395.888737 274.971251 
L 396.213554 293.192113 
L 396.375963 276.44796 
L 396.700779 293.487723 
L 396.863188 277.256634 
L 397.188005 291.674066 
L 397.350413 276.360831 
L 397.67523 293.023524 
L 397.837639 274.968955 
L 398.162456 292.433817 
L 398.324864 276.060229 
L 398.487273 290.789579 
L 398.487273 290.789579 
" clip-path="url(#p1d7125410b)" style="fill: none; stroke: #1f77b4; stroke-width: 1.5; stroke-linecap: square"/>
   </g>
   <g id="patch_3">
    <path d="M 57.6 307.584 
L 57.6 41.472 
" style="fill: none; stroke: #000000; stroke-width: 0.8; stroke-linejoin: miter; stroke-linecap: square"/>
   </g>
   <g id="patch_4">
    <path d="M 414.72 307.584 
L 414.72 41.472 
" style="fill: none; stroke: #000000; stroke-width: 0.8; stroke-linejoin: miter; stroke-linecap: square"/>
   </g>
   <g id="patch_5">
    <path d="M 57.6 307.584 
L 414.72 307.584 
" style="fill: none; stroke: #000000; stroke-width: 0.8; stroke-linejoin: miter; stroke-linecap: square"/>
   </g>
   <g id="patch_6">
    <path d="M 57.6 41.472 
L 414.72 41.472 
" style="fill: none; stroke: #000000; stroke-width: 0.8; stroke-linejoin: miter; stroke-linecap: square"/>
   </g>
   <g id="text_21">
    <!-- Convergence Behavior of SRJ Jacobi with 2 Weights -->
    <g transform="translate(82.606875 35.472) scale(0.12 -0.12)">
     <defs>
      <path id="DejaVuSans-43" d="M 4122 4306 
L 4122 3641 
Q 3803 3938 3442 4084 
Q 3081 4231 2675 4231 
Q 1875 4231 1450 3742 
Q 1025 3253 1025 2328 
Q 1025 1406 1450 917 
Q 1875 428 2675 428 
Q 3081 428 3442 575 
Q 3803 722 4122 1019 
L 4122 359 
Q 3791 134 3420 21 
Q 3050 -91 2638 -91 
Q 1578 -91 968 557 
Q 359 1206 359 2328 
Q 359 3453 968 4101 
Q 1578 4750 2638 4750 
Q 3056 4750 3426 4639 
Q 3797 4528 4122 4306 
z
" transform="scale(0.015625)"/>
      <path id="DejaVuSans-76" d="M 191 3500 
L 800 3500 
L 1894 563 
L 2988 3500 
L 3597 3500 
L 2284 0 
L 1503 0 
L 191 3500 
z
" transform="scale(0.015625)"/>
      <path id="DejaVuSans-67" d="M 2906 1791 
Q 2906 2416 2648 2759 
Q 2391 3103 1925 3103 
Q 1463 3103 1205 2759 
Q 947 2416 947 1791 
Q 947 1169 1205 825 
Q 1463 481 1925 481 
Q 2391 481 2648 825 
Q 2906 1169 2906 1791 
z
M 3481 434 
Q 3481 -459 3084 -895 
Q 2688 -1331 1869 -1331 
Q 1566 -1331 1297 -1286 
Q 1028 -1241 775 -1147 
L 775 -588 
Q 1028 -725 1275 -790 
Q 1522 -856 1778 -856 
Q 2344 -856 2625 -561 
Q 2906 -266 2906 331 
L 2906 616 
Q 2728 306 2450 153 
Q 2172 0 1784 0 
Q 1141 0 747 490 
Q 353 981 353 1791 
Q 353 2603 747 3093 
Q 1141 3584 1784 3584 
Q 2172 3584 2450 3431 
Q 2728 3278 2906 2969 
L 2906 3500 
L 3481 3500 
L 3481 434 
z
" transform="scale(0.015625)"/>
      <path id="DejaVuSans-63" d="M 3122 3366 
L 3122 2828 
Q 2878 2963 2633 3030 
Q 2388 3097 2138 3097 
Q 1578 3097 1268 2742 
Q 959 2388 959 1747 
Q 959 1106 1268 751 
Q 1578 397 2138 397 
Q 2388 397 2633 464 
Q 2878 531 3122 666 
L 3122 134 
Q 2881 22 2623 -34 
Q 2366 -91 2075 -91 
Q 1284 -91 818 406 
Q 353 903 353 1747 
Q 353 2603 823 3093 
Q 1294 3584 2113 3584 
Q 2378 3584 2631 3529 
Q 2884 3475 3122 3366 
z
" transform="scale(0.015625)"/>
      <path id="DejaVuSans-20" transform="scale(0.015625)"/>
      <path id="DejaVuSans-42" d="M 1259 2228 
L 1259 519 
L 2272 519 
Q 2781 519 3026 730 
Q 3272 941 3272 1375 
Q 3272 1813 3026 2020 
Q 2781 2228 2272 2228 
L 1259 2228 
z
M 1259 4147 
L 1259 2741 
L 2194 2741 
Q 2656 2741 2882 2914 
Q 3109 3088 3109 3444 
Q 3109 3797 2882 3972 
Q 2656 4147 2194 4147 
L 1259 4147 
z
M 628 4666 
L 2241 4666 
Q 2963 4666 3353 4366 
Q 3744 4066 3744 3513 
Q 3744 3084 3544 2831 
Q 3344 2578 2956 2516 
Q 3422 2416 3680 2098 
Q 3938 1781 3938 1306 
Q 3938 681 3513 340 
Q 3088 0 2303 0 
L 628 0 
L 628 4666 
z
" transform="scale(0.015625)"/>
      <path id="DejaVuSans-68" d="M 3513 2113 
L 3513 0 
L 2938 0 
L 2938 2094 
Q 2938 2591 2744 2837 
Q 2550 3084 2163 3084 
Q 1697 3084 1428 2787 
Q 1159 2491 1159 1978 
L 1159 0 
L 581 0 
L 581 4863 
L 1159 4863 
L 1159 2956 
Q 1366 3272 1645 3428 
Q 1925 3584 2291 3584 
Q 2894 3584 3203 3211 
Q 3513 2838 3513 2113 
z
" transform="scale(0.015625)"/>
      <path id="DejaVuSans-66" d="M 2375 4863 
L 2375 4384 
L 1825 4384 
Q 1516 4384 1395 4259 
Q 1275 4134 1275 3809 
L 1275 3500 
L 2222 3500 
L 2222 3053 
L 1275 3053 
L 1275 0 
L 697 0 
L 697 3053 
L 147 3053 
L 147 3500 
L 697 3500 
L 697 3744 
Q 697 4328 969 4595 
Q 1241 4863 1831 4863 
L 2375 4863 
z
" transform="scale(0.015625)"/>
      <path id="DejaVuSans-53" d="M 3425 4513 
L 3425 3897 
Q 3066 4069 2747 4153 
Q 2428 4238 2131 4238 
Q 1616 4238 1336 4038 
Q 1056 3838 1056 3469 
Q 1056 3159 1242 3001 
Q 1428 2844 1947 2747 
L 2328 2669 
Q 3034 2534 3370 2195 
Q 3706 1856 3706 1288 
Q 3706 609 3251 259 
Q 2797 -91 1919 -91 
Q 1588 -91 1214 -16 
Q 841 59 441 206 
L 441 856 
Q 825 641 1194 531 
Q 1563 422 1919 422 
Q 2459 422 2753 634 
Q 3047 847 3047 1241 
Q 3047 1584 2836 1778 
Q 2625 1972 2144 2069 
L 1759 2144 
Q 1053 2284 737 2584 
Q 422 2884 422 3419 
Q 422 4038 858 4394 
Q 1294 4750 2059 4750 
Q 2388 4750 2728 4690 
Q 3069 4631 3425 4513 
z
" transform="scale(0.015625)"/>
      <path id="DejaVuSans-4a" d="M 628 4666 
L 1259 4666 
L 1259 325 
Q 1259 -519 939 -900 
Q 619 -1281 -91 -1281 
L -331 -1281 
L -331 -750 
L -134 -750 
Q 284 -750 456 -515 
Q 628 -281 628 325 
L 628 4666 
z
" transform="scale(0.015625)"/>
      <path id="DejaVuSans-62" d="M 3116 1747 
Q 3116 2381 2855 2742 
Q 2594 3103 2138 3103 
Q 1681 3103 1420 2742 
Q 1159 2381 1159 1747 
Q 1159 1113 1420 752 
Q 1681 391 2138 391 
Q 2594 391 2855 752 
Q 3116 1113 3116 1747 
z
M 1159 2969 
Q 1341 3281 1617 3432 
Q 1894 3584 2278 3584 
Q 2916 3584 3314 3078 
Q 3713 2572 3713 1747 
Q 3713 922 3314 415 
Q 2916 -91 2278 -91 
Q 1894 -91 1617 61 
Q 1341 213 1159 525 
L 1159 0 
L 581 0 
L 581 4863 
L 1159 4863 
L 1159 2969 
z
" transform="scale(0.015625)"/>
      <path id="DejaVuSans-77" d="M 269 3500 
L 844 3500 
L 1563 769 
L 2278 3500 
L 2956 3500 
L 3675 769 
L 4391 3500 
L 4966 3500 
L 4050 0 
L 3372 0 
L 2619 2869 
L 1863 0 
L 1184 0 
L 269 3500 
z
" transform="scale(0.015625)"/>
      <path id="DejaVuSans-57" d="M 213 4666 
L 850 4666 
L 1831 722 
L 2809 4666 
L 3519 4666 
L 4500 722 
L 5478 4666 
L 6119 4666 
L 4947 0 
L 4153 0 
L 3169 4050 
L 2175 0 
L 1381 0 
L 213 4666 
z
" transform="scale(0.015625)"/>
     </defs>
     <use xlink:href="#DejaVuSans-43"/>
     <use xlink:href="#DejaVuSans-6f" transform="translate(69.824219 0)"/>
     <use xlink:href="#DejaVuSans-6e" transform="translate(131.005859 0)"/>
     <use xlink:href="#DejaVuSans-76" transform="translate(194.384766 0)"/>
     <use xlink:href="#DejaVuSans-65" transform="translate(253.564453 0)"/>
     <use xlink:href="#DejaVuSans-72" transform="translate(315.087891 0)"/>
     <use xlink:href="#DejaVuSans-67" transform="translate(354.451172 0)"/>
     <use xlink:href="#DejaVuSans-65" transform="translate(417.927734 0)"/>
     <use xlink:href="#DejaVuSans-6e" transform="translate(479.451172 0)"/>
     <use xlink:href="#DejaVuSans-63" transform="translate(542.830078 0)"/>
     <use xlink:href="#DejaVuSans-65" transform="translate(597.810547 0)"/>
     <use xlink:href="#DejaVuSans-20" transform="translate(659.333984 0)"/>
     <use xlink:href="#DejaVuSans-42" transform="translate(691.121094 0)"/>
     <use xlink:href="#DejaVuSans-65" transform="translate(759.724609 0)"/>
     <use xlink:href="#DejaVuSans-68" transform="translate(821.248047 0)"/>
     <use xlink:href="#DejaVuSans-61" transform="translate(884.626953 0)"/>
     <use xlink:href="#DejaVuSans-76" transform="translate(945.90625 0)"/>
     <use xlink:href="#DejaVuSans-69" transform="translate(1005.085938 0)"/>
     <use xlink:href="#DejaVuSans-6f" transform="translate(1032.869141 0)"/>
     <use xlink:href="#DejaVuSans-72" transform="translate(1094.050781 0)"/>
     <use xlink:href="#DejaVuSans-20" transform="translate(1135.164062 0)"/>
     <use xlink:href="#DejaVuSans-6f" transform="translate(1166.951172 0)"/>
     <use xlink:href="#DejaVuSans-66" transform="translate(1228.132812 0)"/>
     <use xlink:href="#DejaVuSans-20" transform="translate(1263.337891 0)"/>
     <use xlink:href="#DejaVuSans-53" transform="translate(1295.125 0)"/>
     <use xlink:href="#DejaVuSans-52" transform="translate(1358.601562 0)"/>
     <use xlink:href="#DejaVuSans-4a" transform="translate(1428.083984 0)"/>
     <use xlink:href="#DejaVuSans-20" transform="translate(1457.576172 0)"/>
     <use xlink:href="#DejaVuSans-4a" transform="translate(1489.363281 0)"/>
     <use xlink:href="#DejaVuSans-61" transform="translate(1518.855469 0)"/>
     <use xlink:href="#DejaVuSans-63" transform="translate(1580.134766 0)"/>
     <use xlink:href="#DejaVuSans-6f" transform="translate(1635.115234 0)"/>
     <use xlink:href="#DejaVuSans-62" transform="translate(1696.296875 0)"/>
     <use xlink:href="#DejaVuSans-69" transform="translate(1759.773438 0)"/>
     <use xlink:href="#DejaVuSans-20" transform="translate(1787.556641 0)"/>
     <use xlink:href="#DejaVuSans-77" transform="translate(1819.34375 0)"/>
     <use xlink:href="#DejaVuSans-69" transform="translate(1901.130859 0)"/>
     <use xlink:href="#DejaVuSans-74" transform="translate(1928.914062 0)"/>
     <use xlink:href="#DejaVuSans-68" transform="translate(1968.123047 0)"/>
     <use xlink:href="#DejaVuSans-20" transform="translate(2031.501953 0)"/>
     <use xlink:href="#DejaVuSans-32" transform="translate(2063.289062 0)"/>
     <use xlink:href="#DejaVuSans-20" transform="translate(2126.912109 0)"/>
     <use xlink:href="#DejaVuSans-57" transform="translate(2158.699219 0)"/>
     <use xlink:href="#DejaVuSans-65" transform="translate(2251.701172 0)"/>
     <use xlink:href="#DejaVuSans-69" transform="translate(2313.224609 0)"/>
     <use xlink:href="#DejaVuSans-67" transform="translate(2341.007812 0)"/>
     <use xlink:href="#DejaVuSans-68" transform="translate(2404.484375 0)"/>
     <use xlink:href="#DejaVuSans-74" transform="translate(2467.863281 0)"/>
     <use xlink:href="#DejaVuSans-73" transform="translate(2507.072266 0)"/>
    </g>
   </g>
  </g>
 </g>
 <defs>
  <clipPath id="p1d7125410b">
   <rect x="57.6" y="41.472" width="357.12" height="266.112"/>
  </clipPath>
 </defs>
</svg>
