<?xml version="1.0" encoding="utf-8" standalone="no"?>
<!DOCTYPE svg PUBLIC "-//W3C//DTD SVG 1.1//EN"
  "http://www.w3.org/Graphics/SVG/1.1/DTD/svg11.dtd">
<svg xmlns:xlink="http://www.w3.org/1999/xlink" width="460.8pt" height="345.6pt" viewBox="0 0 460.8 345.6" xmlns="http://www.w3.org/2000/svg" version="1.1">
 <metadata>
  <rdf:RDF xmlns:dc="http://purl.org/dc/elements/1.1/" xmlns:cc="http://creativecommons.org/ns#" xmlns:rdf="http://www.w3.org/1999/02/22-rdf-syntax-ns#">
   <cc:Work>
    <dc:type rdf:resource="http://purl.org/dc/dcmitype/StillImage"/>
    <dc:date>2025-11-17T21:41:12.042810</dc:date>
    <dc:format>image/svg+xml</dc:format>
    <dc:creator>
     <cc:Agent>
      <dc:title>Matplotlib v3.10.7, https://matplotlib.org/</dc:title>
     </cc:Agent>
    </dc:creator>
   </cc:Work>
  </rdf:RDF>
 </metadata>
 <defs>
  <style type="text/css">*{stroke-linejoin: round; stroke-linecap: butt}</style>
 </defs>
 <g id="figure_1">
  <g id="patch_1">
   <path d="M 0 345.6 
L 460.8 345.6 
L 460.8 0 
L 0 0 
z
" style="fill: #ffffff"/>
  </g>
  <g id="axes_1">
   <g id="patch_2">
    <path d="M 57.6 307.584 
L 414.72 307.584 
L 414.72 41.472 
L 57.6 41.472 
z
" style="fill: #ffffff"/>
   </g>
   <g id="matplotlib.axis_1">
    <g id="xtick_1">
     <g id="line2d_1">
      <path d="M 73.832727 307.584 
L 73.832727 41.472 
" clip-path="url(#p01a8491fab)" style="fill: none; stroke: #b0b0b0; stroke-width: 0.8; stroke-linecap: square"/>
     </g>
     <g id="line2d_2">
      <defs>
       <path id="ma0fff012ae" d="M 0 0 
L 0 3.5 
" style="stroke: #000000; stroke-width: 0.8"/>
      </defs>
      <g>
       <use xlink:href="#ma0fff012ae" x="73.832727" y="307.584" style="stroke: #000000; stroke-width: 0.8"/>
      </g>
     </g>
     <g id="text_1">
      <!-- 0 -->
      <g transform="translate(70.651477 322.182437) scale(0.1 -0.1)">
       <defs>
        <path id="DejaVuSans-30" d="M 2034 4250 
Q 1547 4250 1301 3770 
Q 1056 3291 1056 2328 
Q 1056 1369 1301 889 
Q 1547 409 2034 409 
Q 2525 409 2770 889 
Q 3016 1369 3016 2328 
Q 3016 3291 2770 3770 
Q 2525 4250 2034 4250 
z
M 2034 4750 
Q 2819 4750 3233 4129 
Q 3647 3509 3647 2328 
Q 3647 1150 3233 529 
Q 2819 -91 2034 -91 
Q 1250 -91 836 529 
Q 422 1150 422 2328 
Q 422 3509 836 4129 
Q 1250 4750 2034 4750 
z
" transform="scale(0.015625)"/>
       </defs>
       <use xlink:href="#DejaVuSans-30"/>
      </g>
     </g>
    </g>
    <g id="xtick_2">
     <g id="line2d_3">
      <path d="M 114.434847 307.584 
L 114.434847 41.472 
" clip-path="url(#p01a8491fab)" style="fill: none; stroke: #b0b0b0; stroke-width: 0.8; stroke-linecap: square"/>
     </g>
     <g id="line2d_4">
      <g>
       <use xlink:href="#ma0fff012ae" x="114.434847" y="307.584" style="stroke: #000000; stroke-width: 0.8"/>
      </g>
     </g>
     <g id="text_2">
      <!-- 250 -->
      <g transform="translate(104.891097 322.182437) scale(0.1 -0.1)">
       <defs>
        <path id="DejaVuSans-32" d="M 1228 531 
L 3431 531 
L 3431 0 
L 469 0 
L 469 531 
Q 828 903 1448 1529 
Q 2069 2156 2228 2338 
Q 2531 2678 2651 2914 
Q 2772 3150 2772 3378 
Q 2772 3750 2511 3984 
Q 2250 4219 1831 4219 
Q 1534 4219 1204 4116 
Q 875 4013 500 3803 
L 500 4441 
Q 881 4594 1212 4672 
Q 1544 4750 1819 4750 
Q 2544 4750 2975 4387 
Q 3406 4025 3406 3419 
Q 3406 3131 3298 2873 
Q 3191 2616 2906 2266 
Q 2828 2175 2409 1742 
Q 1991 1309 1228 531 
z
" transform="scale(0.015625)"/>
        <path id="DejaVuSans-35" d="M 691 4666 
L 3169 4666 
L 3169 4134 
L 1269 4134 
L 1269 2991 
Q 1406 3038 1543 3061 
Q 1681 3084 1819 3084 
Q 2600 3084 3056 2656 
Q 3513 2228 3513 1497 
Q 3513 744 3044 326 
Q 2575 -91 1722 -91 
Q 1428 -91 1123 -41 
Q 819 9 494 109 
L 494 744 
Q 775 591 1075 516 
Q 1375 441 1709 441 
Q 2250 441 2565 725 
Q 2881 1009 2881 1497 
Q 2881 1984 2565 2268 
Q 2250 2553 1709 2553 
Q 1456 2553 1204 2497 
Q 953 2441 691 2322 
L 691 4666 
z
" transform="scale(0.015625)"/>
       </defs>
       <use xlink:href="#DejaVuSans-32"/>
       <use xlink:href="#DejaVuSans-35" transform="translate(63.623047 0)"/>
       <use xlink:href="#DejaVuSans-30" transform="translate(127.246094 0)"/>
      </g>
     </g>
    </g>
    <g id="xtick_3">
     <g id="line2d_5">
      <path d="M 155.036966 307.584 
L 155.036966 41.472 
" clip-path="url(#p01a8491fab)" style="fill: none; stroke: #b0b0b0; stroke-width: 0.8; stroke-linecap: square"/>
     </g>
     <g id="line2d_6">
      <g>
       <use xlink:href="#ma0fff012ae" x="155.036966" y="307.584" style="stroke: #000000; stroke-width: 0.8"/>
      </g>
     </g>
     <g id="text_3">
      <!-- 500 -->
      <g transform="translate(145.493216 322.182437) scale(0.1 -0.1)">
       <use xlink:href="#DejaVuSans-35"/>
       <use xlink:href="#DejaVuSans-30" transform="translate(63.623047 0)"/>
       <use xlink:href="#DejaVuSans-30" transform="translate(127.246094 0)"/>
      </g>
     </g>
    </g>
    <g id="xtick_4">
     <g id="line2d_7">
      <path d="M 195.639085 307.584 
L 195.639085 41.472 
" clip-path="url(#p01a8491fab)" style="fill: none; stroke: #b0b0b0; stroke-width: 0.8; stroke-linecap: square"/>
     </g>
     <g id="line2d_8">
      <g>
       <use xlink:href="#ma0fff012ae" x="195.639085" y="307.584" style="stroke: #000000; stroke-width: 0.8"/>
      </g>
     </g>
     <g id="text_4">
      <!-- 750 -->
      <g transform="translate(186.095335 322.182437) scale(0.1 -0.1)">
       <defs>
        <path id="DejaVuSans-37" d="M 525 4666 
L 3525 4666 
L 3525 4397 
L 1831 0 
L 1172 0 
L 2766 4134 
L 525 4134 
L 525 4666 
z
" transform="scale(0.015625)"/>
       </defs>
       <use xlink:href="#DejaVuSans-37"/>
       <use xlink:href="#DejaVuSans-35" transform="translate(63.623047 0)"/>
       <use xlink:href="#DejaVuSans-30" transform="translate(127.246094 0)"/>
      </g>
     </g>
    </g>
    <g id="xtick_5">
     <g id="line2d_9">
      <path d="M 236.241204 307.584 
L 236.241204 41.472 
" clip-path="url(#p01a8491fab)" style="fill: none; stroke: #b0b0b0; stroke-width: 0.8; stroke-linecap: square"/>
     </g>
     <g id="line2d_10">
      <g>
       <use xlink:href="#ma0fff012ae" x="236.241204" y="307.584" style="stroke: #000000; stroke-width: 0.8"/>
      </g>
     </g>
     <g id="text_5">
      <!-- 1000 -->
      <g transform="translate(223.516204 322.182437) scale(0.1 -0.1)">
       <defs>
        <path id="DejaVuSans-31" d="M 794 531 
L 1825 531 
L 1825 4091 
L 703 3866 
L 703 4441 
L 1819 4666 
L 2450 4666 
L 2450 531 
L 3481 531 
L 3481 0 
L 794 0 
L 794 531 
z
" transform="scale(0.015625)"/>
       </defs>
       <use xlink:href="#DejaVuSans-31"/>
       <use xlink:href="#DejaVuSans-30" transform="translate(63.623047 0)"/>
       <use xlink:href="#DejaVuSans-30" transform="translate(127.246094 0)"/>
       <use xlink:href="#DejaVuSans-30" transform="translate(190.869141 0)"/>
      </g>
     </g>
    </g>
    <g id="xtick_6">
     <g id="line2d_11">
      <path d="M 276.843323 307.584 
L 276.843323 41.472 
" clip-path="url(#p01a8491fab)" style="fill: none; stroke: #b0b0b0; stroke-width: 0.8; stroke-linecap: square"/>
     </g>
     <g id="line2d_12">
      <g>
       <use xlink:href="#ma0fff012ae" x="276.843323" y="307.584" style="stroke: #000000; stroke-width: 0.8"/>
      </g>
     </g>
     <g id="text_6">
      <!-- 1250 -->
      <g transform="translate(264.118323 322.182437) scale(0.1 -0.1)">
       <use xlink:href="#DejaVuSans-31"/>
       <use xlink:href="#DejaVuSans-32" transform="translate(63.623047 0)"/>
       <use xlink:href="#DejaVuSans-35" transform="translate(127.246094 0)"/>
       <use xlink:href="#DejaVuSans-30" transform="translate(190.869141 0)"/>
      </g>
     </g>
    </g>
    <g id="xtick_7">
     <g id="line2d_13">
      <path d="M 317.445443 307.584 
L 317.445443 41.472 
" clip-path="url(#p01a8491fab)" style="fill: none; stroke: #b0b0b0; stroke-width: 0.8; stroke-linecap: square"/>
     </g>
     <g id="line2d_14">
      <g>
       <use xlink:href="#ma0fff012ae" x="317.445443" y="307.584" style="stroke: #000000; stroke-width: 0.8"/>
      </g>
     </g>
     <g id="text_7">
      <!-- 1500 -->
      <g transform="translate(304.720443 322.182437) scale(0.1 -0.1)">
       <use xlink:href="#DejaVuSans-31"/>
       <use xlink:href="#DejaVuSans-35" transform="translate(63.623047 0)"/>
       <use xlink:href="#DejaVuSans-30" transform="translate(127.246094 0)"/>
       <use xlink:href="#DejaVuSans-30" transform="translate(190.869141 0)"/>
      </g>
     </g>
    </g>
    <g id="xtick_8">
     <g id="line2d_15">
      <path d="M 358.047562 307.584 
L 358.047562 41.472 
" clip-path="url(#p01a8491fab)" style="fill: none; stroke: #b0b0b0; stroke-width: 0.8; stroke-linecap: square"/>
     </g>
     <g id="line2d_16">
      <g>
       <use xlink:href="#ma0fff012ae" x="358.047562" y="307.584" style="stroke: #000000; stroke-width: 0.8"/>
      </g>
     </g>
     <g id="text_8">
      <!-- 1750 -->
      <g transform="translate(345.322562 322.182437) scale(0.1 -0.1)">
       <use xlink:href="#DejaVuSans-31"/>
       <use xlink:href="#DejaVuSans-37" transform="translate(63.623047 0)"/>
       <use xlink:href="#DejaVuSans-35" transform="translate(127.246094 0)"/>
       <use xlink:href="#DejaVuSans-30" transform="translate(190.869141 0)"/>
      </g>
     </g>
    </g>
    <g id="xtick_9">
     <g id="line2d_17">
      <path d="M 398.649681 307.584 
L 398.649681 41.472 
" clip-path="url(#p01a8491fab)" style="fill: none; stroke: #b0b0b0; stroke-width: 0.8; stroke-linecap: square"/>
     </g>
     <g id="line2d_18">
      <g>
       <use xlink:href="#ma0fff012ae" x="398.649681" y="307.584" style="stroke: #000000; stroke-width: 0.8"/>
      </g>
     </g>
     <g id="text_9">
      <!-- 2000 -->
      <g transform="translate(385.924681 322.182437) scale(0.1 -0.1)">
       <use xlink:href="#DejaVuSans-32"/>
       <use xlink:href="#DejaVuSans-30" transform="translate(63.623047 0)"/>
       <use xlink:href="#DejaVuSans-30" transform="translate(127.246094 0)"/>
       <use xlink:href="#DejaVuSans-30" transform="translate(190.869141 0)"/>
      </g>
     </g>
    </g>
    <g id="text_10">
     <!-- Iteration -->
     <g transform="translate(214.951406 335.860562) scale(0.1 -0.1)">
      <defs>
       <path id="DejaVuSans-49" d="M 628 4666 
L 1259 4666 
L 1259 0 
L 628 0 
L 628 4666 
z
" transform="scale(0.015625)"/>
       <path id="DejaVuSans-74" d="M 1172 4494 
L 1172 3500 
L 2356 3500 
L 2356 3053 
L 1172 3053 
L 1172 1153 
Q 1172 725 1289 603 
Q 1406 481 1766 481 
L 2356 481 
L 2356 0 
L 1766 0 
Q 1100 0 847 248 
Q 594 497 594 1153 
L 594 3053 
L 172 3053 
L 172 3500 
L 594 3500 
L 594 4494 
L 1172 4494 
z
" transform="scale(0.015625)"/>
       <path id="DejaVuSans-65" d="M 3597 1894 
L 3597 1613 
L 953 1613 
Q 991 1019 1311 708 
Q 1631 397 2203 397 
Q 2534 397 2845 478 
Q 3156 559 3463 722 
L 3463 178 
Q 3153 47 2828 -22 
Q 2503 -91 2169 -91 
Q 1331 -91 842 396 
Q 353 884 353 1716 
Q 353 2575 817 3079 
Q 1281 3584 2069 3584 
Q 2775 3584 3186 3129 
Q 3597 2675 3597 1894 
z
M 3022 2063 
Q 3016 2534 2758 2815 
Q 2500 3097 2075 3097 
Q 1594 3097 1305 2825 
Q 1016 2553 972 2059 
L 3022 2063 
z
" transform="scale(0.015625)"/>
       <path id="DejaVuSans-72" d="M 2631 2963 
Q 2534 3019 2420 3045 
Q 2306 3072 2169 3072 
Q 1681 3072 1420 2755 
Q 1159 2438 1159 1844 
L 1159 0 
L 581 0 
L 581 3500 
L 1159 3500 
L 1159 2956 
Q 1341 3275 1631 3429 
Q 1922 3584 2338 3584 
Q 2397 3584 2469 3576 
Q 2541 3569 2628 3553 
L 2631 2963 
z
" transform="scale(0.015625)"/>
       <path id="DejaVuSans-61" d="M 2194 1759 
Q 1497 1759 1228 1600 
Q 959 1441 959 1056 
Q 959 750 1161 570 
Q 1363 391 1709 391 
Q 2188 391 2477 730 
Q 2766 1069 2766 1631 
L 2766 1759 
L 2194 1759 
z
M 3341 1997 
L 3341 0 
L 2766 0 
L 2766 531 
Q 2569 213 2275 61 
Q 1981 -91 1556 -91 
Q 1019 -91 701 211 
Q 384 513 384 1019 
Q 384 1609 779 1909 
Q 1175 2209 1959 2209 
L 2766 2209 
L 2766 2266 
Q 2766 2663 2505 2880 
Q 2244 3097 1772 3097 
Q 1472 3097 1187 3025 
Q 903 2953 641 2809 
L 641 3341 
Q 956 3463 1253 3523 
Q 1550 3584 1831 3584 
Q 2591 3584 2966 3190 
Q 3341 2797 3341 1997 
z
" transform="scale(0.015625)"/>
       <path id="DejaVuSans-69" d="M 603 3500 
L 1178 3500 
L 1178 0 
L 603 0 
L 603 3500 
z
M 603 4863 
L 1178 4863 
L 1178 4134 
L 603 4134 
L 603 4863 
z
" transform="scale(0.015625)"/>
       <path id="DejaVuSans-6f" d="M 1959 3097 
Q 1497 3097 1228 2736 
Q 959 2375 959 1747 
Q 959 1119 1226 758 
Q 1494 397 1959 397 
Q 2419 397 2687 759 
Q 2956 1122 2956 1747 
Q 2956 2369 2687 2733 
Q 2419 3097 1959 3097 
z
M 1959 3584 
Q 2709 3584 3137 3096 
Q 3566 2609 3566 1747 
Q 3566 888 3137 398 
Q 2709 -91 1959 -91 
Q 1206 -91 779 398 
Q 353 888 353 1747 
Q 353 2609 779 3096 
Q 1206 3584 1959 3584 
z
" transform="scale(0.015625)"/>
       <path id="DejaVuSans-6e" d="M 3513 2113 
L 3513 0 
L 2938 0 
L 2938 2094 
Q 2938 2591 2744 2837 
Q 2550 3084 2163 3084 
Q 1697 3084 1428 2787 
Q 1159 2491 1159 1978 
L 1159 0 
L 581 0 
L 581 3500 
L 1159 3500 
L 1159 2956 
Q 1366 3272 1645 3428 
Q 1925 3584 2291 3584 
Q 2894 3584 3203 3211 
Q 3513 2838 3513 2113 
z
" transform="scale(0.015625)"/>
      </defs>
      <use xlink:href="#DejaVuSans-49"/>
      <use xlink:href="#DejaVuSans-74" transform="translate(29.492188 0)"/>
      <use xlink:href="#DejaVuSans-65" transform="translate(68.701172 0)"/>
      <use xlink:href="#DejaVuSans-72" transform="translate(130.224609 0)"/>
      <use xlink:href="#DejaVuSans-61" transform="translate(171.337891 0)"/>
      <use xlink:href="#DejaVuSans-74" transform="translate(232.617188 0)"/>
      <use xlink:href="#DejaVuSans-69" transform="translate(271.826172 0)"/>
      <use xlink:href="#DejaVuSans-6f" transform="translate(299.609375 0)"/>
      <use xlink:href="#DejaVuSans-6e" transform="translate(360.791016 0)"/>
     </g>
    </g>
   </g>
   <g id="matplotlib.axis_2">
    <g id="ytick_1">
     <g id="line2d_19">
      <path d="M 57.6 279.207251 
L 414.72 279.207251 
" clip-path="url(#p01a8491fab)" style="fill: none; stroke: #b0b0b0; stroke-width: 0.8; stroke-linecap: square"/>
     </g>
     <g id="line2d_20">
      <defs>
       <path id="m57b20372ca" d="M 0 0 
L -3.5 0 
" style="stroke: #000000; stroke-width: 0.8"/>
      </defs>
      <g>
       <use xlink:href="#m57b20372ca" x="57.6" y="279.207251" style="stroke: #000000; stroke-width: 0.8"/>
      </g>
     </g>
     <g id="text_11">
      <!-- $\mathdefault{10^{-4}}$ -->
      <g transform="translate(27.1 283.006469) scale(0.1 -0.1)">
       <defs>
        <path id="DejaVuSans-2212" d="M 678 2272 
L 4684 2272 
L 4684 1741 
L 678 1741 
L 678 2272 
z
" transform="scale(0.015625)"/>
        <path id="DejaVuSans-34" d="M 2419 4116 
L 825 1625 
L 2419 1625 
L 2419 4116 
z
M 2253 4666 
L 3047 4666 
L 3047 1625 
L 3713 1625 
L 3713 1100 
L 3047 1100 
L 3047 0 
L 2419 0 
L 2419 1100 
L 313 1100 
L 313 1709 
L 2253 4666 
z
" transform="scale(0.015625)"/>
       </defs>
       <use xlink:href="#DejaVuSans-31" transform="translate(0 0.684375)"/>
       <use xlink:href="#DejaVuSans-30" transform="translate(63.623047 0.684375)"/>
       <use xlink:href="#DejaVuSans-2212" transform="translate(128.203125 38.965625) scale(0.7)"/>
       <use xlink:href="#DejaVuSans-34" transform="translate(186.855469 38.965625) scale(0.7)"/>
      </g>
     </g>
    </g>
    <g id="ytick_2">
     <g id="line2d_21">
      <path d="M 57.6 249.631333 
L 414.72 249.631333 
" clip-path="url(#p01a8491fab)" style="fill: none; stroke: #b0b0b0; stroke-width: 0.8; stroke-linecap: square"/>
     </g>
     <g id="line2d_22">
      <g>
       <use xlink:href="#m57b20372ca" x="57.6" y="249.631333" style="stroke: #000000; stroke-width: 0.8"/>
      </g>
     </g>
     <g id="text_12">
      <!-- $\mathdefault{10^{-3}}$ -->
      <g transform="translate(27.1 253.430551) scale(0.1 -0.1)">
       <defs>
        <path id="DejaVuSans-33" d="M 2597 2516 
Q 3050 2419 3304 2112 
Q 3559 1806 3559 1356 
Q 3559 666 3084 287 
Q 2609 -91 1734 -91 
Q 1441 -91 1130 -33 
Q 819 25 488 141 
L 488 750 
Q 750 597 1062 519 
Q 1375 441 1716 441 
Q 2309 441 2620 675 
Q 2931 909 2931 1356 
Q 2931 1769 2642 2001 
Q 2353 2234 1838 2234 
L 1294 2234 
L 1294 2753 
L 1863 2753 
Q 2328 2753 2575 2939 
Q 2822 3125 2822 3475 
Q 2822 3834 2567 4026 
Q 2313 4219 1838 4219 
Q 1578 4219 1281 4162 
Q 984 4106 628 3988 
L 628 4550 
Q 988 4650 1302 4700 
Q 1616 4750 1894 4750 
Q 2613 4750 3031 4423 
Q 3450 4097 3450 3541 
Q 3450 3153 3228 2886 
Q 3006 2619 2597 2516 
z
" transform="scale(0.015625)"/>
       </defs>
       <use xlink:href="#DejaVuSans-31" transform="translate(0 0.765625)"/>
       <use xlink:href="#DejaVuSans-30" transform="translate(63.623047 0.765625)"/>
       <use xlink:href="#DejaVuSans-2212" transform="translate(128.203125 39.046875) scale(0.7)"/>
       <use xlink:href="#DejaVuSans-33" transform="translate(186.855469 39.046875) scale(0.7)"/>
      </g>
     </g>
    </g>
    <g id="ytick_3">
     <g id="line2d_23">
      <path d="M 57.6 220.055415 
L 414.72 220.055415 
" clip-path="url(#p01a8491fab)" style="fill: none; stroke: #b0b0b0; stroke-width: 0.8; stroke-linecap: square"/>
     </g>
     <g id="line2d_24">
      <g>
       <use xlink:href="#m57b20372ca" x="57.6" y="220.055415" style="stroke: #000000; stroke-width: 0.8"/>
      </g>
     </g>
     <g id="text_13">
      <!-- $\mathdefault{10^{-2}}$ -->
      <g transform="translate(27.1 223.854634) scale(0.1 -0.1)">
       <use xlink:href="#DejaVuSans-31" transform="translate(0 0.765625)"/>
       <use xlink:href="#DejaVuSans-30" transform="translate(63.623047 0.765625)"/>
       <use xlink:href="#DejaVuSans-2212" transform="translate(128.203125 39.046875) scale(0.7)"/>
       <use xlink:href="#DejaVuSans-32" transform="translate(186.855469 39.046875) scale(0.7)"/>
      </g>
     </g>
    </g>
    <g id="ytick_4">
     <g id="line2d_25">
      <path d="M 57.6 190.479497 
L 414.72 190.479497 
" clip-path="url(#p01a8491fab)" style="fill: none; stroke: #b0b0b0; stroke-width: 0.8; stroke-linecap: square"/>
     </g>
     <g id="line2d_26">
      <g>
       <use xlink:href="#m57b20372ca" x="57.6" y="190.479497" style="stroke: #000000; stroke-width: 0.8"/>
      </g>
     </g>
     <g id="text_14">
      <!-- $\mathdefault{10^{-1}}$ -->
      <g transform="translate(27.1 194.278716) scale(0.1 -0.1)">
       <use xlink:href="#DejaVuSans-31" transform="translate(0 0.684375)"/>
       <use xlink:href="#DejaVuSans-30" transform="translate(63.623047 0.684375)"/>
       <use xlink:href="#DejaVuSans-2212" transform="translate(128.203125 38.965625) scale(0.7)"/>
       <use xlink:href="#DejaVuSans-31" transform="translate(186.855469 38.965625) scale(0.7)"/>
      </g>
     </g>
    </g>
    <g id="ytick_5">
     <g id="line2d_27">
      <path d="M 57.6 160.903579 
L 414.72 160.903579 
" clip-path="url(#p01a8491fab)" style="fill: none; stroke: #b0b0b0; stroke-width: 0.8; stroke-linecap: square"/>
     </g>
     <g id="line2d_28">
      <g>
       <use xlink:href="#m57b20372ca" x="57.6" y="160.903579" style="stroke: #000000; stroke-width: 0.8"/>
      </g>
     </g>
     <g id="text_15">
      <!-- $\mathdefault{10^{0}}$ -->
      <g transform="translate(33 164.702798) scale(0.1 -0.1)">
       <use xlink:href="#DejaVuSans-31" transform="translate(0 0.765625)"/>
       <use xlink:href="#DejaVuSans-30" transform="translate(63.623047 0.765625)"/>
       <use xlink:href="#DejaVuSans-30" transform="translate(128.203125 39.046875) scale(0.7)"/>
      </g>
     </g>
    </g>
    <g id="ytick_6">
     <g id="line2d_29">
      <path d="M 57.6 131.327661 
L 414.72 131.327661 
" clip-path="url(#p01a8491fab)" style="fill: none; stroke: #b0b0b0; stroke-width: 0.8; stroke-linecap: square"/>
     </g>
     <g id="line2d_30">
      <g>
       <use xlink:href="#m57b20372ca" x="57.6" y="131.327661" style="stroke: #000000; stroke-width: 0.8"/>
      </g>
     </g>
     <g id="text_16">
      <!-- $\mathdefault{10^{1}}$ -->
      <g transform="translate(33 135.12688) scale(0.1 -0.1)">
       <use xlink:href="#DejaVuSans-31" transform="translate(0 0.684375)"/>
       <use xlink:href="#DejaVuSans-30" transform="translate(63.623047 0.684375)"/>
       <use xlink:href="#DejaVuSans-31" transform="translate(128.203125 38.965625) scale(0.7)"/>
      </g>
     </g>
    </g>
    <g id="ytick_7">
     <g id="line2d_31">
      <path d="M 57.6 101.751743 
L 414.72 101.751743 
" clip-path="url(#p01a8491fab)" style="fill: none; stroke: #b0b0b0; stroke-width: 0.8; stroke-linecap: square"/>
     </g>
     <g id="line2d_32">
      <g>
       <use xlink:href="#m57b20372ca" x="57.6" y="101.751743" style="stroke: #000000; stroke-width: 0.8"/>
      </g>
     </g>
     <g id="text_17">
      <!-- $\mathdefault{10^{2}}$ -->
      <g transform="translate(33 105.550962) scale(0.1 -0.1)">
       <use xlink:href="#DejaVuSans-31" transform="translate(0 0.765625)"/>
       <use xlink:href="#DejaVuSans-30" transform="translate(63.623047 0.765625)"/>
       <use xlink:href="#DejaVuSans-32" transform="translate(128.203125 39.046875) scale(0.7)"/>
      </g>
     </g>
    </g>
    <g id="ytick_8">
     <g id="line2d_33">
      <path d="M 57.6 72.175825 
L 414.72 72.175825 
" clip-path="url(#p01a8491fab)" style="fill: none; stroke: #b0b0b0; stroke-width: 0.8; stroke-linecap: square"/>
     </g>
     <g id="line2d_34">
      <g>
       <use xlink:href="#m57b20372ca" x="57.6" y="72.175825" style="stroke: #000000; stroke-width: 0.8"/>
      </g>
     </g>
     <g id="text_18">
      <!-- $\mathdefault{10^{3}}$ -->
      <g transform="translate(33 75.975044) scale(0.1 -0.1)">
       <use xlink:href="#DejaVuSans-31" transform="translate(0 0.765625)"/>
       <use xlink:href="#DejaVuSans-30" transform="translate(63.623047 0.765625)"/>
       <use xlink:href="#DejaVuSans-33" transform="translate(128.203125 39.046875) scale(0.7)"/>
      </g>
     </g>
    </g>
    <g id="ytick_9">
     <g id="line2d_35">
      <path d="M 57.6 42.599907 
L 414.72 42.599907 
" clip-path="url(#p01a8491fab)" style="fill: none; stroke: #b0b0b0; stroke-width: 0.8; stroke-linecap: square"/>
     </g>
     <g id="line2d_36">
      <g>
       <use xlink:href="#m57b20372ca" x="57.6" y="42.599907" style="stroke: #000000; stroke-width: 0.8"/>
      </g>
     </g>
     <g id="text_19">
      <!-- $\mathdefault{10^{4}}$ -->
      <g transform="translate(33 46.399126) scale(0.1 -0.1)">
       <use xlink:href="#DejaVuSans-31" transform="translate(0 0.684375)"/>
       <use xlink:href="#DejaVuSans-30" transform="translate(63.623047 0.684375)"/>
       <use xlink:href="#DejaVuSans-34" transform="translate(128.203125 38.965625) scale(0.7)"/>
      </g>
     </g>
    </g>
    <g id="ytick_10">
     <g id="line2d_37">
      <defs>
       <path id="m4ed2bb6265" d="M 0 0 
L -2 0 
" style="stroke: #000000; stroke-width: 0.6"/>
      </defs>
      <g>
       <use xlink:href="#m4ed2bb6265" x="57.6" y="299.87993" style="stroke: #000000; stroke-width: 0.6"/>
      </g>
     </g>
    </g>
    <g id="ytick_11">
     <g id="line2d_38">
      <g>
       <use xlink:href="#m4ed2bb6265" x="57.6" y="294.67187" style="stroke: #000000; stroke-width: 0.6"/>
      </g>
     </g>
    </g>
    <g id="ytick_12">
     <g id="line2d_39">
      <g>
       <use xlink:href="#m4ed2bb6265" x="57.6" y="290.976692" style="stroke: #000000; stroke-width: 0.6"/>
      </g>
     </g>
    </g>
    <g id="ytick_13">
     <g id="line2d_40">
      <g>
       <use xlink:href="#m4ed2bb6265" x="57.6" y="288.110489" style="stroke: #000000; stroke-width: 0.6"/>
      </g>
     </g>
    </g>
    <g id="ytick_14">
     <g id="line2d_41">
      <g>
       <use xlink:href="#m4ed2bb6265" x="57.6" y="285.768631" style="stroke: #000000; stroke-width: 0.6"/>
      </g>
     </g>
    </g>
    <g id="ytick_15">
     <g id="line2d_42">
      <g>
       <use xlink:href="#m4ed2bb6265" x="57.6" y="283.788618" style="stroke: #000000; stroke-width: 0.6"/>
      </g>
     </g>
    </g>
    <g id="ytick_16">
     <g id="line2d_43">
      <g>
       <use xlink:href="#m4ed2bb6265" x="57.6" y="282.073453" style="stroke: #000000; stroke-width: 0.6"/>
      </g>
     </g>
    </g>
    <g id="ytick_17">
     <g id="line2d_44">
      <g>
       <use xlink:href="#m4ed2bb6265" x="57.6" y="280.56057" style="stroke: #000000; stroke-width: 0.6"/>
      </g>
     </g>
    </g>
    <g id="ytick_18">
     <g id="line2d_45">
      <g>
       <use xlink:href="#m4ed2bb6265" x="57.6" y="270.304012" style="stroke: #000000; stroke-width: 0.6"/>
      </g>
     </g>
    </g>
    <g id="ytick_19">
     <g id="line2d_46">
      <g>
       <use xlink:href="#m4ed2bb6265" x="57.6" y="265.095952" style="stroke: #000000; stroke-width: 0.6"/>
      </g>
     </g>
    </g>
    <g id="ytick_20">
     <g id="line2d_47">
      <g>
       <use xlink:href="#m4ed2bb6265" x="57.6" y="261.400774" style="stroke: #000000; stroke-width: 0.6"/>
      </g>
     </g>
    </g>
    <g id="ytick_21">
     <g id="line2d_48">
      <g>
       <use xlink:href="#m4ed2bb6265" x="57.6" y="258.534571" style="stroke: #000000; stroke-width: 0.6"/>
      </g>
     </g>
    </g>
    <g id="ytick_22">
     <g id="line2d_49">
      <g>
       <use xlink:href="#m4ed2bb6265" x="57.6" y="256.192713" style="stroke: #000000; stroke-width: 0.6"/>
      </g>
     </g>
    </g>
    <g id="ytick_23">
     <g id="line2d_50">
      <g>
       <use xlink:href="#m4ed2bb6265" x="57.6" y="254.2127" style="stroke: #000000; stroke-width: 0.6"/>
      </g>
     </g>
    </g>
    <g id="ytick_24">
     <g id="line2d_51">
      <g>
       <use xlink:href="#m4ed2bb6265" x="57.6" y="252.497535" style="stroke: #000000; stroke-width: 0.6"/>
      </g>
     </g>
    </g>
    <g id="ytick_25">
     <g id="line2d_52">
      <g>
       <use xlink:href="#m4ed2bb6265" x="57.6" y="250.984652" style="stroke: #000000; stroke-width: 0.6"/>
      </g>
     </g>
    </g>
    <g id="ytick_26">
     <g id="line2d_53">
      <g>
       <use xlink:href="#m4ed2bb6265" x="57.6" y="240.728094" style="stroke: #000000; stroke-width: 0.6"/>
      </g>
     </g>
    </g>
    <g id="ytick_27">
     <g id="line2d_54">
      <g>
       <use xlink:href="#m4ed2bb6265" x="57.6" y="235.520034" style="stroke: #000000; stroke-width: 0.6"/>
      </g>
     </g>
    </g>
    <g id="ytick_28">
     <g id="line2d_55">
      <g>
       <use xlink:href="#m4ed2bb6265" x="57.6" y="231.824856" style="stroke: #000000; stroke-width: 0.6"/>
      </g>
     </g>
    </g>
    <g id="ytick_29">
     <g id="line2d_56">
      <g>
       <use xlink:href="#m4ed2bb6265" x="57.6" y="228.958653" style="stroke: #000000; stroke-width: 0.6"/>
      </g>
     </g>
    </g>
    <g id="ytick_30">
     <g id="line2d_57">
      <g>
       <use xlink:href="#m4ed2bb6265" x="57.6" y="226.616795" style="stroke: #000000; stroke-width: 0.6"/>
      </g>
     </g>
    </g>
    <g id="ytick_31">
     <g id="line2d_58">
      <g>
       <use xlink:href="#m4ed2bb6265" x="57.6" y="224.636782" style="stroke: #000000; stroke-width: 0.6"/>
      </g>
     </g>
    </g>
    <g id="ytick_32">
     <g id="line2d_59">
      <g>
       <use xlink:href="#m4ed2bb6265" x="57.6" y="222.921617" style="stroke: #000000; stroke-width: 0.6"/>
      </g>
     </g>
    </g>
    <g id="ytick_33">
     <g id="line2d_60">
      <g>
       <use xlink:href="#m4ed2bb6265" x="57.6" y="221.408735" style="stroke: #000000; stroke-width: 0.6"/>
      </g>
     </g>
    </g>
    <g id="ytick_34">
     <g id="line2d_61">
      <g>
       <use xlink:href="#m4ed2bb6265" x="57.6" y="211.152176" style="stroke: #000000; stroke-width: 0.6"/>
      </g>
     </g>
    </g>
    <g id="ytick_35">
     <g id="line2d_62">
      <g>
       <use xlink:href="#m4ed2bb6265" x="57.6" y="205.944116" style="stroke: #000000; stroke-width: 0.6"/>
      </g>
     </g>
    </g>
    <g id="ytick_36">
     <g id="line2d_63">
      <g>
       <use xlink:href="#m4ed2bb6265" x="57.6" y="202.248938" style="stroke: #000000; stroke-width: 0.6"/>
      </g>
     </g>
    </g>
    <g id="ytick_37">
     <g id="line2d_64">
      <g>
       <use xlink:href="#m4ed2bb6265" x="57.6" y="199.382735" style="stroke: #000000; stroke-width: 0.6"/>
      </g>
     </g>
    </g>
    <g id="ytick_38">
     <g id="line2d_65">
      <g>
       <use xlink:href="#m4ed2bb6265" x="57.6" y="197.040877" style="stroke: #000000; stroke-width: 0.6"/>
      </g>
     </g>
    </g>
    <g id="ytick_39">
     <g id="line2d_66">
      <g>
       <use xlink:href="#m4ed2bb6265" x="57.6" y="195.060864" style="stroke: #000000; stroke-width: 0.6"/>
      </g>
     </g>
    </g>
    <g id="ytick_40">
     <g id="line2d_67">
      <g>
       <use xlink:href="#m4ed2bb6265" x="57.6" y="193.345699" style="stroke: #000000; stroke-width: 0.6"/>
      </g>
     </g>
    </g>
    <g id="ytick_41">
     <g id="line2d_68">
      <g>
       <use xlink:href="#m4ed2bb6265" x="57.6" y="191.832817" style="stroke: #000000; stroke-width: 0.6"/>
      </g>
     </g>
    </g>
    <g id="ytick_42">
     <g id="line2d_69">
      <g>
       <use xlink:href="#m4ed2bb6265" x="57.6" y="181.576258" style="stroke: #000000; stroke-width: 0.6"/>
      </g>
     </g>
    </g>
    <g id="ytick_43">
     <g id="line2d_70">
      <g>
       <use xlink:href="#m4ed2bb6265" x="57.6" y="176.368198" style="stroke: #000000; stroke-width: 0.6"/>
      </g>
     </g>
    </g>
    <g id="ytick_44">
     <g id="line2d_71">
      <g>
       <use xlink:href="#m4ed2bb6265" x="57.6" y="172.67302" style="stroke: #000000; stroke-width: 0.6"/>
      </g>
     </g>
    </g>
    <g id="ytick_45">
     <g id="line2d_72">
      <g>
       <use xlink:href="#m4ed2bb6265" x="57.6" y="169.806817" style="stroke: #000000; stroke-width: 0.6"/>
      </g>
     </g>
    </g>
    <g id="ytick_46">
     <g id="line2d_73">
      <g>
       <use xlink:href="#m4ed2bb6265" x="57.6" y="167.464959" style="stroke: #000000; stroke-width: 0.6"/>
      </g>
     </g>
    </g>
    <g id="ytick_47">
     <g id="line2d_74">
      <g>
       <use xlink:href="#m4ed2bb6265" x="57.6" y="165.484947" style="stroke: #000000; stroke-width: 0.6"/>
      </g>
     </g>
    </g>
    <g id="ytick_48">
     <g id="line2d_75">
      <g>
       <use xlink:href="#m4ed2bb6265" x="57.6" y="163.769781" style="stroke: #000000; stroke-width: 0.6"/>
      </g>
     </g>
    </g>
    <g id="ytick_49">
     <g id="line2d_76">
      <g>
       <use xlink:href="#m4ed2bb6265" x="57.6" y="162.256899" style="stroke: #000000; stroke-width: 0.6"/>
      </g>
     </g>
    </g>
    <g id="ytick_50">
     <g id="line2d_77">
      <g>
       <use xlink:href="#m4ed2bb6265" x="57.6" y="152.00034" style="stroke: #000000; stroke-width: 0.6"/>
      </g>
     </g>
    </g>
    <g id="ytick_51">
     <g id="line2d_78">
      <g>
       <use xlink:href="#m4ed2bb6265" x="57.6" y="146.79228" style="stroke: #000000; stroke-width: 0.6"/>
      </g>
     </g>
    </g>
    <g id="ytick_52">
     <g id="line2d_79">
      <g>
       <use xlink:href="#m4ed2bb6265" x="57.6" y="143.097102" style="stroke: #000000; stroke-width: 0.6"/>
      </g>
     </g>
    </g>
    <g id="ytick_53">
     <g id="line2d_80">
      <g>
       <use xlink:href="#m4ed2bb6265" x="57.6" y="140.230899" style="stroke: #000000; stroke-width: 0.6"/>
      </g>
     </g>
    </g>
    <g id="ytick_54">
     <g id="line2d_81">
      <g>
       <use xlink:href="#m4ed2bb6265" x="57.6" y="137.889041" style="stroke: #000000; stroke-width: 0.6"/>
      </g>
     </g>
    </g>
    <g id="ytick_55">
     <g id="line2d_82">
      <g>
       <use xlink:href="#m4ed2bb6265" x="57.6" y="135.909029" style="stroke: #000000; stroke-width: 0.6"/>
      </g>
     </g>
    </g>
    <g id="ytick_56">
     <g id="line2d_83">
      <g>
       <use xlink:href="#m4ed2bb6265" x="57.6" y="134.193864" style="stroke: #000000; stroke-width: 0.6"/>
      </g>
     </g>
    </g>
    <g id="ytick_57">
     <g id="line2d_84">
      <g>
       <use xlink:href="#m4ed2bb6265" x="57.6" y="132.680981" style="stroke: #000000; stroke-width: 0.6"/>
      </g>
     </g>
    </g>
    <g id="ytick_58">
     <g id="line2d_85">
      <g>
       <use xlink:href="#m4ed2bb6265" x="57.6" y="122.424422" style="stroke: #000000; stroke-width: 0.6"/>
      </g>
     </g>
    </g>
    <g id="ytick_59">
     <g id="line2d_86">
      <g>
       <use xlink:href="#m4ed2bb6265" x="57.6" y="117.216362" style="stroke: #000000; stroke-width: 0.6"/>
      </g>
     </g>
    </g>
    <g id="ytick_60">
     <g id="line2d_87">
      <g>
       <use xlink:href="#m4ed2bb6265" x="57.6" y="113.521184" style="stroke: #000000; stroke-width: 0.6"/>
      </g>
     </g>
    </g>
    <g id="ytick_61">
     <g id="line2d_88">
      <g>
       <use xlink:href="#m4ed2bb6265" x="57.6" y="110.654981" style="stroke: #000000; stroke-width: 0.6"/>
      </g>
     </g>
    </g>
    <g id="ytick_62">
     <g id="line2d_89">
      <g>
       <use xlink:href="#m4ed2bb6265" x="57.6" y="108.313123" style="stroke: #000000; stroke-width: 0.6"/>
      </g>
     </g>
    </g>
    <g id="ytick_63">
     <g id="line2d_90">
      <g>
       <use xlink:href="#m4ed2bb6265" x="57.6" y="106.333111" style="stroke: #000000; stroke-width: 0.6"/>
      </g>
     </g>
    </g>
    <g id="ytick_64">
     <g id="line2d_91">
      <g>
       <use xlink:href="#m4ed2bb6265" x="57.6" y="104.617946" style="stroke: #000000; stroke-width: 0.6"/>
      </g>
     </g>
    </g>
    <g id="ytick_65">
     <g id="line2d_92">
      <g>
       <use xlink:href="#m4ed2bb6265" x="57.6" y="103.105063" style="stroke: #000000; stroke-width: 0.6"/>
      </g>
     </g>
    </g>
    <g id="ytick_66">
     <g id="line2d_93">
      <g>
       <use xlink:href="#m4ed2bb6265" x="57.6" y="92.848505" style="stroke: #000000; stroke-width: 0.6"/>
      </g>
     </g>
    </g>
    <g id="ytick_67">
     <g id="line2d_94">
      <g>
       <use xlink:href="#m4ed2bb6265" x="57.6" y="87.640444" style="stroke: #000000; stroke-width: 0.6"/>
      </g>
     </g>
    </g>
    <g id="ytick_68">
     <g id="line2d_95">
      <g>
       <use xlink:href="#m4ed2bb6265" x="57.6" y="83.945266" style="stroke: #000000; stroke-width: 0.6"/>
      </g>
     </g>
    </g>
    <g id="ytick_69">
     <g id="line2d_96">
      <g>
       <use xlink:href="#m4ed2bb6265" x="57.6" y="81.079063" style="stroke: #000000; stroke-width: 0.6"/>
      </g>
     </g>
    </g>
    <g id="ytick_70">
     <g id="line2d_97">
      <g>
       <use xlink:href="#m4ed2bb6265" x="57.6" y="78.737205" style="stroke: #000000; stroke-width: 0.6"/>
      </g>
     </g>
    </g>
    <g id="ytick_71">
     <g id="line2d_98">
      <g>
       <use xlink:href="#m4ed2bb6265" x="57.6" y="76.757193" style="stroke: #000000; stroke-width: 0.6"/>
      </g>
     </g>
    </g>
    <g id="ytick_72">
     <g id="line2d_99">
      <g>
       <use xlink:href="#m4ed2bb6265" x="57.6" y="75.042028" style="stroke: #000000; stroke-width: 0.6"/>
      </g>
     </g>
    </g>
    <g id="ytick_73">
     <g id="line2d_100">
      <g>
       <use xlink:href="#m4ed2bb6265" x="57.6" y="73.529145" style="stroke: #000000; stroke-width: 0.6"/>
      </g>
     </g>
    </g>
    <g id="ytick_74">
     <g id="line2d_101">
      <g>
       <use xlink:href="#m4ed2bb6265" x="57.6" y="63.272587" style="stroke: #000000; stroke-width: 0.6"/>
      </g>
     </g>
    </g>
    <g id="ytick_75">
     <g id="line2d_102">
      <g>
       <use xlink:href="#m4ed2bb6265" x="57.6" y="58.064526" style="stroke: #000000; stroke-width: 0.6"/>
      </g>
     </g>
    </g>
    <g id="ytick_76">
     <g id="line2d_103">
      <g>
       <use xlink:href="#m4ed2bb6265" x="57.6" y="54.369348" style="stroke: #000000; stroke-width: 0.6"/>
      </g>
     </g>
    </g>
    <g id="ytick_77">
     <g id="line2d_104">
      <g>
       <use xlink:href="#m4ed2bb6265" x="57.6" y="51.503146" style="stroke: #000000; stroke-width: 0.6"/>
      </g>
     </g>
    </g>
    <g id="ytick_78">
     <g id="line2d_105">
      <g>
       <use xlink:href="#m4ed2bb6265" x="57.6" y="49.161287" style="stroke: #000000; stroke-width: 0.6"/>
      </g>
     </g>
    </g>
    <g id="ytick_79">
     <g id="line2d_106">
      <g>
       <use xlink:href="#m4ed2bb6265" x="57.6" y="47.181275" style="stroke: #000000; stroke-width: 0.6"/>
      </g>
     </g>
    </g>
    <g id="ytick_80">
     <g id="line2d_107">
      <g>
       <use xlink:href="#m4ed2bb6265" x="57.6" y="45.46611" style="stroke: #000000; stroke-width: 0.6"/>
      </g>
     </g>
    </g>
    <g id="ytick_81">
     <g id="line2d_108">
      <g>
       <use xlink:href="#m4ed2bb6265" x="57.6" y="43.953227" style="stroke: #000000; stroke-width: 0.6"/>
      </g>
     </g>
    </g>
    <g id="text_20">
     <!-- Residual (log scale) -->
     <g transform="translate(21.020312 223.229562) rotate(-90) scale(0.1 -0.1)">
      <defs>
       <path id="DejaVuSans-52" d="M 2841 2188 
Q 3044 2119 3236 1894 
Q 3428 1669 3622 1275 
L 4263 0 
L 3584 0 
L 2988 1197 
Q 2756 1666 2539 1819 
Q 2322 1972 1947 1972 
L 1259 1972 
L 1259 0 
L 628 0 
L 628 4666 
L 2053 4666 
Q 2853 4666 3247 4331 
Q 3641 3997 3641 3322 
Q 3641 2881 3436 2590 
Q 3231 2300 2841 2188 
z
M 1259 4147 
L 1259 2491 
L 2053 2491 
Q 2509 2491 2742 2702 
Q 2975 2913 2975 3322 
Q 2975 3731 2742 3939 
Q 2509 4147 2053 4147 
L 1259 4147 
z
" transform="scale(0.015625)"/>
       <path id="DejaVuSans-73" d="M 2834 3397 
L 2834 2853 
Q 2591 2978 2328 3040 
Q 2066 3103 1784 3103 
Q 1356 3103 1142 2972 
Q 928 2841 928 2578 
Q 928 2378 1081 2264 
Q 1234 2150 1697 2047 
L 1894 2003 
Q 2506 1872 2764 1633 
Q 3022 1394 3022 966 
Q 3022 478 2636 193 
Q 2250 -91 1575 -91 
Q 1294 -91 989 -36 
Q 684 19 347 128 
L 347 722 
Q 666 556 975 473 
Q 1284 391 1588 391 
Q 1994 391 2212 530 
Q 2431 669 2431 922 
Q 2431 1156 2273 1281 
Q 2116 1406 1581 1522 
L 1381 1569 
Q 847 1681 609 1914 
Q 372 2147 372 2553 
Q 372 3047 722 3315 
Q 1072 3584 1716 3584 
Q 2034 3584 2315 3537 
Q 2597 3491 2834 3397 
z
" transform="scale(0.015625)"/>
       <path id="DejaVuSans-64" d="M 2906 2969 
L 2906 4863 
L 3481 4863 
L 3481 0 
L 2906 0 
L 2906 525 
Q 2725 213 2448 61 
Q 2172 -91 1784 -91 
Q 1150 -91 751 415 
Q 353 922 353 1747 
Q 353 2572 751 3078 
Q 1150 3584 1784 3584 
Q 2172 3584 2448 3432 
Q 2725 3281 2906 2969 
z
M 947 1747 
Q 947 1113 1208 752 
Q 1469 391 1925 391 
Q 2381 391 2643 752 
Q 2906 1113 2906 1747 
Q 2906 2381 2643 2742 
Q 2381 3103 1925 3103 
Q 1469 3103 1208 2742 
Q 947 2381 947 1747 
z
" transform="scale(0.015625)"/>
       <path id="DejaVuSans-75" d="M 544 1381 
L 544 3500 
L 1119 3500 
L 1119 1403 
Q 1119 906 1312 657 
Q 1506 409 1894 409 
Q 2359 409 2629 706 
Q 2900 1003 2900 1516 
L 2900 3500 
L 3475 3500 
L 3475 0 
L 2900 0 
L 2900 538 
Q 2691 219 2414 64 
Q 2138 -91 1772 -91 
Q 1169 -91 856 284 
Q 544 659 544 1381 
z
M 1991 3584 
L 1991 3584 
z
" transform="scale(0.015625)"/>
       <path id="DejaVuSans-6c" d="M 603 4863 
L 1178 4863 
L 1178 0 
L 603 0 
L 603 4863 
z
" transform="scale(0.015625)"/>
       <path id="DejaVuSans-20" transform="scale(0.015625)"/>
       <path id="DejaVuSans-28" d="M 1984 4856 
Q 1566 4138 1362 3434 
Q 1159 2731 1159 2009 
Q 1159 1288 1364 580 
Q 1569 -128 1984 -844 
L 1484 -844 
Q 1016 -109 783 600 
Q 550 1309 550 2009 
Q 550 2706 781 3412 
Q 1013 4119 1484 4856 
L 1984 4856 
z
" transform="scale(0.015625)"/>
       <path id="DejaVuSans-67" d="M 2906 1791 
Q 2906 2416 2648 2759 
Q 2391 3103 1925 3103 
Q 1463 3103 1205 2759 
Q 947 2416 947 1791 
Q 947 1169 1205 825 
Q 1463 481 1925 481 
Q 2391 481 2648 825 
Q 2906 1169 2906 1791 
z
M 3481 434 
Q 3481 -459 3084 -895 
Q 2688 -1331 1869 -1331 
Q 1566 -1331 1297 -1286 
Q 1028 -1241 775 -1147 
L 775 -588 
Q 1028 -725 1275 -790 
Q 1522 -856 1778 -856 
Q 2344 -856 2625 -561 
Q 2906 -266 2906 331 
L 2906 616 
Q 2728 306 2450 153 
Q 2172 0 1784 0 
Q 1141 0 747 490 
Q 353 981 353 1791 
Q 353 2603 747 3093 
Q 1141 3584 1784 3584 
Q 2172 3584 2450 3431 
Q 2728 3278 2906 2969 
L 2906 3500 
L 3481 3500 
L 3481 434 
z
" transform="scale(0.015625)"/>
       <path id="DejaVuSans-63" d="M 3122 3366 
L 3122 2828 
Q 2878 2963 2633 3030 
Q 2388 3097 2138 3097 
Q 1578 3097 1268 2742 
Q 959 2388 959 1747 
Q 959 1106 1268 751 
Q 1578 397 2138 397 
Q 2388 397 2633 464 
Q 2878 531 3122 666 
L 3122 134 
Q 2881 22 2623 -34 
Q 2366 -91 2075 -91 
Q 1284 -91 818 406 
Q 353 903 353 1747 
Q 353 2603 823 3093 
Q 1294 3584 2113 3584 
Q 2378 3584 2631 3529 
Q 2884 3475 3122 3366 
z
" transform="scale(0.015625)"/>
       <path id="DejaVuSans-29" d="M 513 4856 
L 1013 4856 
Q 1481 4119 1714 3412 
Q 1947 2706 1947 2009 
Q 1947 1309 1714 600 
Q 1481 -109 1013 -844 
L 513 -844 
Q 928 -128 1133 580 
Q 1338 1288 1338 2009 
Q 1338 2731 1133 3434 
Q 928 4138 513 4856 
z
" transform="scale(0.015625)"/>
      </defs>
      <use xlink:href="#DejaVuSans-52"/>
      <use xlink:href="#DejaVuSans-65" transform="translate(64.982422 0)"/>
      <use xlink:href="#DejaVuSans-73" transform="translate(126.505859 0)"/>
      <use xlink:href="#DejaVuSans-69" transform="translate(178.605469 0)"/>
      <use xlink:href="#DejaVuSans-64" transform="translate(206.388672 0)"/>
      <use xlink:href="#DejaVuSans-75" transform="translate(269.865234 0)"/>
      <use xlink:href="#DejaVuSans-61" transform="translate(333.244141 0)"/>
      <use xlink:href="#DejaVuSans-6c" transform="translate(394.523438 0)"/>
      <use xlink:href="#DejaVuSans-20" transform="translate(422.306641 0)"/>
      <use xlink:href="#DejaVuSans-28" transform="translate(454.09375 0)"/>
      <use xlink:href="#DejaVuSans-6c" transform="translate(493.107422 0)"/>
      <use xlink:href="#DejaVuSans-6f" transform="translate(520.890625 0)"/>
      <use xlink:href="#DejaVuSans-67" transform="translate(582.072266 0)"/>
      <use xlink:href="#DejaVuSans-20" transform="translate(645.548828 0)"/>
      <use xlink:href="#DejaVuSans-73" transform="translate(677.335938 0)"/>
      <use xlink:href="#DejaVuSans-63" transform="translate(729.435547 0)"/>
      <use xlink:href="#DejaVuSans-61" transform="translate(784.416016 0)"/>
      <use xlink:href="#DejaVuSans-6c" transform="translate(845.695312 0)"/>
      <use xlink:href="#DejaVuSans-65" transform="translate(873.478516 0)"/>
      <use xlink:href="#DejaVuSans-29" transform="translate(935.001953 0)"/>
     </g>
    </g>
   </g>
   <g id="line2d_109">
    <path d="M 73.832727 53.568 
L 74.157544 58.085087 
L 74.64477 60.870813 
L 75.294404 63.272687 
L 76.106446 65.494467 
L 76.918488 67.21612 
L 77.892939 68.896791 
L 79.192207 70.70115 
L 81.141109 72.961293 
L 84.22687 76.107294 
L 95.757872 87.46478 
L 231.36895 220.251025 
L 233.642669 222.46491 
L 250.695559 238.967524 
L 250.857967 239.036819 
L 251.182784 239.309514 
L 251.994827 240.12966 
L 252.482052 240.503112 
L 252.969277 241.009316 
L 253.294094 241.228131 
L 254.268545 242.126806 
L 254.755771 242.515821 
L 254.918179 242.752048 
L 255.080588 242.779543 
L 255.567813 243.303158 
L 255.730221 243.306177 
L 256.217447 243.859651 
L 256.379855 243.818329 
L 256.542264 244.07819 
L 256.704672 244.114405 
L 256.867081 244.377246 
L 257.029489 244.342237 
L 257.516715 244.86761 
L 257.679123 244.910134 
L 258.166349 245.397952 
L 258.328757 245.419272 
L 258.815983 245.878139 
L 258.978391 245.864072 
L 259.465616 246.360244 
L 259.628025 246.33825 
L 260.11525 246.837272 
L 260.277659 246.807998 
L 260.764884 247.290778 
L 260.927293 247.233863 
L 261.414518 247.743665 
L 261.576927 247.704668 
L 262.064152 248.201907 
L 262.226561 248.139803 
L 262.551378 248.395851 
L 262.713786 248.584971 
L 262.876194 248.535165 
L 263.36342 249.090564 
L 263.525828 248.974061 
L 263.688237 249.206444 
L 263.850645 249.220235 
L 264.013054 249.458144 
L 264.175462 249.369631 
L 264.337871 249.570349 
L 264.500279 249.59213 
L 264.662688 249.845081 
L 264.825096 249.82822 
L 265.312322 250.324013 
L 265.47473 250.296865 
L 265.961956 250.785797 
L 266.124364 250.723321 
L 266.449181 251.062162 
L 266.611589 251.203602 
L 266.773998 251.190541 
L 267.261223 251.728459 
L 267.423632 251.700528 
L 267.910857 252.004708 
L 268.073266 252.045721 
L 268.560491 252.401469 
L 268.885308 252.554057 
L 270.022167 253.218838 
L 270.184576 253.498267 
L 270.346984 253.502934 
L 270.509393 253.742569 
L 270.671801 253.718904 
L 271.159027 254.246643 
L 271.646252 254.432985 
L 272.458295 254.990426 
L 272.94552 255.289984 
L 273.919971 255.864127 
L 274.244788 256.054327 
L 274.569605 256.221379 
L 275.544056 256.612628 
L 276.356098 257.044604 
L 276.680915 257.103838 
L 277.005732 257.303155 
L 277.330549 257.356999 
L 280.741127 258.847129 
L 280.903535 259.010388 
L 281.065944 258.96248 
L 281.715578 259.257739 
L 282.365212 259.467356 
L 282.690029 259.645393 
L 283.339663 259.851512 
L 284.476522 260.269621 
L 284.801339 260.352034 
L 285.288564 260.537718 
L 287.8871 261.255298 
L 288.374325 261.605085 
L 288.536734 261.494357 
L 288.699142 261.647193 
L 288.861551 261.639926 
L 289.023959 261.762844 
L 289.186368 261.669699 
L 289.673593 261.896284 
L 289.836002 261.80415 
L 289.99841 261.912885 
L 290.485636 261.890262 
L 290.972861 262.180419 
L 291.135269 262.125687 
L 291.460086 262.336866 
L 291.622495 262.429729 
L 291.784903 262.301663 
L 291.947312 262.435185 
L 292.10972 262.346586 
L 292.272129 262.437371 
L 292.434537 262.309282 
L 292.921763 262.494954 
L 293.084171 262.488709 
L 293.24658 262.622915 
L 293.408988 262.579276 
L 293.571397 262.6868 
L 293.733805 262.561425 
L 294.058622 262.622873 
L 295.195481 262.85491 
L 295.35789 262.756446 
L 295.845115 262.902672 
L 296.007524 262.898577 
L 296.169932 263.078827 
L 296.332341 263.058433 
L 296.494749 263.161211 
L 296.657158 263.034099 
L 296.819566 263.26692 
L 296.981975 263.21821 
L 297.144383 263.380001 
L 297.306792 263.210008 
L 297.4692 263.391603 
L 297.631609 263.264166 
L 297.794017 263.417741 
L 297.956425 263.286833 
L 298.118834 263.432999 
L 298.281242 263.328136 
L 298.443651 263.469931 
L 298.606059 263.369112 
L 298.768468 263.503428 
L 298.930876 263.376954 
L 299.093285 263.502092 
L 299.255693 263.401165 
L 299.418102 263.592363 
L 299.58051 263.441251 
L 299.742919 263.523957 
L 299.905327 263.44511 
L 300.067736 263.581421 
L 300.230144 263.468429 
L 300.392553 263.627608 
L 300.554961 263.490951 
L 300.71737 263.670244 
L 300.879778 263.491525 
L 301.042187 263.654085 
L 301.204595 263.567995 
L 301.367004 263.718149 
L 301.529412 263.645169 
L 301.69182 263.722382 
L 301.854229 263.673331 
L 302.016637 263.816725 
L 302.503863 263.712546 
L 302.666271 263.857933 
L 302.991088 263.752727 
L 303.640722 263.918596 
L 303.803131 263.893654 
L 304.127948 264.048961 
L 304.777582 264.254635 
L 304.93999 264.201709 
L 305.427215 264.422232 
L 305.752032 264.419244 
L 305.914441 264.492069 
L 306.239258 264.353763 
L 306.401666 264.466593 
L 306.564075 264.852432 
L 307.0513 264.521135 
L 307.376117 264.603378 
L 307.538526 264.507594 
L 308.18816 264.723845 
L 308.512976 264.851975 
L 308.675385 264.926828 
L 308.837793 264.810001 
L 309.487427 265.004812 
L 309.649836 264.908086 
L 309.974653 265.134874 
L 310.29947 265.010523 
L 310.461878 265.177965 
L 310.624287 265.121374 
L 310.786695 265.220289 
L 310.949104 265.174776 
L 311.111512 265.352332 
L 311.436329 265.254161 
L 311.923555 265.315102 
L 312.085963 265.456775 
L 312.573188 265.391504 
L 313.060414 265.560543 
L 313.872456 265.483031 
L 314.034865 265.587994 
L 314.684499 265.486028 
L 314.846907 265.464014 
L 315.009316 265.641584 
L 315.496541 265.511572 
L 315.658949 265.629781 
L 315.983766 265.628607 
L 316.146175 265.60339 
L 316.308583 265.704458 
L 316.6334 265.664123 
L 316.795809 265.622493 
L 316.958217 265.724316 
L 317.445443 265.663535 
L 317.607851 265.74129 
L 317.932668 265.700475 
L 318.744711 265.704837 
L 318.907119 265.771093 
L 319.069527 265.700502 
L 319.556753 265.78666 
L 319.719161 265.710463 
L 320.206387 265.810515 
L 320.531204 265.778739 
L 321.343246 265.787083 
L 321.505655 265.841776 
L 321.830472 265.81822 
L 323.292148 265.832849 
L 323.454556 265.890551 
L 323.779373 265.855441 
L 324.266599 265.838454 
L 324.753824 265.947501 
L 325.078641 265.909635 
L 325.565867 265.88143 
L 326.053092 265.970988 
L 326.377909 265.921051 
L 327.189951 265.927603 
L 327.35236 265.993155 
L 327.677177 265.936472 
L 328.489219 265.944983 
L 328.651628 266.011107 
L 328.976445 265.951303 
L 329.46367 265.936448 
L 329.950895 266.012892 
L 330.275712 265.960617 
L 330.438121 265.937174 
L 330.600529 266.031823 
L 330.925346 265.97431 
L 331.737389 265.93717 
L 331.899797 266.017274 
L 332.224614 265.984896 
L 333.036657 265.948093 
L 333.199065 266.041193 
L 333.523882 265.98359 
L 334.335924 265.946884 
L 334.498333 266.026329 
L 334.82315 265.991136 
L 335.635192 265.954301 
L 335.797601 266.047657 
L 336.122418 265.98974 
L 336.93446 265.966823 
L 337.096868 266.039337 
L 337.421685 266.001878 
L 338.883362 266.006478 
L 339.04577 266.067576 
L 339.370587 266.011452 
L 340.182629 266.009556 
L 340.345038 266.070985 
L 340.669855 266.02461 
L 341.481897 266.025978 
L 341.644306 266.08094 
L 341.969123 266.019564 
L 342.781165 266.023113 
L 342.943574 266.080655 
L 343.268391 266.03099 
L 343.918024 266.033668 
L 346.029335 266.054636 
L 346.191743 266.140376 
L 346.354152 266.065489 
L 346.678969 266.076054 
L 347.815828 266.127476 
L 348.303053 266.146014 
L 348.465462 266.210927 
L 348.952687 266.102723 
L 349.439913 266.2317 
L 349.927138 266.097849 
L 350.414364 266.216463 
L 350.901589 266.135681 
L 351.388814 266.286825 
L 351.87604 266.153425 
L 352.363265 266.268226 
L 352.850491 266.176192 
L 353.500125 266.227037 
L 354.636984 266.251324 
L 354.961801 266.219821 
L 356.423477 266.244595 
L 356.585886 266.341905 
L 356.910703 266.2661 
L 357.397928 266.248275 
L 357.722745 266.300878 
L 358.20997 266.281296 
L 360.321281 266.265341 
L 360.483689 266.342357 
L 360.808506 266.3077 
L 361.620548 266.296957 
L 361.782957 266.395168 
L 362.107774 266.305574 
L 362.594999 266.292443 
L 362.757408 266.38222 
L 363.244633 266.291558 
L 364.056676 266.323637 
L 364.381493 266.31547 
L 365.355943 266.304635 
L 369.416155 266.31434 
L 369.578564 266.433867 
L 369.903381 266.31653 
L 370.390606 266.254781 
L 370.553015 266.36714 
L 370.715423 266.301948 
L 370.877832 266.360496 
L 371.202649 266.302609 
L 372.177099 266.303581 
L 372.339508 266.275234 
L 372.664325 266.338283 
L 372.826733 266.378459 
L 373.15155 266.29767 
L 373.638776 266.354142 
L 373.963593 266.322793 
L 374.450818 266.399473 
L 375.100452 266.295347 
L 375.587677 266.34504 
L 375.912494 266.284217 
L 376.074903 266.387404 
L 376.237311 266.314024 
L 376.562128 266.360291 
L 376.724537 266.402216 
L 377.049354 266.29331 
L 377.698988 266.314581 
L 378.186213 266.324764 
L 378.673439 266.410134 
L 378.998255 266.296912 
L 379.485481 266.344469 
L 379.810298 266.28308 
L 379.972706 266.376519 
L 380.135115 266.311929 
L 380.459932 266.363508 
L 380.62234 266.401421 
L 380.947157 266.292699 
L 381.434383 266.336714 
L 381.7592 266.301312 
L 381.921608 266.385707 
L 382.084017 266.32094 
L 382.408834 266.346597 
L 382.571242 266.396634 
L 382.896059 266.293336 
L 383.383284 266.355534 
L 383.708101 266.311967 
L 383.87051 266.391266 
L 384.032918 266.331391 
L 384.520144 266.417161 
L 384.682552 266.283519 
L 385.007369 266.345021 
L 385.169778 266.469045 
L 385.494595 266.313933 
L 385.657003 266.288755 
L 385.819412 266.386174 
L 385.98182 266.326699 
L 386.469045 266.414637 
L 386.793862 266.315126 
L 387.281088 266.353325 
L 387.605905 266.290673 
L 387.768313 266.385723 
L 387.930722 266.329556 
L 388.255539 266.372296 
L 388.417947 266.410411 
L 388.742764 266.292804 
L 388.905173 266.324104 
L 389.067581 266.474278 
L 389.392398 266.316647 
L 389.879623 266.320044 
L 390.20444 266.341592 
L 390.366849 266.393205 
L 390.691666 266.293592 
L 391.178891 266.348583 
L 391.503708 266.303814 
L 391.666117 266.385609 
L 391.828525 266.318974 
L 392.315751 266.407946 
L 392.478159 266.280302 
L 392.802976 266.340221 
L 392.965385 266.464643 
L 393.290201 266.305772 
L 394.751878 266.320268 
L 394.914286 266.439198 
L 395.239103 266.36024 
L 396.051146 266.361492 
L 396.213554 266.401355 
L 396.538371 266.294574 
L 397.188005 266.309291 
L 398.162456 266.380579 
L 398.324864 266.254465 
L 398.487273 266.276909 
L 398.487273 266.276909 
" clip-path="url(#p01a8491fab)" style="fill: none; stroke: #1f77b4; stroke-width: 1.5; stroke-linecap: square"/>
   </g>
   <g id="line2d_110">
    <path d="M 73.832727 62.343346 
L 74.319953 95.26328 
L 74.807178 112.177682 
L 75.294404 123.386022 
L 75.944037 133.096299 
L 76.593671 139.735748 
L 77.080897 142.907669 
L 77.568122 144.731747 
L 78.055348 145.701323 
L 79.517024 148.092116 
L 82.277968 153.187835 
L 88.936716 166.093594 
L 134.086272 254.416124 
L 134.411089 255.087736 
L 135.872765 257.932755 
L 136.197582 258.377743 
L 136.522399 259.151315 
L 137.172033 260.310866 
L 137.659259 261.253777 
L 137.821667 261.438203 
L 138.308893 262.555982 
L 138.471301 262.750251 
L 138.63371 262.767132 
L 138.958527 263.821201 
L 139.770569 265.428454 
L 139.932977 265.311853 
L 140.257794 266.14154 
L 140.420203 266.384672 
L 140.907428 267.438941 
L 141.069837 267.427011 
L 142.531513 270.241739 
L 142.693922 270.338086 
L 143.018738 271.222595 
L 143.181147 271.007307 
L 143.830781 272.133944 
L 143.993189 272.196093 
L 144.155598 272.928018 
L 144.318006 272.829375 
L 144.96764 274.878831 
L 145.130049 274.849483 
L 145.617274 275.610674 
L 145.779683 275.701066 
L 146.266908 276.505348 
L 146.591725 276.709409 
L 146.754133 277.477279 
L 146.916542 277.473111 
L 147.07895 277.709184 
L 147.403767 278.493858 
L 147.566176 278.217699 
L 148.21581 279.330207 
L 148.378218 279.2517 
L 148.865444 280.545691 
L 149.027852 280.391055 
L 149.190261 281.342436 
L 149.352669 281.022239 
L 149.515078 281.82561 
L 149.677486 281.674688 
L 150.164711 282.5568 
L 150.32712 282.018108 
L 150.489528 282.039341 
L 150.651937 283.180785 
L 150.814345 283.172967 
L 151.301571 284.160111 
L 151.463979 284.062933 
L 151.626388 284.341953 
L 151.788796 283.911993 
L 151.951205 283.860641 
L 152.113613 285.21478 
L 152.276022 285.186118 
L 152.43843 284.791414 
L 152.600839 285.057788 
L 152.763247 285.019612 
L 152.925656 285.231465 
L 153.088064 285.990504 
L 153.250473 285.953057 
L 154.712149 288.112328 
L 155.036966 288.6969 
L 155.199374 287.023157 
L 155.524191 287.55004 
L 155.6866 287.888152 
L 155.849008 287.934324 
L 156.011417 287.84777 
L 156.173825 288.165015 
L 156.336234 287.894996 
L 156.823459 289.031693 
L 156.985867 288.968055 
L 157.148276 288.649359 
L 158.285135 289.580255 
L 158.447544 289.896714 
L 158.609952 290.549345 
L 158.772361 291.752099 
L 158.934769 289.884929 
L 159.097178 291.139697 
L 159.259586 290.32886 
L 159.421995 291.365513 
L 159.584403 291.182275 
L 159.746812 290.627699 
L 160.071629 290.628795 
L 160.234037 290.822252 
L 160.396445 290.54611 
L 160.558854 290.731748 
L 160.883671 293.26879 
L 161.046079 293.391128 
L 161.208488 292.507788 
L 161.370896 293.154382 
L 161.533305 292.797776 
L 161.695713 293.205173 
L 162.182939 293.40047 
L 162.345347 293.951086 
L 162.507756 293.971634 
L 162.832573 293.638585 
L 163.15739 293.509105 
L 163.319798 294.025166 
L 164.294249 294.646764 
L 164.619066 294.546979 
L 164.943883 294.820583 
L 165.431108 294.777382 
L 165.593517 294.501441 
L 165.755925 294.677714 
L 165.918334 294.29606 
L 166.080742 294.300454 
L 166.243151 293.558283 
L 166.892785 293.85753 
L 167.217602 294.314722 
L 167.542418 294.148448 
L 167.704827 294.394239 
L 167.867235 294.38171 
L 168.029644 294.695454 
L 168.354461 294.580138 
L 168.679278 294.797376 
L 168.841686 294.412968 
L 169.004095 294.352317 
L 169.166503 294.579273 
L 169.816137 294.580578 
L 170.140954 294.695007 
L 171.765039 294.841619 
L 171.927447 295.047308 
L 172.089856 294.059426 
L 172.252264 294.108062 
L 172.73949 294.589303 
L 172.901898 294.609186 
L 173.064307 294.794527 
L 173.226715 294.676875 
L 173.389124 294.699355 
L 173.551532 295.488 
L 173.713941 295.365998 
L 174.201166 295.457788 
L 174.363575 295.367864 
L 174.525983 295.101065 
L 174.688391 295.285095 
L 177.124519 295.383808 
L 178.098969 295.380899 
L 178.748603 295.363488 
L 179.235829 295.304832 
L 181.509548 295.404135 
L 182.32159 295.427549 
L 185.732168 295.433845 
L 188.817929 295.441676 
L 213.341609 295.442605 
L 398.487273 295.442605 
L 398.487273 295.442605 
" clip-path="url(#p01a8491fab)" style="fill: none; stroke: #ff7f0e; stroke-width: 1.5; stroke-linecap: square"/>
   </g>
   <g id="patch_3">
    <path d="M 57.6 307.584 
L 57.6 41.472 
" style="fill: none; stroke: #000000; stroke-width: 0.8; stroke-linejoin: miter; stroke-linecap: square"/>
   </g>
   <g id="patch_4">
    <path d="M 414.72 307.584 
L 414.72 41.472 
" style="fill: none; stroke: #000000; stroke-width: 0.8; stroke-linejoin: miter; stroke-linecap: square"/>
   </g>
   <g id="patch_5">
    <path d="M 57.6 307.584 
L 414.72 307.584 
" style="fill: none; stroke: #000000; stroke-width: 0.8; stroke-linejoin: miter; stroke-linecap: square"/>
   </g>
   <g id="patch_6">
    <path d="M 57.6 41.472 
L 414.72 41.472 
" style="fill: none; stroke: #000000; stroke-width: 0.8; stroke-linejoin: miter; stroke-linecap: square"/>
   </g>
   <g id="text_21">
    <!-- Residual Convergence of Jacobi vs Gauss-Seidel -->
    <g transform="translate(92.490938 35.472) scale(0.12 -0.12)">
     <defs>
      <path id="DejaVuSans-43" d="M 4122 4306 
L 4122 3641 
Q 3803 3938 3442 4084 
Q 3081 4231 2675 4231 
Q 1875 4231 1450 3742 
Q 1025 3253 1025 2328 
Q 1025 1406 1450 917 
Q 1875 428 2675 428 
Q 3081 428 3442 575 
Q 3803 722 4122 1019 
L 4122 359 
Q 3791 134 3420 21 
Q 3050 -91 2638 -91 
Q 1578 -91 968 557 
Q 359 1206 359 2328 
Q 359 3453 968 4101 
Q 1578 4750 2638 4750 
Q 3056 4750 3426 4639 
Q 3797 4528 4122 4306 
z
" transform="scale(0.015625)"/>
      <path id="DejaVuSans-76" d="M 191 3500 
L 800 3500 
L 1894 563 
L 2988 3500 
L 3597 3500 
L 2284 0 
L 1503 0 
L 191 3500 
z
" transform="scale(0.015625)"/>
      <path id="DejaVuSans-66" d="M 2375 4863 
L 2375 4384 
L 1825 4384 
Q 1516 4384 1395 4259 
Q 1275 4134 1275 3809 
L 1275 3500 
L 2222 3500 
L 2222 3053 
L 1275 3053 
L 1275 0 
L 697 0 
L 697 3053 
L 147 3053 
L 147 3500 
L 697 3500 
L 697 3744 
Q 697 4328 969 4595 
Q 1241 4863 1831 4863 
L 2375 4863 
z
" transform="scale(0.015625)"/>
      <path id="DejaVuSans-4a" d="M 628 4666 
L 1259 4666 
L 1259 325 
Q 1259 -519 939 -900 
Q 619 -1281 -91 -1281 
L -331 -1281 
L -331 -750 
L -134 -750 
Q 284 -750 456 -515 
Q 628 -281 628 325 
L 628 4666 
z
" transform="scale(0.015625)"/>
      <path id="DejaVuSans-62" d="M 3116 1747 
Q 3116 2381 2855 2742 
Q 2594 3103 2138 3103 
Q 1681 3103 1420 2742 
Q 1159 2381 1159 1747 
Q 1159 1113 1420 752 
Q 1681 391 2138 391 
Q 2594 391 2855 752 
Q 3116 1113 3116 1747 
z
M 1159 2969 
Q 1341 3281 1617 3432 
Q 1894 3584 2278 3584 
Q 2916 3584 3314 3078 
Q 3713 2572 3713 1747 
Q 3713 922 3314 415 
Q 2916 -91 2278 -91 
Q 1894 -91 1617 61 
Q 1341 213 1159 525 
L 1159 0 
L 581 0 
L 581 4863 
L 1159 4863 
L 1159 2969 
z
" transform="scale(0.015625)"/>
      <path id="DejaVuSans-47" d="M 3809 666 
L 3809 1919 
L 2778 1919 
L 2778 2438 
L 4434 2438 
L 4434 434 
Q 4069 175 3628 42 
Q 3188 -91 2688 -91 
Q 1594 -91 976 548 
Q 359 1188 359 2328 
Q 359 3472 976 4111 
Q 1594 4750 2688 4750 
Q 3144 4750 3555 4637 
Q 3966 4525 4313 4306 
L 4313 3634 
Q 3963 3931 3569 4081 
Q 3175 4231 2741 4231 
Q 1884 4231 1454 3753 
Q 1025 3275 1025 2328 
Q 1025 1384 1454 906 
Q 1884 428 2741 428 
Q 3075 428 3337 486 
Q 3600 544 3809 666 
z
" transform="scale(0.015625)"/>
      <path id="DejaVuSans-2d" d="M 313 2009 
L 1997 2009 
L 1997 1497 
L 313 1497 
L 313 2009 
z
" transform="scale(0.015625)"/>
      <path id="DejaVuSans-53" d="M 3425 4513 
L 3425 3897 
Q 3066 4069 2747 4153 
Q 2428 4238 2131 4238 
Q 1616 4238 1336 4038 
Q 1056 3838 1056 3469 
Q 1056 3159 1242 3001 
Q 1428 2844 1947 2747 
L 2328 2669 
Q 3034 2534 3370 2195 
Q 3706 1856 3706 1288 
Q 3706 609 3251 259 
Q 2797 -91 1919 -91 
Q 1588 -91 1214 -16 
Q 841 59 441 206 
L 441 856 
Q 825 641 1194 531 
Q 1563 422 1919 422 
Q 2459 422 2753 634 
Q 3047 847 3047 1241 
Q 3047 1584 2836 1778 
Q 2625 1972 2144 2069 
L 1759 2144 
Q 1053 2284 737 2584 
Q 422 2884 422 3419 
Q 422 4038 858 4394 
Q 1294 4750 2059 4750 
Q 2388 4750 2728 4690 
Q 3069 4631 3425 4513 
z
" transform="scale(0.015625)"/>
     </defs>
     <use xlink:href="#DejaVuSans-52"/>
     <use xlink:href="#DejaVuSans-65" transform="translate(64.982422 0)"/>
     <use xlink:href="#DejaVuSans-73" transform="translate(126.505859 0)"/>
     <use xlink:href="#DejaVuSans-69" transform="translate(178.605469 0)"/>
     <use xlink:href="#DejaVuSans-64" transform="translate(206.388672 0)"/>
     <use xlink:href="#DejaVuSans-75" transform="translate(269.865234 0)"/>
     <use xlink:href="#DejaVuSans-61" transform="translate(333.244141 0)"/>
     <use xlink:href="#DejaVuSans-6c" transform="translate(394.523438 0)"/>
     <use xlink:href="#DejaVuSans-20" transform="translate(422.306641 0)"/>
     <use xlink:href="#DejaVuSans-43" transform="translate(454.09375 0)"/>
     <use xlink:href="#DejaVuSans-6f" transform="translate(523.917969 0)"/>
     <use xlink:href="#DejaVuSans-6e" transform="translate(585.099609 0)"/>
     <use xlink:href="#DejaVuSans-76" transform="translate(648.478516 0)"/>
     <use xlink:href="#DejaVuSans-65" transform="translate(707.658203 0)"/>
     <use xlink:href="#DejaVuSans-72" transform="translate(769.181641 0)"/>
     <use xlink:href="#DejaVuSans-67" transform="translate(808.544922 0)"/>
     <use xlink:href="#DejaVuSans-65" transform="translate(872.021484 0)"/>
     <use xlink:href="#DejaVuSans-6e" transform="translate(933.544922 0)"/>
     <use xlink:href="#DejaVuSans-63" transform="translate(996.923828 0)"/>
     <use xlink:href="#DejaVuSans-65" transform="translate(1051.904297 0)"/>
     <use xlink:href="#DejaVuSans-20" transform="translate(1113.427734 0)"/>
     <use xlink:href="#DejaVuSans-6f" transform="translate(1145.214844 0)"/>
     <use xlink:href="#DejaVuSans-66" transform="translate(1206.396484 0)"/>
     <use xlink:href="#DejaVuSans-20" transform="translate(1241.601562 0)"/>
     <use xlink:href="#DejaVuSans-4a" transform="translate(1273.388672 0)"/>
     <use xlink:href="#DejaVuSans-61" transform="translate(1302.880859 0)"/>
     <use xlink:href="#DejaVuSans-63" transform="translate(1364.160156 0)"/>
     <use xlink:href="#DejaVuSans-6f" transform="translate(1419.140625 0)"/>
     <use xlink:href="#DejaVuSans-62" transform="translate(1480.322266 0)"/>
     <use xlink:href="#DejaVuSans-69" transform="translate(1543.798828 0)"/>
     <use xlink:href="#DejaVuSans-20" transform="translate(1571.582031 0)"/>
     <use xlink:href="#DejaVuSans-76" transform="translate(1603.369141 0)"/>
     <use xlink:href="#DejaVuSans-73" transform="translate(1662.548828 0)"/>
     <use xlink:href="#DejaVuSans-20" transform="translate(1714.648438 0)"/>
     <use xlink:href="#DejaVuSans-47" transform="translate(1746.435547 0)"/>
     <use xlink:href="#DejaVuSans-61" transform="translate(1823.925781 0)"/>
     <use xlink:href="#DejaVuSans-75" transform="translate(1885.205078 0)"/>
     <use xlink:href="#DejaVuSans-73" transform="translate(1948.583984 0)"/>
     <use xlink:href="#DejaVuSans-73" transform="translate(2000.683594 0)"/>
     <use xlink:href="#DejaVuSans-2d" transform="translate(2052.783203 0)"/>
     <use xlink:href="#DejaVuSans-53" transform="translate(2088.867188 0)"/>
     <use xlink:href="#DejaVuSans-65" transform="translate(2152.34375 0)"/>
     <use xlink:href="#DejaVuSans-69" transform="translate(2213.867188 0)"/>
     <use xlink:href="#DejaVuSans-64" transform="translate(2241.650391 0)"/>
     <use xlink:href="#DejaVuSans-65" transform="translate(2305.126953 0)"/>
     <use xlink:href="#DejaVuSans-6c" transform="translate(2366.650391 0)"/>
    </g>
   </g>
   <g id="legend_1">
    <g id="patch_7">
     <path d="M 265.510625 78.82825 
L 407.72 78.82825 
Q 409.72 78.82825 409.72 76.82825 
L 409.72 48.472 
Q 409.72 46.472 407.72 46.472 
L 265.510625 46.472 
Q 263.510625 46.472 263.510625 48.472 
L 263.510625 76.82825 
Q 263.510625 78.82825 265.510625 78.82825 
z
" style="fill: #ffffff; opacity: 0.8; stroke: #cccccc; stroke-linejoin: miter"/>
    </g>
    <g id="line2d_111">
     <path d="M 267.510625 54.570437 
L 277.510625 54.570437 
L 287.510625 54.570437 
" style="fill: none; stroke: #1f77b4; stroke-width: 1.5; stroke-linecap: square"/>
    </g>
    <g id="text_22">
     <!-- Jacobi Residual -->
     <g transform="translate(295.510625 58.070437) scale(0.1 -0.1)">
      <use xlink:href="#DejaVuSans-4a"/>
      <use xlink:href="#DejaVuSans-61" transform="translate(29.492188 0)"/>
      <use xlink:href="#DejaVuSans-63" transform="translate(90.771484 0)"/>
      <use xlink:href="#DejaVuSans-6f" transform="translate(145.751953 0)"/>
      <use xlink:href="#DejaVuSans-62" transform="translate(206.933594 0)"/>
      <use xlink:href="#DejaVuSans-69" transform="translate(270.410156 0)"/>
      <use xlink:href="#DejaVuSans-20" transform="translate(298.193359 0)"/>
      <use xlink:href="#DejaVuSans-52" transform="translate(329.980469 0)"/>
      <use xlink:href="#DejaVuSans-65" transform="translate(394.962891 0)"/>
      <use xlink:href="#DejaVuSans-73" transform="translate(456.486328 0)"/>
      <use xlink:href="#DejaVuSans-69" transform="translate(508.585938 0)"/>
      <use xlink:href="#DejaVuSans-64" transform="translate(536.369141 0)"/>
      <use xlink:href="#DejaVuSans-75" transform="translate(599.845703 0)"/>
      <use xlink:href="#DejaVuSans-61" transform="translate(663.224609 0)"/>
      <use xlink:href="#DejaVuSans-6c" transform="translate(724.503906 0)"/>
     </g>
    </g>
    <g id="line2d_112">
     <path d="M 267.510625 69.248562 
L 277.510625 69.248562 
L 287.510625 69.248562 
" style="fill: none; stroke: #ff7f0e; stroke-width: 1.5; stroke-linecap: square"/>
    </g>
    <g id="text_23">
     <!-- Gauss-Seidel Residual -->
     <g transform="translate(295.510625 72.748562) scale(0.1 -0.1)">
      <use xlink:href="#DejaVuSans-47"/>
      <use xlink:href="#DejaVuSans-61" transform="translate(77.490234 0)"/>
      <use xlink:href="#DejaVuSans-75" transform="translate(138.769531 0)"/>
      <use xlink:href="#DejaVuSans-73" transform="translate(202.148438 0)"/>
      <use xlink:href="#DejaVuSans-73" transform="translate(254.248047 0)"/>
      <use xlink:href="#DejaVuSans-2d" transform="translate(306.347656 0)"/>
      <use xlink:href="#DejaVuSans-53" transform="translate(342.431641 0)"/>
      <use xlink:href="#DejaVuSans-65" transform="translate(405.908203 0)"/>
      <use xlink:href="#DejaVuSans-69" transform="translate(467.431641 0)"/>
      <use xlink:href="#DejaVuSans-64" transform="translate(495.214844 0)"/>
      <use xlink:href="#DejaVuSans-65" transform="translate(558.691406 0)"/>
      <use xlink:href="#DejaVuSans-6c" transform="translate(620.214844 0)"/>
      <use xlink:href="#DejaVuSans-20" transform="translate(647.998047 0)"/>
      <use xlink:href="#DejaVuSans-52" transform="translate(679.785156 0)"/>
      <use xlink:href="#DejaVuSans-65" transform="translate(744.767578 0)"/>
      <use xlink:href="#DejaVuSans-73" transform="translate(806.291016 0)"/>
      <use xlink:href="#DejaVuSans-69" transform="translate(858.390625 0)"/>
      <use xlink:href="#DejaVuSans-64" transform="translate(886.173828 0)"/>
      <use xlink:href="#DejaVuSans-75" transform="translate(949.650391 0)"/>
      <use xlink:href="#DejaVuSans-61" transform="translate(1013.029297 0)"/>
      <use xlink:href="#DejaVuSans-6c" transform="translate(1074.308594 0)"/>
     </g>
    </g>
   </g>
  </g>
 </g>
 <defs>
  <clipPath id="p01a8491fab">
   <rect x="57.6" y="41.472" width="357.12" height="266.112"/>
  </clipPath>
 </defs>
</svg>
