<?xml version="1.0" encoding="utf-8" standalone="no"?>
<!DOCTYPE svg PUBLIC "-//W3C//DTD SVG 1.1//EN"
  "http://www.w3.org/Graphics/SVG/1.1/DTD/svg11.dtd">
<svg xmlns:xlink="http://www.w3.org/1999/xlink" width="576pt" height="432pt" viewBox="0 0 576 432" xmlns="http://www.w3.org/2000/svg" version="1.1">
 <metadata>
  <rdf:RDF xmlns:dc="http://purl.org/dc/elements/1.1/" xmlns:cc="http://creativecommons.org/ns#" xmlns:rdf="http://www.w3.org/1999/02/22-rdf-syntax-ns#">
   <cc:Work>
    <dc:type rdf:resource="http://purl.org/dc/dcmitype/StillImage"/>
    <dc:date>2025-12-03T17:28:40.154054</dc:date>
    <dc:format>image/svg+xml</dc:format>
    <dc:creator>
     <cc:Agent>
      <dc:title>Matplotlib v3.10.5, https://matplotlib.org/</dc:title>
     </cc:Agent>
    </dc:creator>
   </cc:Work>
  </rdf:RDF>
 </metadata>
 <defs>
  <style type="text/css">*{stroke-linejoin: round; stroke-linecap: butt}</style>
 </defs>
 <g id="figure_1">
  <g id="patch_1">
   <path d="M 0 432 
L 576 432 
L 576 0 
L 0 0 
z
" style="fill: #ffffff"/>
  </g>
  <g id="axes_1">
   <g id="patch_2">
    <path d="M 55.344554 390.04 
L 565.2 390.04 
L 565.2 26.16 
L 55.344554 26.16 
z
" style="fill: #ffffff"/>
   </g>
   <g id="matplotlib.axis_1">
    <g id="xtick_1">
     <g id="line2d_1">
      <path d="M 78.519801 390.04 
L 78.519801 26.16 
" clip-path="url(#p608e8b9405)" style="fill: none; stroke: #b0b0b0; stroke-width: 0.8; stroke-linecap: square"/>
     </g>
     <g id="line2d_2">
      <defs>
       <path id="md1e1135ae5" d="M 0 0 
L 0 3.5 
" style="stroke: #000000; stroke-width: 0.8"/>
      </defs>
      <g>
       <use xlink:href="#md1e1135ae5" x="78.519801" y="390.04" style="stroke: #000000; stroke-width: 0.8"/>
      </g>
     </g>
     <g id="text_1">
      <!-- 0 -->
      <g transform="translate(75.338551 404.638438) scale(0.1 -0.1)">
       <defs>
        <path id="DejaVuSans-30" d="M 2034 4250 
Q 1547 4250 1301 3770 
Q 1056 3291 1056 2328 
Q 1056 1369 1301 889 
Q 1547 409 2034 409 
Q 2525 409 2770 889 
Q 3016 1369 3016 2328 
Q 3016 3291 2770 3770 
Q 2525 4250 2034 4250 
z
M 2034 4750 
Q 2819 4750 3233 4129 
Q 3647 3509 3647 2328 
Q 3647 1150 3233 529 
Q 2819 -91 2034 -91 
Q 1250 -91 836 529 
Q 422 1150 422 2328 
Q 422 3509 836 4129 
Q 1250 4750 2034 4750 
z
" transform="scale(0.015625)"/>
       </defs>
       <use xlink:href="#DejaVuSans-30"/>
      </g>
     </g>
    </g>
    <g id="xtick_2">
     <g id="line2d_3">
      <path d="M 155.777065 390.04 
L 155.777065 26.16 
" clip-path="url(#p608e8b9405)" style="fill: none; stroke: #b0b0b0; stroke-width: 0.8; stroke-linecap: square"/>
     </g>
     <g id="line2d_4">
      <g>
       <use xlink:href="#md1e1135ae5" x="155.777065" y="390.04" style="stroke: #000000; stroke-width: 0.8"/>
      </g>
     </g>
     <g id="text_2">
      <!-- 2000 -->
      <g transform="translate(143.052065 404.638438) scale(0.1 -0.1)">
       <defs>
        <path id="DejaVuSans-32" d="M 1228 531 
L 3431 531 
L 3431 0 
L 469 0 
L 469 531 
Q 828 903 1448 1529 
Q 2069 2156 2228 2338 
Q 2531 2678 2651 2914 
Q 2772 3150 2772 3378 
Q 2772 3750 2511 3984 
Q 2250 4219 1831 4219 
Q 1534 4219 1204 4116 
Q 875 4013 500 3803 
L 500 4441 
Q 881 4594 1212 4672 
Q 1544 4750 1819 4750 
Q 2544 4750 2975 4387 
Q 3406 4025 3406 3419 
Q 3406 3131 3298 2873 
Q 3191 2616 2906 2266 
Q 2828 2175 2409 1742 
Q 1991 1309 1228 531 
z
" transform="scale(0.015625)"/>
       </defs>
       <use xlink:href="#DejaVuSans-32"/>
       <use xlink:href="#DejaVuSans-30" transform="translate(63.623047 0)"/>
       <use xlink:href="#DejaVuSans-30" transform="translate(127.246094 0)"/>
       <use xlink:href="#DejaVuSans-30" transform="translate(190.869141 0)"/>
      </g>
     </g>
    </g>
    <g id="xtick_3">
     <g id="line2d_5">
      <path d="M 233.034328 390.04 
L 233.034328 26.16 
" clip-path="url(#p608e8b9405)" style="fill: none; stroke: #b0b0b0; stroke-width: 0.8; stroke-linecap: square"/>
     </g>
     <g id="line2d_6">
      <g>
       <use xlink:href="#md1e1135ae5" x="233.034328" y="390.04" style="stroke: #000000; stroke-width: 0.8"/>
      </g>
     </g>
     <g id="text_3">
      <!-- 4000 -->
      <g transform="translate(220.309328 404.638438) scale(0.1 -0.1)">
       <defs>
        <path id="DejaVuSans-34" d="M 2419 4116 
L 825 1625 
L 2419 1625 
L 2419 4116 
z
M 2253 4666 
L 3047 4666 
L 3047 1625 
L 3713 1625 
L 3713 1100 
L 3047 1100 
L 3047 0 
L 2419 0 
L 2419 1100 
L 313 1100 
L 313 1709 
L 2253 4666 
z
" transform="scale(0.015625)"/>
       </defs>
       <use xlink:href="#DejaVuSans-34"/>
       <use xlink:href="#DejaVuSans-30" transform="translate(63.623047 0)"/>
       <use xlink:href="#DejaVuSans-30" transform="translate(127.246094 0)"/>
       <use xlink:href="#DejaVuSans-30" transform="translate(190.869141 0)"/>
      </g>
     </g>
    </g>
    <g id="xtick_4">
     <g id="line2d_7">
      <path d="M 310.291591 390.04 
L 310.291591 26.16 
" clip-path="url(#p608e8b9405)" style="fill: none; stroke: #b0b0b0; stroke-width: 0.8; stroke-linecap: square"/>
     </g>
     <g id="line2d_8">
      <g>
       <use xlink:href="#md1e1135ae5" x="310.291591" y="390.04" style="stroke: #000000; stroke-width: 0.8"/>
      </g>
     </g>
     <g id="text_4">
      <!-- 6000 -->
      <g transform="translate(297.566591 404.638438) scale(0.1 -0.1)">
       <defs>
        <path id="DejaVuSans-36" d="M 2113 2584 
Q 1688 2584 1439 2293 
Q 1191 2003 1191 1497 
Q 1191 994 1439 701 
Q 1688 409 2113 409 
Q 2538 409 2786 701 
Q 3034 994 3034 1497 
Q 3034 2003 2786 2293 
Q 2538 2584 2113 2584 
z
M 3366 4563 
L 3366 3988 
Q 3128 4100 2886 4159 
Q 2644 4219 2406 4219 
Q 1781 4219 1451 3797 
Q 1122 3375 1075 2522 
Q 1259 2794 1537 2939 
Q 1816 3084 2150 3084 
Q 2853 3084 3261 2657 
Q 3669 2231 3669 1497 
Q 3669 778 3244 343 
Q 2819 -91 2113 -91 
Q 1303 -91 875 529 
Q 447 1150 447 2328 
Q 447 3434 972 4092 
Q 1497 4750 2381 4750 
Q 2619 4750 2861 4703 
Q 3103 4656 3366 4563 
z
" transform="scale(0.015625)"/>
       </defs>
       <use xlink:href="#DejaVuSans-36"/>
       <use xlink:href="#DejaVuSans-30" transform="translate(63.623047 0)"/>
       <use xlink:href="#DejaVuSans-30" transform="translate(127.246094 0)"/>
       <use xlink:href="#DejaVuSans-30" transform="translate(190.869141 0)"/>
      </g>
     </g>
    </g>
    <g id="xtick_5">
     <g id="line2d_9">
      <path d="M 387.548855 390.04 
L 387.548855 26.16 
" clip-path="url(#p608e8b9405)" style="fill: none; stroke: #b0b0b0; stroke-width: 0.8; stroke-linecap: square"/>
     </g>
     <g id="line2d_10">
      <g>
       <use xlink:href="#md1e1135ae5" x="387.548855" y="390.04" style="stroke: #000000; stroke-width: 0.8"/>
      </g>
     </g>
     <g id="text_5">
      <!-- 8000 -->
      <g transform="translate(374.823855 404.638438) scale(0.1 -0.1)">
       <defs>
        <path id="DejaVuSans-38" d="M 2034 2216 
Q 1584 2216 1326 1975 
Q 1069 1734 1069 1313 
Q 1069 891 1326 650 
Q 1584 409 2034 409 
Q 2484 409 2743 651 
Q 3003 894 3003 1313 
Q 3003 1734 2745 1975 
Q 2488 2216 2034 2216 
z
M 1403 2484 
Q 997 2584 770 2862 
Q 544 3141 544 3541 
Q 544 4100 942 4425 
Q 1341 4750 2034 4750 
Q 2731 4750 3128 4425 
Q 3525 4100 3525 3541 
Q 3525 3141 3298 2862 
Q 3072 2584 2669 2484 
Q 3125 2378 3379 2068 
Q 3634 1759 3634 1313 
Q 3634 634 3220 271 
Q 2806 -91 2034 -91 
Q 1263 -91 848 271 
Q 434 634 434 1313 
Q 434 1759 690 2068 
Q 947 2378 1403 2484 
z
M 1172 3481 
Q 1172 3119 1398 2916 
Q 1625 2713 2034 2713 
Q 2441 2713 2670 2916 
Q 2900 3119 2900 3481 
Q 2900 3844 2670 4047 
Q 2441 4250 2034 4250 
Q 1625 4250 1398 4047 
Q 1172 3844 1172 3481 
z
" transform="scale(0.015625)"/>
       </defs>
       <use xlink:href="#DejaVuSans-38"/>
       <use xlink:href="#DejaVuSans-30" transform="translate(63.623047 0)"/>
       <use xlink:href="#DejaVuSans-30" transform="translate(127.246094 0)"/>
       <use xlink:href="#DejaVuSans-30" transform="translate(190.869141 0)"/>
      </g>
     </g>
    </g>
    <g id="xtick_6">
     <g id="line2d_11">
      <path d="M 464.806118 390.04 
L 464.806118 26.16 
" clip-path="url(#p608e8b9405)" style="fill: none; stroke: #b0b0b0; stroke-width: 0.8; stroke-linecap: square"/>
     </g>
     <g id="line2d_12">
      <g>
       <use xlink:href="#md1e1135ae5" x="464.806118" y="390.04" style="stroke: #000000; stroke-width: 0.8"/>
      </g>
     </g>
     <g id="text_6">
      <!-- 10000 -->
      <g transform="translate(448.899868 404.638438) scale(0.1 -0.1)">
       <defs>
        <path id="DejaVuSans-31" d="M 794 531 
L 1825 531 
L 1825 4091 
L 703 3866 
L 703 4441 
L 1819 4666 
L 2450 4666 
L 2450 531 
L 3481 531 
L 3481 0 
L 794 0 
L 794 531 
z
" transform="scale(0.015625)"/>
       </defs>
       <use xlink:href="#DejaVuSans-31"/>
       <use xlink:href="#DejaVuSans-30" transform="translate(63.623047 0)"/>
       <use xlink:href="#DejaVuSans-30" transform="translate(127.246094 0)"/>
       <use xlink:href="#DejaVuSans-30" transform="translate(190.869141 0)"/>
       <use xlink:href="#DejaVuSans-30" transform="translate(254.492188 0)"/>
      </g>
     </g>
    </g>
    <g id="xtick_7">
     <g id="line2d_13">
      <path d="M 542.063381 390.04 
L 542.063381 26.16 
" clip-path="url(#p608e8b9405)" style="fill: none; stroke: #b0b0b0; stroke-width: 0.8; stroke-linecap: square"/>
     </g>
     <g id="line2d_14">
      <g>
       <use xlink:href="#md1e1135ae5" x="542.063381" y="390.04" style="stroke: #000000; stroke-width: 0.8"/>
      </g>
     </g>
     <g id="text_7">
      <!-- 12000 -->
      <g transform="translate(526.157131 404.638438) scale(0.1 -0.1)">
       <use xlink:href="#DejaVuSans-31"/>
       <use xlink:href="#DejaVuSans-32" transform="translate(63.623047 0)"/>
       <use xlink:href="#DejaVuSans-30" transform="translate(127.246094 0)"/>
       <use xlink:href="#DejaVuSans-30" transform="translate(190.869141 0)"/>
       <use xlink:href="#DejaVuSans-30" transform="translate(254.492188 0)"/>
      </g>
     </g>
    </g>
    <g id="text_8">
     <!-- Iteration -->
     <g transform="translate(289.063683 418.316562) scale(0.1 -0.1)">
      <defs>
       <path id="DejaVuSans-49" d="M 628 4666 
L 1259 4666 
L 1259 0 
L 628 0 
L 628 4666 
z
" transform="scale(0.015625)"/>
       <path id="DejaVuSans-74" d="M 1172 4494 
L 1172 3500 
L 2356 3500 
L 2356 3053 
L 1172 3053 
L 1172 1153 
Q 1172 725 1289 603 
Q 1406 481 1766 481 
L 2356 481 
L 2356 0 
L 1766 0 
Q 1100 0 847 248 
Q 594 497 594 1153 
L 594 3053 
L 172 3053 
L 172 3500 
L 594 3500 
L 594 4494 
L 1172 4494 
z
" transform="scale(0.015625)"/>
       <path id="DejaVuSans-65" d="M 3597 1894 
L 3597 1613 
L 953 1613 
Q 991 1019 1311 708 
Q 1631 397 2203 397 
Q 2534 397 2845 478 
Q 3156 559 3463 722 
L 3463 178 
Q 3153 47 2828 -22 
Q 2503 -91 2169 -91 
Q 1331 -91 842 396 
Q 353 884 353 1716 
Q 353 2575 817 3079 
Q 1281 3584 2069 3584 
Q 2775 3584 3186 3129 
Q 3597 2675 3597 1894 
z
M 3022 2063 
Q 3016 2534 2758 2815 
Q 2500 3097 2075 3097 
Q 1594 3097 1305 2825 
Q 1016 2553 972 2059 
L 3022 2063 
z
" transform="scale(0.015625)"/>
       <path id="DejaVuSans-72" d="M 2631 2963 
Q 2534 3019 2420 3045 
Q 2306 3072 2169 3072 
Q 1681 3072 1420 2755 
Q 1159 2438 1159 1844 
L 1159 0 
L 581 0 
L 581 3500 
L 1159 3500 
L 1159 2956 
Q 1341 3275 1631 3429 
Q 1922 3584 2338 3584 
Q 2397 3584 2469 3576 
Q 2541 3569 2628 3553 
L 2631 2963 
z
" transform="scale(0.015625)"/>
       <path id="DejaVuSans-61" d="M 2194 1759 
Q 1497 1759 1228 1600 
Q 959 1441 959 1056 
Q 959 750 1161 570 
Q 1363 391 1709 391 
Q 2188 391 2477 730 
Q 2766 1069 2766 1631 
L 2766 1759 
L 2194 1759 
z
M 3341 1997 
L 3341 0 
L 2766 0 
L 2766 531 
Q 2569 213 2275 61 
Q 1981 -91 1556 -91 
Q 1019 -91 701 211 
Q 384 513 384 1019 
Q 384 1609 779 1909 
Q 1175 2209 1959 2209 
L 2766 2209 
L 2766 2266 
Q 2766 2663 2505 2880 
Q 2244 3097 1772 3097 
Q 1472 3097 1187 3025 
Q 903 2953 641 2809 
L 641 3341 
Q 956 3463 1253 3523 
Q 1550 3584 1831 3584 
Q 2591 3584 2966 3190 
Q 3341 2797 3341 1997 
z
" transform="scale(0.015625)"/>
       <path id="DejaVuSans-69" d="M 603 3500 
L 1178 3500 
L 1178 0 
L 603 0 
L 603 3500 
z
M 603 4863 
L 1178 4863 
L 1178 4134 
L 603 4134 
L 603 4863 
z
" transform="scale(0.015625)"/>
       <path id="DejaVuSans-6f" d="M 1959 3097 
Q 1497 3097 1228 2736 
Q 959 2375 959 1747 
Q 959 1119 1226 758 
Q 1494 397 1959 397 
Q 2419 397 2687 759 
Q 2956 1122 2956 1747 
Q 2956 2369 2687 2733 
Q 2419 3097 1959 3097 
z
M 1959 3584 
Q 2709 3584 3137 3096 
Q 3566 2609 3566 1747 
Q 3566 888 3137 398 
Q 2709 -91 1959 -91 
Q 1206 -91 779 398 
Q 353 888 353 1747 
Q 353 2609 779 3096 
Q 1206 3584 1959 3584 
z
" transform="scale(0.015625)"/>
       <path id="DejaVuSans-6e" d="M 3513 2113 
L 3513 0 
L 2938 0 
L 2938 2094 
Q 2938 2591 2744 2837 
Q 2550 3084 2163 3084 
Q 1697 3084 1428 2787 
Q 1159 2491 1159 1978 
L 1159 0 
L 581 0 
L 581 3500 
L 1159 3500 
L 1159 2956 
Q 1366 3272 1645 3428 
Q 1925 3584 2291 3584 
Q 2894 3584 3203 3211 
Q 3513 2838 3513 2113 
z
" transform="scale(0.015625)"/>
      </defs>
      <use xlink:href="#DejaVuSans-49"/>
      <use xlink:href="#DejaVuSans-74" transform="translate(29.492188 0)"/>
      <use xlink:href="#DejaVuSans-65" transform="translate(68.701172 0)"/>
      <use xlink:href="#DejaVuSans-72" transform="translate(130.224609 0)"/>
      <use xlink:href="#DejaVuSans-61" transform="translate(171.337891 0)"/>
      <use xlink:href="#DejaVuSans-74" transform="translate(232.617188 0)"/>
      <use xlink:href="#DejaVuSans-69" transform="translate(271.826172 0)"/>
      <use xlink:href="#DejaVuSans-6f" transform="translate(299.609375 0)"/>
      <use xlink:href="#DejaVuSans-6e" transform="translate(360.791016 0)"/>
     </g>
    </g>
   </g>
   <g id="matplotlib.axis_2">
    <g id="ytick_1">
     <g id="line2d_15">
      <path d="M 55.344554 343.804974 
L 565.2 343.804974 
" clip-path="url(#p608e8b9405)" style="fill: none; stroke: #b0b0b0; stroke-width: 0.8; stroke-linecap: square"/>
     </g>
     <g id="line2d_16">
      <defs>
       <path id="m895b37dd3f" d="M 0 0 
L -3.5 0 
" style="stroke: #000000; stroke-width: 0.8"/>
      </defs>
      <g>
       <use xlink:href="#m895b37dd3f" x="55.344554" y="343.804974" style="stroke: #000000; stroke-width: 0.8"/>
      </g>
     </g>
     <g id="text_9">
      <!-- $\mathdefault{10^{-7}}$ -->
      <g transform="translate(24.844554 347.604193) scale(0.1 -0.1)">
       <defs>
        <path id="DejaVuSans-2212" d="M 678 2272 
L 4684 2272 
L 4684 1741 
L 678 1741 
L 678 2272 
z
" transform="scale(0.015625)"/>
        <path id="DejaVuSans-37" d="M 525 4666 
L 3525 4666 
L 3525 4397 
L 1831 0 
L 1172 0 
L 2766 4134 
L 525 4134 
L 525 4666 
z
" transform="scale(0.015625)"/>
       </defs>
       <use xlink:href="#DejaVuSans-31" transform="translate(0 0.684375)"/>
       <use xlink:href="#DejaVuSans-30" transform="translate(63.623047 0.684375)"/>
       <use xlink:href="#DejaVuSans-2212" transform="translate(128.203125 38.965625) scale(0.7)"/>
       <use xlink:href="#DejaVuSans-37" transform="translate(186.855469 38.965625) scale(0.7)"/>
      </g>
     </g>
    </g>
    <g id="ytick_2">
     <g id="line2d_17">
      <path d="M 55.344554 287.509423 
L 565.2 287.509423 
" clip-path="url(#p608e8b9405)" style="fill: none; stroke: #b0b0b0; stroke-width: 0.8; stroke-linecap: square"/>
     </g>
     <g id="line2d_18">
      <g>
       <use xlink:href="#m895b37dd3f" x="55.344554" y="287.509423" style="stroke: #000000; stroke-width: 0.8"/>
      </g>
     </g>
     <g id="text_10">
      <!-- $\mathdefault{10^{-4}}$ -->
      <g transform="translate(24.844554 291.308642) scale(0.1 -0.1)">
       <use xlink:href="#DejaVuSans-31" transform="translate(0 0.684375)"/>
       <use xlink:href="#DejaVuSans-30" transform="translate(63.623047 0.684375)"/>
       <use xlink:href="#DejaVuSans-2212" transform="translate(128.203125 38.965625) scale(0.7)"/>
       <use xlink:href="#DejaVuSans-34" transform="translate(186.855469 38.965625) scale(0.7)"/>
      </g>
     </g>
    </g>
    <g id="ytick_3">
     <g id="line2d_19">
      <path d="M 55.344554 231.213873 
L 565.2 231.213873 
" clip-path="url(#p608e8b9405)" style="fill: none; stroke: #b0b0b0; stroke-width: 0.8; stroke-linecap: square"/>
     </g>
     <g id="line2d_20">
      <g>
       <use xlink:href="#m895b37dd3f" x="55.344554" y="231.213873" style="stroke: #000000; stroke-width: 0.8"/>
      </g>
     </g>
     <g id="text_11">
      <!-- $\mathdefault{10^{-1}}$ -->
      <g transform="translate(24.844554 235.013092) scale(0.1 -0.1)">
       <use xlink:href="#DejaVuSans-31" transform="translate(0 0.684375)"/>
       <use xlink:href="#DejaVuSans-30" transform="translate(63.623047 0.684375)"/>
       <use xlink:href="#DejaVuSans-2212" transform="translate(128.203125 38.965625) scale(0.7)"/>
       <use xlink:href="#DejaVuSans-31" transform="translate(186.855469 38.965625) scale(0.7)"/>
      </g>
     </g>
    </g>
    <g id="ytick_4">
     <g id="line2d_21">
      <path d="M 55.344554 174.918322 
L 565.2 174.918322 
" clip-path="url(#p608e8b9405)" style="fill: none; stroke: #b0b0b0; stroke-width: 0.8; stroke-linecap: square"/>
     </g>
     <g id="line2d_22">
      <g>
       <use xlink:href="#m895b37dd3f" x="55.344554" y="174.918322" style="stroke: #000000; stroke-width: 0.8"/>
      </g>
     </g>
     <g id="text_12">
      <!-- $\mathdefault{10^{2}}$ -->
      <g transform="translate(30.744554 178.717541) scale(0.1 -0.1)">
       <use xlink:href="#DejaVuSans-31" transform="translate(0 0.765625)"/>
       <use xlink:href="#DejaVuSans-30" transform="translate(63.623047 0.765625)"/>
       <use xlink:href="#DejaVuSans-32" transform="translate(128.203125 39.046875) scale(0.7)"/>
      </g>
     </g>
    </g>
    <g id="ytick_5">
     <g id="line2d_23">
      <path d="M 55.344554 118.622772 
L 565.2 118.622772 
" clip-path="url(#p608e8b9405)" style="fill: none; stroke: #b0b0b0; stroke-width: 0.8; stroke-linecap: square"/>
     </g>
     <g id="line2d_24">
      <g>
       <use xlink:href="#m895b37dd3f" x="55.344554" y="118.622772" style="stroke: #000000; stroke-width: 0.8"/>
      </g>
     </g>
     <g id="text_13">
      <!-- $\mathdefault{10^{5}}$ -->
      <g transform="translate(30.744554 122.42199) scale(0.1 -0.1)">
       <defs>
        <path id="DejaVuSans-35" d="M 691 4666 
L 3169 4666 
L 3169 4134 
L 1269 4134 
L 1269 2991 
Q 1406 3038 1543 3061 
Q 1681 3084 1819 3084 
Q 2600 3084 3056 2656 
Q 3513 2228 3513 1497 
Q 3513 744 3044 326 
Q 2575 -91 1722 -91 
Q 1428 -91 1123 -41 
Q 819 9 494 109 
L 494 744 
Q 775 591 1075 516 
Q 1375 441 1709 441 
Q 2250 441 2565 725 
Q 2881 1009 2881 1497 
Q 2881 1984 2565 2268 
Q 2250 2553 1709 2553 
Q 1456 2553 1204 2497 
Q 953 2441 691 2322 
L 691 4666 
z
" transform="scale(0.015625)"/>
       </defs>
       <use xlink:href="#DejaVuSans-31" transform="translate(0 0.684375)"/>
       <use xlink:href="#DejaVuSans-30" transform="translate(63.623047 0.684375)"/>
       <use xlink:href="#DejaVuSans-35" transform="translate(128.203125 38.965625) scale(0.7)"/>
      </g>
     </g>
    </g>
    <g id="ytick_6">
     <g id="line2d_25">
      <path d="M 55.344554 62.327221 
L 565.2 62.327221 
" clip-path="url(#p608e8b9405)" style="fill: none; stroke: #b0b0b0; stroke-width: 0.8; stroke-linecap: square"/>
     </g>
     <g id="line2d_26">
      <g>
       <use xlink:href="#m895b37dd3f" x="55.344554" y="62.327221" style="stroke: #000000; stroke-width: 0.8"/>
      </g>
     </g>
     <g id="text_14">
      <!-- $\mathdefault{10^{8}}$ -->
      <g transform="translate(30.744554 66.12644) scale(0.1 -0.1)">
       <use xlink:href="#DejaVuSans-31" transform="translate(0 0.765625)"/>
       <use xlink:href="#DejaVuSans-30" transform="translate(63.623047 0.765625)"/>
       <use xlink:href="#DejaVuSans-38" transform="translate(128.203125 39.046875) scale(0.7)"/>
      </g>
     </g>
    </g>
    <g id="text_15">
     <!-- Residual -->
     <g transform="translate(18.764866 229.215625) rotate(-90) scale(0.1 -0.1)">
      <defs>
       <path id="DejaVuSans-52" d="M 2841 2188 
Q 3044 2119 3236 1894 
Q 3428 1669 3622 1275 
L 4263 0 
L 3584 0 
L 2988 1197 
Q 2756 1666 2539 1819 
Q 2322 1972 1947 1972 
L 1259 1972 
L 1259 0 
L 628 0 
L 628 4666 
L 2053 4666 
Q 2853 4666 3247 4331 
Q 3641 3997 3641 3322 
Q 3641 2881 3436 2590 
Q 3231 2300 2841 2188 
z
M 1259 4147 
L 1259 2491 
L 2053 2491 
Q 2509 2491 2742 2702 
Q 2975 2913 2975 3322 
Q 2975 3731 2742 3939 
Q 2509 4147 2053 4147 
L 1259 4147 
z
" transform="scale(0.015625)"/>
       <path id="DejaVuSans-73" d="M 2834 3397 
L 2834 2853 
Q 2591 2978 2328 3040 
Q 2066 3103 1784 3103 
Q 1356 3103 1142 2972 
Q 928 2841 928 2578 
Q 928 2378 1081 2264 
Q 1234 2150 1697 2047 
L 1894 2003 
Q 2506 1872 2764 1633 
Q 3022 1394 3022 966 
Q 3022 478 2636 193 
Q 2250 -91 1575 -91 
Q 1294 -91 989 -36 
Q 684 19 347 128 
L 347 722 
Q 666 556 975 473 
Q 1284 391 1588 391 
Q 1994 391 2212 530 
Q 2431 669 2431 922 
Q 2431 1156 2273 1281 
Q 2116 1406 1581 1522 
L 1381 1569 
Q 847 1681 609 1914 
Q 372 2147 372 2553 
Q 372 3047 722 3315 
Q 1072 3584 1716 3584 
Q 2034 3584 2315 3537 
Q 2597 3491 2834 3397 
z
" transform="scale(0.015625)"/>
       <path id="DejaVuSans-64" d="M 2906 2969 
L 2906 4863 
L 3481 4863 
L 3481 0 
L 2906 0 
L 2906 525 
Q 2725 213 2448 61 
Q 2172 -91 1784 -91 
Q 1150 -91 751 415 
Q 353 922 353 1747 
Q 353 2572 751 3078 
Q 1150 3584 1784 3584 
Q 2172 3584 2448 3432 
Q 2725 3281 2906 2969 
z
M 947 1747 
Q 947 1113 1208 752 
Q 1469 391 1925 391 
Q 2381 391 2643 752 
Q 2906 1113 2906 1747 
Q 2906 2381 2643 2742 
Q 2381 3103 1925 3103 
Q 1469 3103 1208 2742 
Q 947 2381 947 1747 
z
" transform="scale(0.015625)"/>
       <path id="DejaVuSans-75" d="M 544 1381 
L 544 3500 
L 1119 3500 
L 1119 1403 
Q 1119 906 1312 657 
Q 1506 409 1894 409 
Q 2359 409 2629 706 
Q 2900 1003 2900 1516 
L 2900 3500 
L 3475 3500 
L 3475 0 
L 2900 0 
L 2900 538 
Q 2691 219 2414 64 
Q 2138 -91 1772 -91 
Q 1169 -91 856 284 
Q 544 659 544 1381 
z
M 1991 3584 
L 1991 3584 
z
" transform="scale(0.015625)"/>
       <path id="DejaVuSans-6c" d="M 603 4863 
L 1178 4863 
L 1178 0 
L 603 0 
L 603 4863 
z
" transform="scale(0.015625)"/>
      </defs>
      <use xlink:href="#DejaVuSans-52"/>
      <use xlink:href="#DejaVuSans-65" transform="translate(64.982422 0)"/>
      <use xlink:href="#DejaVuSans-73" transform="translate(126.505859 0)"/>
      <use xlink:href="#DejaVuSans-69" transform="translate(178.605469 0)"/>
      <use xlink:href="#DejaVuSans-64" transform="translate(206.388672 0)"/>
      <use xlink:href="#DejaVuSans-75" transform="translate(269.865234 0)"/>
      <use xlink:href="#DejaVuSans-61" transform="translate(333.244141 0)"/>
      <use xlink:href="#DejaVuSans-6c" transform="translate(394.523438 0)"/>
     </g>
    </g>
   </g>
   <g id="line2d_27">
    <path d="M 78.519801 108.192387 
L 78.712945 154.467184 
L 78.983345 167.169562 
L 79.601403 182.042109 
L 83.696038 268.788203 
L 88.176959 361.83223 
L 88.254217 362.299639 
L 88.71776 368.293009 
L 88.756389 368.282406 
L 88.949532 370.358079 
L 88.988161 370.432925 
L 89.026789 370.39427 
L 89.181304 371.679316 
L 89.219932 371.481988 
L 89.258561 371.044944 
L 89.29719 371.760494 
L 89.335818 371.618119 
L 89.490333 372.426219 
L 89.56759 372.274456 
L 89.644847 373.104914 
L 89.683476 372.406034 
L 89.722105 372.410629 
L 89.876619 373.353093 
L 90.378791 373.499961 
L 201.165707 373.5 
L 542.024752 373.5 
L 542.024752 373.5 
" clip-path="url(#p608e8b9405)" style="fill: none; stroke: #1f77b4; stroke-width: 1.5; stroke-linecap: square"/>
   </g>
   <g id="line2d_28">
    <path d="M 78.519801 70.728649 
L 78.751573 126.293377 
L 79.021974 138.376238 
L 79.40826 145.875129 
L 79.910432 151.443038 
L 80.52849 155.95187 
L 81.301063 159.951056 
L 82.22815 163.57118 
L 83.502895 167.602598 
L 85.434327 172.909537 
L 88.640503 181.006054 
L 94.93697 196.200811 
L 123.753929 264.761285 
L 144.111218 312.642043 
L 144.265732 312.984076 
L 145.424591 315.53148 
L 145.579106 315.843109 
L 145.849506 316.438012 
L 146.119907 316.998033 
L 146.351679 317.480479 
L 146.467565 317.75034 
L 146.737965 318.257238 
L 147.43328 319.655419 
L 147.665052 320.175908 
L 147.896824 320.596775 
L 148.089967 321.021202 
L 148.167224 321.157825 
L 148.360367 321.521069 
L 148.437625 321.656598 
L 148.785282 322.404208 
L 148.823911 322.285877 
L 149.017054 322.831074 
L 149.13294 322.966376 
L 149.480598 323.646889 
L 149.866884 324.229018 
L 150.021399 324.519052 
L 150.060027 324.434301 
L 150.214542 324.876716 
L 150.25317 324.769714 
L 150.291799 324.930523 
L 150.407685 325.179712 
L 150.446314 325.12385 
L 150.484942 325.076168 
L 150.755343 325.73456 
L 150.793971 325.601989 
L 150.8326 325.781335 
L 151.914202 327.379694 
L 151.95283 327.335715 
L 152.068716 327.793364 
L 152.107345 327.670415 
L 152.493631 328.198674 
L 152.53226 328.185289 
L 152.648146 328.364479 
L 152.686774 328.267995 
L 152.725403 328.465411 
L 152.80266 328.51102 
L 153.034432 328.953376 
L 153.38209 329.199064 
L 153.420718 329.012538 
L 153.536604 329.677951 
L 153.613861 329.371706 
L 153.768376 329.89124 
L 153.807005 329.705754 
L 153.884262 329.806791 
L 153.92289 329.832518 
L 154.077405 330.202699 
L 154.386434 330.163993 
L 154.579577 330.649932 
L 154.618206 330.373315 
L 154.656834 330.813677 
L 154.734092 330.722011 
L 154.77272 330.621621 
L 154.927235 330.905403 
L 155.274893 331.541874 
L 155.313521 331.638183 
L 155.390778 331.533149 
L 155.429407 331.49638 
L 155.545293 331.813971 
L 155.62255 331.382899 
L 155.661179 331.675763 
L 155.815693 331.939769 
L 155.931579 331.689394 
L 156.124722 332.436041 
L 156.163351 332.241171 
L 156.20198 332.424474 
L 156.240608 332.454213 
L 156.317866 332.188195 
L 156.356494 332.304584 
L 156.395123 332.532905 
L 156.433751 332.510355 
L 156.47238 332.309088 
L 156.549637 332.375792 
L 156.588266 332.324739 
L 156.626895 332.453394 
L 156.704152 332.749795 
L 156.742781 332.487219 
L 156.781409 332.627339 
L 156.820038 332.571603 
L 156.897295 332.420139 
L 156.935924 332.519378 
L 156.974552 332.590662 
L 157.013181 332.430439 
L 157.05181 332.520217 
L 157.167695 332.397989 
L 157.360839 333.046975 
L 157.515353 332.691967 
L 157.553982 332.576104 
L 157.59261 332.768266 
L 157.631239 332.982193 
L 157.708496 332.907491 
L 157.940268 333.239867 
L 157.978897 333.213326 
L 158.017525 333.144244 
L 158.056154 333.443472 
L 158.133411 333.198419 
L 158.17204 333.125231 
L 158.210669 333.150942 
L 158.249297 333.316532 
L 158.287926 333.161851 
L 158.326554 333.063744 
L 158.365183 333.246587 
L 158.44244 333.136686 
L 158.481069 333.34072 
L 158.519698 333.128633 
L 158.596955 333.252026 
L 158.712841 333.426516 
L 158.674212 333.160195 
L 158.751469 333.392657 
L 158.828727 333.242106 
L 158.867355 333.53197 
L 158.944613 333.408167 
L 159.060498 333.394052 
L 159.176384 333.672823 
L 159.215013 333.65492 
L 159.330899 333.458392 
L 159.639928 333.800712 
L 159.678557 333.769535 
L 159.717185 333.846262 
L 159.948957 334.075747 
L 159.987586 333.882067 
L 160.026214 334.057327 
L 160.064843 334.064871 
L 160.103471 333.921202 
L 160.1421 334.106095 
L 160.180729 334.024973 
L 160.219357 333.939152 
L 160.296615 334.01014 
L 160.412501 334.126358 
L 160.451129 333.971098 
L 160.528386 334.363159 
L 160.567015 334.032965 
L 160.876044 333.883513 
L 160.914673 333.978716 
L 160.953301 333.973063 
L 160.99193 333.780256 
L 161.069187 333.910966 
L 161.107816 333.917843 
L 161.185073 334.219568 
L 161.223702 334.123644 
L 161.378216 334.050631 
L 161.455474 333.83571 
L 161.494102 334.01607 
L 161.919017 334.33361 
L 162.11216 334.167835 
L 162.228046 334.356376 
L 162.305303 334.218264 
L 162.343932 334.293237 
L 162.459818 334.315221 
L 162.498447 334.25919 
L 162.575704 334.320848 
L 162.69159 334.390636 
L 162.730218 334.360289 
L 162.768847 334.467388 
L 163.000619 334.445586 
L 163.155133 334.37887 
L 163.81182 334.370765 
L 163.850449 334.448316 
L 163.927706 334.405231 
L 164.082221 334.371306 
L 164.236735 334.42316 
L 164.816165 334.402582 
L 164.893422 334.344404 
L 164.970679 334.564299 
L 165.395594 334.767806 
L 165.550109 334.855831 
L 165.78188 334.811509 
L 165.975023 334.893458 
L 166.399938 334.926799 
L 166.63171 334.943307 
L 167.017997 334.934818 
L 169.606115 334.932734 
L 542.024752 334.932727 
L 542.024752 334.932727 
" clip-path="url(#p608e8b9405)" style="fill: none; stroke: #ff7f0e; stroke-width: 1.5; stroke-linecap: square"/>
   </g>
   <g id="line2d_29">
    <path d="M 78.519801 53.726274 
L 78.751573 111.265458 
L 79.021974 124.534369 
L 79.40826 132.635528 
L 79.910432 138.525146 
L 80.52849 143.243274 
L 81.262434 147.200279 
L 82.112264 150.59926 
L 83.07798 153.567443 
L 84.159582 156.196294 
L 85.395698 158.62708 
L 86.824957 160.948183 
L 88.524617 163.281598 
L 90.68782 165.857472 
L 93.546339 168.896067 
L 97.525088 172.78269 
L 103.319383 178.110082 
L 112.049454 185.813972 
L 127.848564 199.427525 
L 172.00109 237.151948 
L 235.120274 290.734452 
L 237.283477 292.509901 
L 237.515249 292.707612 
L 238.171936 293.231179 
L 238.365079 293.391454 
L 239.060395 293.966195 
L 239.330795 294.185381 
L 248.176752 301.073611 
L 248.331266 301.169665 
L 248.563038 301.354456 
L 254.241447 305.39135 
L 254.395961 305.436399 
L 254.589104 305.624866 
L 254.627733 305.592008 
L 254.666362 305.66155 
L 254.782248 305.769535 
L 254.820876 305.714303 
L 254.898134 305.786844 
L 255.516192 306.255718 
L 255.55482 306.189197 
L 255.593449 306.280747 
L 255.825221 306.409074 
L 255.863849 306.372629 
L 255.902478 306.48079 
L 256.018364 306.491845 
L 256.172878 306.606895 
L 256.40465 306.821849 
L 256.520536 306.828736 
L 256.636422 306.917181 
L 256.713679 306.937769 
L 256.945451 307.112384 
L 257.061337 307.141566 
L 257.177223 307.275812 
L 257.215851 307.205931 
L 257.25448 307.320803 
L 257.331737 307.341951 
L 257.52488 307.5124 
L 257.640766 307.446486 
L 257.83391 307.694721 
L 257.949795 307.659115 
L 258.065681 307.809824 
L 258.181567 307.755572 
L 258.336082 307.952885 
L 258.451968 307.990492 
L 258.645111 308.140146 
L 258.683739 308.030994 
L 258.722368 308.151666 
L 259.649455 308.71437 
L 259.688084 308.649699 
L 259.726712 308.760428 
L 259.881227 308.776407 
L 260.035742 308.963448 
L 260.07437 308.845342 
L 260.151627 308.929028 
L 260.344771 309.182556 
L 260.383399 309.092902 
L 260.576542 309.321487 
L 260.615171 309.215272 
L 260.692428 309.319893 
L 260.846943 309.397213 
L 260.962829 309.463372 
L 261.001457 309.418789 
L 261.155972 309.629059 
L 261.465001 309.709943 
L 261.619515 309.817808 
L 261.735401 309.841895 
L 261.967173 310.022443 
L 262.04443 310.042256 
L 262.160316 310.162232 
L 262.198945 310.0557 
L 262.237574 310.173003 
L 262.62386 310.327545 
L 262.778374 310.498847 
L 262.817003 310.394951 
L 262.855632 310.518604 
L 262.971518 310.587374 
L 263.010146 310.578363 
L 263.048775 310.450251 
L 263.087403 310.548027 
L 263.203289 310.643007 
L 263.241918 310.601406 
L 263.512318 310.805014 
L 263.628204 310.763121 
L 263.821347 311.026797 
L 263.898605 310.877821 
L 263.937233 311.007986 
L 264.169005 311.023055 
L 264.207634 310.995622 
L 264.32352 311.129407 
L 264.362148 311.059794 
L 264.400777 311.196148 
L 264.980206 311.516376 
L 265.018835 311.640934 
L 265.057464 311.355536 
L 265.134721 311.450988 
L 265.17335 311.640317 
L 265.250607 311.54469 
L 265.327864 311.536175 
L 265.366493 311.740134 
L 265.44375 311.665455 
L 265.482379 311.66137 
L 265.636893 311.844859 
L 265.71415 311.905819 
L 265.830036 311.735473 
L 265.907294 311.938963 
L 265.984551 311.893798 
L 266.023179 311.858452 
L 266.061808 311.93923 
L 266.177694 312.137591 
L 266.216323 312.079001 
L 266.332208 312.098104 
L 266.525352 312.228492 
L 266.602609 312.297865 
L 266.641238 312.193524 
L 266.834381 312.477372 
L 266.873009 312.363197 
L 266.988895 312.277813 
L 267.336553 312.503964 
L 267.375182 312.621564 
L 267.452439 312.535042 
L 267.645582 312.46627 
L 267.915982 312.811502 
L 268.147754 312.477823 
L 268.186383 312.640959 
L 268.340897 312.880613 
L 268.53404 312.825998 
L 268.727184 313.071325 
L 268.804441 313.098037 
L 268.881698 313.209987 
L 268.920327 313.13094 
L 269.036213 313.165455 
L 269.152099 313.23143 
L 269.190727 313.18732 
L 269.229356 313.295481 
L 269.267984 313.306244 
L 269.38387 313.152584 
L 269.499756 313.361669 
L 269.577014 313.312862 
L 269.731528 313.531032 
L 269.9633 313.41541 
L 270.079186 313.503899 
L 270.117814 313.341309 
L 270.156443 313.468833 
L 270.310958 313.757382 
L 270.388215 313.61626 
L 270.426843 313.638848 
L 270.581358 313.743342 
L 270.658615 313.607985 
L 270.735872 313.72229 
L 270.851758 313.71074 
L 270.967644 313.646986 
L 271.006273 313.706396 
L 271.08353 313.668006 
L 271.160787 313.803172 
L 271.199416 313.67179 
L 271.238045 313.778976 
L 271.469816 314.03981 
L 271.585702 313.761251 
L 271.740217 314.015612 
L 271.817474 313.881605 
L 271.894731 313.951516 
L 272.358275 314.023149 
L 272.51279 314.169548 
L 272.551418 314.126545 
L 272.590047 314.220256 
L 272.628675 314.318739 
L 272.667304 314.171604 
L 272.78319 314.304956 
L 272.821819 314.354337 
L 272.860447 314.302205 
L 273.014962 314.276654 
L 273.130848 314.283928 
L 273.362619 314.470511 
L 273.439877 314.303048 
L 273.517134 314.605471 
L 273.555763 314.431591 
L 273.787534 314.79083 
L 273.826163 314.624535 
L 273.942049 314.528324 
L 273.980678 314.631792 
L 274.057935 314.771176 
L 274.096563 314.734739 
L 274.212449 314.696304 
L 274.366964 314.881794 
L 274.405592 314.762069 
L 274.444221 314.826796 
L 274.637364 315.142326 
L 274.675993 314.917263 
L 274.75325 314.962815 
L 274.946393 315.092321 
L 274.985022 314.989571 
L 275.062279 315.052689 
L 275.139536 315.184992 
L 275.178165 315.097796 
L 275.216794 315.074585 
L 275.371308 315.306619 
L 275.487194 315.231629 
L 275.525823 315.36229 
L 275.564451 315.251282 
L 275.60308 315.14792 
L 275.641709 315.283967 
L 275.757595 315.384239 
L 275.796223 315.338745 
L 275.950738 315.174376 
L 276.066624 315.361202 
L 276.221138 315.222133 
L 276.375653 315.518092 
L 276.568796 315.446908 
L 276.607424 315.455609 
L 276.684682 315.627825 
L 276.72331 315.589017 
L 276.800568 315.489807 
L 276.877825 315.707769 
L 276.916454 315.622094 
L 276.955082 315.661689 
L 276.993711 315.542598 
L 277.418626 315.742894 
L 277.457254 315.888354 
L 277.534512 315.82617 
L 277.727655 315.634242 
L 277.804912 315.823261 
L 277.843541 315.808367 
L 277.998055 315.656569 
L 278.384342 315.714777 
L 278.42297 315.578375 
L 278.500227 315.67538 
L 278.538856 315.850559 
L 278.616113 315.821441 
L 278.809256 315.873102 
L 279.234171 315.873203 
L 279.311429 315.758758 
L 279.350057 315.771719 
L 279.388686 315.875939 
L 279.465943 315.793953 
L 279.620458 315.9166 
L 279.659086 315.857073 
L 279.697715 315.749735 
L 279.736344 315.826147 
L 279.85223 316.006986 
L 279.890858 315.958101 
L 280.084001 316.055007 
L 280.12263 315.926265 
L 280.161259 316.067643 
L 280.315773 316.171723 
L 280.508916 316.016281 
L 280.624802 316.222842 
L 280.663431 316.101227 
L 280.702059 316.013722 
L 280.740688 316.220705 
L 280.817945 316.072198 
L 280.933831 316.077958 
L 281.397375 316.212008 
L 281.436003 316.127421 
L 281.474632 316.165655 
L 281.590518 316.320921 
L 281.629147 316.153128 
L 281.706404 316.172746 
L 281.745032 316.359479 
L 281.82229 316.249217 
L 282.054062 316.289864 
L 282.09269 316.157835 
L 282.131319 316.262288 
L 282.285833 316.404293 
L 282.324462 316.342161 
L 282.440348 316.326863 
L 282.594862 316.357241 
L 282.788006 316.314945 
L 282.826634 316.307701 
L 282.865263 316.442982 
L 282.903891 316.271181 
L 282.94252 316.405044 
L 283.019777 316.315544 
L 283.058406 316.609414 
L 283.135663 316.529258 
L 283.251549 316.556598 
L 283.290178 316.42979 
L 283.367435 316.52691 
L 283.908236 316.416834 
L 284.06275 316.510563 
L 284.217265 316.510237 
L 284.255894 316.619241 
L 284.333151 316.516833 
L 284.603551 316.637144 
L 284.680808 316.548834 
L 284.796694 316.770461 
L 284.91258 316.633387 
L 284.989838 316.836894 
L 285.028466 316.639872 
L 285.067095 316.708818 
L 285.105723 316.566862 
L 285.144352 316.542077 
L 285.221609 316.791409 
L 285.260238 316.68614 
L 285.298867 316.724702 
L 285.337495 316.664512 
L 285.414752 316.536101 
L 285.569267 316.771369 
L 285.994182 317.113507 
L 286.110068 316.877643 
L 286.264582 317.00597 
L 286.303211 316.969588 
L 286.34184 317.046929 
L 286.457726 317.038795 
L 286.496354 316.997428 
L 286.534983 317.086651 
L 286.728126 317.163406 
L 286.766755 316.946134 
L 286.844012 317.106623 
L 286.88264 317.022423 
L 286.959898 317.117895 
L 287.153041 317.20971 
L 287.307555 317.065351 
L 287.46207 317.163752 
L 287.616584 317.076691 
L 287.73247 317.136792 
L 287.771099 317.107794 
L 287.925614 317.146279 
L 288.002871 317.020853 
L 288.041499 317.045294 
L 288.234643 317.076225 
L 288.3119 317.017908 
L 288.350528 317.088439 
L 288.5823 317.023065 
L 288.814072 316.94817 
L 288.852701 317.101091 
L 288.929958 317.057027 
L 288.968587 316.911621 
L 289.045844 317.0198 
L 289.238987 317.15511 
L 289.277616 317.027731 
L 289.393502 316.912632 
L 289.548016 317.067259 
L 289.702531 316.993075 
L 290.127446 316.967089 
L 290.166074 317.030873 
L 290.204703 316.940539 
L 290.243331 316.922779 
L 290.320589 317.053333 
L 290.359217 317.02163 
L 290.397846 316.952272 
L 290.436475 317.050349 
L 290.668246 317.287871 
L 290.784132 317.121265 
L 290.822761 317.179494 
L 290.977275 317.190419 
L 291.015904 317.289009 
L 291.054533 317.214703 
L 291.13179 317.17308 
L 291.170419 317.229896 
L 291.595334 317.438665 
L 291.749848 317.276003 
L 292.792821 317.531677 
L 292.985964 317.428778 
L 293.179107 317.443367 
L 293.294993 317.447837 
L 293.835794 317.628877 
L 293.990309 317.636131 
L 294.183452 317.530842 
L 294.222081 317.589111 
L 294.956025 317.585603 
L 295.07191 317.512859 
L 295.187796 317.624228 
L 295.226425 317.589226 
L 295.612711 317.504293 
L 295.805854 317.634152 
L 295.998998 317.564963 
L 296.037626 317.58955 
L 296.076255 317.514792 
L 296.192141 317.519693 
L 296.308027 317.589192 
L 296.578427 317.582297 
L 296.732942 317.604913 
L 297.041971 317.568762 
L 297.196485 317.575338 
L 297.273742 317.606554 
L 297.312371 317.550522 
L 297.582771 317.586835 
L 297.775915 317.623707 
L 297.930429 317.608191 
L 298.162201 317.67048 
L 298.316715 317.612627 
L 298.432601 317.627759 
L 298.664373 317.593047 
L 298.934774 317.579099 
L 299.089288 317.491088 
L 299.127917 317.55183 
L 299.166545 317.514683 
L 299.32106 317.440602 
L 299.436946 317.449827 
L 299.939118 317.447286 
L 300.209518 317.505419 
L 300.325404 317.448905 
L 300.44129 317.509748 
L 300.595805 317.440567 
L 301.754664 317.436569 
L 303.724724 317.41318 
L 304.226896 317.438025 
L 304.96084 317.441693 
L 319.060291 317.437228 
L 542.024752 317.437228 
L 542.024752 317.437228 
" clip-path="url(#p608e8b9405)" style="fill: none; stroke: #2ca02c; stroke-width: 1.5; stroke-linecap: square"/>
   </g>
   <g id="line2d_30">
    <path d="M 78.519801 42.7 
L 78.751573 101.276416 
L 79.021974 115.371577 
L 79.40826 123.966344 
L 79.910432 130.12754 
L 80.52849 134.9844 
L 81.262434 138.986059 
L 82.112264 142.36692 
L 83.07798 145.295334 
L 84.19821 147.972702 
L 85.472955 150.429958 
L 86.902215 152.693245 
L 88.485988 154.785611 
L 90.301534 156.808887 
L 92.348852 158.752417 
L 94.743827 160.709921 
L 97.563717 162.719047 
L 101.040294 164.911664 
L 105.443958 167.414428 
L 111.31551 170.479318 
L 119.350265 174.402111 
L 130.475311 179.569014 
L 146.428936 186.727816 
L 175.361781 199.441849 
L 231.102896 223.742366 
L 339.881123 271.013503 
L 340.730953 271.383649 
L 344.632445 273.057462 
L 347.143306 274.12612 
L 352.821715 276.550503 
L 353.555659 276.861824 
L 354.289603 277.170242 
L 356.105148 277.942968 
L 356.800464 278.234115 
L 360.045269 279.607062 
L 360.277041 279.691103 
L 360.58607 279.832857 
L 360.85647 279.934733 
L 361.7063 280.289283 
L 362.092586 280.447248 
L 364.217161 281.323089 
L 364.603447 281.50789 
L 365.028362 281.67188 
L 365.298763 281.787665 
L 367.770995 282.808452 
L 368.698082 283.203603 
L 369.818313 283.633958 
L 370.629514 283.996395 
L 370.977172 284.10509 
L 371.324829 284.263701 
L 371.556601 284.366955 
L 381.715931 288.400937 
L 381.870446 288.475093 
L 382.179475 288.576729 
L 382.449875 288.680676 
L 383.029305 288.933491 
L 383.299705 289.021171 
L 383.801877 289.234911 
L 383.956392 289.24804 
L 384.458564 289.464497 
L 387.046682 290.438031 
L 387.162568 290.494794 
L 387.510226 290.628375 
L 388.128284 290.813319 
L 388.630456 291.036326 
L 388.862228 291.07985 
L 389.055371 291.182128 
L 390.059716 291.560223 
L 391.682118 292.146068 
L 391.91389 292.268424 
L 393.536292 292.857607 
L 393.652178 292.839307 
L 393.845321 292.938126 
L 395.815382 293.614548 
L 396.008525 293.679193 
L 396.394811 293.804733 
L 396.587954 293.884183 
L 396.819726 293.962764 
L 397.051498 294.075886 
L 397.360527 294.174346 
L 397.399156 294.127437 
L 397.476413 294.196476 
L 397.978585 294.330985 
L 398.171728 294.365977 
L 398.635272 294.539584 
L 398.751158 294.56581 
L 398.98293 294.701152 
L 399.137444 294.727824 
L 399.446473 294.873161 
L 399.600988 294.890523 
L 399.948645 294.983682 
L 400.10316 295.055775 
L 400.95299 295.341049 
L 401.030247 295.267486 
L 401.068876 295.341279 
L 401.416533 295.489214 
L 401.686934 295.552967 
L 401.841448 295.62701 
L 401.995963 295.646798 
L 402.691278 295.858057 
L 404.661338 296.565406 
L 404.699967 296.476621 
L 404.777224 296.546568 
L 404.970367 296.649396 
L 405.086253 296.669034 
L 406.785913 297.180165 
L 406.940428 297.20649 
L 407.288085 297.322143 
L 407.4426 297.356455 
L 407.713 297.430538 
L 407.790258 297.46041 
L 407.944772 297.55629 
L 408.176544 297.571057 
L 408.369687 297.628303 
L 409.026374 297.851853 
L 409.14226 297.764655 
L 409.296774 297.944133 
L 409.335403 297.869355 
L 409.41266 297.95225 
L 409.760318 298.028017 
L 409.876204 298.162166 
L 410.030718 298.036436 
L 410.185233 298.11405 
L 410.223861 298.070427 
L 410.26249 298.153624 
L 410.494262 298.240233 
L 410.53289 298.33447 
L 410.610148 298.235824 
L 410.764662 298.277395 
L 411.189577 298.439449 
L 411.305463 298.375184 
L 411.498606 298.555668 
L 411.884892 298.623013 
L 412.039407 298.667571 
L 412.155293 298.695998 
L 412.23255 298.774505 
L 412.271179 298.685416 
L 412.580208 298.782417 
L 412.696094 298.789214 
L 412.850608 298.850607 
L 413.08238 298.957853 
L 413.121009 298.894651 
L 413.159637 298.963923 
L 413.198266 299.044082 
L 413.275523 298.99347 
L 414.627525 299.376286 
L 414.666154 299.275738 
L 414.743411 299.344237 
L 415.863642 299.735086 
L 416.018156 299.661568 
L 416.404442 299.806793 
L 416.443071 299.712724 
L 416.4817 299.806997 
L 416.7521 299.907118 
L 416.829357 299.957366 
L 416.867986 299.883136 
L 417.0225 299.896961 
L 417.061129 299.820962 
L 417.099758 299.889334 
L 417.254272 299.97599 
L 417.486044 300.056943 
L 417.524673 299.910366 
L 417.563301 300.058975 
L 417.87233 300.106887 
L 417.910959 300.080988 
L 417.949588 300.178507 
L 418.104102 300.139067 
L 418.219988 300.207356 
L 418.335874 300.232433 
L 418.45176 300.315549 
L 418.644903 300.337551 
L 418.760789 300.379 
L 418.876675 300.471455 
L 418.915303 300.424624 
L 419.031189 300.441291 
L 419.069818 300.348264 
L 419.108447 300.410663 
L 419.147075 300.474987 
L 419.185704 300.407455 
L 419.224332 300.348485 
L 419.262961 300.432398 
L 420.653592 300.822134 
L 420.769478 300.875631 
L 420.923992 300.7351 
L 420.962621 300.785797 
L 421.155764 300.90612 
L 421.310279 300.832448 
L 421.348907 300.884812 
L 421.580679 300.999876 
L 421.735194 300.917686 
L 421.851079 301.03462 
L 421.889708 300.961561 
L 421.928337 301.006592 
L 422.005594 301.124667 
L 422.044223 301.045026 
L 422.353252 301.212834 
L 422.39188 301.105788 
L 422.469138 301.172429 
L 422.623652 301.186588 
L 422.97131 301.2614 
L 423.048567 301.423329 
L 423.087196 301.35472 
L 423.203082 301.372991 
L 423.357596 301.495126 
L 423.396225 301.378805 
L 423.473482 301.411153 
L 423.705254 301.51921 
L 423.859768 301.45197 
L 424.014283 301.542852 
L 424.09154 301.506962 
L 424.130169 301.564193 
L 424.709598 301.606542 
L 424.786855 301.582252 
L 424.825484 301.639479 
L 424.979999 301.727353 
L 425.057256 301.672586 
L 425.095884 301.757761 
L 425.289028 301.789303 
L 425.482171 301.777757 
L 425.559428 301.897417 
L 425.598057 301.780371 
L 425.752571 301.794242 
L 425.7912 301.743698 
L 425.829828 301.860859 
L 425.868457 301.812488 
L 426.332001 301.982865 
L 426.409258 301.903215 
L 426.447887 301.959286 
L 426.756916 301.923592 
L 426.872802 302.065124 
L 426.91143 302.01059 
L 427.104573 302.093878 
L 427.181831 301.988015 
L 427.259088 302.043665 
L 427.452231 302.03145 
L 427.684003 302.259667 
L 427.915775 302.212067 
L 428.108918 302.231468 
L 428.147546 302.115211 
L 428.186175 302.224914 
L 428.263432 302.330138 
L 428.302061 302.289459 
L 428.34069 302.258763 
L 428.495204 302.383308 
L 428.649719 302.32496 
L 429.151891 302.502501 
L 429.229148 302.453836 
L 429.383663 302.553294 
L 429.73132 302.768712 
L 429.847206 302.637084 
L 429.885835 302.660446 
L 430.078978 302.65554 
L 430.156235 302.768513 
L 430.194864 302.694263 
L 430.272121 302.664644 
L 430.31075 302.714898 
L 430.619779 302.758365 
L 430.774293 302.740481 
L 431.16058 302.833825 
L 431.276466 302.728976 
L 431.43098 302.896696 
L 431.469609 302.900365 
L 431.508237 302.780879 
L 431.585495 302.870571 
L 431.662752 302.831875 
L 431.70138 302.911428 
L 431.894524 302.906657 
L 431.933152 303.000791 
L 432.01041 302.909236 
L 432.164924 303.045665 
L 432.203553 302.891121 
L 432.242181 302.964269 
L 432.28081 303.043543 
L 432.319439 302.891484 
L 432.358067 302.879646 
L 432.435325 302.99931 
L 432.473953 302.984131 
L 432.55121 303.019341 
L 432.667096 303.212131 
L 432.705725 303.049297 
L 432.782982 303.109372 
L 432.898868 303.152365 
L 432.937497 303.078306 
L 432.976125 303.205698 
L 433.285154 303.152777 
L 433.362412 303.325587 
L 433.40104 303.163793 
L 433.787327 303.180194 
L 434.096356 303.171845 
L 434.212242 303.311357 
L 434.25087 303.181726 
L 434.328127 303.27474 
L 434.366756 303.366982 
L 434.444013 303.296142 
L 434.521271 303.167833 
L 434.559899 303.2446 
L 434.753042 303.379568 
L 434.791671 303.328704 
L 434.946186 303.33804 
L 435.216586 303.420756 
L 435.293843 303.388087 
L 435.332472 303.419594 
L 435.371101 303.49971 
L 435.448358 303.407203 
L 435.564244 303.384151 
L 435.641501 303.328181 
L 435.68013 303.518463 
L 435.757387 303.485232 
L 436.027787 303.546658 
L 436.066416 303.424179 
L 436.143673 303.499042 
L 436.182302 303.432782 
L 436.22093 303.551896 
L 436.259559 303.487046 
L 436.414074 303.547079 
L 436.607217 303.564837 
L 436.684474 303.524822 
L 436.80036 303.634568 
L 436.838989 303.498459 
L 436.916246 303.557063 
L 437.032132 303.678266 
L 437.148018 303.597915 
L 437.302532 303.7865 
L 437.418418 303.668095 
L 437.457047 303.791005 
L 437.534304 303.738738 
L 437.572933 303.710635 
L 437.611561 303.880546 
L 437.688818 303.753789 
L 437.881962 303.785927 
L 438.036476 303.907169 
L 438.345505 303.833947 
L 438.847677 303.796493 
L 438.886306 303.922565 
L 438.924935 303.865617 
L 438.963563 303.755036 
L 439.002192 303.866409 
L 439.581621 303.96564 
L 439.62025 303.867991 
L 439.658879 304.073767 
L 439.736136 303.983335 
L 439.929279 304.122461 
L 440.006536 304.02897 
L 440.045165 304.047827 
L 440.585966 304.205554 
L 440.663223 304.01575 
L 440.74048 304.11267 
L 440.933623 304.194336 
L 441.088138 304.013286 
L 441.204024 304.157282 
L 441.242653 304.054076 
L 441.281281 304.217636 
L 441.31991 304.156275 
L 441.474424 304.089987 
L 441.667567 304.253779 
L 441.706196 304.175229 
L 441.744825 304.20924 
L 441.899339 304.445124 
L 441.937968 304.331719 
L 442.015225 304.386105 
L 442.208368 304.248775 
L 442.324254 304.388467 
L 442.362883 304.372312 
L 442.556026 304.408062 
L 442.671912 304.415356 
L 442.710541 304.476731 
L 442.749169 304.448803 
L 442.903684 304.327771 
L 442.942312 304.416804 
L 443.01957 304.353564 
L 443.212713 304.337917 
L 443.251341 304.436729 
L 443.28997 304.304837 
L 443.483113 304.298747 
L 443.676256 304.598611 
L 443.830771 304.405317 
L 443.869399 304.498085 
L 444.023914 304.539219 
L 444.371572 304.491206 
L 444.487458 304.537439 
L 444.603343 304.496336 
L 444.680601 304.580689 
L 444.719229 304.54103 
L 444.873744 304.426466 
L 445.105516 304.621016 
L 445.878088 304.762818 
L 445.916717 304.635797 
L 445.993974 304.741426 
L 446.10986 304.682511 
L 446.148489 304.735342 
L 446.225746 304.65533 
L 446.303003 304.687903 
L 446.418889 304.755887 
L 446.534775 304.790984 
L 446.573404 304.891249 
L 446.612032 304.8466 
L 446.766547 304.729125 
L 446.843804 304.76639 
L 447.075576 304.900925 
L 447.268719 304.876776 
L 447.384605 305.001864 
L 447.423234 304.892033 
L 447.500491 304.971612 
L 447.770891 304.851066 
L 447.80952 304.9751 
L 448.388949 304.9781 
L 448.620721 304.950568 
L 449.045636 305.010046 
L 449.084265 304.938615 
L 449.122893 304.969098 
L 449.238779 305.07228 
L 449.277408 305.053357 
L 449.431922 305.091538 
L 449.625066 305.017823 
L 449.77958 305.010676 
L 450.011352 305.215513 
L 450.088609 305.063716 
L 450.474895 305.106007 
L 450.552153 305.031515 
L 450.590781 305.114076 
L 450.62941 305.203073 
L 450.706667 305.113219 
L 450.783925 305.193471 
L 450.938439 305.162955 
L 451.015696 305.081502 
L 451.054325 305.158445 
L 451.363354 305.25962 
L 451.47924 305.13997 
L 451.517869 305.189932 
L 451.672383 305.177197 
L 451.711012 305.068392 
L 451.74964 305.14709 
L 451.904155 305.300645 
L 451.942783 305.201759 
L 452.020041 305.268003 
L 452.058669 305.314944 
L 452.097298 305.265778 
L 452.135927 305.212373 
L 452.213184 305.294531 
L 452.406327 305.33938 
L 452.483584 305.25685 
L 452.522213 305.287885 
L 452.792613 305.335094 
L 452.869871 305.299005 
L 452.908499 305.207973 
L 452.985757 305.270162 
L 453.024385 305.318169 
L 453.063014 305.267171 
L 453.101642 305.214775 
L 453.1789 305.280532 
L 453.294786 305.388008 
L 453.372043 305.300316 
L 453.410671 305.368222 
L 453.487929 305.365544 
L 453.526557 305.45801 
L 453.603815 305.356241 
L 453.719701 305.377672 
L 454.067358 305.530329 
L 454.221873 305.327061 
L 454.376387 305.506836 
L 454.453645 305.46393 
L 454.492273 305.497529 
L 456.230562 305.651876 
L 457.11902 305.657957 
L 457.196277 305.757052 
L 457.234906 305.704283 
L 457.389421 305.62371 
L 457.505306 305.657569 
L 457.582564 305.669893 
L 457.69845 305.756651 
L 457.891593 305.636935 
L 458.046107 305.865415 
L 458.123365 305.7575 
L 458.316508 305.73673 
L 458.471022 305.769558 
L 459.050452 305.633806 
L 459.08908 305.755652 
L 459.166338 305.709687 
L 459.398109 305.718739 
L 459.861653 305.763889 
L 459.900282 305.835278 
L 459.93891 305.77492 
L 460.054796 305.755533 
L 460.286568 305.875102 
L 460.402454 305.73346 
L 460.556968 305.8548 
L 460.750111 305.711706 
L 460.827369 305.780122 
L 460.865997 305.723812 
L 460.981883 305.807612 
L 461.020512 305.86201 
L 461.097769 305.791747 
L 461.406798 305.832601 
L 461.522684 305.853675 
L 461.677199 305.847989 
L 461.831713 305.9076 
L 461.986228 305.843201 
L 462.449771 305.95021 
L 462.565657 305.921289 
L 462.951943 305.810556 
L 463.029201 305.82266 
L 463.106458 305.931823 
L 463.145087 305.808404 
L 463.222344 305.842873 
L 463.33823 305.919093 
L 463.376858 305.886726 
L 463.724516 305.820902 
L 463.763145 305.88148 
L 463.840402 305.81541 
L 464.226688 305.98733 
L 464.342574 305.982144 
L 464.497089 305.991927 
L 464.651603 306.03401 
L 464.806118 306.083899 
L 465.115147 306.057696 
L 465.269661 306.022548 
L 465.424176 306.037142 
L 465.926348 306.136348 
L 466.080863 306.14115 
L 466.42852 306.089974 
L 466.544406 306.028526 
L 466.737549 306.120618 
L 466.969321 306.021789 
L 467.162464 306.111363 
L 467.201093 306.05245 
L 467.27835 306.131038 
L 467.394236 306.159411 
L 467.587379 306.010894 
L 467.741894 306.106036 
L 467.973666 306.034238 
L 468.089551 305.961039 
L 468.244066 306.125858 
L 468.437209 305.97342 
L 468.746238 306.120195 
L 468.862124 306.115821 
L 469.093896 306.225162 
L 469.24841 306.103655 
L 469.55744 306.094653 
L 469.596068 306.18406 
L 469.673325 306.112827 
L 469.866469 306.195547 
L 470.136869 306.180497 
L 470.291384 306.163786 
L 470.445898 306.171714 
L 470.754927 306.264604 
L 470.94807 306.25978 
L 471.295728 306.249637 
L 471.334357 306.201252 
L 471.372985 306.262593 
L 471.604757 306.268402 
L 471.875157 306.209523 
L 472.145558 306.189436 
L 472.338701 306.182611 
L 472.531844 306.268734 
L 472.686359 306.20832 
L 472.956759 306.233158 
L 473.806589 306.368333 
L 473.845218 306.335195 
L 473.883846 306.40512 
L 474.038361 306.356482 
L 475.158591 306.32873 
L 475.351734 306.270476 
L 475.428992 306.340462 
L 475.46762 306.28165 
L 475.931164 306.324719 
L 476.085678 306.310497 
L 476.278821 306.35507 
L 476.433336 306.397507 
L 476.819622 306.534529 
L 476.935508 306.528356 
L 477.051394 306.547103 
L 477.244537 306.470516 
L 477.630824 306.558489 
L 477.746709 306.495841 
L 479.060083 306.447991 
L 479.175969 306.51416 
L 479.330483 306.524717 
L 479.523626 306.525279 
L 479.71677 306.450272 
L 479.909913 306.526159 
L 480.064427 306.517768 
L 480.334828 306.492356 
L 480.450714 306.546936 
L 480.759743 306.452308 
L 480.991514 306.586173 
L 481.455058 306.556384 
L 481.725458 306.491779 
L 481.802716 306.538401 
L 481.918602 306.61678 
L 481.95723 306.537047 
L 482.034488 306.601697 
L 482.420774 306.641106 
L 482.961575 306.645418 
L 483.077461 306.650001 
L 483.772776 306.669814 
L 483.888662 306.612279 
L 483.92729 306.680861 
L 484.081805 306.631685 
L 485.395178 306.61768 
L 485.511064 306.630988 
L 486.129122 306.601819 
L 486.47678 306.64252 
L 487.32661 306.665255 
L 488.794498 306.688374 
L 488.949013 306.721307 
L 489.29667 306.725553 
L 503.202978 306.615766 
L 504.052808 306.632737 
L 504.477723 306.626612 
L 510.890075 306.632099 
L 542.024752 306.632027 
L 542.024752 306.632027 
" clip-path="url(#p608e8b9405)" style="fill: none; stroke: #d62728; stroke-width: 1.5; stroke-linecap: square"/>
   </g>
   <g id="patch_3">
    <path d="M 55.344554 390.04 
L 55.344554 26.16 
" style="fill: none; stroke: #000000; stroke-width: 0.8; stroke-linejoin: miter; stroke-linecap: square"/>
   </g>
   <g id="patch_4">
    <path d="M 565.2 390.04 
L 565.2 26.16 
" style="fill: none; stroke: #000000; stroke-width: 0.8; stroke-linejoin: miter; stroke-linecap: square"/>
   </g>
   <g id="patch_5">
    <path d="M 55.344554 390.04 
L 565.2 390.04 
" style="fill: none; stroke: #000000; stroke-width: 0.8; stroke-linejoin: miter; stroke-linecap: square"/>
   </g>
   <g id="patch_6">
    <path d="M 55.344554 26.16 
L 565.2 26.16 
" style="fill: none; stroke: #000000; stroke-width: 0.8; stroke-linejoin: miter; stroke-linecap: square"/>
   </g>
   <g id="text_16">
    <!-- Convergence of Residuals -->
    <g transform="translate(232.648214 20.16) scale(0.12 -0.12)">
     <defs>
      <path id="DejaVuSans-43" d="M 4122 4306 
L 4122 3641 
Q 3803 3938 3442 4084 
Q 3081 4231 2675 4231 
Q 1875 4231 1450 3742 
Q 1025 3253 1025 2328 
Q 1025 1406 1450 917 
Q 1875 428 2675 428 
Q 3081 428 3442 575 
Q 3803 722 4122 1019 
L 4122 359 
Q 3791 134 3420 21 
Q 3050 -91 2638 -91 
Q 1578 -91 968 557 
Q 359 1206 359 2328 
Q 359 3453 968 4101 
Q 1578 4750 2638 4750 
Q 3056 4750 3426 4639 
Q 3797 4528 4122 4306 
z
" transform="scale(0.015625)"/>
      <path id="DejaVuSans-76" d="M 191 3500 
L 800 3500 
L 1894 563 
L 2988 3500 
L 3597 3500 
L 2284 0 
L 1503 0 
L 191 3500 
z
" transform="scale(0.015625)"/>
      <path id="DejaVuSans-67" d="M 2906 1791 
Q 2906 2416 2648 2759 
Q 2391 3103 1925 3103 
Q 1463 3103 1205 2759 
Q 947 2416 947 1791 
Q 947 1169 1205 825 
Q 1463 481 1925 481 
Q 2391 481 2648 825 
Q 2906 1169 2906 1791 
z
M 3481 434 
Q 3481 -459 3084 -895 
Q 2688 -1331 1869 -1331 
Q 1566 -1331 1297 -1286 
Q 1028 -1241 775 -1147 
L 775 -588 
Q 1028 -725 1275 -790 
Q 1522 -856 1778 -856 
Q 2344 -856 2625 -561 
Q 2906 -266 2906 331 
L 2906 616 
Q 2728 306 2450 153 
Q 2172 0 1784 0 
Q 1141 0 747 490 
Q 353 981 353 1791 
Q 353 2603 747 3093 
Q 1141 3584 1784 3584 
Q 2172 3584 2450 3431 
Q 2728 3278 2906 2969 
L 2906 3500 
L 3481 3500 
L 3481 434 
z
" transform="scale(0.015625)"/>
      <path id="DejaVuSans-63" d="M 3122 3366 
L 3122 2828 
Q 2878 2963 2633 3030 
Q 2388 3097 2138 3097 
Q 1578 3097 1268 2742 
Q 959 2388 959 1747 
Q 959 1106 1268 751 
Q 1578 397 2138 397 
Q 2388 397 2633 464 
Q 2878 531 3122 666 
L 3122 134 
Q 2881 22 2623 -34 
Q 2366 -91 2075 -91 
Q 1284 -91 818 406 
Q 353 903 353 1747 
Q 353 2603 823 3093 
Q 1294 3584 2113 3584 
Q 2378 3584 2631 3529 
Q 2884 3475 3122 3366 
z
" transform="scale(0.015625)"/>
      <path id="DejaVuSans-20" transform="scale(0.015625)"/>
      <path id="DejaVuSans-66" d="M 2375 4863 
L 2375 4384 
L 1825 4384 
Q 1516 4384 1395 4259 
Q 1275 4134 1275 3809 
L 1275 3500 
L 2222 3500 
L 2222 3053 
L 1275 3053 
L 1275 0 
L 697 0 
L 697 3053 
L 147 3053 
L 147 3500 
L 697 3500 
L 697 3744 
Q 697 4328 969 4595 
Q 1241 4863 1831 4863 
L 2375 4863 
z
" transform="scale(0.015625)"/>
     </defs>
     <use xlink:href="#DejaVuSans-43"/>
     <use xlink:href="#DejaVuSans-6f" transform="translate(69.824219 0)"/>
     <use xlink:href="#DejaVuSans-6e" transform="translate(131.005859 0)"/>
     <use xlink:href="#DejaVuSans-76" transform="translate(194.384766 0)"/>
     <use xlink:href="#DejaVuSans-65" transform="translate(253.564453 0)"/>
     <use xlink:href="#DejaVuSans-72" transform="translate(315.087891 0)"/>
     <use xlink:href="#DejaVuSans-67" transform="translate(354.451172 0)"/>
     <use xlink:href="#DejaVuSans-65" transform="translate(417.927734 0)"/>
     <use xlink:href="#DejaVuSans-6e" transform="translate(479.451172 0)"/>
     <use xlink:href="#DejaVuSans-63" transform="translate(542.830078 0)"/>
     <use xlink:href="#DejaVuSans-65" transform="translate(597.810547 0)"/>
     <use xlink:href="#DejaVuSans-20" transform="translate(659.333984 0)"/>
     <use xlink:href="#DejaVuSans-6f" transform="translate(691.121094 0)"/>
     <use xlink:href="#DejaVuSans-66" transform="translate(752.302734 0)"/>
     <use xlink:href="#DejaVuSans-20" transform="translate(787.507812 0)"/>
     <use xlink:href="#DejaVuSans-52" transform="translate(819.294922 0)"/>
     <use xlink:href="#DejaVuSans-65" transform="translate(884.277344 0)"/>
     <use xlink:href="#DejaVuSans-73" transform="translate(945.800781 0)"/>
     <use xlink:href="#DejaVuSans-69" transform="translate(997.900391 0)"/>
     <use xlink:href="#DejaVuSans-64" transform="translate(1025.683594 0)"/>
     <use xlink:href="#DejaVuSans-75" transform="translate(1089.160156 0)"/>
     <use xlink:href="#DejaVuSans-61" transform="translate(1152.539062 0)"/>
     <use xlink:href="#DejaVuSans-6c" transform="translate(1213.818359 0)"/>
     <use xlink:href="#DejaVuSans-73" transform="translate(1241.601562 0)"/>
    </g>
   </g>
   <g id="legend_1">
    <g id="patch_7">
     <path d="M 430.867187 92.8725 
L 558.2 92.8725 
Q 560.2 92.8725 560.2 90.8725 
L 560.2 33.16 
Q 560.2 31.16 558.2 31.16 
L 430.867187 31.16 
Q 428.867187 31.16 428.867187 33.16 
L 428.867187 90.8725 
Q 428.867187 92.8725 430.867187 92.8725 
z
" style="fill: #ffffff; opacity: 0.8; stroke: #cccccc; stroke-linejoin: miter"/>
    </g>
    <g id="line2d_31">
     <path d="M 432.867187 39.258437 
L 442.867187 39.258437 
L 452.867187 39.258437 
" style="fill: none; stroke: #1f77b4; stroke-width: 1.5; stroke-linecap: square"/>
    </g>
    <g id="text_17">
     <!-- Grid Size: 32x32 -->
     <g transform="translate(460.867187 42.758437) scale(0.1 -0.1)">
      <defs>
       <path id="DejaVuSans-47" d="M 3809 666 
L 3809 1919 
L 2778 1919 
L 2778 2438 
L 4434 2438 
L 4434 434 
Q 4069 175 3628 42 
Q 3188 -91 2688 -91 
Q 1594 -91 976 548 
Q 359 1188 359 2328 
Q 359 3472 976 4111 
Q 1594 4750 2688 4750 
Q 3144 4750 3555 4637 
Q 3966 4525 4313 4306 
L 4313 3634 
Q 3963 3931 3569 4081 
Q 3175 4231 2741 4231 
Q 1884 4231 1454 3753 
Q 1025 3275 1025 2328 
Q 1025 1384 1454 906 
Q 1884 428 2741 428 
Q 3075 428 3337 486 
Q 3600 544 3809 666 
z
" transform="scale(0.015625)"/>
       <path id="DejaVuSans-53" d="M 3425 4513 
L 3425 3897 
Q 3066 4069 2747 4153 
Q 2428 4238 2131 4238 
Q 1616 4238 1336 4038 
Q 1056 3838 1056 3469 
Q 1056 3159 1242 3001 
Q 1428 2844 1947 2747 
L 2328 2669 
Q 3034 2534 3370 2195 
Q 3706 1856 3706 1288 
Q 3706 609 3251 259 
Q 2797 -91 1919 -91 
Q 1588 -91 1214 -16 
Q 841 59 441 206 
L 441 856 
Q 825 641 1194 531 
Q 1563 422 1919 422 
Q 2459 422 2753 634 
Q 3047 847 3047 1241 
Q 3047 1584 2836 1778 
Q 2625 1972 2144 2069 
L 1759 2144 
Q 1053 2284 737 2584 
Q 422 2884 422 3419 
Q 422 4038 858 4394 
Q 1294 4750 2059 4750 
Q 2388 4750 2728 4690 
Q 3069 4631 3425 4513 
z
" transform="scale(0.015625)"/>
       <path id="DejaVuSans-7a" d="M 353 3500 
L 3084 3500 
L 3084 2975 
L 922 459 
L 3084 459 
L 3084 0 
L 275 0 
L 275 525 
L 2438 3041 
L 353 3041 
L 353 3500 
z
" transform="scale(0.015625)"/>
       <path id="DejaVuSans-3a" d="M 750 794 
L 1409 794 
L 1409 0 
L 750 0 
L 750 794 
z
M 750 3309 
L 1409 3309 
L 1409 2516 
L 750 2516 
L 750 3309 
z
" transform="scale(0.015625)"/>
       <path id="DejaVuSans-33" d="M 2597 2516 
Q 3050 2419 3304 2112 
Q 3559 1806 3559 1356 
Q 3559 666 3084 287 
Q 2609 -91 1734 -91 
Q 1441 -91 1130 -33 
Q 819 25 488 141 
L 488 750 
Q 750 597 1062 519 
Q 1375 441 1716 441 
Q 2309 441 2620 675 
Q 2931 909 2931 1356 
Q 2931 1769 2642 2001 
Q 2353 2234 1838 2234 
L 1294 2234 
L 1294 2753 
L 1863 2753 
Q 2328 2753 2575 2939 
Q 2822 3125 2822 3475 
Q 2822 3834 2567 4026 
Q 2313 4219 1838 4219 
Q 1578 4219 1281 4162 
Q 984 4106 628 3988 
L 628 4550 
Q 988 4650 1302 4700 
Q 1616 4750 1894 4750 
Q 2613 4750 3031 4423 
Q 3450 4097 3450 3541 
Q 3450 3153 3228 2886 
Q 3006 2619 2597 2516 
z
" transform="scale(0.015625)"/>
       <path id="DejaVuSans-78" d="M 3513 3500 
L 2247 1797 
L 3578 0 
L 2900 0 
L 1881 1375 
L 863 0 
L 184 0 
L 1544 1831 
L 300 3500 
L 978 3500 
L 1906 2253 
L 2834 3500 
L 3513 3500 
z
" transform="scale(0.015625)"/>
      </defs>
      <use xlink:href="#DejaVuSans-47"/>
      <use xlink:href="#DejaVuSans-72" transform="translate(77.490234 0)"/>
      <use xlink:href="#DejaVuSans-69" transform="translate(118.603516 0)"/>
      <use xlink:href="#DejaVuSans-64" transform="translate(146.386719 0)"/>
      <use xlink:href="#DejaVuSans-20" transform="translate(209.863281 0)"/>
      <use xlink:href="#DejaVuSans-53" transform="translate(241.650391 0)"/>
      <use xlink:href="#DejaVuSans-69" transform="translate(305.126953 0)"/>
      <use xlink:href="#DejaVuSans-7a" transform="translate(332.910156 0)"/>
      <use xlink:href="#DejaVuSans-65" transform="translate(385.400391 0)"/>
      <use xlink:href="#DejaVuSans-3a" transform="translate(446.923828 0)"/>
      <use xlink:href="#DejaVuSans-20" transform="translate(480.615234 0)"/>
      <use xlink:href="#DejaVuSans-33" transform="translate(512.402344 0)"/>
      <use xlink:href="#DejaVuSans-32" transform="translate(576.025391 0)"/>
      <use xlink:href="#DejaVuSans-78" transform="translate(639.648438 0)"/>
      <use xlink:href="#DejaVuSans-33" transform="translate(698.828125 0)"/>
      <use xlink:href="#DejaVuSans-32" transform="translate(762.451172 0)"/>
     </g>
    </g>
    <g id="line2d_32">
     <path d="M 432.867187 53.936562 
L 442.867187 53.936562 
L 452.867187 53.936562 
" style="fill: none; stroke: #ff7f0e; stroke-width: 1.5; stroke-linecap: square"/>
    </g>
    <g id="text_18">
     <!-- Grid Size: 96x96 -->
     <g transform="translate(460.867187 57.436562) scale(0.1 -0.1)">
      <defs>
       <path id="DejaVuSans-39" d="M 703 97 
L 703 672 
Q 941 559 1184 500 
Q 1428 441 1663 441 
Q 2288 441 2617 861 
Q 2947 1281 2994 2138 
Q 2813 1869 2534 1725 
Q 2256 1581 1919 1581 
Q 1219 1581 811 2004 
Q 403 2428 403 3163 
Q 403 3881 828 4315 
Q 1253 4750 1959 4750 
Q 2769 4750 3195 4129 
Q 3622 3509 3622 2328 
Q 3622 1225 3098 567 
Q 2575 -91 1691 -91 
Q 1453 -91 1209 -44 
Q 966 3 703 97 
z
M 1959 2075 
Q 2384 2075 2632 2365 
Q 2881 2656 2881 3163 
Q 2881 3666 2632 3958 
Q 2384 4250 1959 4250 
Q 1534 4250 1286 3958 
Q 1038 3666 1038 3163 
Q 1038 2656 1286 2365 
Q 1534 2075 1959 2075 
z
" transform="scale(0.015625)"/>
      </defs>
      <use xlink:href="#DejaVuSans-47"/>
      <use xlink:href="#DejaVuSans-72" transform="translate(77.490234 0)"/>
      <use xlink:href="#DejaVuSans-69" transform="translate(118.603516 0)"/>
      <use xlink:href="#DejaVuSans-64" transform="translate(146.386719 0)"/>
      <use xlink:href="#DejaVuSans-20" transform="translate(209.863281 0)"/>
      <use xlink:href="#DejaVuSans-53" transform="translate(241.650391 0)"/>
      <use xlink:href="#DejaVuSans-69" transform="translate(305.126953 0)"/>
      <use xlink:href="#DejaVuSans-7a" transform="translate(332.910156 0)"/>
      <use xlink:href="#DejaVuSans-65" transform="translate(385.400391 0)"/>
      <use xlink:href="#DejaVuSans-3a" transform="translate(446.923828 0)"/>
      <use xlink:href="#DejaVuSans-20" transform="translate(480.615234 0)"/>
      <use xlink:href="#DejaVuSans-39" transform="translate(512.402344 0)"/>
      <use xlink:href="#DejaVuSans-36" transform="translate(576.025391 0)"/>
      <use xlink:href="#DejaVuSans-78" transform="translate(639.648438 0)"/>
      <use xlink:href="#DejaVuSans-39" transform="translate(698.828125 0)"/>
      <use xlink:href="#DejaVuSans-36" transform="translate(762.451172 0)"/>
     </g>
    </g>
    <g id="line2d_33">
     <path d="M 432.867187 68.614687 
L 442.867187 68.614687 
L 452.867187 68.614687 
" style="fill: none; stroke: #2ca02c; stroke-width: 1.5; stroke-linecap: square"/>
    </g>
    <g id="text_19">
     <!-- Grid Size: 160x160 -->
     <g transform="translate(460.867187 72.114687) scale(0.1 -0.1)">
      <use xlink:href="#DejaVuSans-47"/>
      <use xlink:href="#DejaVuSans-72" transform="translate(77.490234 0)"/>
      <use xlink:href="#DejaVuSans-69" transform="translate(118.603516 0)"/>
      <use xlink:href="#DejaVuSans-64" transform="translate(146.386719 0)"/>
      <use xlink:href="#DejaVuSans-20" transform="translate(209.863281 0)"/>
      <use xlink:href="#DejaVuSans-53" transform="translate(241.650391 0)"/>
      <use xlink:href="#DejaVuSans-69" transform="translate(305.126953 0)"/>
      <use xlink:href="#DejaVuSans-7a" transform="translate(332.910156 0)"/>
      <use xlink:href="#DejaVuSans-65" transform="translate(385.400391 0)"/>
      <use xlink:href="#DejaVuSans-3a" transform="translate(446.923828 0)"/>
      <use xlink:href="#DejaVuSans-20" transform="translate(480.615234 0)"/>
      <use xlink:href="#DejaVuSans-31" transform="translate(512.402344 0)"/>
      <use xlink:href="#DejaVuSans-36" transform="translate(576.025391 0)"/>
      <use xlink:href="#DejaVuSans-30" transform="translate(639.648438 0)"/>
      <use xlink:href="#DejaVuSans-78" transform="translate(703.271484 0)"/>
      <use xlink:href="#DejaVuSans-31" transform="translate(762.451172 0)"/>
      <use xlink:href="#DejaVuSans-36" transform="translate(826.074219 0)"/>
      <use xlink:href="#DejaVuSans-30" transform="translate(889.697266 0)"/>
     </g>
    </g>
    <g id="line2d_34">
     <path d="M 432.867187 83.292812 
L 442.867187 83.292812 
L 452.867187 83.292812 
" style="fill: none; stroke: #d62728; stroke-width: 1.5; stroke-linecap: square"/>
    </g>
    <g id="text_20">
     <!-- Grid Size: 224x224 -->
     <g transform="translate(460.867187 86.792812) scale(0.1 -0.1)">
      <use xlink:href="#DejaVuSans-47"/>
      <use xlink:href="#DejaVuSans-72" transform="translate(77.490234 0)"/>
      <use xlink:href="#DejaVuSans-69" transform="translate(118.603516 0)"/>
      <use xlink:href="#DejaVuSans-64" transform="translate(146.386719 0)"/>
      <use xlink:href="#DejaVuSans-20" transform="translate(209.863281 0)"/>
      <use xlink:href="#DejaVuSans-53" transform="translate(241.650391 0)"/>
      <use xlink:href="#DejaVuSans-69" transform="translate(305.126953 0)"/>
      <use xlink:href="#DejaVuSans-7a" transform="translate(332.910156 0)"/>
      <use xlink:href="#DejaVuSans-65" transform="translate(385.400391 0)"/>
      <use xlink:href="#DejaVuSans-3a" transform="translate(446.923828 0)"/>
      <use xlink:href="#DejaVuSans-20" transform="translate(480.615234 0)"/>
      <use xlink:href="#DejaVuSans-32" transform="translate(512.402344 0)"/>
      <use xlink:href="#DejaVuSans-32" transform="translate(576.025391 0)"/>
      <use xlink:href="#DejaVuSans-34" transform="translate(639.648438 0)"/>
      <use xlink:href="#DejaVuSans-78" transform="translate(703.271484 0)"/>
      <use xlink:href="#DejaVuSans-32" transform="translate(762.451172 0)"/>
      <use xlink:href="#DejaVuSans-32" transform="translate(826.074219 0)"/>
      <use xlink:href="#DejaVuSans-34" transform="translate(889.697266 0)"/>
     </g>
    </g>
   </g>
  </g>
 </g>
 <defs>
  <clipPath id="p608e8b9405">
   <rect x="55.344554" y="26.16" width="509.855446" height="363.88"/>
  </clipPath>
 </defs>
</svg>
