<?xml version="1.0" encoding="utf-8" standalone="no"?>
<!DOCTYPE svg PUBLIC "-//W3C//DTD SVG 1.1//EN"
  "http://www.w3.org/Graphics/SVG/1.1/DTD/svg11.dtd">
<svg xmlns:xlink="http://www.w3.org/1999/xlink" width="576pt" height="432pt" viewBox="0 0 576 432" xmlns="http://www.w3.org/2000/svg" version="1.1">
 <metadata>
  <rdf:RDF xmlns:dc="http://purl.org/dc/elements/1.1/" xmlns:cc="http://creativecommons.org/ns#" xmlns:rdf="http://www.w3.org/1999/02/22-rdf-syntax-ns#">
   <cc:Work>
    <dc:type rdf:resource="http://purl.org/dc/dcmitype/StillImage"/>
    <dc:date>2025-12-03T19:10:03.477764</dc:date>
    <dc:format>image/svg+xml</dc:format>
    <dc:creator>
     <cc:Agent>
      <dc:title>Matplotlib v3.10.7, https://matplotlib.org/</dc:title>
     </cc:Agent>
    </dc:creator>
   </cc:Work>
  </rdf:RDF>
 </metadata>
 <defs>
  <style type="text/css">*{stroke-linejoin: round; stroke-linecap: butt}</style>
 </defs>
 <g id="figure_1">
  <g id="patch_1">
   <path d="M 0 432 
L 576 432 
L 576 0 
L 0 0 
z
" style="fill: #ffffff"/>
  </g>
  <g id="axes_1">
   <g id="patch_2">
    <path d="M 55.997054 390.04 
L 565.2 390.04 
L 565.2 26.88 
L 55.997054 26.88 
z
" style="fill: #ffffff"/>
   </g>
   <g id="matplotlib.axis_1">
    <g id="xtick_1">
     <g id="line2d_1">
      <path d="M 79.142642 390.04 
L 79.142642 26.88 
" clip-path="url(#pc80d4573ed)" style="fill: none; stroke: #b0b0b0; stroke-width: 0.8; stroke-linecap: square"/>
     </g>
     <g id="line2d_2">
      <defs>
       <path id="m68c143ec7b" d="M 0 0 
L 0 3.5 
" style="stroke: #000000; stroke-width: 0.8"/>
      </defs>
      <g>
       <use xlink:href="#m68c143ec7b" x="79.142642" y="390.04" style="stroke: #000000; stroke-width: 0.8"/>
      </g>
     </g>
     <g id="text_1">
      <!-- 0 -->
      <g transform="translate(75.961392 404.638438) scale(0.1 -0.1)">
       <defs>
        <path id="DejaVuSans-30" d="M 2034 4250 
Q 1547 4250 1301 3770 
Q 1056 3291 1056 2328 
Q 1056 1369 1301 889 
Q 1547 409 2034 409 
Q 2525 409 2770 889 
Q 3016 1369 3016 2328 
Q 3016 3291 2770 3770 
Q 2525 4250 2034 4250 
z
M 2034 4750 
Q 2819 4750 3233 4129 
Q 3647 3509 3647 2328 
Q 3647 1150 3233 529 
Q 2819 -91 2034 -91 
Q 1250 -91 836 529 
Q 422 1150 422 2328 
Q 422 3509 836 4129 
Q 1250 4750 2034 4750 
z
" transform="scale(0.015625)"/>
       </defs>
       <use xlink:href="#DejaVuSans-30"/>
      </g>
     </g>
    </g>
    <g id="xtick_2">
     <g id="line2d_3">
      <path d="M 156.301034 390.04 
L 156.301034 26.88 
" clip-path="url(#pc80d4573ed)" style="fill: none; stroke: #b0b0b0; stroke-width: 0.8; stroke-linecap: square"/>
     </g>
     <g id="line2d_4">
      <g>
       <use xlink:href="#m68c143ec7b" x="156.301034" y="390.04" style="stroke: #000000; stroke-width: 0.8"/>
      </g>
     </g>
     <g id="text_2">
      <!-- 2000 -->
      <g transform="translate(143.576034 404.638438) scale(0.1 -0.1)">
       <defs>
        <path id="DejaVuSans-32" d="M 1228 531 
L 3431 531 
L 3431 0 
L 469 0 
L 469 531 
Q 828 903 1448 1529 
Q 2069 2156 2228 2338 
Q 2531 2678 2651 2914 
Q 2772 3150 2772 3378 
Q 2772 3750 2511 3984 
Q 2250 4219 1831 4219 
Q 1534 4219 1204 4116 
Q 875 4013 500 3803 
L 500 4441 
Q 881 4594 1212 4672 
Q 1544 4750 1819 4750 
Q 2544 4750 2975 4387 
Q 3406 4025 3406 3419 
Q 3406 3131 3298 2873 
Q 3191 2616 2906 2266 
Q 2828 2175 2409 1742 
Q 1991 1309 1228 531 
z
" transform="scale(0.015625)"/>
       </defs>
       <use xlink:href="#DejaVuSans-32"/>
       <use xlink:href="#DejaVuSans-30" transform="translate(63.623047 0)"/>
       <use xlink:href="#DejaVuSans-30" transform="translate(127.246094 0)"/>
       <use xlink:href="#DejaVuSans-30" transform="translate(190.869141 0)"/>
      </g>
     </g>
    </g>
    <g id="xtick_3">
     <g id="line2d_5">
      <path d="M 233.459425 390.04 
L 233.459425 26.88 
" clip-path="url(#pc80d4573ed)" style="fill: none; stroke: #b0b0b0; stroke-width: 0.8; stroke-linecap: square"/>
     </g>
     <g id="line2d_6">
      <g>
       <use xlink:href="#m68c143ec7b" x="233.459425" y="390.04" style="stroke: #000000; stroke-width: 0.8"/>
      </g>
     </g>
     <g id="text_3">
      <!-- 4000 -->
      <g transform="translate(220.734425 404.638438) scale(0.1 -0.1)">
       <defs>
        <path id="DejaVuSans-34" d="M 2419 4116 
L 825 1625 
L 2419 1625 
L 2419 4116 
z
M 2253 4666 
L 3047 4666 
L 3047 1625 
L 3713 1625 
L 3713 1100 
L 3047 1100 
L 3047 0 
L 2419 0 
L 2419 1100 
L 313 1100 
L 313 1709 
L 2253 4666 
z
" transform="scale(0.015625)"/>
       </defs>
       <use xlink:href="#DejaVuSans-34"/>
       <use xlink:href="#DejaVuSans-30" transform="translate(63.623047 0)"/>
       <use xlink:href="#DejaVuSans-30" transform="translate(127.246094 0)"/>
       <use xlink:href="#DejaVuSans-30" transform="translate(190.869141 0)"/>
      </g>
     </g>
    </g>
    <g id="xtick_4">
     <g id="line2d_7">
      <path d="M 310.617817 390.04 
L 310.617817 26.88 
" clip-path="url(#pc80d4573ed)" style="fill: none; stroke: #b0b0b0; stroke-width: 0.8; stroke-linecap: square"/>
     </g>
     <g id="line2d_8">
      <g>
       <use xlink:href="#m68c143ec7b" x="310.617817" y="390.04" style="stroke: #000000; stroke-width: 0.8"/>
      </g>
     </g>
     <g id="text_4">
      <!-- 6000 -->
      <g transform="translate(297.892817 404.638438) scale(0.1 -0.1)">
       <defs>
        <path id="DejaVuSans-36" d="M 2113 2584 
Q 1688 2584 1439 2293 
Q 1191 2003 1191 1497 
Q 1191 994 1439 701 
Q 1688 409 2113 409 
Q 2538 409 2786 701 
Q 3034 994 3034 1497 
Q 3034 2003 2786 2293 
Q 2538 2584 2113 2584 
z
M 3366 4563 
L 3366 3988 
Q 3128 4100 2886 4159 
Q 2644 4219 2406 4219 
Q 1781 4219 1451 3797 
Q 1122 3375 1075 2522 
Q 1259 2794 1537 2939 
Q 1816 3084 2150 3084 
Q 2853 3084 3261 2657 
Q 3669 2231 3669 1497 
Q 3669 778 3244 343 
Q 2819 -91 2113 -91 
Q 1303 -91 875 529 
Q 447 1150 447 2328 
Q 447 3434 972 4092 
Q 1497 4750 2381 4750 
Q 2619 4750 2861 4703 
Q 3103 4656 3366 4563 
z
" transform="scale(0.015625)"/>
       </defs>
       <use xlink:href="#DejaVuSans-36"/>
       <use xlink:href="#DejaVuSans-30" transform="translate(63.623047 0)"/>
       <use xlink:href="#DejaVuSans-30" transform="translate(127.246094 0)"/>
       <use xlink:href="#DejaVuSans-30" transform="translate(190.869141 0)"/>
      </g>
     </g>
    </g>
    <g id="xtick_5">
     <g id="line2d_9">
      <path d="M 387.776208 390.04 
L 387.776208 26.88 
" clip-path="url(#pc80d4573ed)" style="fill: none; stroke: #b0b0b0; stroke-width: 0.8; stroke-linecap: square"/>
     </g>
     <g id="line2d_10">
      <g>
       <use xlink:href="#m68c143ec7b" x="387.776208" y="390.04" style="stroke: #000000; stroke-width: 0.8"/>
      </g>
     </g>
     <g id="text_5">
      <!-- 8000 -->
      <g transform="translate(375.051208 404.638438) scale(0.1 -0.1)">
       <defs>
        <path id="DejaVuSans-38" d="M 2034 2216 
Q 1584 2216 1326 1975 
Q 1069 1734 1069 1313 
Q 1069 891 1326 650 
Q 1584 409 2034 409 
Q 2484 409 2743 651 
Q 3003 894 3003 1313 
Q 3003 1734 2745 1975 
Q 2488 2216 2034 2216 
z
M 1403 2484 
Q 997 2584 770 2862 
Q 544 3141 544 3541 
Q 544 4100 942 4425 
Q 1341 4750 2034 4750 
Q 2731 4750 3128 4425 
Q 3525 4100 3525 3541 
Q 3525 3141 3298 2862 
Q 3072 2584 2669 2484 
Q 3125 2378 3379 2068 
Q 3634 1759 3634 1313 
Q 3634 634 3220 271 
Q 2806 -91 2034 -91 
Q 1263 -91 848 271 
Q 434 634 434 1313 
Q 434 1759 690 2068 
Q 947 2378 1403 2484 
z
M 1172 3481 
Q 1172 3119 1398 2916 
Q 1625 2713 2034 2713 
Q 2441 2713 2670 2916 
Q 2900 3119 2900 3481 
Q 2900 3844 2670 4047 
Q 2441 4250 2034 4250 
Q 1625 4250 1398 4047 
Q 1172 3844 1172 3481 
z
" transform="scale(0.015625)"/>
       </defs>
       <use xlink:href="#DejaVuSans-38"/>
       <use xlink:href="#DejaVuSans-30" transform="translate(63.623047 0)"/>
       <use xlink:href="#DejaVuSans-30" transform="translate(127.246094 0)"/>
       <use xlink:href="#DejaVuSans-30" transform="translate(190.869141 0)"/>
      </g>
     </g>
    </g>
    <g id="xtick_6">
     <g id="line2d_11">
      <path d="M 464.934599 390.04 
L 464.934599 26.88 
" clip-path="url(#pc80d4573ed)" style="fill: none; stroke: #b0b0b0; stroke-width: 0.8; stroke-linecap: square"/>
     </g>
     <g id="line2d_12">
      <g>
       <use xlink:href="#m68c143ec7b" x="464.934599" y="390.04" style="stroke: #000000; stroke-width: 0.8"/>
      </g>
     </g>
     <g id="text_6">
      <!-- 10000 -->
      <g transform="translate(449.028349 404.638438) scale(0.1 -0.1)">
       <defs>
        <path id="DejaVuSans-31" d="M 794 531 
L 1825 531 
L 1825 4091 
L 703 3866 
L 703 4441 
L 1819 4666 
L 2450 4666 
L 2450 531 
L 3481 531 
L 3481 0 
L 794 0 
L 794 531 
z
" transform="scale(0.015625)"/>
       </defs>
       <use xlink:href="#DejaVuSans-31"/>
       <use xlink:href="#DejaVuSans-30" transform="translate(63.623047 0)"/>
       <use xlink:href="#DejaVuSans-30" transform="translate(127.246094 0)"/>
       <use xlink:href="#DejaVuSans-30" transform="translate(190.869141 0)"/>
       <use xlink:href="#DejaVuSans-30" transform="translate(254.492188 0)"/>
      </g>
     </g>
    </g>
    <g id="xtick_7">
     <g id="line2d_13">
      <path d="M 542.092991 390.04 
L 542.092991 26.88 
" clip-path="url(#pc80d4573ed)" style="fill: none; stroke: #b0b0b0; stroke-width: 0.8; stroke-linecap: square"/>
     </g>
     <g id="line2d_14">
      <g>
       <use xlink:href="#m68c143ec7b" x="542.092991" y="390.04" style="stroke: #000000; stroke-width: 0.8"/>
      </g>
     </g>
     <g id="text_7">
      <!-- 12000 -->
      <g transform="translate(526.186741 404.638438) scale(0.1 -0.1)">
       <use xlink:href="#DejaVuSans-31"/>
       <use xlink:href="#DejaVuSans-32" transform="translate(63.623047 0)"/>
       <use xlink:href="#DejaVuSans-30" transform="translate(127.246094 0)"/>
       <use xlink:href="#DejaVuSans-30" transform="translate(190.869141 0)"/>
       <use xlink:href="#DejaVuSans-30" transform="translate(254.492188 0)"/>
      </g>
     </g>
    </g>
    <g id="text_8">
     <!-- Iteration -->
     <g transform="translate(289.389933 418.316562) scale(0.1 -0.1)">
      <defs>
       <path id="DejaVuSans-49" d="M 628 4666 
L 1259 4666 
L 1259 0 
L 628 0 
L 628 4666 
z
" transform="scale(0.015625)"/>
       <path id="DejaVuSans-74" d="M 1172 4494 
L 1172 3500 
L 2356 3500 
L 2356 3053 
L 1172 3053 
L 1172 1153 
Q 1172 725 1289 603 
Q 1406 481 1766 481 
L 2356 481 
L 2356 0 
L 1766 0 
Q 1100 0 847 248 
Q 594 497 594 1153 
L 594 3053 
L 172 3053 
L 172 3500 
L 594 3500 
L 594 4494 
L 1172 4494 
z
" transform="scale(0.015625)"/>
       <path id="DejaVuSans-65" d="M 3597 1894 
L 3597 1613 
L 953 1613 
Q 991 1019 1311 708 
Q 1631 397 2203 397 
Q 2534 397 2845 478 
Q 3156 559 3463 722 
L 3463 178 
Q 3153 47 2828 -22 
Q 2503 -91 2169 -91 
Q 1331 -91 842 396 
Q 353 884 353 1716 
Q 353 2575 817 3079 
Q 1281 3584 2069 3584 
Q 2775 3584 3186 3129 
Q 3597 2675 3597 1894 
z
M 3022 2063 
Q 3016 2534 2758 2815 
Q 2500 3097 2075 3097 
Q 1594 3097 1305 2825 
Q 1016 2553 972 2059 
L 3022 2063 
z
" transform="scale(0.015625)"/>
       <path id="DejaVuSans-72" d="M 2631 2963 
Q 2534 3019 2420 3045 
Q 2306 3072 2169 3072 
Q 1681 3072 1420 2755 
Q 1159 2438 1159 1844 
L 1159 0 
L 581 0 
L 581 3500 
L 1159 3500 
L 1159 2956 
Q 1341 3275 1631 3429 
Q 1922 3584 2338 3584 
Q 2397 3584 2469 3576 
Q 2541 3569 2628 3553 
L 2631 2963 
z
" transform="scale(0.015625)"/>
       <path id="DejaVuSans-61" d="M 2194 1759 
Q 1497 1759 1228 1600 
Q 959 1441 959 1056 
Q 959 750 1161 570 
Q 1363 391 1709 391 
Q 2188 391 2477 730 
Q 2766 1069 2766 1631 
L 2766 1759 
L 2194 1759 
z
M 3341 1997 
L 3341 0 
L 2766 0 
L 2766 531 
Q 2569 213 2275 61 
Q 1981 -91 1556 -91 
Q 1019 -91 701 211 
Q 384 513 384 1019 
Q 384 1609 779 1909 
Q 1175 2209 1959 2209 
L 2766 2209 
L 2766 2266 
Q 2766 2663 2505 2880 
Q 2244 3097 1772 3097 
Q 1472 3097 1187 3025 
Q 903 2953 641 2809 
L 641 3341 
Q 956 3463 1253 3523 
Q 1550 3584 1831 3584 
Q 2591 3584 2966 3190 
Q 3341 2797 3341 1997 
z
" transform="scale(0.015625)"/>
       <path id="DejaVuSans-69" d="M 603 3500 
L 1178 3500 
L 1178 0 
L 603 0 
L 603 3500 
z
M 603 4863 
L 1178 4863 
L 1178 4134 
L 603 4134 
L 603 4863 
z
" transform="scale(0.015625)"/>
       <path id="DejaVuSans-6f" d="M 1959 3097 
Q 1497 3097 1228 2736 
Q 959 2375 959 1747 
Q 959 1119 1226 758 
Q 1494 397 1959 397 
Q 2419 397 2687 759 
Q 2956 1122 2956 1747 
Q 2956 2369 2687 2733 
Q 2419 3097 1959 3097 
z
M 1959 3584 
Q 2709 3584 3137 3096 
Q 3566 2609 3566 1747 
Q 3566 888 3137 398 
Q 2709 -91 1959 -91 
Q 1206 -91 779 398 
Q 353 888 353 1747 
Q 353 2609 779 3096 
Q 1206 3584 1959 3584 
z
" transform="scale(0.015625)"/>
       <path id="DejaVuSans-6e" d="M 3513 2113 
L 3513 0 
L 2938 0 
L 2938 2094 
Q 2938 2591 2744 2837 
Q 2550 3084 2163 3084 
Q 1697 3084 1428 2787 
Q 1159 2491 1159 1978 
L 1159 0 
L 581 0 
L 581 3500 
L 1159 3500 
L 1159 2956 
Q 1366 3272 1645 3428 
Q 1925 3584 2291 3584 
Q 2894 3584 3203 3211 
Q 3513 2838 3513 2113 
z
" transform="scale(0.015625)"/>
      </defs>
      <use xlink:href="#DejaVuSans-49"/>
      <use xlink:href="#DejaVuSans-74" transform="translate(29.492188 0)"/>
      <use xlink:href="#DejaVuSans-65" transform="translate(68.701172 0)"/>
      <use xlink:href="#DejaVuSans-72" transform="translate(130.224609 0)"/>
      <use xlink:href="#DejaVuSans-61" transform="translate(171.337891 0)"/>
      <use xlink:href="#DejaVuSans-74" transform="translate(232.617188 0)"/>
      <use xlink:href="#DejaVuSans-69" transform="translate(271.826172 0)"/>
      <use xlink:href="#DejaVuSans-6f" transform="translate(299.609375 0)"/>
      <use xlink:href="#DejaVuSans-6e" transform="translate(360.791016 0)"/>
     </g>
    </g>
   </g>
   <g id="matplotlib.axis_2">
    <g id="ytick_1">
     <g id="line2d_15">
      <path d="M 55.997054 343.896458 
L 565.2 343.896458 
" clip-path="url(#pc80d4573ed)" style="fill: none; stroke: #b0b0b0; stroke-width: 0.8; stroke-linecap: square"/>
     </g>
     <g id="line2d_16">
      <defs>
       <path id="mc0d78984ed" d="M 0 0 
L -3.5 0 
" style="stroke: #000000; stroke-width: 0.8"/>
      </defs>
      <g>
       <use xlink:href="#mc0d78984ed" x="55.997054" y="343.896458" style="stroke: #000000; stroke-width: 0.8"/>
      </g>
     </g>
     <g id="text_9">
      <!-- $\mathdefault{10^{-7}}$ -->
      <g transform="translate(25.497054 347.695677) scale(0.1 -0.1)">
       <defs>
        <path id="DejaVuSans-2212" d="M 678 2272 
L 4684 2272 
L 4684 1741 
L 678 1741 
L 678 2272 
z
" transform="scale(0.015625)"/>
        <path id="DejaVuSans-37" d="M 525 4666 
L 3525 4666 
L 3525 4397 
L 1831 0 
L 1172 0 
L 2766 4134 
L 525 4134 
L 525 4666 
z
" transform="scale(0.015625)"/>
       </defs>
       <use xlink:href="#DejaVuSans-31" transform="translate(0 0.684375)"/>
       <use xlink:href="#DejaVuSans-30" transform="translate(63.623047 0.684375)"/>
       <use xlink:href="#DejaVuSans-2212" transform="translate(128.203125 38.965625) scale(0.7)"/>
       <use xlink:href="#DejaVuSans-37" transform="translate(186.855469 38.965625) scale(0.7)"/>
      </g>
     </g>
    </g>
    <g id="ytick_2">
     <g id="line2d_17">
      <path d="M 55.997054 287.712298 
L 565.2 287.712298 
" clip-path="url(#pc80d4573ed)" style="fill: none; stroke: #b0b0b0; stroke-width: 0.8; stroke-linecap: square"/>
     </g>
     <g id="line2d_18">
      <g>
       <use xlink:href="#mc0d78984ed" x="55.997054" y="287.712298" style="stroke: #000000; stroke-width: 0.8"/>
      </g>
     </g>
     <g id="text_10">
      <!-- $\mathdefault{10^{-4}}$ -->
      <g transform="translate(25.497054 291.511517) scale(0.1 -0.1)">
       <use xlink:href="#DejaVuSans-31" transform="translate(0 0.684375)"/>
       <use xlink:href="#DejaVuSans-30" transform="translate(63.623047 0.684375)"/>
       <use xlink:href="#DejaVuSans-2212" transform="translate(128.203125 38.965625) scale(0.7)"/>
       <use xlink:href="#DejaVuSans-34" transform="translate(186.855469 38.965625) scale(0.7)"/>
      </g>
     </g>
    </g>
    <g id="ytick_3">
     <g id="line2d_19">
      <path d="M 55.997054 231.528138 
L 565.2 231.528138 
" clip-path="url(#pc80d4573ed)" style="fill: none; stroke: #b0b0b0; stroke-width: 0.8; stroke-linecap: square"/>
     </g>
     <g id="line2d_20">
      <g>
       <use xlink:href="#mc0d78984ed" x="55.997054" y="231.528138" style="stroke: #000000; stroke-width: 0.8"/>
      </g>
     </g>
     <g id="text_11">
      <!-- $\mathdefault{10^{-1}}$ -->
      <g transform="translate(25.497054 235.327356) scale(0.1 -0.1)">
       <use xlink:href="#DejaVuSans-31" transform="translate(0 0.684375)"/>
       <use xlink:href="#DejaVuSans-30" transform="translate(63.623047 0.684375)"/>
       <use xlink:href="#DejaVuSans-2212" transform="translate(128.203125 38.965625) scale(0.7)"/>
       <use xlink:href="#DejaVuSans-31" transform="translate(186.855469 38.965625) scale(0.7)"/>
      </g>
     </g>
    </g>
    <g id="ytick_4">
     <g id="line2d_21">
      <path d="M 55.997054 175.343977 
L 565.2 175.343977 
" clip-path="url(#pc80d4573ed)" style="fill: none; stroke: #b0b0b0; stroke-width: 0.8; stroke-linecap: square"/>
     </g>
     <g id="line2d_22">
      <g>
       <use xlink:href="#mc0d78984ed" x="55.997054" y="175.343977" style="stroke: #000000; stroke-width: 0.8"/>
      </g>
     </g>
     <g id="text_12">
      <!-- $\mathdefault{10^{2}}$ -->
      <g transform="translate(31.397054 179.143196) scale(0.1 -0.1)">
       <use xlink:href="#DejaVuSans-31" transform="translate(0 0.765625)"/>
       <use xlink:href="#DejaVuSans-30" transform="translate(63.623047 0.765625)"/>
       <use xlink:href="#DejaVuSans-32" transform="translate(128.203125 39.046875) scale(0.7)"/>
      </g>
     </g>
    </g>
    <g id="ytick_5">
     <g id="line2d_23">
      <path d="M 55.997054 119.159817 
L 565.2 119.159817 
" clip-path="url(#pc80d4573ed)" style="fill: none; stroke: #b0b0b0; stroke-width: 0.8; stroke-linecap: square"/>
     </g>
     <g id="line2d_24">
      <g>
       <use xlink:href="#mc0d78984ed" x="55.997054" y="119.159817" style="stroke: #000000; stroke-width: 0.8"/>
      </g>
     </g>
     <g id="text_13">
      <!-- $\mathdefault{10^{5}}$ -->
      <g transform="translate(31.397054 122.959036) scale(0.1 -0.1)">
       <defs>
        <path id="DejaVuSans-35" d="M 691 4666 
L 3169 4666 
L 3169 4134 
L 1269 4134 
L 1269 2991 
Q 1406 3038 1543 3061 
Q 1681 3084 1819 3084 
Q 2600 3084 3056 2656 
Q 3513 2228 3513 1497 
Q 3513 744 3044 326 
Q 2575 -91 1722 -91 
Q 1428 -91 1123 -41 
Q 819 9 494 109 
L 494 744 
Q 775 591 1075 516 
Q 1375 441 1709 441 
Q 2250 441 2565 725 
Q 2881 1009 2881 1497 
Q 2881 1984 2565 2268 
Q 2250 2553 1709 2553 
Q 1456 2553 1204 2497 
Q 953 2441 691 2322 
L 691 4666 
z
" transform="scale(0.015625)"/>
       </defs>
       <use xlink:href="#DejaVuSans-31" transform="translate(0 0.684375)"/>
       <use xlink:href="#DejaVuSans-30" transform="translate(63.623047 0.684375)"/>
       <use xlink:href="#DejaVuSans-35" transform="translate(128.203125 38.965625) scale(0.7)"/>
      </g>
     </g>
    </g>
    <g id="ytick_6">
     <g id="line2d_25">
      <path d="M 55.997054 62.975657 
L 565.2 62.975657 
" clip-path="url(#pc80d4573ed)" style="fill: none; stroke: #b0b0b0; stroke-width: 0.8; stroke-linecap: square"/>
     </g>
     <g id="line2d_26">
      <g>
       <use xlink:href="#mc0d78984ed" x="55.997054" y="62.975657" style="stroke: #000000; stroke-width: 0.8"/>
      </g>
     </g>
     <g id="text_14">
      <!-- $\mathdefault{10^{8}}$ -->
      <g transform="translate(31.397054 66.774876) scale(0.1 -0.1)">
       <use xlink:href="#DejaVuSans-31" transform="translate(0 0.765625)"/>
       <use xlink:href="#DejaVuSans-30" transform="translate(63.623047 0.765625)"/>
       <use xlink:href="#DejaVuSans-38" transform="translate(128.203125 39.046875) scale(0.7)"/>
      </g>
     </g>
    </g>
    <g id="text_15">
     <!-- Residual -->
     <g transform="translate(19.417366 229.575625) rotate(-90) scale(0.1 -0.1)">
      <defs>
       <path id="DejaVuSans-52" d="M 2841 2188 
Q 3044 2119 3236 1894 
Q 3428 1669 3622 1275 
L 4263 0 
L 3584 0 
L 2988 1197 
Q 2756 1666 2539 1819 
Q 2322 1972 1947 1972 
L 1259 1972 
L 1259 0 
L 628 0 
L 628 4666 
L 2053 4666 
Q 2853 4666 3247 4331 
Q 3641 3997 3641 3322 
Q 3641 2881 3436 2590 
Q 3231 2300 2841 2188 
z
M 1259 4147 
L 1259 2491 
L 2053 2491 
Q 2509 2491 2742 2702 
Q 2975 2913 2975 3322 
Q 2975 3731 2742 3939 
Q 2509 4147 2053 4147 
L 1259 4147 
z
" transform="scale(0.015625)"/>
       <path id="DejaVuSans-73" d="M 2834 3397 
L 2834 2853 
Q 2591 2978 2328 3040 
Q 2066 3103 1784 3103 
Q 1356 3103 1142 2972 
Q 928 2841 928 2578 
Q 928 2378 1081 2264 
Q 1234 2150 1697 2047 
L 1894 2003 
Q 2506 1872 2764 1633 
Q 3022 1394 3022 966 
Q 3022 478 2636 193 
Q 2250 -91 1575 -91 
Q 1294 -91 989 -36 
Q 684 19 347 128 
L 347 722 
Q 666 556 975 473 
Q 1284 391 1588 391 
Q 1994 391 2212 530 
Q 2431 669 2431 922 
Q 2431 1156 2273 1281 
Q 2116 1406 1581 1522 
L 1381 1569 
Q 847 1681 609 1914 
Q 372 2147 372 2553 
Q 372 3047 722 3315 
Q 1072 3584 1716 3584 
Q 2034 3584 2315 3537 
Q 2597 3491 2834 3397 
z
" transform="scale(0.015625)"/>
       <path id="DejaVuSans-64" d="M 2906 2969 
L 2906 4863 
L 3481 4863 
L 3481 0 
L 2906 0 
L 2906 525 
Q 2725 213 2448 61 
Q 2172 -91 1784 -91 
Q 1150 -91 751 415 
Q 353 922 353 1747 
Q 353 2572 751 3078 
Q 1150 3584 1784 3584 
Q 2172 3584 2448 3432 
Q 2725 3281 2906 2969 
z
M 947 1747 
Q 947 1113 1208 752 
Q 1469 391 1925 391 
Q 2381 391 2643 752 
Q 2906 1113 2906 1747 
Q 2906 2381 2643 2742 
Q 2381 3103 1925 3103 
Q 1469 3103 1208 2742 
Q 947 2381 947 1747 
z
" transform="scale(0.015625)"/>
       <path id="DejaVuSans-75" d="M 544 1381 
L 544 3500 
L 1119 3500 
L 1119 1403 
Q 1119 906 1312 657 
Q 1506 409 1894 409 
Q 2359 409 2629 706 
Q 2900 1003 2900 1516 
L 2900 3500 
L 3475 3500 
L 3475 0 
L 2900 0 
L 2900 538 
Q 2691 219 2414 64 
Q 2138 -91 1772 -91 
Q 1169 -91 856 284 
Q 544 659 544 1381 
z
M 1991 3584 
L 1991 3584 
z
" transform="scale(0.015625)"/>
       <path id="DejaVuSans-6c" d="M 603 4863 
L 1178 4863 
L 1178 0 
L 603 0 
L 603 4863 
z
" transform="scale(0.015625)"/>
      </defs>
      <use xlink:href="#DejaVuSans-52"/>
      <use xlink:href="#DejaVuSans-65" transform="translate(64.982422 0)"/>
      <use xlink:href="#DejaVuSans-73" transform="translate(126.505859 0)"/>
      <use xlink:href="#DejaVuSans-69" transform="translate(178.605469 0)"/>
      <use xlink:href="#DejaVuSans-64" transform="translate(206.388672 0)"/>
      <use xlink:href="#DejaVuSans-75" transform="translate(269.865234 0)"/>
      <use xlink:href="#DejaVuSans-61" transform="translate(333.244141 0)"/>
      <use xlink:href="#DejaVuSans-6c" transform="translate(394.523438 0)"/>
     </g>
    </g>
   </g>
   <g id="line2d_27">
    <path d="M 79.142642 108.750071 
L 79.335538 154.933306 
L 79.605593 167.61055 
L 80.22286 182.453669 
L 84.312255 269.02812 
L 88.787441 361.888044 
L 88.8646 362.354528 
L 89.32755 368.336039 
L 89.366129 368.325457 
L 89.559025 370.397024 
L 89.597604 370.471721 
L 89.636184 370.433142 
L 89.7905 371.715646 
L 89.82908 371.518709 
L 89.867659 371.082529 
L 89.906238 371.796663 
L 89.944817 371.65457 
L 90.099134 372.461071 
L 90.176292 372.309608 
L 90.253451 373.138424 
L 90.29203 372.440926 
L 90.330609 372.445511 
L 90.484926 373.386111 
L 90.986455 373.532689 
L 201.863064 373.532727 
L 542.054412 373.532727 
L 542.054412 373.532727 
" clip-path="url(#pc80d4573ed)" style="fill: none; stroke: #1f77b4; stroke-width: 1.5; stroke-linecap: square"/>
   </g>
   <g id="line2d_28">
    <path d="M 79.142642 71.360461 
L 79.374118 126.815245 
L 79.644172 138.874199 
L 80.029964 146.358251 
L 80.531493 151.915145 
L 81.148761 156.415054 
L 81.920344 160.406329 
L 82.846245 164.01929 
L 84.119359 168.042729 
L 86.048318 173.339165 
L 89.250392 181.419664 
L 95.57738 196.676459 
L 124.666093 265.834792 
L 131.108819 281.135023 
L 132.96062 285.530737 
L 136.664223 294.292403 
L 137.705861 296.763862 
L 138.438866 298.472394 
L 140.444984 303.166477 
L 142.798315 308.586556 
L 143.145528 309.399554 
L 145.884651 315.476482 
L 146.154705 316.123031 
L 146.193284 316.104789 
L 146.38618 316.583645 
L 146.656235 317.142554 
L 146.88771 317.62405 
L 147.003448 317.893378 
L 147.273502 318.399269 
L 147.967927 319.794682 
L 148.199403 320.314141 
L 148.430878 320.734176 
L 148.623774 321.157763 
L 148.700932 321.294114 
L 148.893828 321.656638 
L 148.970987 321.791902 
L 149.318199 322.538029 
L 149.356779 322.419931 
L 149.549675 322.964051 
L 149.665412 323.099086 
L 150.012625 323.778255 
L 150.398417 324.359232 
L 150.552734 324.648691 
L 150.591313 324.564111 
L 150.74563 325.005651 
L 150.784209 324.89886 
L 150.822788 325.059351 
L 150.938526 325.308048 
L 150.977105 325.252292 
L 151.015684 325.204708 
L 151.285738 325.861797 
L 151.324318 325.729492 
L 151.362897 325.90848 
L 152.443114 327.503685 
L 152.481693 327.459792 
L 152.597431 327.916536 
L 152.63601 327.793832 
L 153.021802 328.321046 
L 153.060381 328.307688 
L 153.176119 328.486522 
L 153.214698 328.390229 
L 153.253277 328.587256 
L 153.330436 328.632772 
L 153.561911 329.074253 
L 153.909124 329.319452 
L 153.947703 329.133295 
L 154.06344 329.797392 
L 154.140599 329.491751 
L 154.294916 330.01025 
L 154.333495 329.825138 
L 154.410653 329.925973 
L 154.449232 329.95165 
L 154.603549 330.321097 
L 154.912183 330.282468 
L 155.105079 330.76744 
L 155.143658 330.49137 
L 155.182237 330.930862 
L 155.259395 330.83938 
L 155.297975 330.739188 
L 155.452291 331.022406 
L 155.799504 331.657617 
L 155.838083 331.75373 
L 155.915242 331.648907 
L 155.953821 331.612213 
L 156.069559 331.929171 
L 156.146717 331.498955 
L 156.185296 331.791238 
L 156.339613 332.05472 
L 156.455351 331.804839 
L 156.648247 332.550006 
L 156.686826 332.355524 
L 156.725405 332.538464 
L 156.763984 332.568143 
L 156.841143 332.302653 
L 156.879722 332.418811 
L 156.918301 332.646681 
L 156.95688 332.624176 
L 156.995459 332.423306 
L 157.072618 332.489877 
L 157.111197 332.438923 
L 157.149776 332.567325 
L 157.226934 332.863142 
L 157.265514 332.601086 
L 157.304093 332.740926 
L 157.342672 332.685306 
L 157.41983 332.53414 
L 157.45841 332.633181 
L 157.496989 332.704322 
L 157.535568 332.544416 
L 157.574147 332.634019 
L 157.689885 332.512035 
L 157.882781 333.159735 
L 158.037098 332.805428 
L 158.075677 332.689796 
L 158.114256 332.881577 
L 158.152835 333.095081 
L 158.229994 333.020525 
L 158.461469 333.352246 
L 158.500048 333.325761 
L 158.538627 333.256813 
L 158.577206 333.55545 
L 158.654365 333.310877 
L 158.692944 333.237834 
L 158.731523 333.263494 
L 158.770102 333.428758 
L 158.808681 333.274383 
L 158.847261 333.176472 
L 158.88584 333.358953 
L 158.962998 333.249269 
L 159.001577 333.452899 
L 159.040157 333.241235 
L 159.117315 333.36438 
L 159.233053 333.538524 
L 159.194473 333.272729 
L 159.271632 333.504733 
L 159.34879 333.354481 
L 159.387369 333.643771 
L 159.464528 333.520213 
L 159.580265 333.506127 
L 159.696003 333.784348 
L 159.734582 333.76648 
L 159.85032 333.570338 
L 160.158953 333.911981 
L 160.197533 333.880868 
L 160.236112 333.957443 
L 160.467587 334.186472 
L 160.506166 333.993177 
L 160.544745 334.16809 
L 160.583324 334.175623 
L 160.621904 334.032232 
L 160.660483 334.216763 
L 160.699062 334.135804 
L 160.737641 334.050147 
L 160.8148 334.120997 
L 160.930537 334.236987 
L 160.969116 334.08203 
L 161.046275 334.473317 
L 161.084854 334.143775 
L 161.393488 333.994622 
L 161.432067 334.089638 
L 161.470646 334.083997 
L 161.509225 333.891571 
L 161.586384 334.022022 
L 161.624963 334.028887 
L 161.702121 334.330012 
L 161.7407 334.234278 
L 161.895017 334.161408 
L 161.972176 333.946915 
L 162.010755 334.126917 
L 162.435126 334.443826 
L 162.628022 334.278378 
L 162.743759 334.466546 
L 162.820918 334.32871 
L 162.859497 334.403533 
L 162.975235 334.425474 
L 163.013814 334.369554 
L 163.090972 334.431092 
L 163.20671 334.50074 
L 163.245289 334.470454 
L 163.283868 334.577341 
L 163.515343 334.555585 
L 163.66966 334.488997 
L 164.325506 334.480913 
L 164.364086 334.55831 
L 164.441244 334.515311 
L 164.595561 334.481453 
L 164.749878 334.533203 
L 165.328566 334.512667 
L 165.405724 334.454598 
L 165.482882 334.674064 
L 165.907253 334.87717 
L 166.06157 334.965018 
L 166.293045 334.920785 
L 166.485941 335.002572 
L 166.910313 335.035847 
L 167.141788 335.052322 
L 167.52758 335.04385 
L 170.112386 335.041771 
L 542.054412 335.041763 
L 542.054412 335.041763 
" clip-path="url(#pc80d4573ed)" style="fill: none; stroke: #ff7f0e; stroke-width: 1.5; stroke-linecap: square"/>
   </g>
   <g id="line2d_29">
    <path d="M 79.142642 54.391728 
L 79.374118 111.817061 
L 79.644172 125.059715 
L 80.029964 133.144846 
L 80.531493 139.02281 
L 81.148761 143.731603 
L 81.881765 147.680779 
L 82.730508 151.073032 
L 83.694987 154.035345 
L 84.775205 156.658995 
L 86.009739 159.084971 
L 87.437169 161.401481 
L 89.134654 163.730278 
L 91.295089 166.301056 
L 94.149949 169.333638 
L 98.123607 173.21257 
L 103.949065 178.564102 
L 112.860859 186.419415 
L 130.56871 201.653527 
L 188.707558 251.278937 
L 192.835532 254.799401 
L 200.667109 261.479034 
L 202.287435 262.858438 
L 206.183934 266.179258 
L 208.30579 267.986387 
L 213.629719 272.514572 
L 215.172886 273.826202 
L 216.523158 274.972834 
L 218.33638 276.514851 
L 218.915068 277.001411 
L 220.26534 278.148648 
L 223.737468 281.09082 
L 224.470473 281.69662 
L 225.08774 282.227406 
L 230.758881 286.968029 
L 231.106094 287.265291 
L 231.993416 288.012002 
L 236.430023 291.672019 
L 236.777236 291.952834 
L 238.050349 292.981515 
L 238.551879 293.422115 
L 238.706196 293.506605 
L 239.014829 293.76926 
L 239.246305 293.958555 
L 239.632096 294.282204 
L 240.673735 295.11593 
L 240.866631 295.251064 
L 241.406739 295.70498 
L 242.872749 296.854306 
L 243.29712 297.203433 
L 243.991546 297.736761 
L 244.300179 297.986113 
L 245.341817 298.787488 
L 245.766189 299.095984 
L 245.920505 299.219561 
L 246.113401 299.363782 
L 246.383456 299.587272 
L 251.784543 303.584175 
L 251.823122 303.561462 
L 251.861702 303.638799 
L 252.671865 304.161383 
L 252.826181 304.334549 
L 252.864761 304.298658 
L 252.90334 304.364335 
L 253.211973 304.595264 
L 253.327711 304.603971 
L 253.752082 304.955105 
L 253.82924 305.008595 
L 254.215032 305.294394 
L 255.796779 306.348681 
L 255.912517 306.421499 
L 255.951096 306.355108 
L 255.989675 306.446477 
L 256.221151 306.574549 
L 256.25973 306.538175 
L 256.298309 306.646124 
L 256.414047 306.657158 
L 256.568363 306.771976 
L 256.799839 306.986505 
L 256.915576 306.993381 
L 257.031314 307.081651 
L 257.108472 307.102197 
L 257.339947 307.276467 
L 257.455685 307.30559 
L 257.571422 307.439572 
L 257.610002 307.369829 
L 257.648581 307.484475 
L 257.725739 307.50558 
L 257.918635 307.67569 
L 258.034373 307.609908 
L 258.227269 307.857652 
L 258.343006 307.822117 
L 258.458744 307.972529 
L 258.574482 307.918383 
L 258.728798 308.115303 
L 258.844536 308.152837 
L 259.037432 308.302197 
L 259.076011 308.193261 
L 259.11459 308.313694 
L 260.040491 308.875286 
L 260.07907 308.810742 
L 260.117649 308.921251 
L 260.271966 308.937198 
L 260.426283 309.123867 
L 260.464862 309.005994 
L 260.542021 309.089518 
L 260.734917 309.342544 
L 260.773496 309.253067 
L 260.966392 309.481201 
L 261.004971 309.375195 
L 261.082129 309.479609 
L 261.236446 309.556776 
L 261.352184 309.622805 
L 261.390763 309.578309 
L 261.54508 309.788167 
L 261.853713 309.868892 
L 262.00803 309.976541 
L 262.123768 310.00058 
L 262.355243 310.180772 
L 262.432401 310.200545 
L 262.548139 310.320285 
L 262.586718 310.213962 
L 262.625297 310.331034 
L 263.011089 310.48527 
L 263.165406 310.656235 
L 263.203985 310.552545 
L 263.242564 310.675954 
L 263.358302 310.744586 
L 263.396881 310.73559 
L 263.43546 310.607733 
L 263.474039 310.705317 
L 263.589777 310.800108 
L 263.628356 310.758592 
L 263.898411 310.961794 
L 264.014148 310.919984 
L 264.207044 311.183138 
L 264.284203 311.034457 
L 264.322782 311.164365 
L 264.554257 311.179406 
L 264.592836 311.152026 
L 264.708574 311.285547 
L 264.747153 311.216073 
L 264.785732 311.352155 
L 265.36442 311.671749 
L 265.402999 311.796061 
L 265.441578 311.511231 
L 265.518737 311.606493 
L 265.557316 311.795444 
L 265.634474 311.700007 
L 265.711633 311.691511 
L 265.750212 311.895065 
L 265.82737 311.820533 
L 265.86595 311.816456 
L 266.020266 311.999582 
L 266.097425 312.060423 
L 266.213162 311.890415 
L 266.290321 312.093501 
L 266.367479 312.048425 
L 266.406058 312.01315 
L 266.444637 312.093768 
L 266.560375 312.291735 
L 266.598954 312.233262 
L 266.714692 312.252326 
L 266.907588 312.382457 
L 266.984746 312.451691 
L 267.023325 312.347559 
L 267.216221 312.630844 
L 267.254801 312.516896 
L 267.370538 312.431681 
L 267.717751 312.657384 
L 267.75633 312.774754 
L 267.833489 312.688402 
L 268.026385 312.619766 
L 268.296439 312.964315 
L 268.527914 312.631296 
L 268.566493 312.79411 
L 268.72081 313.033288 
L 268.913706 312.978781 
L 269.106602 313.223622 
L 269.18376 313.250281 
L 269.260919 313.362012 
L 269.299498 313.283119 
L 269.415236 313.317567 
L 269.530973 313.383411 
L 269.569552 313.339388 
L 269.608132 313.447334 
L 269.646711 313.458078 
L 269.762448 313.304721 
L 269.878186 313.513392 
L 269.955344 313.464683 
L 270.109661 313.682419 
L 270.341136 313.567027 
L 270.456874 313.655342 
L 270.495453 313.493074 
L 270.534032 313.620344 
L 270.688349 313.908322 
L 270.765507 313.767479 
L 270.804087 313.790025 
L 270.958403 313.89431 
L 271.035562 313.759222 
L 271.11272 313.873301 
L 271.228458 313.86177 
L 271.344195 313.798145 
L 271.382775 313.857439 
L 271.459933 313.819124 
L 271.537091 313.954021 
L 271.575671 313.822901 
L 271.61425 313.929874 
L 271.845725 314.190194 
L 271.961462 313.912185 
L 272.115779 314.166041 
L 272.192938 314.0323 
L 272.270096 314.102072 
L 272.733046 314.173566 
L 272.887363 314.319672 
L 272.925942 314.276755 
L 272.964522 314.370281 
L 273.003101 314.468569 
L 273.04168 314.321726 
L 273.157418 314.454813 
L 273.195997 314.504095 
L 273.234576 314.452067 
L 273.388893 314.426569 
L 273.50463 314.433827 
L 273.736105 314.620039 
L 273.813264 314.45291 
L 273.890422 314.754734 
L 273.929001 314.581197 
L 274.160477 314.939725 
L 274.199056 314.773759 
L 274.314793 314.677738 
L 274.353373 314.781002 
L 274.430531 314.920109 
L 274.46911 314.883743 
L 274.584848 314.845385 
L 274.739165 315.030508 
L 274.777744 314.911021 
L 274.816323 314.975619 
L 275.009219 315.290525 
L 275.047798 315.065907 
L 275.124957 315.11137 
L 275.317852 315.240619 
L 275.356432 315.138072 
L 275.43359 315.201064 
L 275.510748 315.333105 
L 275.549328 315.246083 
L 275.587907 315.222918 
L 275.742224 315.454494 
L 275.857961 315.379648 
L 275.89654 315.510053 
L 275.93512 315.399263 
L 275.973699 315.296108 
L 276.012278 315.431884 
L 276.128016 315.53196 
L 276.166595 315.486552 
L 276.320912 315.322508 
L 276.436649 315.508967 
L 276.590966 315.370172 
L 276.745283 315.665548 
L 276.938179 315.594503 
L 276.976758 315.603187 
L 277.053916 315.775063 
L 277.092495 315.736332 
L 277.169654 315.637318 
L 277.246812 315.854847 
L 277.285391 315.769343 
L 277.323971 315.808861 
L 277.36255 315.690002 
L 277.786921 315.889902 
L 277.8255 316.035076 
L 277.902659 315.973016 
L 278.095555 315.781466 
L 278.172713 315.97011 
L 278.211292 315.955247 
L 278.365609 315.803749 
L 278.751401 315.861841 
L 278.78998 315.725708 
L 278.867138 315.822524 
L 278.905718 315.997355 
L 278.982876 315.968295 
L 279.175772 316.019853 
L 279.600143 316.019956 
L 279.677302 315.905733 
L 279.715881 315.91867 
L 279.75446 316.022685 
L 279.831618 315.940862 
L 279.985935 316.063265 
L 280.024514 316.003856 
L 280.063094 315.896732 
L 280.101673 315.972992 
L 280.21741 316.153472 
L 280.25599 316.104684 
L 280.448886 316.201399 
L 280.487465 316.07291 
L 280.526044 316.21401 
L 280.680361 316.317883 
L 280.873257 316.162746 
L 280.988994 316.368901 
L 281.027573 316.247525 
L 281.066153 316.160193 
L 281.104732 316.366768 
L 281.18189 316.218556 
L 281.297628 316.224303 
L 281.760578 316.358089 
L 281.799157 316.273669 
L 281.837737 316.311829 
L 281.953474 316.466785 
L 281.992053 316.299324 
L 282.069212 316.318904 
L 282.107791 316.505269 
L 282.184949 316.395221 
L 282.416424 316.435794 
L 282.455004 316.30402 
L 282.493583 316.408267 
L 282.6479 316.549994 
L 282.686479 316.487986 
L 282.802216 316.472718 
L 282.956533 316.503034 
L 283.149429 316.460822 
L 283.188008 316.453593 
L 283.226588 316.588605 
L 283.265167 316.417147 
L 283.303746 316.550744 
L 283.380904 316.461418 
L 283.419484 316.75471 
L 283.496642 316.674712 
L 283.61238 316.701996 
L 283.650959 316.575438 
L 283.728117 316.672366 
L 284.268226 316.562509 
L 284.422543 316.656051 
L 284.576859 316.655727 
L 284.615439 316.764516 
L 284.692597 316.662312 
L 284.962651 316.782383 
L 285.03981 316.694248 
L 285.155547 316.915437 
L 285.271285 316.778637 
L 285.348443 316.981739 
L 285.387023 316.785107 
L 285.425602 316.853916 
L 285.464181 316.712241 
L 285.50276 316.687507 
L 285.579919 316.936346 
L 285.618498 316.831281 
L 285.657077 316.869769 
L 285.695656 316.809698 
L 285.772815 316.681545 
L 285.927131 316.916344 
L 286.351502 317.257804 
L 286.46724 317.022407 
L 286.621557 317.15048 
L 286.660136 317.11417 
L 286.698715 317.19136 
L 286.814453 317.183239 
L 286.853032 317.141955 
L 286.891611 317.231002 
L 287.084507 317.307606 
L 287.123086 317.090764 
L 287.200245 317.250934 
L 287.238824 317.166902 
L 287.315982 317.262185 
L 287.508878 317.35382 
L 287.663195 317.209743 
L 287.817512 317.307949 
L 287.971829 317.221061 
L 288.087566 317.281044 
L 288.126145 317.252103 
L 288.280462 317.290509 
L 288.357621 317.165334 
L 288.3962 317.189724 
L 288.627675 317.17325 
L 288.781992 317.157063 
L 288.820571 317.273985 
L 288.897729 317.160614 
L 289.129205 317.165816 
L 289.167784 317.092795 
L 289.206363 317.245412 
L 289.244942 317.171868 
L 289.283521 317.201437 
L 289.322101 317.056318 
L 289.399259 317.164283 
L 289.592155 317.299327 
L 289.630734 317.172199 
L 289.746472 317.057329 
L 289.900788 317.211648 
L 290.055105 317.13761 
L 290.479476 317.111676 
L 290.518056 317.175332 
L 290.556635 317.085179 
L 290.595214 317.067456 
L 290.672372 317.197749 
L 290.710952 317.166107 
L 290.749531 317.096887 
L 290.78811 317.194772 
L 291.019585 317.431821 
L 291.135323 317.265546 
L 291.173902 317.323659 
L 291.328219 317.334562 
L 291.366798 317.432959 
L 291.405377 317.358799 
L 291.482535 317.317259 
L 291.521115 317.373963 
L 291.945486 317.582318 
L 292.099803 317.419978 
L 293.141441 317.675147 
L 293.334337 317.572452 
L 293.527233 317.587012 
L 293.64297 317.591472 
L 294.183079 317.772155 
L 294.337396 317.779395 
L 294.530292 317.674314 
L 294.568871 317.732467 
L 295.301876 317.728967 
L 295.417613 317.656367 
L 295.533351 317.767516 
L 295.57193 317.732584 
L 295.957722 317.647817 
L 296.150618 317.777421 
L 296.343514 317.708368 
L 296.382093 317.732908 
L 296.420673 317.658295 
L 296.53641 317.663187 
L 296.652148 317.732551 
L 296.922202 317.725669 
L 297.076519 317.748242 
L 297.385152 317.71216 
L 297.539469 317.718724 
L 297.616628 317.749879 
L 297.655207 317.693957 
L 297.925261 317.730197 
L 298.118157 317.766995 
L 298.272474 317.751512 
L 298.503949 317.813679 
L 298.658266 317.755937 
L 298.774003 317.771042 
L 299.005479 317.736398 
L 299.275533 317.722476 
L 299.42985 317.634639 
L 299.468429 317.695263 
L 299.507008 317.658189 
L 299.661325 317.584256 
L 299.777063 317.59346 
L 300.278592 317.590924 
L 300.548646 317.648942 
L 300.664384 317.592539 
L 300.780122 317.653262 
L 300.934438 317.584216 
L 302.091814 317.580229 
L 304.059353 317.556886 
L 304.560883 317.581682 
L 305.293888 317.585342 
L 319.413873 317.580886 
L 542.054412 317.580886 
L 542.054412 317.580886 
" clip-path="url(#pc80d4573ed)" style="fill: none; stroke: #2ca02c; stroke-width: 1.5; stroke-linecap: square"/>
   </g>
   <g id="line2d_30">
    <path d="M 79.142642 43.387273 
L 79.374118 101.847784 
L 79.644172 115.915054 
L 80.029964 124.492817 
L 80.531493 130.641821 
L 81.148761 135.489072 
L 81.881765 139.482812 
L 82.730508 142.856982 
L 83.694987 145.779602 
L 84.813784 148.451674 
L 86.086898 150.904069 
L 87.514328 153.162876 
L 89.096075 155.251103 
L 90.909297 157.270373 
L 92.953994 159.210059 
L 95.345905 161.163692 
L 98.162186 163.168839 
L 101.634313 165.357122 
L 106.032342 167.85493 
L 111.8578 170.894305 
L 119.689377 174.718727 
L 130.645869 179.809667 
L 147.119185 187.198535 
L 177.018062 200.324441 
L 334.228284 268.69278 
L 335.424239 269.207013 
L 336.195823 269.543403 
L 336.774511 269.78802 
L 339.012105 270.754978 
L 339.552213 270.985108 
L 340.941064 271.578509 
L 342.059861 272.065233 
L 344.258875 273.004539 
L 345.840622 273.680034 
L 347.229473 274.272242 
L 347.84674 274.542129 
L 349.158433 275.092185 
L 349.814279 275.373801 
L 350.74018 275.769979 
L 351.24171 275.984089 
L 354.829575 277.497812 
L 355.099629 277.627925 
L 358.378861 279.008053 
L 359.034707 279.281625 
L 359.420499 279.450468 
L 360.539296 279.909445 
L 360.847929 280.050923 
L 361.117984 280.152597 
L 361.966726 280.506444 
L 362.352518 280.664098 
L 364.474374 281.538201 
L 364.860166 281.722636 
L 365.284537 281.886299 
L 365.554591 282.001858 
L 368.02366 283.020622 
L 368.94956 283.414991 
L 370.068357 283.844495 
L 370.87852 284.206215 
L 371.225733 284.314696 
L 371.572946 284.472997 
L 371.804421 284.576044 
L 381.950749 288.602041 
L 382.105066 288.676052 
L 382.4137 288.777488 
L 382.683754 288.881233 
L 383.262442 289.133547 
L 383.532496 289.221053 
L 384.034026 289.434369 
L 384.188343 289.447474 
L 384.689872 289.663503 
L 387.274678 290.635109 
L 387.390416 290.691761 
L 387.737629 290.825075 
L 388.354896 291.009652 
L 388.856425 291.232217 
L 389.087901 291.275657 
L 389.280797 291.377732 
L 390.283856 291.755078 
L 391.904182 292.339764 
L 392.135657 292.461878 
L 393.755983 293.049897 
L 393.871721 293.031632 
L 394.064617 293.130253 
L 396.032156 293.805339 
L 396.225052 293.869853 
L 396.610844 293.995148 
L 396.80374 294.07444 
L 397.035215 294.152865 
L 397.26669 294.265763 
L 397.575324 294.36403 
L 397.613903 294.317212 
L 397.691061 294.386114 
L 398.192591 294.520359 
L 398.385487 294.555282 
L 398.848437 294.728545 
L 398.964175 294.754717 
L 399.19565 294.889793 
L 399.349967 294.916412 
L 399.6586 295.061459 
L 399.812917 295.078786 
L 400.16013 295.171763 
L 400.314447 295.243714 
L 401.163189 295.528421 
L 401.240347 295.455004 
L 401.278926 295.528651 
L 401.626139 295.676293 
L 401.896194 295.739922 
L 402.05051 295.813817 
L 402.204827 295.833562 
L 402.899253 296.044405 
L 404.866792 296.75035 
L 404.905371 296.661746 
L 404.982529 296.731552 
L 405.175425 296.834178 
L 405.291163 296.853776 
L 406.988647 297.363897 
L 407.142964 297.390168 
L 407.490177 297.505591 
L 407.644494 297.539835 
L 407.914548 297.613771 
L 407.991706 297.643584 
L 408.146023 297.739277 
L 408.377498 297.754012 
L 408.570394 297.811147 
L 409.226241 298.034252 
L 409.341978 297.947225 
L 409.496295 298.126349 
L 409.534874 298.05172 
L 409.612033 298.13445 
L 409.959245 298.210067 
L 410.074983 298.343955 
L 410.2293 298.21847 
L 410.383617 298.295929 
L 410.422196 298.252393 
L 410.460775 298.335425 
L 410.69225 298.421864 
L 410.730829 298.515914 
L 410.807988 298.417463 
L 410.962305 298.458951 
L 411.386676 298.620684 
L 411.502413 298.556547 
L 411.695309 298.736675 
L 412.081101 298.803885 
L 412.235418 298.848357 
L 412.351156 298.876724 
L 412.428314 298.955078 
L 412.466893 298.866167 
L 412.775527 298.962975 
L 412.891264 298.969753 
L 413.045581 299.031028 
L 413.277056 299.138064 
L 413.315635 299.074983 
L 413.354215 299.144118 
L 413.392794 299.224124 
L 413.469952 299.173608 
L 414.820224 299.555671 
L 414.858803 299.455316 
L 414.935962 299.523683 
L 416.054758 299.913757 
L 416.209075 299.840384 
L 416.594867 299.985324 
L 416.633446 299.891442 
L 416.672026 299.985524 
L 416.94208 300.085452 
L 417.019238 300.135595 
L 417.057817 300.061514 
L 417.212134 300.075316 
L 417.250713 299.999463 
L 417.289293 300.067699 
L 417.443609 300.154187 
L 417.675085 300.234979 
L 417.713664 300.088689 
L 417.752243 300.237007 
L 418.060877 300.284824 
L 418.099456 300.258975 
L 418.138035 300.356304 
L 418.292352 300.31694 
L 418.408089 300.385094 
L 418.523827 300.410121 
L 418.639565 300.493075 
L 418.83246 300.51503 
L 418.948198 300.556401 
L 419.063936 300.648671 
L 419.102515 300.601933 
L 419.218252 300.618567 
L 419.256832 300.525726 
L 419.295411 300.588 
L 419.33399 300.652198 
L 419.372569 300.5848 
L 419.411148 300.525945 
L 419.449728 300.609694 
L 420.838579 300.998655 
L 420.954316 301.052048 
L 421.108633 300.911797 
L 421.147212 300.962393 
L 421.417267 301.105937 
L 421.494425 301.008952 
L 421.571583 301.103414 
L 421.841638 301.152527 
L 421.918796 301.094022 
L 421.995955 301.21775 
L 422.150271 301.275003 
L 422.304588 301.257236 
L 422.420326 301.253362 
L 422.536063 301.388588 
L 422.574642 301.281753 
L 422.651801 301.348262 
L 422.806118 301.362393 
L 423.15333 301.437056 
L 423.230489 301.598666 
L 423.269068 301.530195 
L 423.384806 301.548428 
L 423.539122 301.670321 
L 423.577702 301.55423 
L 423.65486 301.586517 
L 423.886335 301.694357 
L 424.040652 301.62725 
L 424.194969 301.717953 
L 424.272127 301.682135 
L 424.310706 301.739254 
L 424.889394 301.781517 
L 424.966553 301.757277 
L 425.005132 301.81439 
L 425.159449 301.902091 
L 425.236607 301.847432 
L 425.275186 301.932438 
L 425.468082 301.963919 
L 425.660978 301.952396 
L 425.738137 302.07182 
L 425.776716 301.955007 
L 425.931032 301.96885 
L 425.969612 301.918405 
L 426.008191 302.035335 
L 426.04677 301.987058 
L 426.50972 302.157101 
L 426.586879 302.077606 
L 426.625458 302.133566 
L 426.934092 302.097942 
L 427.049829 302.239196 
L 427.088408 302.184768 
L 427.281304 302.267894 
L 427.358463 302.162238 
L 427.435621 302.217779 
L 427.628517 302.205589 
L 427.859992 302.433356 
L 428.091467 302.385849 
L 428.284363 302.405211 
L 428.322943 302.289185 
L 428.361522 302.398671 
L 428.43868 302.503687 
L 428.477259 302.463084 
L 428.515839 302.432451 
L 428.670155 302.556752 
L 428.824472 302.498518 
L 429.326002 302.675709 
L 429.40316 302.627139 
L 429.557477 302.726404 
L 429.90469 302.941394 
L 430.020427 302.810024 
L 430.059006 302.833341 
L 430.251902 302.828444 
L 430.329061 302.941193 
L 430.36764 302.867092 
L 430.444798 302.837528 
L 430.483378 302.887685 
L 430.792011 302.931069 
L 430.946328 302.913219 
L 431.33212 303.006378 
L 431.447857 302.901736 
L 431.602174 303.069123 
L 431.640753 303.072786 
L 431.679333 302.953536 
L 431.756491 303.043051 
L 431.833649 303.004431 
L 431.872229 303.083827 
L 432.065125 303.079065 
L 432.103704 303.173012 
L 432.180862 303.081638 
L 432.335179 303.2178 
L 432.373758 303.063563 
L 432.412337 303.136563 
L 432.450917 303.215681 
L 432.489496 303.063922 
L 432.528075 303.052109 
L 432.605233 303.171534 
L 432.643813 303.156386 
L 432.720971 303.191528 
L 432.836709 303.383934 
L 432.875288 303.221424 
L 432.952446 303.281379 
L 433.068184 303.324289 
L 433.106763 303.250373 
L 433.145342 303.377515 
L 433.453976 303.3247 
L 433.531134 303.497169 
L 433.569713 303.335694 
L 433.955505 303.352063 
L 434.264139 303.343726 
L 434.379876 303.482963 
L 434.418456 303.35359 
L 434.495614 303.446419 
L 434.534193 303.53848 
L 434.611352 303.467779 
L 434.68851 303.339725 
L 434.727089 303.416341 
L 434.919985 303.551042 
L 434.958564 303.500277 
L 435.112881 303.509595 
L 435.382935 303.592149 
L 435.460094 303.559541 
L 435.498673 303.59099 
L 435.537252 303.670944 
L 435.614411 303.578621 
L 435.730148 303.555615 
L 435.807307 303.499756 
L 435.845886 303.689661 
L 435.923044 303.656498 
L 436.193099 303.717801 
L 436.231678 303.595565 
L 436.308836 303.67028 
L 436.347415 303.60415 
L 436.385995 303.72303 
L 436.424574 303.658309 
L 436.578891 303.718219 
L 436.771786 303.735943 
L 436.848945 303.696007 
L 436.964682 303.805536 
L 437.003262 303.669696 
L 437.08042 303.728183 
L 437.196158 303.849148 
L 437.311895 303.768956 
L 437.466212 303.95717 
L 437.58195 303.838999 
L 437.620529 303.961663 
L 437.697687 303.909503 
L 437.736266 303.881452 
L 437.774846 304.05103 
L 437.852004 303.924522 
L 438.0449 303.956594 
L 438.199217 304.0776 
L 438.50785 304.004521 
L 439.00938 303.96714 
L 439.047959 304.092964 
L 439.086538 304.036127 
L 439.125117 303.925766 
L 439.163697 304.036918 
L 439.742385 304.135953 
L 439.780964 304.038498 
L 439.819543 304.243866 
L 439.896701 304.153612 
L 440.089597 304.292465 
L 440.166756 304.199158 
L 440.205335 304.217977 
L 440.745444 304.375393 
L 440.822602 304.185964 
L 440.89976 304.282693 
L 441.092656 304.364197 
L 441.246973 304.183505 
L 441.362711 304.327217 
L 441.40129 304.224216 
L 441.439869 304.38745 
L 441.478448 304.326211 
L 441.632765 304.260052 
L 441.825661 304.423521 
L 441.86424 304.345126 
L 441.90282 304.379071 
L 442.057136 304.614486 
L 442.095715 304.501306 
L 442.172874 304.555585 
L 442.36577 304.418527 
L 442.481507 304.557942 
L 442.520087 304.541822 
L 442.712983 304.577499 
L 442.82872 304.584777 
L 442.867299 304.64603 
L 442.905879 304.618159 
L 443.060195 304.497368 
L 443.098775 304.586225 
L 443.175933 304.523109 
L 443.368829 304.507493 
L 443.407408 304.606109 
L 443.445987 304.47448 
L 443.638883 304.468401 
L 443.831779 304.767672 
L 443.986096 304.574761 
L 444.024675 304.667344 
L 444.178992 304.708397 
L 444.526205 304.660478 
L 444.641942 304.706619 
L 444.75768 304.665597 
L 444.834838 304.749785 
L 444.873418 304.710206 
L 445.027734 304.595866 
L 445.25921 304.790031 
L 446.030793 304.931549 
L 446.069373 304.804778 
L 446.146531 304.910202 
L 446.262269 304.851403 
L 446.300848 304.904134 
L 446.378006 304.824275 
L 446.455165 304.856786 
L 446.570902 304.924635 
L 446.68664 304.959664 
L 446.725219 305.059731 
L 446.763798 305.015172 
L 446.918115 304.897928 
L 446.995273 304.935116 
L 447.226749 305.069388 
L 447.419644 305.045286 
L 447.535382 305.170125 
L 447.573961 305.060511 
L 447.65112 305.139934 
L 447.921174 305.019627 
L 447.959753 305.143414 
L 448.538441 305.14641 
L 448.769916 305.118933 
L 449.194287 305.178291 
L 449.232867 305.107 
L 449.271446 305.137425 
L 449.387183 305.240404 
L 449.425763 305.221516 
L 449.580079 305.259622 
L 449.772975 305.186051 
L 449.927292 305.178921 
L 450.158767 305.383355 
L 450.235926 305.231857 
L 450.621718 305.274061 
L 450.698876 305.199718 
L 450.737455 305.282116 
L 450.776035 305.370937 
L 450.853193 305.281258 
L 450.930351 305.361351 
L 451.084668 305.330898 
L 451.161826 305.249607 
L 451.200406 305.326397 
L 451.509039 305.427372 
L 451.624777 305.307957 
L 451.663356 305.357819 
L 451.817673 305.345109 
L 451.856252 305.236523 
L 451.894831 305.315063 
L 452.049148 305.468315 
L 452.087727 305.369626 
L 452.164886 305.435738 
L 452.203465 305.482585 
L 452.242044 305.433517 
L 452.280623 305.380218 
L 452.357782 305.462213 
L 452.550678 305.506975 
L 452.627836 305.424604 
L 452.666415 305.455582 
L 452.936469 305.502696 
L 453.013628 305.466675 
L 453.052207 305.375825 
L 453.129365 305.437892 
L 453.167945 305.485804 
L 453.206524 305.434907 
L 453.245103 305.382615 
L 453.322261 305.448239 
L 453.437999 305.555506 
L 453.515157 305.467987 
L 453.553737 305.53576 
L 453.630895 305.533085 
L 453.669474 305.625367 
L 453.746633 305.523803 
L 453.86237 305.545188 
L 454.209583 305.697542 
L 454.3639 305.494675 
L 454.518217 305.674098 
L 454.595375 305.631274 
L 454.633954 305.664806 
L 456.370018 305.818849 
L 457.257339 305.824919 
L 457.334498 305.923817 
L 457.373077 305.871153 
L 457.527394 305.79074 
L 457.643131 305.824532 
L 457.72029 305.836829 
L 457.836027 305.923417 
L 458.028923 305.803939 
L 458.18324 306.031965 
L 458.260398 305.924264 
L 458.453294 305.903535 
L 458.607611 305.936298 
L 459.186299 305.800815 
L 459.224878 305.922423 
L 459.302037 305.876548 
L 459.533512 305.885581 
L 459.996462 305.930641 
L 460.035041 306.00189 
L 460.073621 305.94165 
L 460.189358 305.9223 
L 460.420833 306.041634 
L 460.536571 305.900271 
L 460.690888 306.021373 
L 460.883784 305.878562 
L 460.960942 305.946843 
L 460.999521 305.890645 
L 461.115259 305.974277 
L 461.153838 306.028568 
L 461.230997 305.958445 
L 461.53963 305.999218 
L 461.655368 306.020249 
L 461.809684 306.014577 
L 461.964001 306.074068 
L 462.118318 306.009799 
L 462.581268 306.116591 
L 462.697006 306.08773 
L 463.082798 305.977216 
L 463.159956 305.989298 
L 463.237115 306.098242 
L 463.275694 305.975068 
L 463.352852 306.009467 
L 463.46859 306.085538 
L 463.507169 306.053235 
L 463.854382 305.987543 
L 463.892961 306.048 
L 463.970119 305.982063 
L 464.355911 306.153639 
L 464.471649 306.148464 
L 464.625966 306.158228 
L 464.780283 306.200226 
L 464.934599 306.250014 
L 465.243233 306.223865 
L 465.39755 306.18879 
L 465.551866 306.203352 
L 466.053396 306.302363 
L 466.207713 306.307154 
L 466.554926 306.256082 
L 466.670663 306.194754 
L 466.863559 306.286664 
L 467.095034 306.188029 
L 467.28793 306.277429 
L 467.326509 306.218631 
L 467.403668 306.297063 
L 467.519405 306.325381 
L 467.712301 306.177158 
L 467.866618 306.27211 
L 468.098093 306.200454 
L 468.213831 306.127402 
L 468.368148 306.291895 
L 468.561044 306.139759 
L 468.869677 306.286242 
L 468.985415 306.281876 
L 469.21689 306.391 
L 469.371207 306.269734 
L 469.67984 306.260751 
L 469.71842 306.349982 
L 469.795578 306.278888 
L 469.988474 306.361446 
L 470.258528 306.346423 
L 470.412845 306.329745 
L 470.567162 306.337656 
L 470.875795 306.430363 
L 471.068691 306.425549 
L 471.415904 306.415428 
L 471.454483 306.367137 
L 471.493063 306.428358 
L 471.724538 306.434155 
L 471.994592 306.375394 
L 472.264647 306.355346 
L 472.457543 306.348534 
L 472.650438 306.434487 
L 472.804755 306.374191 
L 473.07481 306.398982 
L 473.923552 306.533888 
L 473.962131 306.500817 
L 474.00071 306.570602 
L 474.155027 306.522063 
L 475.273824 306.494364 
L 475.46672 306.436225 
L 475.543878 306.506074 
L 475.582457 306.44738 
L 476.045408 306.490362 
L 476.199724 306.476167 
L 476.39262 306.520651 
L 476.546937 306.563003 
L 476.932729 306.699756 
L 477.048467 306.693594 
L 477.164204 306.712303 
L 477.3571 306.635869 
L 477.742892 306.723667 
L 477.85863 306.661143 
L 479.170323 306.61339 
L 479.28606 306.679428 
L 479.440377 306.689962 
L 479.633273 306.690524 
L 479.826169 306.615665 
L 480.019065 306.691401 
L 480.173382 306.683028 
L 480.443436 306.657667 
L 480.559174 306.712136 
L 480.867807 306.617698 
L 481.099282 306.751297 
L 481.562233 306.721568 
L 481.832287 306.657089 
L 481.909445 306.703618 
L 482.025183 306.781844 
L 482.063762 306.702267 
L 482.140921 306.766791 
L 482.526713 306.806119 
L 483.066821 306.810423 
L 483.182559 306.814999 
L 483.876984 306.834772 
L 483.992722 306.777352 
L 484.031301 306.845797 
L 484.185618 306.796718 
L 485.497311 306.782739 
L 485.613048 306.796023 
L 486.230315 306.766912 
L 486.577528 306.807532 
L 487.42627 306.830222 
L 488.89228 306.853296 
L 489.046597 306.886163 
L 489.393809 306.890403 
L 503.28232 306.780831 
L 504.131062 306.797769 
L 504.555433 306.791657 
L 510.998159 306.797063 
L 542.054412 306.797061 
L 542.054412 306.797061 
" clip-path="url(#pc80d4573ed)" style="fill: none; stroke: #d62728; stroke-width: 1.5; stroke-linecap: square"/>
   </g>
   <g id="patch_3">
    <path d="M 55.997054 390.04 
L 55.997054 26.88 
" style="fill: none; stroke: #000000; stroke-width: 0.8; stroke-linejoin: miter; stroke-linecap: square"/>
   </g>
   <g id="patch_4">
    <path d="M 565.2 390.04 
L 565.2 26.88 
" style="fill: none; stroke: #000000; stroke-width: 0.8; stroke-linejoin: miter; stroke-linecap: square"/>
   </g>
   <g id="patch_5">
    <path d="M 55.997054 390.04 
L 565.2 390.04 
" style="fill: none; stroke: #000000; stroke-width: 0.8; stroke-linejoin: miter; stroke-linecap: square"/>
   </g>
   <g id="patch_6">
    <path d="M 55.997054 26.88 
L 565.2 26.88 
" style="fill: none; stroke: #000000; stroke-width: 0.8; stroke-linejoin: miter; stroke-linecap: square"/>
   </g>
   <g id="text_16">
    <!-- Convergence of Residuals -->
    <g transform="translate(232.974464 20.88) scale(0.12 -0.12)">
     <defs>
      <path id="DejaVuSans-43" d="M 4122 4306 
L 4122 3641 
Q 3803 3938 3442 4084 
Q 3081 4231 2675 4231 
Q 1875 4231 1450 3742 
Q 1025 3253 1025 2328 
Q 1025 1406 1450 917 
Q 1875 428 2675 428 
Q 3081 428 3442 575 
Q 3803 722 4122 1019 
L 4122 359 
Q 3791 134 3420 21 
Q 3050 -91 2638 -91 
Q 1578 -91 968 557 
Q 359 1206 359 2328 
Q 359 3453 968 4101 
Q 1578 4750 2638 4750 
Q 3056 4750 3426 4639 
Q 3797 4528 4122 4306 
z
" transform="scale(0.015625)"/>
      <path id="DejaVuSans-76" d="M 191 3500 
L 800 3500 
L 1894 563 
L 2988 3500 
L 3597 3500 
L 2284 0 
L 1503 0 
L 191 3500 
z
" transform="scale(0.015625)"/>
      <path id="DejaVuSans-67" d="M 2906 1791 
Q 2906 2416 2648 2759 
Q 2391 3103 1925 3103 
Q 1463 3103 1205 2759 
Q 947 2416 947 1791 
Q 947 1169 1205 825 
Q 1463 481 1925 481 
Q 2391 481 2648 825 
Q 2906 1169 2906 1791 
z
M 3481 434 
Q 3481 -459 3084 -895 
Q 2688 -1331 1869 -1331 
Q 1566 -1331 1297 -1286 
Q 1028 -1241 775 -1147 
L 775 -588 
Q 1028 -725 1275 -790 
Q 1522 -856 1778 -856 
Q 2344 -856 2625 -561 
Q 2906 -266 2906 331 
L 2906 616 
Q 2728 306 2450 153 
Q 2172 0 1784 0 
Q 1141 0 747 490 
Q 353 981 353 1791 
Q 353 2603 747 3093 
Q 1141 3584 1784 3584 
Q 2172 3584 2450 3431 
Q 2728 3278 2906 2969 
L 2906 3500 
L 3481 3500 
L 3481 434 
z
" transform="scale(0.015625)"/>
      <path id="DejaVuSans-63" d="M 3122 3366 
L 3122 2828 
Q 2878 2963 2633 3030 
Q 2388 3097 2138 3097 
Q 1578 3097 1268 2742 
Q 959 2388 959 1747 
Q 959 1106 1268 751 
Q 1578 397 2138 397 
Q 2388 397 2633 464 
Q 2878 531 3122 666 
L 3122 134 
Q 2881 22 2623 -34 
Q 2366 -91 2075 -91 
Q 1284 -91 818 406 
Q 353 903 353 1747 
Q 353 2603 823 3093 
Q 1294 3584 2113 3584 
Q 2378 3584 2631 3529 
Q 2884 3475 3122 3366 
z
" transform="scale(0.015625)"/>
      <path id="DejaVuSans-20" transform="scale(0.015625)"/>
      <path id="DejaVuSans-66" d="M 2375 4863 
L 2375 4384 
L 1825 4384 
Q 1516 4384 1395 4259 
Q 1275 4134 1275 3809 
L 1275 3500 
L 2222 3500 
L 2222 3053 
L 1275 3053 
L 1275 0 
L 697 0 
L 697 3053 
L 147 3053 
L 147 3500 
L 697 3500 
L 697 3744 
Q 697 4328 969 4595 
Q 1241 4863 1831 4863 
L 2375 4863 
z
" transform="scale(0.015625)"/>
     </defs>
     <use xlink:href="#DejaVuSans-43"/>
     <use xlink:href="#DejaVuSans-6f" transform="translate(69.824219 0)"/>
     <use xlink:href="#DejaVuSans-6e" transform="translate(131.005859 0)"/>
     <use xlink:href="#DejaVuSans-76" transform="translate(194.384766 0)"/>
     <use xlink:href="#DejaVuSans-65" transform="translate(253.564453 0)"/>
     <use xlink:href="#DejaVuSans-72" transform="translate(315.087891 0)"/>
     <use xlink:href="#DejaVuSans-67" transform="translate(354.451172 0)"/>
     <use xlink:href="#DejaVuSans-65" transform="translate(417.927734 0)"/>
     <use xlink:href="#DejaVuSans-6e" transform="translate(479.451172 0)"/>
     <use xlink:href="#DejaVuSans-63" transform="translate(542.830078 0)"/>
     <use xlink:href="#DejaVuSans-65" transform="translate(597.810547 0)"/>
     <use xlink:href="#DejaVuSans-20" transform="translate(659.333984 0)"/>
     <use xlink:href="#DejaVuSans-6f" transform="translate(691.121094 0)"/>
     <use xlink:href="#DejaVuSans-66" transform="translate(752.302734 0)"/>
     <use xlink:href="#DejaVuSans-20" transform="translate(787.507812 0)"/>
     <use xlink:href="#DejaVuSans-52" transform="translate(819.294922 0)"/>
     <use xlink:href="#DejaVuSans-65" transform="translate(884.277344 0)"/>
     <use xlink:href="#DejaVuSans-73" transform="translate(945.800781 0)"/>
     <use xlink:href="#DejaVuSans-69" transform="translate(997.900391 0)"/>
     <use xlink:href="#DejaVuSans-64" transform="translate(1025.683594 0)"/>
     <use xlink:href="#DejaVuSans-75" transform="translate(1089.160156 0)"/>
     <use xlink:href="#DejaVuSans-61" transform="translate(1152.539062 0)"/>
     <use xlink:href="#DejaVuSans-6c" transform="translate(1213.818359 0)"/>
     <use xlink:href="#DejaVuSans-73" transform="translate(1241.601562 0)"/>
    </g>
   </g>
   <g id="legend_1">
    <g id="patch_7">
     <path d="M 430.867187 93.5925 
L 558.2 93.5925 
Q 560.2 93.5925 560.2 91.5925 
L 560.2 33.88 
Q 560.2 31.88 558.2 31.88 
L 430.867187 31.88 
Q 428.867187 31.88 428.867187 33.88 
L 428.867187 91.5925 
Q 428.867187 93.5925 430.867187 93.5925 
z
" style="fill: #ffffff; opacity: 0.8; stroke: #cccccc; stroke-linejoin: miter"/>
    </g>
    <g id="line2d_31">
     <path d="M 432.867187 39.978437 
L 442.867187 39.978437 
L 452.867187 39.978437 
" style="fill: none; stroke: #1f77b4; stroke-width: 1.5; stroke-linecap: square"/>
    </g>
    <g id="text_17">
     <!-- Grid Size: 32x32 -->
     <g transform="translate(460.867187 43.478437) scale(0.1 -0.1)">
      <defs>
       <path id="DejaVuSans-47" d="M 3809 666 
L 3809 1919 
L 2778 1919 
L 2778 2438 
L 4434 2438 
L 4434 434 
Q 4069 175 3628 42 
Q 3188 -91 2688 -91 
Q 1594 -91 976 548 
Q 359 1188 359 2328 
Q 359 3472 976 4111 
Q 1594 4750 2688 4750 
Q 3144 4750 3555 4637 
Q 3966 4525 4313 4306 
L 4313 3634 
Q 3963 3931 3569 4081 
Q 3175 4231 2741 4231 
Q 1884 4231 1454 3753 
Q 1025 3275 1025 2328 
Q 1025 1384 1454 906 
Q 1884 428 2741 428 
Q 3075 428 3337 486 
Q 3600 544 3809 666 
z
" transform="scale(0.015625)"/>
       <path id="DejaVuSans-53" d="M 3425 4513 
L 3425 3897 
Q 3066 4069 2747 4153 
Q 2428 4238 2131 4238 
Q 1616 4238 1336 4038 
Q 1056 3838 1056 3469 
Q 1056 3159 1242 3001 
Q 1428 2844 1947 2747 
L 2328 2669 
Q 3034 2534 3370 2195 
Q 3706 1856 3706 1288 
Q 3706 609 3251 259 
Q 2797 -91 1919 -91 
Q 1588 -91 1214 -16 
Q 841 59 441 206 
L 441 856 
Q 825 641 1194 531 
Q 1563 422 1919 422 
Q 2459 422 2753 634 
Q 3047 847 3047 1241 
Q 3047 1584 2836 1778 
Q 2625 1972 2144 2069 
L 1759 2144 
Q 1053 2284 737 2584 
Q 422 2884 422 3419 
Q 422 4038 858 4394 
Q 1294 4750 2059 4750 
Q 2388 4750 2728 4690 
Q 3069 4631 3425 4513 
z
" transform="scale(0.015625)"/>
       <path id="DejaVuSans-7a" d="M 353 3500 
L 3084 3500 
L 3084 2975 
L 922 459 
L 3084 459 
L 3084 0 
L 275 0 
L 275 525 
L 2438 3041 
L 353 3041 
L 353 3500 
z
" transform="scale(0.015625)"/>
       <path id="DejaVuSans-3a" d="M 750 794 
L 1409 794 
L 1409 0 
L 750 0 
L 750 794 
z
M 750 3309 
L 1409 3309 
L 1409 2516 
L 750 2516 
L 750 3309 
z
" transform="scale(0.015625)"/>
       <path id="DejaVuSans-33" d="M 2597 2516 
Q 3050 2419 3304 2112 
Q 3559 1806 3559 1356 
Q 3559 666 3084 287 
Q 2609 -91 1734 -91 
Q 1441 -91 1130 -33 
Q 819 25 488 141 
L 488 750 
Q 750 597 1062 519 
Q 1375 441 1716 441 
Q 2309 441 2620 675 
Q 2931 909 2931 1356 
Q 2931 1769 2642 2001 
Q 2353 2234 1838 2234 
L 1294 2234 
L 1294 2753 
L 1863 2753 
Q 2328 2753 2575 2939 
Q 2822 3125 2822 3475 
Q 2822 3834 2567 4026 
Q 2313 4219 1838 4219 
Q 1578 4219 1281 4162 
Q 984 4106 628 3988 
L 628 4550 
Q 988 4650 1302 4700 
Q 1616 4750 1894 4750 
Q 2613 4750 3031 4423 
Q 3450 4097 3450 3541 
Q 3450 3153 3228 2886 
Q 3006 2619 2597 2516 
z
" transform="scale(0.015625)"/>
       <path id="DejaVuSans-78" d="M 3513 3500 
L 2247 1797 
L 3578 0 
L 2900 0 
L 1881 1375 
L 863 0 
L 184 0 
L 1544 1831 
L 300 3500 
L 978 3500 
L 1906 2253 
L 2834 3500 
L 3513 3500 
z
" transform="scale(0.015625)"/>
      </defs>
      <use xlink:href="#DejaVuSans-47"/>
      <use xlink:href="#DejaVuSans-72" transform="translate(77.490234 0)"/>
      <use xlink:href="#DejaVuSans-69" transform="translate(118.603516 0)"/>
      <use xlink:href="#DejaVuSans-64" transform="translate(146.386719 0)"/>
      <use xlink:href="#DejaVuSans-20" transform="translate(209.863281 0)"/>
      <use xlink:href="#DejaVuSans-53" transform="translate(241.650391 0)"/>
      <use xlink:href="#DejaVuSans-69" transform="translate(305.126953 0)"/>
      <use xlink:href="#DejaVuSans-7a" transform="translate(332.910156 0)"/>
      <use xlink:href="#DejaVuSans-65" transform="translate(385.400391 0)"/>
      <use xlink:href="#DejaVuSans-3a" transform="translate(446.923828 0)"/>
      <use xlink:href="#DejaVuSans-20" transform="translate(480.615234 0)"/>
      <use xlink:href="#DejaVuSans-33" transform="translate(512.402344 0)"/>
      <use xlink:href="#DejaVuSans-32" transform="translate(576.025391 0)"/>
      <use xlink:href="#DejaVuSans-78" transform="translate(639.648438 0)"/>
      <use xlink:href="#DejaVuSans-33" transform="translate(698.828125 0)"/>
      <use xlink:href="#DejaVuSans-32" transform="translate(762.451172 0)"/>
     </g>
    </g>
    <g id="line2d_32">
     <path d="M 432.867187 54.656563 
L 442.867187 54.656563 
L 452.867187 54.656563 
" style="fill: none; stroke: #ff7f0e; stroke-width: 1.5; stroke-linecap: square"/>
    </g>
    <g id="text_18">
     <!-- Grid Size: 96x96 -->
     <g transform="translate(460.867187 58.156563) scale(0.1 -0.1)">
      <defs>
       <path id="DejaVuSans-39" d="M 703 97 
L 703 672 
Q 941 559 1184 500 
Q 1428 441 1663 441 
Q 2288 441 2617 861 
Q 2947 1281 2994 2138 
Q 2813 1869 2534 1725 
Q 2256 1581 1919 1581 
Q 1219 1581 811 2004 
Q 403 2428 403 3163 
Q 403 3881 828 4315 
Q 1253 4750 1959 4750 
Q 2769 4750 3195 4129 
Q 3622 3509 3622 2328 
Q 3622 1225 3098 567 
Q 2575 -91 1691 -91 
Q 1453 -91 1209 -44 
Q 966 3 703 97 
z
M 1959 2075 
Q 2384 2075 2632 2365 
Q 2881 2656 2881 3163 
Q 2881 3666 2632 3958 
Q 2384 4250 1959 4250 
Q 1534 4250 1286 3958 
Q 1038 3666 1038 3163 
Q 1038 2656 1286 2365 
Q 1534 2075 1959 2075 
z
" transform="scale(0.015625)"/>
      </defs>
      <use xlink:href="#DejaVuSans-47"/>
      <use xlink:href="#DejaVuSans-72" transform="translate(77.490234 0)"/>
      <use xlink:href="#DejaVuSans-69" transform="translate(118.603516 0)"/>
      <use xlink:href="#DejaVuSans-64" transform="translate(146.386719 0)"/>
      <use xlink:href="#DejaVuSans-20" transform="translate(209.863281 0)"/>
      <use xlink:href="#DejaVuSans-53" transform="translate(241.650391 0)"/>
      <use xlink:href="#DejaVuSans-69" transform="translate(305.126953 0)"/>
      <use xlink:href="#DejaVuSans-7a" transform="translate(332.910156 0)"/>
      <use xlink:href="#DejaVuSans-65" transform="translate(385.400391 0)"/>
      <use xlink:href="#DejaVuSans-3a" transform="translate(446.923828 0)"/>
      <use xlink:href="#DejaVuSans-20" transform="translate(480.615234 0)"/>
      <use xlink:href="#DejaVuSans-39" transform="translate(512.402344 0)"/>
      <use xlink:href="#DejaVuSans-36" transform="translate(576.025391 0)"/>
      <use xlink:href="#DejaVuSans-78" transform="translate(639.648438 0)"/>
      <use xlink:href="#DejaVuSans-39" transform="translate(698.828125 0)"/>
      <use xlink:href="#DejaVuSans-36" transform="translate(762.451172 0)"/>
     </g>
    </g>
    <g id="line2d_33">
     <path d="M 432.867187 69.334687 
L 442.867187 69.334687 
L 452.867187 69.334687 
" style="fill: none; stroke: #2ca02c; stroke-width: 1.5; stroke-linecap: square"/>
    </g>
    <g id="text_19">
     <!-- Grid Size: 160x160 -->
     <g transform="translate(460.867187 72.834687) scale(0.1 -0.1)">
      <use xlink:href="#DejaVuSans-47"/>
      <use xlink:href="#DejaVuSans-72" transform="translate(77.490234 0)"/>
      <use xlink:href="#DejaVuSans-69" transform="translate(118.603516 0)"/>
      <use xlink:href="#DejaVuSans-64" transform="translate(146.386719 0)"/>
      <use xlink:href="#DejaVuSans-20" transform="translate(209.863281 0)"/>
      <use xlink:href="#DejaVuSans-53" transform="translate(241.650391 0)"/>
      <use xlink:href="#DejaVuSans-69" transform="translate(305.126953 0)"/>
      <use xlink:href="#DejaVuSans-7a" transform="translate(332.910156 0)"/>
      <use xlink:href="#DejaVuSans-65" transform="translate(385.400391 0)"/>
      <use xlink:href="#DejaVuSans-3a" transform="translate(446.923828 0)"/>
      <use xlink:href="#DejaVuSans-20" transform="translate(480.615234 0)"/>
      <use xlink:href="#DejaVuSans-31" transform="translate(512.402344 0)"/>
      <use xlink:href="#DejaVuSans-36" transform="translate(576.025391 0)"/>
      <use xlink:href="#DejaVuSans-30" transform="translate(639.648438 0)"/>
      <use xlink:href="#DejaVuSans-78" transform="translate(703.271484 0)"/>
      <use xlink:href="#DejaVuSans-31" transform="translate(762.451172 0)"/>
      <use xlink:href="#DejaVuSans-36" transform="translate(826.074219 0)"/>
      <use xlink:href="#DejaVuSans-30" transform="translate(889.697266 0)"/>
     </g>
    </g>
    <g id="line2d_34">
     <path d="M 432.867187 84.012812 
L 442.867187 84.012812 
L 452.867187 84.012812 
" style="fill: none; stroke: #d62728; stroke-width: 1.5; stroke-linecap: square"/>
    </g>
    <g id="text_20">
     <!-- Grid Size: 224x224 -->
     <g transform="translate(460.867187 87.512812) scale(0.1 -0.1)">
      <use xlink:href="#DejaVuSans-47"/>
      <use xlink:href="#DejaVuSans-72" transform="translate(77.490234 0)"/>
      <use xlink:href="#DejaVuSans-69" transform="translate(118.603516 0)"/>
      <use xlink:href="#DejaVuSans-64" transform="translate(146.386719 0)"/>
      <use xlink:href="#DejaVuSans-20" transform="translate(209.863281 0)"/>
      <use xlink:href="#DejaVuSans-53" transform="translate(241.650391 0)"/>
      <use xlink:href="#DejaVuSans-69" transform="translate(305.126953 0)"/>
      <use xlink:href="#DejaVuSans-7a" transform="translate(332.910156 0)"/>
      <use xlink:href="#DejaVuSans-65" transform="translate(385.400391 0)"/>
      <use xlink:href="#DejaVuSans-3a" transform="translate(446.923828 0)"/>
      <use xlink:href="#DejaVuSans-20" transform="translate(480.615234 0)"/>
      <use xlink:href="#DejaVuSans-32" transform="translate(512.402344 0)"/>
      <use xlink:href="#DejaVuSans-32" transform="translate(576.025391 0)"/>
      <use xlink:href="#DejaVuSans-34" transform="translate(639.648438 0)"/>
      <use xlink:href="#DejaVuSans-78" transform="translate(703.271484 0)"/>
      <use xlink:href="#DejaVuSans-32" transform="translate(762.451172 0)"/>
      <use xlink:href="#DejaVuSans-32" transform="translate(826.074219 0)"/>
      <use xlink:href="#DejaVuSans-34" transform="translate(889.697266 0)"/>
     </g>
    </g>
   </g>
  </g>
 </g>
 <defs>
  <clipPath id="pc80d4573ed">
   <rect x="55.997054" y="26.88" width="509.202946" height="363.16"/>
  </clipPath>
 </defs>
</svg>
