<?xml version="1.0" encoding="utf-8" standalone="no"?>
<!DOCTYPE svg PUBLIC "-//W3C//DTD SVG 1.1//EN"
  "http://www.w3.org/Graphics/SVG/1.1/DTD/svg11.dtd">
<svg xmlns:xlink="http://www.w3.org/1999/xlink" width="576pt" height="432pt" viewBox="0 0 576 432" xmlns="http://www.w3.org/2000/svg" version="1.1">
 <metadata>
  <rdf:RDF xmlns:dc="http://purl.org/dc/elements/1.1/" xmlns:cc="http://creativecommons.org/ns#" xmlns:rdf="http://www.w3.org/1999/02/22-rdf-syntax-ns#">
   <cc:Work>
    <dc:type rdf:resource="http://purl.org/dc/dcmitype/StillImage"/>
    <dc:date>2025-12-05T21:49:28.621700</dc:date>
    <dc:format>image/svg+xml</dc:format>
    <dc:creator>
     <cc:Agent>
      <dc:title>Matplotlib v3.10.5, https://matplotlib.org/</dc:title>
     </cc:Agent>
    </dc:creator>
   </cc:Work>
  </rdf:RDF>
 </metadata>
 <defs>
  <style type="text/css">*{stroke-linejoin: round; stroke-linecap: butt}</style>
 </defs>
 <g id="figure_1">
  <g id="patch_1">
   <path d="M 0 432 
L 576 432 
L 576 0 
L 0 0 
z
" style="fill: #ffffff"/>
  </g>
  <g id="axes_1">
   <g id="patch_2">
    <path d="M 55.344554 390.04 
L 565.2 390.04 
L 565.2 26.16 
L 55.344554 26.16 
z
" style="fill: #ffffff"/>
   </g>
   <g id="matplotlib.axis_1">
    <g id="xtick_1">
     <g id="line2d_1">
      <path d="M 78.519801 390.04 
L 78.519801 26.16 
" clip-path="url(#p9dbdf4b5d5)" style="fill: none; stroke: #b0b0b0; stroke-width: 0.8; stroke-linecap: square"/>
     </g>
     <g id="line2d_2">
      <defs>
       <path id="m768fa8a1e9" d="M 0 0 
L 0 3.5 
" style="stroke: #000000; stroke-width: 0.8"/>
      </defs>
      <g>
       <use xlink:href="#m768fa8a1e9" x="78.519801" y="390.04" style="stroke: #000000; stroke-width: 0.8"/>
      </g>
     </g>
     <g id="text_1">
      <!-- 0 -->
      <g transform="translate(75.338551 404.638438) scale(0.1 -0.1)">
       <defs>
        <path id="DejaVuSans-30" d="M 2034 4250 
Q 1547 4250 1301 3770 
Q 1056 3291 1056 2328 
Q 1056 1369 1301 889 
Q 1547 409 2034 409 
Q 2525 409 2770 889 
Q 3016 1369 3016 2328 
Q 3016 3291 2770 3770 
Q 2525 4250 2034 4250 
z
M 2034 4750 
Q 2819 4750 3233 4129 
Q 3647 3509 3647 2328 
Q 3647 1150 3233 529 
Q 2819 -91 2034 -91 
Q 1250 -91 836 529 
Q 422 1150 422 2328 
Q 422 3509 836 4129 
Q 1250 4750 2034 4750 
z
" transform="scale(0.015625)"/>
       </defs>
       <use xlink:href="#DejaVuSans-30"/>
      </g>
     </g>
    </g>
    <g id="xtick_2">
     <g id="line2d_3">
      <path d="M 150.944713 390.04 
L 150.944713 26.16 
" clip-path="url(#p9dbdf4b5d5)" style="fill: none; stroke: #b0b0b0; stroke-width: 0.8; stroke-linecap: square"/>
     </g>
     <g id="line2d_4">
      <g>
       <use xlink:href="#m768fa8a1e9" x="150.944713" y="390.04" style="stroke: #000000; stroke-width: 0.8"/>
      </g>
     </g>
     <g id="text_2">
      <!-- 5000 -->
      <g transform="translate(138.219713 404.638438) scale(0.1 -0.1)">
       <defs>
        <path id="DejaVuSans-35" d="M 691 4666 
L 3169 4666 
L 3169 4134 
L 1269 4134 
L 1269 2991 
Q 1406 3038 1543 3061 
Q 1681 3084 1819 3084 
Q 2600 3084 3056 2656 
Q 3513 2228 3513 1497 
Q 3513 744 3044 326 
Q 2575 -91 1722 -91 
Q 1428 -91 1123 -41 
Q 819 9 494 109 
L 494 744 
Q 775 591 1075 516 
Q 1375 441 1709 441 
Q 2250 441 2565 725 
Q 2881 1009 2881 1497 
Q 2881 1984 2565 2268 
Q 2250 2553 1709 2553 
Q 1456 2553 1204 2497 
Q 953 2441 691 2322 
L 691 4666 
z
" transform="scale(0.015625)"/>
       </defs>
       <use xlink:href="#DejaVuSans-35"/>
       <use xlink:href="#DejaVuSans-30" transform="translate(63.623047 0)"/>
       <use xlink:href="#DejaVuSans-30" transform="translate(127.246094 0)"/>
       <use xlink:href="#DejaVuSans-30" transform="translate(190.869141 0)"/>
      </g>
     </g>
    </g>
    <g id="xtick_3">
     <g id="line2d_5">
      <path d="M 223.369625 390.04 
L 223.369625 26.16 
" clip-path="url(#p9dbdf4b5d5)" style="fill: none; stroke: #b0b0b0; stroke-width: 0.8; stroke-linecap: square"/>
     </g>
     <g id="line2d_6">
      <g>
       <use xlink:href="#m768fa8a1e9" x="223.369625" y="390.04" style="stroke: #000000; stroke-width: 0.8"/>
      </g>
     </g>
     <g id="text_3">
      <!-- 10000 -->
      <g transform="translate(207.463375 404.638438) scale(0.1 -0.1)">
       <defs>
        <path id="DejaVuSans-31" d="M 794 531 
L 1825 531 
L 1825 4091 
L 703 3866 
L 703 4441 
L 1819 4666 
L 2450 4666 
L 2450 531 
L 3481 531 
L 3481 0 
L 794 0 
L 794 531 
z
" transform="scale(0.015625)"/>
       </defs>
       <use xlink:href="#DejaVuSans-31"/>
       <use xlink:href="#DejaVuSans-30" transform="translate(63.623047 0)"/>
       <use xlink:href="#DejaVuSans-30" transform="translate(127.246094 0)"/>
       <use xlink:href="#DejaVuSans-30" transform="translate(190.869141 0)"/>
       <use xlink:href="#DejaVuSans-30" transform="translate(254.492188 0)"/>
      </g>
     </g>
    </g>
    <g id="xtick_4">
     <g id="line2d_7">
      <path d="M 295.794537 390.04 
L 295.794537 26.16 
" clip-path="url(#p9dbdf4b5d5)" style="fill: none; stroke: #b0b0b0; stroke-width: 0.8; stroke-linecap: square"/>
     </g>
     <g id="line2d_8">
      <g>
       <use xlink:href="#m768fa8a1e9" x="295.794537" y="390.04" style="stroke: #000000; stroke-width: 0.8"/>
      </g>
     </g>
     <g id="text_4">
      <!-- 15000 -->
      <g transform="translate(279.888287 404.638438) scale(0.1 -0.1)">
       <use xlink:href="#DejaVuSans-31"/>
       <use xlink:href="#DejaVuSans-35" transform="translate(63.623047 0)"/>
       <use xlink:href="#DejaVuSans-30" transform="translate(127.246094 0)"/>
       <use xlink:href="#DejaVuSans-30" transform="translate(190.869141 0)"/>
       <use xlink:href="#DejaVuSans-30" transform="translate(254.492188 0)"/>
      </g>
     </g>
    </g>
    <g id="xtick_5">
     <g id="line2d_9">
      <path d="M 368.219449 390.04 
L 368.219449 26.16 
" clip-path="url(#p9dbdf4b5d5)" style="fill: none; stroke: #b0b0b0; stroke-width: 0.8; stroke-linecap: square"/>
     </g>
     <g id="line2d_10">
      <g>
       <use xlink:href="#m768fa8a1e9" x="368.219449" y="390.04" style="stroke: #000000; stroke-width: 0.8"/>
      </g>
     </g>
     <g id="text_5">
      <!-- 20000 -->
      <g transform="translate(352.313199 404.638438) scale(0.1 -0.1)">
       <defs>
        <path id="DejaVuSans-32" d="M 1228 531 
L 3431 531 
L 3431 0 
L 469 0 
L 469 531 
Q 828 903 1448 1529 
Q 2069 2156 2228 2338 
Q 2531 2678 2651 2914 
Q 2772 3150 2772 3378 
Q 2772 3750 2511 3984 
Q 2250 4219 1831 4219 
Q 1534 4219 1204 4116 
Q 875 4013 500 3803 
L 500 4441 
Q 881 4594 1212 4672 
Q 1544 4750 1819 4750 
Q 2544 4750 2975 4387 
Q 3406 4025 3406 3419 
Q 3406 3131 3298 2873 
Q 3191 2616 2906 2266 
Q 2828 2175 2409 1742 
Q 1991 1309 1228 531 
z
" transform="scale(0.015625)"/>
       </defs>
       <use xlink:href="#DejaVuSans-32"/>
       <use xlink:href="#DejaVuSans-30" transform="translate(63.623047 0)"/>
       <use xlink:href="#DejaVuSans-30" transform="translate(127.246094 0)"/>
       <use xlink:href="#DejaVuSans-30" transform="translate(190.869141 0)"/>
       <use xlink:href="#DejaVuSans-30" transform="translate(254.492188 0)"/>
      </g>
     </g>
    </g>
    <g id="xtick_6">
     <g id="line2d_11">
      <path d="M 440.644361 390.04 
L 440.644361 26.16 
" clip-path="url(#p9dbdf4b5d5)" style="fill: none; stroke: #b0b0b0; stroke-width: 0.8; stroke-linecap: square"/>
     </g>
     <g id="line2d_12">
      <g>
       <use xlink:href="#m768fa8a1e9" x="440.644361" y="390.04" style="stroke: #000000; stroke-width: 0.8"/>
      </g>
     </g>
     <g id="text_6">
      <!-- 25000 -->
      <g transform="translate(424.738111 404.638438) scale(0.1 -0.1)">
       <use xlink:href="#DejaVuSans-32"/>
       <use xlink:href="#DejaVuSans-35" transform="translate(63.623047 0)"/>
       <use xlink:href="#DejaVuSans-30" transform="translate(127.246094 0)"/>
       <use xlink:href="#DejaVuSans-30" transform="translate(190.869141 0)"/>
       <use xlink:href="#DejaVuSans-30" transform="translate(254.492188 0)"/>
      </g>
     </g>
    </g>
    <g id="xtick_7">
     <g id="line2d_13">
      <path d="M 513.069273 390.04 
L 513.069273 26.16 
" clip-path="url(#p9dbdf4b5d5)" style="fill: none; stroke: #b0b0b0; stroke-width: 0.8; stroke-linecap: square"/>
     </g>
     <g id="line2d_14">
      <g>
       <use xlink:href="#m768fa8a1e9" x="513.069273" y="390.04" style="stroke: #000000; stroke-width: 0.8"/>
      </g>
     </g>
     <g id="text_7">
      <!-- 30000 -->
      <g transform="translate(497.163023 404.638438) scale(0.1 -0.1)">
       <defs>
        <path id="DejaVuSans-33" d="M 2597 2516 
Q 3050 2419 3304 2112 
Q 3559 1806 3559 1356 
Q 3559 666 3084 287 
Q 2609 -91 1734 -91 
Q 1441 -91 1130 -33 
Q 819 25 488 141 
L 488 750 
Q 750 597 1062 519 
Q 1375 441 1716 441 
Q 2309 441 2620 675 
Q 2931 909 2931 1356 
Q 2931 1769 2642 2001 
Q 2353 2234 1838 2234 
L 1294 2234 
L 1294 2753 
L 1863 2753 
Q 2328 2753 2575 2939 
Q 2822 3125 2822 3475 
Q 2822 3834 2567 4026 
Q 2313 4219 1838 4219 
Q 1578 4219 1281 4162 
Q 984 4106 628 3988 
L 628 4550 
Q 988 4650 1302 4700 
Q 1616 4750 1894 4750 
Q 2613 4750 3031 4423 
Q 3450 4097 3450 3541 
Q 3450 3153 3228 2886 
Q 3006 2619 2597 2516 
z
" transform="scale(0.015625)"/>
       </defs>
       <use xlink:href="#DejaVuSans-33"/>
       <use xlink:href="#DejaVuSans-30" transform="translate(63.623047 0)"/>
       <use xlink:href="#DejaVuSans-30" transform="translate(127.246094 0)"/>
       <use xlink:href="#DejaVuSans-30" transform="translate(190.869141 0)"/>
       <use xlink:href="#DejaVuSans-30" transform="translate(254.492188 0)"/>
      </g>
     </g>
    </g>
    <g id="text_8">
     <!-- Iteration -->
     <g transform="translate(289.063683 418.316562) scale(0.1 -0.1)">
      <defs>
       <path id="DejaVuSans-49" d="M 628 4666 
L 1259 4666 
L 1259 0 
L 628 0 
L 628 4666 
z
" transform="scale(0.015625)"/>
       <path id="DejaVuSans-74" d="M 1172 4494 
L 1172 3500 
L 2356 3500 
L 2356 3053 
L 1172 3053 
L 1172 1153 
Q 1172 725 1289 603 
Q 1406 481 1766 481 
L 2356 481 
L 2356 0 
L 1766 0 
Q 1100 0 847 248 
Q 594 497 594 1153 
L 594 3053 
L 172 3053 
L 172 3500 
L 594 3500 
L 594 4494 
L 1172 4494 
z
" transform="scale(0.015625)"/>
       <path id="DejaVuSans-65" d="M 3597 1894 
L 3597 1613 
L 953 1613 
Q 991 1019 1311 708 
Q 1631 397 2203 397 
Q 2534 397 2845 478 
Q 3156 559 3463 722 
L 3463 178 
Q 3153 47 2828 -22 
Q 2503 -91 2169 -91 
Q 1331 -91 842 396 
Q 353 884 353 1716 
Q 353 2575 817 3079 
Q 1281 3584 2069 3584 
Q 2775 3584 3186 3129 
Q 3597 2675 3597 1894 
z
M 3022 2063 
Q 3016 2534 2758 2815 
Q 2500 3097 2075 3097 
Q 1594 3097 1305 2825 
Q 1016 2553 972 2059 
L 3022 2063 
z
" transform="scale(0.015625)"/>
       <path id="DejaVuSans-72" d="M 2631 2963 
Q 2534 3019 2420 3045 
Q 2306 3072 2169 3072 
Q 1681 3072 1420 2755 
Q 1159 2438 1159 1844 
L 1159 0 
L 581 0 
L 581 3500 
L 1159 3500 
L 1159 2956 
Q 1341 3275 1631 3429 
Q 1922 3584 2338 3584 
Q 2397 3584 2469 3576 
Q 2541 3569 2628 3553 
L 2631 2963 
z
" transform="scale(0.015625)"/>
       <path id="DejaVuSans-61" d="M 2194 1759 
Q 1497 1759 1228 1600 
Q 959 1441 959 1056 
Q 959 750 1161 570 
Q 1363 391 1709 391 
Q 2188 391 2477 730 
Q 2766 1069 2766 1631 
L 2766 1759 
L 2194 1759 
z
M 3341 1997 
L 3341 0 
L 2766 0 
L 2766 531 
Q 2569 213 2275 61 
Q 1981 -91 1556 -91 
Q 1019 -91 701 211 
Q 384 513 384 1019 
Q 384 1609 779 1909 
Q 1175 2209 1959 2209 
L 2766 2209 
L 2766 2266 
Q 2766 2663 2505 2880 
Q 2244 3097 1772 3097 
Q 1472 3097 1187 3025 
Q 903 2953 641 2809 
L 641 3341 
Q 956 3463 1253 3523 
Q 1550 3584 1831 3584 
Q 2591 3584 2966 3190 
Q 3341 2797 3341 1997 
z
" transform="scale(0.015625)"/>
       <path id="DejaVuSans-69" d="M 603 3500 
L 1178 3500 
L 1178 0 
L 603 0 
L 603 3500 
z
M 603 4863 
L 1178 4863 
L 1178 4134 
L 603 4134 
L 603 4863 
z
" transform="scale(0.015625)"/>
       <path id="DejaVuSans-6f" d="M 1959 3097 
Q 1497 3097 1228 2736 
Q 959 2375 959 1747 
Q 959 1119 1226 758 
Q 1494 397 1959 397 
Q 2419 397 2687 759 
Q 2956 1122 2956 1747 
Q 2956 2369 2687 2733 
Q 2419 3097 1959 3097 
z
M 1959 3584 
Q 2709 3584 3137 3096 
Q 3566 2609 3566 1747 
Q 3566 888 3137 398 
Q 2709 -91 1959 -91 
Q 1206 -91 779 398 
Q 353 888 353 1747 
Q 353 2609 779 3096 
Q 1206 3584 1959 3584 
z
" transform="scale(0.015625)"/>
       <path id="DejaVuSans-6e" d="M 3513 2113 
L 3513 0 
L 2938 0 
L 2938 2094 
Q 2938 2591 2744 2837 
Q 2550 3084 2163 3084 
Q 1697 3084 1428 2787 
Q 1159 2491 1159 1978 
L 1159 0 
L 581 0 
L 581 3500 
L 1159 3500 
L 1159 2956 
Q 1366 3272 1645 3428 
Q 1925 3584 2291 3584 
Q 2894 3584 3203 3211 
Q 3513 2838 3513 2113 
z
" transform="scale(0.015625)"/>
      </defs>
      <use xlink:href="#DejaVuSans-49"/>
      <use xlink:href="#DejaVuSans-74" transform="translate(29.492188 0)"/>
      <use xlink:href="#DejaVuSans-65" transform="translate(68.701172 0)"/>
      <use xlink:href="#DejaVuSans-72" transform="translate(130.224609 0)"/>
      <use xlink:href="#DejaVuSans-61" transform="translate(171.337891 0)"/>
      <use xlink:href="#DejaVuSans-74" transform="translate(232.617188 0)"/>
      <use xlink:href="#DejaVuSans-69" transform="translate(271.826172 0)"/>
      <use xlink:href="#DejaVuSans-6f" transform="translate(299.609375 0)"/>
      <use xlink:href="#DejaVuSans-6e" transform="translate(360.791016 0)"/>
     </g>
    </g>
   </g>
   <g id="matplotlib.axis_2">
    <g id="ytick_1">
     <g id="line2d_15">
      <path d="M 55.344554 343.804974 
L 565.2 343.804974 
" clip-path="url(#p9dbdf4b5d5)" style="fill: none; stroke: #b0b0b0; stroke-width: 0.8; stroke-linecap: square"/>
     </g>
     <g id="line2d_16">
      <defs>
       <path id="m9ff61ee950" d="M 0 0 
L -3.5 0 
" style="stroke: #000000; stroke-width: 0.8"/>
      </defs>
      <g>
       <use xlink:href="#m9ff61ee950" x="55.344554" y="343.804974" style="stroke: #000000; stroke-width: 0.8"/>
      </g>
     </g>
     <g id="text_9">
      <!-- $\mathdefault{10^{-7}}$ -->
      <g transform="translate(24.844554 347.604193) scale(0.1 -0.1)">
       <defs>
        <path id="DejaVuSans-2212" d="M 678 2272 
L 4684 2272 
L 4684 1741 
L 678 1741 
L 678 2272 
z
" transform="scale(0.015625)"/>
        <path id="DejaVuSans-37" d="M 525 4666 
L 3525 4666 
L 3525 4397 
L 1831 0 
L 1172 0 
L 2766 4134 
L 525 4134 
L 525 4666 
z
" transform="scale(0.015625)"/>
       </defs>
       <use xlink:href="#DejaVuSans-31" transform="translate(0 0.684375)"/>
       <use xlink:href="#DejaVuSans-30" transform="translate(63.623047 0.684375)"/>
       <use xlink:href="#DejaVuSans-2212" transform="translate(128.203125 38.965625) scale(0.7)"/>
       <use xlink:href="#DejaVuSans-37" transform="translate(186.855469 38.965625) scale(0.7)"/>
      </g>
     </g>
    </g>
    <g id="ytick_2">
     <g id="line2d_17">
      <path d="M 55.344554 287.509423 
L 565.2 287.509423 
" clip-path="url(#p9dbdf4b5d5)" style="fill: none; stroke: #b0b0b0; stroke-width: 0.8; stroke-linecap: square"/>
     </g>
     <g id="line2d_18">
      <g>
       <use xlink:href="#m9ff61ee950" x="55.344554" y="287.509423" style="stroke: #000000; stroke-width: 0.8"/>
      </g>
     </g>
     <g id="text_10">
      <!-- $\mathdefault{10^{-4}}$ -->
      <g transform="translate(24.844554 291.308642) scale(0.1 -0.1)">
       <defs>
        <path id="DejaVuSans-34" d="M 2419 4116 
L 825 1625 
L 2419 1625 
L 2419 4116 
z
M 2253 4666 
L 3047 4666 
L 3047 1625 
L 3713 1625 
L 3713 1100 
L 3047 1100 
L 3047 0 
L 2419 0 
L 2419 1100 
L 313 1100 
L 313 1709 
L 2253 4666 
z
" transform="scale(0.015625)"/>
       </defs>
       <use xlink:href="#DejaVuSans-31" transform="translate(0 0.684375)"/>
       <use xlink:href="#DejaVuSans-30" transform="translate(63.623047 0.684375)"/>
       <use xlink:href="#DejaVuSans-2212" transform="translate(128.203125 38.965625) scale(0.7)"/>
       <use xlink:href="#DejaVuSans-34" transform="translate(186.855469 38.965625) scale(0.7)"/>
      </g>
     </g>
    </g>
    <g id="ytick_3">
     <g id="line2d_19">
      <path d="M 55.344554 231.213873 
L 565.2 231.213873 
" clip-path="url(#p9dbdf4b5d5)" style="fill: none; stroke: #b0b0b0; stroke-width: 0.8; stroke-linecap: square"/>
     </g>
     <g id="line2d_20">
      <g>
       <use xlink:href="#m9ff61ee950" x="55.344554" y="231.213873" style="stroke: #000000; stroke-width: 0.8"/>
      </g>
     </g>
     <g id="text_11">
      <!-- $\mathdefault{10^{-1}}$ -->
      <g transform="translate(24.844554 235.013092) scale(0.1 -0.1)">
       <use xlink:href="#DejaVuSans-31" transform="translate(0 0.684375)"/>
       <use xlink:href="#DejaVuSans-30" transform="translate(63.623047 0.684375)"/>
       <use xlink:href="#DejaVuSans-2212" transform="translate(128.203125 38.965625) scale(0.7)"/>
       <use xlink:href="#DejaVuSans-31" transform="translate(186.855469 38.965625) scale(0.7)"/>
      </g>
     </g>
    </g>
    <g id="ytick_4">
     <g id="line2d_21">
      <path d="M 55.344554 174.918322 
L 565.2 174.918322 
" clip-path="url(#p9dbdf4b5d5)" style="fill: none; stroke: #b0b0b0; stroke-width: 0.8; stroke-linecap: square"/>
     </g>
     <g id="line2d_22">
      <g>
       <use xlink:href="#m9ff61ee950" x="55.344554" y="174.918322" style="stroke: #000000; stroke-width: 0.8"/>
      </g>
     </g>
     <g id="text_12">
      <!-- $\mathdefault{10^{2}}$ -->
      <g transform="translate(30.744554 178.717541) scale(0.1 -0.1)">
       <use xlink:href="#DejaVuSans-31" transform="translate(0 0.765625)"/>
       <use xlink:href="#DejaVuSans-30" transform="translate(63.623047 0.765625)"/>
       <use xlink:href="#DejaVuSans-32" transform="translate(128.203125 39.046875) scale(0.7)"/>
      </g>
     </g>
    </g>
    <g id="ytick_5">
     <g id="line2d_23">
      <path d="M 55.344554 118.622772 
L 565.2 118.622772 
" clip-path="url(#p9dbdf4b5d5)" style="fill: none; stroke: #b0b0b0; stroke-width: 0.8; stroke-linecap: square"/>
     </g>
     <g id="line2d_24">
      <g>
       <use xlink:href="#m9ff61ee950" x="55.344554" y="118.622772" style="stroke: #000000; stroke-width: 0.8"/>
      </g>
     </g>
     <g id="text_13">
      <!-- $\mathdefault{10^{5}}$ -->
      <g transform="translate(30.744554 122.42199) scale(0.1 -0.1)">
       <use xlink:href="#DejaVuSans-31" transform="translate(0 0.684375)"/>
       <use xlink:href="#DejaVuSans-30" transform="translate(63.623047 0.684375)"/>
       <use xlink:href="#DejaVuSans-35" transform="translate(128.203125 38.965625) scale(0.7)"/>
      </g>
     </g>
    </g>
    <g id="ytick_6">
     <g id="line2d_25">
      <path d="M 55.344554 62.327221 
L 565.2 62.327221 
" clip-path="url(#p9dbdf4b5d5)" style="fill: none; stroke: #b0b0b0; stroke-width: 0.8; stroke-linecap: square"/>
     </g>
     <g id="line2d_26">
      <g>
       <use xlink:href="#m9ff61ee950" x="55.344554" y="62.327221" style="stroke: #000000; stroke-width: 0.8"/>
      </g>
     </g>
     <g id="text_14">
      <!-- $\mathdefault{10^{8}}$ -->
      <g transform="translate(30.744554 66.12644) scale(0.1 -0.1)">
       <defs>
        <path id="DejaVuSans-38" d="M 2034 2216 
Q 1584 2216 1326 1975 
Q 1069 1734 1069 1313 
Q 1069 891 1326 650 
Q 1584 409 2034 409 
Q 2484 409 2743 651 
Q 3003 894 3003 1313 
Q 3003 1734 2745 1975 
Q 2488 2216 2034 2216 
z
M 1403 2484 
Q 997 2584 770 2862 
Q 544 3141 544 3541 
Q 544 4100 942 4425 
Q 1341 4750 2034 4750 
Q 2731 4750 3128 4425 
Q 3525 4100 3525 3541 
Q 3525 3141 3298 2862 
Q 3072 2584 2669 2484 
Q 3125 2378 3379 2068 
Q 3634 1759 3634 1313 
Q 3634 634 3220 271 
Q 2806 -91 2034 -91 
Q 1263 -91 848 271 
Q 434 634 434 1313 
Q 434 1759 690 2068 
Q 947 2378 1403 2484 
z
M 1172 3481 
Q 1172 3119 1398 2916 
Q 1625 2713 2034 2713 
Q 2441 2713 2670 2916 
Q 2900 3119 2900 3481 
Q 2900 3844 2670 4047 
Q 2441 4250 2034 4250 
Q 1625 4250 1398 4047 
Q 1172 3844 1172 3481 
z
" transform="scale(0.015625)"/>
       </defs>
       <use xlink:href="#DejaVuSans-31" transform="translate(0 0.765625)"/>
       <use xlink:href="#DejaVuSans-30" transform="translate(63.623047 0.765625)"/>
       <use xlink:href="#DejaVuSans-38" transform="translate(128.203125 39.046875) scale(0.7)"/>
      </g>
     </g>
    </g>
    <g id="text_15">
     <!-- Residual -->
     <g transform="translate(18.764866 229.215625) rotate(-90) scale(0.1 -0.1)">
      <defs>
       <path id="DejaVuSans-52" d="M 2841 2188 
Q 3044 2119 3236 1894 
Q 3428 1669 3622 1275 
L 4263 0 
L 3584 0 
L 2988 1197 
Q 2756 1666 2539 1819 
Q 2322 1972 1947 1972 
L 1259 1972 
L 1259 0 
L 628 0 
L 628 4666 
L 2053 4666 
Q 2853 4666 3247 4331 
Q 3641 3997 3641 3322 
Q 3641 2881 3436 2590 
Q 3231 2300 2841 2188 
z
M 1259 4147 
L 1259 2491 
L 2053 2491 
Q 2509 2491 2742 2702 
Q 2975 2913 2975 3322 
Q 2975 3731 2742 3939 
Q 2509 4147 2053 4147 
L 1259 4147 
z
" transform="scale(0.015625)"/>
       <path id="DejaVuSans-73" d="M 2834 3397 
L 2834 2853 
Q 2591 2978 2328 3040 
Q 2066 3103 1784 3103 
Q 1356 3103 1142 2972 
Q 928 2841 928 2578 
Q 928 2378 1081 2264 
Q 1234 2150 1697 2047 
L 1894 2003 
Q 2506 1872 2764 1633 
Q 3022 1394 3022 966 
Q 3022 478 2636 193 
Q 2250 -91 1575 -91 
Q 1294 -91 989 -36 
Q 684 19 347 128 
L 347 722 
Q 666 556 975 473 
Q 1284 391 1588 391 
Q 1994 391 2212 530 
Q 2431 669 2431 922 
Q 2431 1156 2273 1281 
Q 2116 1406 1581 1522 
L 1381 1569 
Q 847 1681 609 1914 
Q 372 2147 372 2553 
Q 372 3047 722 3315 
Q 1072 3584 1716 3584 
Q 2034 3584 2315 3537 
Q 2597 3491 2834 3397 
z
" transform="scale(0.015625)"/>
       <path id="DejaVuSans-64" d="M 2906 2969 
L 2906 4863 
L 3481 4863 
L 3481 0 
L 2906 0 
L 2906 525 
Q 2725 213 2448 61 
Q 2172 -91 1784 -91 
Q 1150 -91 751 415 
Q 353 922 353 1747 
Q 353 2572 751 3078 
Q 1150 3584 1784 3584 
Q 2172 3584 2448 3432 
Q 2725 3281 2906 2969 
z
M 947 1747 
Q 947 1113 1208 752 
Q 1469 391 1925 391 
Q 2381 391 2643 752 
Q 2906 1113 2906 1747 
Q 2906 2381 2643 2742 
Q 2381 3103 1925 3103 
Q 1469 3103 1208 2742 
Q 947 2381 947 1747 
z
" transform="scale(0.015625)"/>
       <path id="DejaVuSans-75" d="M 544 1381 
L 544 3500 
L 1119 3500 
L 1119 1403 
Q 1119 906 1312 657 
Q 1506 409 1894 409 
Q 2359 409 2629 706 
Q 2900 1003 2900 1516 
L 2900 3500 
L 3475 3500 
L 3475 0 
L 2900 0 
L 2900 538 
Q 2691 219 2414 64 
Q 2138 -91 1772 -91 
Q 1169 -91 856 284 
Q 544 659 544 1381 
z
M 1991 3584 
L 1991 3584 
z
" transform="scale(0.015625)"/>
       <path id="DejaVuSans-6c" d="M 603 4863 
L 1178 4863 
L 1178 0 
L 603 0 
L 603 4863 
z
" transform="scale(0.015625)"/>
      </defs>
      <use xlink:href="#DejaVuSans-52"/>
      <use xlink:href="#DejaVuSans-65" transform="translate(64.982422 0)"/>
      <use xlink:href="#DejaVuSans-73" transform="translate(126.505859 0)"/>
      <use xlink:href="#DejaVuSans-69" transform="translate(178.605469 0)"/>
      <use xlink:href="#DejaVuSans-64" transform="translate(206.388672 0)"/>
      <use xlink:href="#DejaVuSans-75" transform="translate(269.865234 0)"/>
      <use xlink:href="#DejaVuSans-61" transform="translate(333.244141 0)"/>
      <use xlink:href="#DejaVuSans-6c" transform="translate(394.523438 0)"/>
     </g>
    </g>
   </g>
   <g id="line2d_27">
    <path d="M 78.519801 108.192387 
L 78.679136 165.958243 
L 79.099201 191.985535 
L 82.300382 367.266354 
L 82.314867 366.919013 
L 82.343837 368.293009 
L 82.358322 368.282406 
L 82.517657 371.679316 
L 82.532142 371.481988 
L 82.546627 371.044944 
L 82.590082 372.27151 
L 82.619051 371.944011 
L 82.691476 373.104914 
L 82.749416 372.940216 
L 82.763901 372.659302 
L 82.792871 373.373006 
L 82.821841 373.304469 
L 82.952206 373.499805 
L 93.251029 373.5 
L 542.024752 373.5 
L 542.024752 373.5 
" clip-path="url(#p9dbdf4b5d5)" style="fill: none; stroke: #1f77b4; stroke-width: 1.5; stroke-linecap: square"/>
   </g>
   <g id="line2d_28">
    <path d="M 78.519801 70.728649 
L 78.679136 136.014994 
L 78.925381 148.33934 
L 79.301991 156.414431 
L 79.808965 162.601342 
L 80.576669 169.042186 
L 82.068622 179.384253 
L 85.950597 204.306749 
L 103.013907 312.034813 
L 103.173241 312.984076 
L 104.07131 318.105084 
L 106.041268 327.379694 
L 106.055753 327.335715 
L 106.070238 327.569061 
L 106.316483 328.364479 
L 106.330968 328.267995 
L 106.374423 328.51102 
L 106.548242 329.170262 
L 106.577212 329.078651 
L 106.591697 329.199064 
L 106.606182 329.012538 
L 106.649637 329.677951 
L 106.678607 329.371706 
L 106.808972 330.014571 
L 106.823457 329.990643 
L 106.837942 330.000941 
L 106.910367 330.272165 
L 106.953822 330.245723 
L 106.968307 330.163993 
L 106.997277 330.540997 
L 107.055217 330.373315 
L 107.127642 330.851124 
L 107.156612 330.65849 
L 107.200067 330.989052 
L 107.214552 330.885725 
L 107.315946 331.638183 
L 107.344916 331.533149 
L 107.359401 331.49638 
L 107.388371 331.69129 
L 107.504251 331.939769 
L 107.431826 331.382899 
L 107.518736 331.883554 
L 107.721526 332.532905 
L 107.547706 331.689394 
L 107.736011 332.510355 
L 107.750496 332.309088 
L 107.822921 332.729147 
L 107.837406 332.749795 
L 107.909831 332.420139 
L 107.953286 332.430439 
L 108.08365 333.046975 
L 108.011226 332.397989 
L 108.127105 332.83651 
L 108.156075 332.576104 
L 108.185045 332.982193 
L 108.214015 332.907491 
L 108.34438 333.443472 
L 108.37335 333.198419 
L 108.445775 333.063744 
L 108.416805 333.316532 
L 108.48923 333.136686 
L 108.590625 333.426516 
L 108.5182 333.128633 
L 108.60511 333.392657 
L 108.63408 333.242106 
L 108.648565 333.53197 
L 108.706505 333.458347 
L 108.72099 333.394052 
L 108.764445 333.672823 
L 108.822385 333.458392 
L 108.851355 333.686436 
L 109.010689 334.03366 
L 108.894809 333.668137 
L 109.025174 333.995045 
L 109.068629 333.882067 
L 109.054144 334.075747 
L 109.112084 333.921202 
L 109.227964 334.126358 
L 109.271419 334.363159 
L 109.358329 333.842511 
L 109.416269 333.978716 
L 109.445239 333.780256 
L 109.474209 333.910966 
L 109.488694 333.917843 
L 109.517664 334.219568 
L 109.590089 334.050631 
L 109.619059 333.83571 
L 109.676999 334.135049 
L 109.763908 334.339571 
L 109.792878 334.33361 
L 109.865303 334.167835 
L 109.894273 334.316551 
L 109.908758 334.356376 
L 109.923243 334.219186 
L 109.995668 334.315221 
L 110.010153 334.25919 
L 110.053608 334.389004 
L 110.097063 334.360289 
L 110.126033 334.477757 
L 110.198458 334.445586 
L 110.285368 334.326629 
L 110.314338 334.416737 
L 110.328823 334.455616 
L 110.386763 334.376663 
L 110.401248 334.376042 
L 110.430218 334.323437 
L 110.502643 334.370765 
L 110.517128 334.448316 
L 110.575067 334.339854 
L 110.618522 334.423847 
L 110.748887 334.358066 
L 110.777857 334.3296 
L 110.893737 334.508354 
L 110.908222 334.344404 
L 110.995132 334.616993 
L 111.096527 334.767806 
L 111.154467 334.855831 
L 111.212407 334.819782 
L 111.458651 334.868774 
L 111.531076 334.955045 
L 111.589016 334.932945 
L 112.110476 334.93074 
L 112.26981 334.932625 
L 249.732293 334.932727 
L 542.024752 334.932727 
L 542.024752 334.932727 
" clip-path="url(#p9dbdf4b5d5)" style="fill: none; stroke: #ff7f0e; stroke-width: 1.5; stroke-linecap: square"/>
   </g>
   <g id="line2d_29">
    <path d="M 78.519801 53.726274 
L 78.679136 121.939362 
L 78.925381 135.251037 
L 79.301991 143.724521 
L 79.79448 149.906086 
L 80.388364 154.670696 
L 81.098128 158.62708 
L 81.967227 162.212651 
L 83.097056 165.900767 
L 84.733859 170.439132 
L 87.341156 176.959306 
L 91.86047 187.592645 
L 102.463477 211.849284 
L 134.707048 285.127786 
L 135.416812 286.698652 
L 135.923787 287.842795 
L 136.358336 288.804092 
L 136.734946 289.640202 
L 136.95222 290.100205 
L 137.285375 290.833833 
L 138.980118 294.510746 
L 143.731192 304.164629 
L 143.745677 304.128668 
L 143.774647 304.242217 
L 143.789132 304.238636 
L 144.035377 304.72852 
L 144.209197 304.994896 
L 144.354046 305.253424 
L 144.672716 305.821237 
L 144.687201 305.758253 
L 144.730656 305.961859 
L 144.745141 305.931644 
L 144.933446 306.325362 
L 144.962416 306.300165 
L 145.005871 306.409074 
L 145.020356 306.372629 
L 145.165205 306.683709 
L 145.194175 306.769151 
L 145.425935 307.112384 
L 145.44042 307.080278 
L 145.483875 307.240094 
L 145.49836 307.180605 
L 145.64321 307.5124 
L 145.686665 307.446486 
L 145.715635 307.629969 
L 145.73012 307.584668 
L 145.846 307.809824 
L 145.874969 307.76189 
L 145.889454 307.755572 
L 146.034304 308.083254 
L 146.077759 308.030994 
L 146.295034 308.459159 
L 146.439884 308.71437 
L 146.454369 308.649699 
L 146.512309 308.78664 
L 146.526794 308.776407 
L 146.700613 309.182556 
L 146.715098 309.092902 
L 146.787523 309.321487 
L 146.802008 309.215272 
L 146.961343 309.583953 
L 146.975828 309.44179 
L 147.033768 309.710883 
L 147.048253 309.660216 
L 147.366923 310.185745 
L 147.091708 309.570624 
L 147.381408 310.162232 
L 147.395893 310.0557 
L 147.439348 310.27048 
L 147.482803 310.213319 
L 147.540742 310.243075 
L 147.656622 310.607519 
L 147.700077 310.578363 
L 147.714562 310.450251 
L 147.758017 310.662442 
L 147.801472 310.642273 
L 147.815957 310.632673 
L 147.830442 310.667469 
L 147.960807 310.873888 
L 148.004262 311.026797 
L 148.033232 310.877821 
L 148.163597 311.106553 
L 148.207052 311.059794 
L 148.453296 311.640934 
L 148.467781 311.355536 
L 148.569176 311.536175 
L 148.699541 311.87818 
L 148.728511 311.781206 
L 148.742996 311.916917 
L 148.757481 311.735473 
L 148.786451 311.938963 
L 148.844391 311.93923 
L 148.989241 312.268553 
L 149.032696 312.171206 
L 149.047181 312.297865 
L 149.090636 312.1974 
L 149.134091 312.477372 
L 149.221 312.39401 
L 149.24997 312.30198 
L 149.293425 312.460818 
L 149.33688 312.621564 
L 149.42379 312.558831 
L 149.438275 312.46627 
L 149.48173 312.708337 
L 149.5107 312.693923 
L 149.53967 312.811502 
L 149.56864 312.596738 
L 149.59761 312.656804 
L 149.62658 312.477823 
L 149.670035 312.886719 
L 149.68452 312.786697 
L 149.814885 313.07467 
L 149.82937 312.950166 
L 149.901795 313.209987 
L 149.91628 313.13094 
L 149.94525 313.219004 
L 149.959735 313.165455 
L 150.046644 313.306244 
L 150.075614 313.180155 
L 150.090099 313.152584 
L 150.104584 313.323902 
L 150.119069 313.329696 
L 150.220464 313.531032 
L 150.148039 313.31652 
L 150.263919 313.417917 
L 150.278404 313.384382 
L 150.336344 313.435994 
L 150.365314 313.341309 
L 150.495679 313.746948 
L 150.568104 313.607985 
L 150.626044 313.692743 
L 150.756409 313.803172 
L 150.770894 313.67179 
L 150.843318 313.956705 
L 150.886773 313.87039 
L 150.872288 314.03981 
L 150.901258 313.956765 
L 150.915743 313.761251 
L 150.959198 314.017029 
L 151.002653 313.881605 
L 151.089563 314.03019 
L 151.118533 313.959649 
L 151.379263 314.354337 
L 151.393748 314.302205 
L 151.466173 314.259464 
L 151.495143 314.283928 
L 151.639992 314.605471 
L 151.654477 314.431591 
L 151.683447 314.616854 
L 151.726902 314.574939 
L 151.741387 314.79083 
L 151.799327 314.528324 
L 151.842782 314.771176 
L 151.871752 314.68186 
L 151.929692 314.752375 
L 152.060057 315.142326 
L 152.074542 314.917263 
L 152.161452 315.035703 
L 152.190422 314.989571 
L 152.291817 315.234527 
L 152.306302 315.105604 
L 152.335272 315.306619 
L 152.378727 315.231629 
L 152.480121 315.384239 
L 152.422182 315.14792 
L 152.494606 315.338745 
L 152.552546 315.174376 
L 152.523576 315.354831 
L 152.624971 315.27563 
L 152.653941 315.222133 
L 152.668426 315.413577 
L 152.697396 315.522545 
L 152.784306 315.446908 
L 152.798791 315.455609 
L 152.900186 315.707769 
L 152.929156 315.661689 
L 152.943641 315.542598 
L 153.001581 315.687145 
L 153.045036 315.562542 
L 153.102976 315.742894 
L 153.117461 315.888354 
L 153.204371 315.665428 
L 153.218856 315.634242 
L 153.233341 315.819845 
L 153.247826 315.823261 
L 153.479585 315.578375 
L 153.508555 315.67538 
L 153.58098 315.906754 
L 153.624435 315.873102 
L 153.78377 315.873203 
L 153.798255 315.753858 
L 153.89965 315.821587 
L 154.01553 316.006986 
L 153.95759 315.749735 
L 154.0445 315.978671 
L 154.131409 316.067643 
L 154.160379 316.190943 
L 154.232804 316.102859 
L 154.261774 316.016281 
L 154.290744 316.148145 
L 154.348684 316.220705 
L 154.334199 316.013722 
L 154.377654 316.072198 
L 154.392139 316.033701 
L 154.435594 316.094391 
L 154.508019 316.065685 
L 154.565959 316.25403 
L 154.609414 316.127421 
L 154.652869 316.327622 
L 154.667354 316.320921 
L 154.681839 316.153128 
L 154.725294 316.359479 
L 154.783234 316.174122 
L 155.000508 316.374066 
L 155.087418 316.441536 
L 155.116388 316.314945 
L 155.130873 316.307701 
L 155.217783 316.609414 
L 155.159843 316.271181 
L 155.261238 316.544923 
L 155.290208 316.556598 
L 155.304693 316.42979 
L 155.406088 316.503956 
L 155.420573 316.514696 
L 155.435058 316.443625 
L 155.464028 316.438937 
L 155.492998 316.242172 
L 155.565423 316.438983 
L 155.666818 316.619241 
L 155.710273 316.5189 
L 155.753727 316.444511 
L 155.855122 316.705226 
L 155.913062 316.633387 
L 155.942032 316.836894 
L 155.999972 316.542077 
L 156.057912 316.724702 
L 156.101367 316.536101 
L 156.159307 316.771369 
L 156.318642 317.113507 
L 156.188277 316.737155 
L 156.347612 317.017375 
L 156.362097 316.877643 
L 156.449007 317.046929 
L 156.550402 317.232965 
L 156.477977 317.000953 
L 156.593856 317.163406 
L 156.608341 316.946134 
L 156.695251 317.148062 
L 156.811131 317.065351 
L 156.753191 317.20971 
L 156.825616 317.115547 
L 156.869071 317.163752 
L 156.898041 317.082367 
L 156.941496 317.12997 
L 157.071861 317.020853 
L 157.013921 317.160654 
L 157.086346 317.045294 
L 157.216711 317.096088 
L 157.245681 317.12972 
L 157.332591 316.993803 
L 157.39053 317.101091 
L 157.376046 316.94817 
L 157.4195 317.057027 
L 157.433985 316.911621 
L 157.50641 317.105561 
L 157.520895 317.053921 
L 157.53538 317.15511 
L 157.56435 316.907444 
L 157.607805 317.06203 
L 157.62229 316.948302 
L 157.723685 316.98369 
L 157.76714 316.850683 
L 157.839565 316.903893 
L 157.94096 317.053333 
L 157.955445 317.02163 
L 157.96993 316.952272 
L 158.013385 317.131113 
L 158.02787 317.103236 
L 158.05684 317.30547 
L 158.14375 317.160249 
L 158.288599 317.373638 
L 158.332054 317.360267 
L 158.317569 317.39532 
L 158.389994 317.416303 
L 158.433449 317.346809 
L 158.447934 317.267935 
L 158.534844 317.334457 
L 158.896969 317.523748 
L 158.563814 317.27749 
L 158.925939 317.469214 
L 159.027333 317.392877 
L 159.041818 317.426953 
L 159.317033 317.636131 
L 159.389458 317.530842 
L 159.447398 317.614288 
L 159.606733 317.608275 
L 159.621218 317.661257 
L 159.679158 317.585603 
L 159.693643 317.486597 
L 159.766068 317.624228 
L 159.780553 317.589226 
L 159.852977 317.417871 
L 159.954372 317.564153 
L 159.997827 317.634152 
L 160.070252 317.564963 
L 160.186132 317.589192 
L 160.113707 317.505623 
L 160.200617 317.574628 
L 160.258557 317.513731 
L 160.302012 317.619889 
L 160.635167 317.500246 
L 160.649652 317.559797 
L 160.808986 317.635502 
L 161.388386 317.434757 
L 161.504265 317.401069 
L 161.51875 317.430123 
L 161.649115 317.505419 
L 161.678085 317.470151 
L 161.707055 317.528495 
L 161.822935 317.4382 
L 163.865318 317.442356 
L 165.096541 317.437228 
L 542.024752 317.437228 
L 542.024752 317.437228 
" clip-path="url(#p9dbdf4b5d5)" style="fill: none; stroke: #2ca02c; stroke-width: 1.5; stroke-linecap: square"/>
   </g>
   <g id="line2d_30">
    <path d="M 78.519801 42.7 
L 78.679136 112.617042 
L 78.925381 126.715263 
L 79.287506 135.232204 
L 79.76551 141.394544 
L 80.359394 146.192762 
L 81.069158 150.157602 
L 81.909287 153.605383 
L 82.865296 156.608902 
L 83.98064 159.383053 
L 85.298773 162.059571 
L 86.935576 164.865441 
L 89.093839 168.100682 
L 92.06326 172.129318 
L 96.321845 177.51325 
L 103.042877 185.612582 
L 115.514446 200.23519 
L 161.185596 253.291982 
L 161.851905 254.061818 
L 164.155017 256.733299 
L 165.082056 257.8057 
L 167.080984 260.122516 
L 170.644289 264.239001 
L 171.122294 264.793194 
L 175.815428 270.204694 
L 176.467252 270.947566 
L 176.785922 271.314754 
L 177.191501 271.777508 
L 177.959205 272.663784 
L 178.0606 272.772508 
L 178.987639 273.834772 
L 179.697403 274.641623 
L 180.725837 275.814958 
L 180.914142 276.018764 
L 181.392146 276.573089 
L 181.522511 276.711052 
L 182.087425 277.361536 
L 182.18882 277.463282 
L 182.521975 277.845027 
L 182.65234 277.986897 
L 183.159314 278.553015 
L 184.289143 279.832857 
L 184.390538 279.934733 
L 184.781632 280.374484 
L 185.129272 280.760415 
L 185.303092 280.966438 
L 185.636246 281.316216 
L 185.810066 281.514184 
L 186.28807 282.058568 
L 186.389465 282.145841 
L 186.75159 282.545289 
L 186.95438 282.779827 
L 195.181849 291.410709 
L 195.196334 291.382358 
L 195.254274 291.461814 
L 195.413609 291.621381 
L 195.515004 291.719152 
L 195.732279 291.951436 
L 195.935069 292.173095 
L 195.964039 292.148621 
L 196.021978 292.235348 
L 196.224768 292.432467 
L 196.528953 292.695176 
L 196.644833 292.857607 
L 196.673803 292.850703 
L 196.702773 292.89396 
L 196.746228 292.907771 
L 196.949017 293.117316 
L 196.963502 293.084652 
L 197.021442 293.197134 
L 197.137322 293.280072 
L 197.369082 293.531969 
L 197.383567 293.496656 
L 197.455992 293.586937 
L 197.702236 293.80796 
L 197.803631 293.885355 
L 197.948481 294.047757 
L 198.165756 294.258904 
L 198.209211 294.219179 
L 198.238181 294.315035 
L 198.267151 294.302104 
L 199.13625 295.098803 
L 199.150735 295.08245 
L 199.179705 295.140331 
L 199.22316 295.163998 
L 199.266615 295.133576 
L 199.353524 295.268912 
L 199.454919 295.267486 
L 199.599769 295.489214 
L 199.701164 295.552967 
L 199.846014 295.675025 
L 200.092259 295.872656 
L 200.135713 295.959847 
L 200.613718 296.350701 
L 200.628203 296.311581 
L 200.642688 296.434936 
L 200.700628 296.392554 
L 200.845478 296.591861 
L 200.859963 296.546568 
L 200.932388 296.649396 
L 200.946872 296.617885 
L 201.106207 296.747267 
L 201.120692 296.719265 
L 201.149662 296.80172 
L 201.178632 296.805323 
L 201.352452 297.00071 
L 201.381422 296.975721 
L 201.424877 296.966453 
L 201.453847 297.020131 
L 201.627667 297.224965 
L 201.642152 297.147244 
L 201.714577 297.287706 
L 201.758031 297.233294 
L 201.888396 297.408847 
L 201.902881 297.341475 
L 201.989791 297.46041 
L 202.120156 297.620602 
L 202.192581 297.578149 
L 202.221551 297.644068 
L 202.308461 297.676116 
L 202.453311 297.851853 
L 202.467796 297.7767 
L 203.11962 298.298604 
L 203.134105 298.263748 
L 203.163075 298.371017 
L 203.192045 298.320974 
L 203.32241 298.455116 
L 203.467259 298.626197 
L 203.481744 298.598967 
L 203.597624 298.654161 
L 203.641079 298.78217 
L 203.713504 298.732045 
L 203.829384 298.789214 
L 203.945264 298.97258 
L 203.872839 298.77612 
L 203.974234 298.957853 
L 203.988719 298.894651 
L 204.017689 299.044082 
L 204.061144 299.005569 
L 204.220478 299.205306 
L 204.321873 299.128563 
L 204.292903 299.22737 
L 204.336358 299.180548 
L 204.394298 299.187988 
L 204.524663 299.382556 
L 204.568118 299.275738 
L 204.626058 299.352733 
L 204.770908 299.527551 
L 204.901273 299.589031 
L 205.017153 299.735086 
L 205.075092 299.661568 
L 205.133032 299.724722 
L 205.190972 299.749371 
L 205.234427 299.712724 
L 205.321337 299.890517 
L 205.437217 299.938906 
L 205.364792 299.840726 
L 205.451702 299.896961 
L 205.466187 299.820962 
L 205.509642 300.006132 
L 205.538612 299.97599 
L 205.987646 300.315549 
L 206.031101 300.270888 
L 206.175951 300.478591 
L 206.277346 300.348485 
L 206.291831 300.432398 
L 207.653419 301.32756 
L 207.682389 301.2614 
L 207.798269 301.444805 
L 207.841724 301.378805 
L 207.827239 301.495126 
L 207.885179 301.45105 
L 207.986574 301.532566 
L 208.001059 301.489496 
L 208.044514 301.413064 
L 208.073484 301.542852 
L 208.102454 301.506962 
L 208.232819 301.612005 
L 208.580458 301.837691 
L 208.594943 301.77374 
L 208.652883 301.897417 
L 208.710823 301.737783 
L 208.855673 301.898102 
L 208.884643 301.859003 
L 208.928098 301.947169 
L 208.942583 301.982865 
L 208.957068 301.903481 
L 209.000523 301.948706 
L 209.015008 301.828027 
L 209.029493 301.997635 
L 209.101918 301.923592 
L 209.232282 302.093878 
L 209.319192 301.936787 
L 209.348162 302.074055 
L 209.362647 302.03145 
L 209.377132 302.105119 
L 209.420587 302.109997 
L 209.449557 302.259667 
L 209.536467 302.212067 
L 209.594407 302.345197 
L 209.608892 302.231468 
L 209.623377 302.115211 
L 209.666832 302.330138 
L 209.695802 302.258763 
L 209.753742 302.383308 
L 209.811682 302.32496 
L 210.115866 302.644119 
L 210.130351 302.598406 
L 210.144836 302.547068 
L 210.202776 302.671321 
L 210.217261 302.768712 
L 210.260716 302.637084 
L 210.304171 302.638249 
L 210.362111 302.701239 
L 210.376596 302.768513 
L 210.405566 302.66031 
L 210.477991 302.719303 
L 210.709751 302.808896 
L 210.79666 302.728976 
L 210.811145 302.868202 
L 210.88357 302.780879 
L 210.8546 302.896696 
L 210.927025 302.840373 
L 211.013935 302.862672 
L 210.955995 302.911428 
L 211.02842 302.906657 
L 211.129815 303.045665 
L 211.20224 302.879646 
L 211.245695 302.984131 
L 211.26018 302.978907 
L 211.274665 303.019341 
L 211.31812 303.212131 
L 211.390545 303.153003 
L 211.448485 303.203452 
L 211.49194 303.092421 
L 211.57885 303.325587 
L 211.593335 303.163793 
L 211.694729 303.178148 
L 211.781639 303.216174 
L 211.796124 303.185434 
L 211.810609 303.142722 
L 211.868549 303.255372 
L 211.955459 303.366982 
L 211.912004 303.181726 
L 211.984429 303.296142 
L 212.013399 303.167833 
L 212.085824 303.341822 
L 212.143764 303.293547 
L 212.245159 303.485651 
L 212.288614 303.367343 
L 212.361039 303.407203 
L 212.433464 303.328181 
L 212.505888 303.50791 
L 212.636253 303.432782 
L 212.752133 303.662342 
L 212.882498 303.498459 
L 213.027348 303.722137 
L 213.099773 303.668095 
L 213.056318 303.7865 
L 213.157713 303.710635 
L 213.172198 303.880546 
L 213.273592 303.785927 
L 213.389472 303.929634 
L 213.403957 303.861574 
L 213.490867 303.82635 
L 213.505352 303.737644 
L 213.519837 303.890781 
L 213.606747 303.773143 
L 213.766082 304.011261 
L 213.809537 303.92761 
L 213.867477 304.036564 
L 213.925417 303.867991 
L 213.997842 304.043336 
L 214.157176 304.157321 
L 214.200631 304.075533 
L 214.229601 304.194211 
L 214.273056 304.163722 
L 214.287541 304.205554 
L 214.316511 304.01575 
L 214.374451 304.163201 
L 214.475846 304.013286 
L 214.417906 304.194336 
L 214.504816 304.047887 
L 214.548271 304.217636 
L 214.620696 304.089987 
L 214.780031 304.445124 
L 214.895911 304.248775 
L 214.98282 304.443136 
L 215.026275 304.408062 
L 215.084215 304.476731 
L 215.15664 304.327771 
L 215.171125 304.416804 
L 215.24355 304.255901 
L 215.258035 304.39237 
L 215.287005 304.436729 
L 215.373915 304.298747 
L 215.44634 304.598611 
L 215.489795 304.400342 
L 215.518765 304.498085 
L 215.605675 304.574753 
L 215.547735 304.486195 
L 215.62016 304.479749 
L 215.6781 304.376505 
L 215.70707 304.491206 
L 215.822949 304.580689 
L 215.895374 304.426466 
L 215.924344 304.572555 
L 215.953314 304.533552 
L 216.112649 304.746079 
L 216.257499 304.800694 
L 216.271984 304.762818 
L 216.286469 304.635797 
L 216.387864 304.678896 
L 216.416834 304.646786 
L 216.445804 304.762922 
L 216.460289 304.738264 
L 216.590653 304.850306 
L 216.619623 304.711752 
L 216.663078 304.859287 
L 216.692048 304.797242 
L 216.822413 304.988817 
L 216.851383 304.892033 
L 216.923808 304.936663 
L 217.242478 304.967719 
L 217.343873 304.914399 
L 217.372842 305.065156 
L 217.459752 305.010046 
L 217.474237 304.938615 
L 217.532177 305.07228 
L 217.546662 305.053357 
L 217.575632 305.123533 
L 217.662542 305.059983 
L 217.691512 304.987417 
L 217.778422 305.026749 
L 217.952242 305.190397 
L 217.981212 305.142608 
L 218.024667 305.031515 
L 218.053637 305.203073 
L 218.097092 305.104928 
L 218.126062 305.212813 
L 218.198486 305.081502 
L 218.212971 305.158445 
L 218.314366 305.291765 
L 218.357821 305.21293 
L 218.459216 305.068392 
L 218.473701 305.14709 
L 218.589581 305.314944 
L 218.604066 305.265778 
L 218.618551 305.212373 
L 218.690976 305.326611 
L 218.893766 305.299005 
L 218.980676 305.214775 
L 218.951706 305.318169 
L 218.995161 305.275656 
L 219.125525 305.365544 
L 219.19795 305.312145 
L 219.241405 305.470887 
L 219.25589 305.426917 
L 219.31383 305.595807 
L 219.328315 305.478827 
L 219.3428 305.530329 
L 219.40074 305.327061 
L 219.42971 305.454983 
L 219.444195 305.412475 
L 219.45868 305.506836 
L 219.51662 305.503299 
L 219.675955 305.610346 
L 219.69044 305.593527 
L 219.820805 305.5549 
L 219.922199 305.675363 
L 219.936684 305.729021 
L 219.980139 305.636262 
L 220.038079 305.68378 
L 220.052564 305.613008 
L 220.139474 305.721266 
L 220.153959 305.651876 
L 220.487114 305.657957 
L 220.559539 305.756544 
L 220.588509 305.62371 
L 220.602994 305.692109 
L 220.646449 305.630966 
L 220.689903 305.760159 
L 220.820268 305.756219 
L 220.834753 305.865415 
L 220.892693 305.728958 
L 220.921663 305.72717 
L 221.095483 305.74136 
L 221.153423 305.595625 
L 221.211363 305.633806 
L 221.225848 305.755652 
L 221.283788 305.602756 
L 221.327243 305.717549 
L 221.631427 305.850929 
L 221.674882 305.875102 
L 221.689367 305.81241 
L 221.703852 305.709945 
L 221.776277 305.8548 
L 221.805247 305.728068 
L 222.138402 305.853675 
L 222.181857 305.803295 
L 222.210827 305.879566 
L 222.225312 305.964695 
L 222.268767 305.82946 
L 222.312221 305.843201 
L 222.486041 305.95021 
L 222.500526 305.985366 
L 222.558466 305.874005 
L 222.703316 305.82266 
L 222.717801 305.935436 
L 222.746771 305.808404 
L 222.819196 305.919093 
L 222.920591 305.786686 
L 222.964046 305.820902 
L 223.079926 305.910668 
L 223.094411 305.888645 
L 223.224775 306.044468 
L 223.23926 306.018977 
L 223.26823 305.981963 
L 223.2972 306.067218 
L 223.311685 306.03401 
L 223.35514 306.10733 
L 223.427565 306.072874 
L 223.47102 306.144956 
L 223.630355 306.000755 
L 223.746235 306.133367 
L 223.76072 306.124243 
L 223.977994 306.089974 
L 224.079389 306.041803 
L 224.122844 306.136664 
L 224.166299 306.002787 
L 224.180784 306.021789 
L 224.311149 306.198078 
L 224.340119 306.159411 
L 224.412544 306.010894 
L 224.455999 306.072571 
L 224.528424 306.102109 
L 224.499454 306.020828 
L 224.557394 306.034238 
L 224.600849 305.961039 
L 224.629819 306.078491 
L 224.644304 306.039755 
L 224.731214 305.97342 
L 224.774668 306.150522 
L 224.948488 306.13294 
L 224.962973 306.249329 
L 225.049883 306.098599 
L 225.165763 306.18406 
L 225.180248 306.162678 
L 225.209218 306.108494 
L 225.281643 306.206657 
L 225.397523 306.18944 
L 225.412008 306.130588 
L 225.455463 306.215235 
L 225.498918 306.198141 
L 225.745162 306.193202 
L 225.875527 306.284959 
L 225.933467 306.240569 
L 225.962437 306.272928 
L 226.078317 306.145497 
L 226.092802 306.187288 
L 226.179712 306.1481 
L 226.208682 306.209479 
L 226.411471 306.20371 
L 226.599776 306.383849 
L 226.614261 306.370815 
L 226.730141 306.387601 
L 226.744626 306.368333 
L 226.788081 306.422812 
L 226.860506 306.348627 
L 226.947416 306.43042 
L 226.990871 306.329017 
L 227.005356 306.28073 
L 227.019841 306.355009 
L 227.092266 306.355956 
L 227.135721 306.436617 
L 227.179176 306.324929 
L 227.30954 306.286048 
L 227.33851 306.344779 
L 227.410935 306.296168 
L 227.526815 306.361073 
L 227.642695 306.290008 
L 227.77306 306.424045 
L 227.961365 306.547103 
L 227.97585 306.50085 
L 228.091729 306.491447 
L 228.178639 306.558489 
L 228.207609 306.52752 
L 228.309004 306.418923 
L 228.352459 306.462244 
L 228.439369 306.425488 
L 228.468339 306.494519 
L 229.047738 306.553695 
L 229.105678 306.5053 
L 229.120163 306.462325 
L 229.134648 306.53722 
L 229.192588 306.492356 
L 229.279498 306.541027 
L 229.308468 306.508124 
L 229.337438 306.439785 
L 229.395378 306.533981 
L 229.482288 306.618995 
L 229.511258 306.600735 
L 229.641623 306.531726 
L 229.685078 306.501607 
L 229.786472 306.61678 
L 229.800957 306.537047 
L 229.873382 306.644413 
L 229.887867 306.621156 
L 230.018232 306.625933 
L 230.438297 306.685792 
L 230.525206 306.612279 
L 230.554176 306.695745 
L 230.742481 306.579342 
L 230.872846 306.605028 
L 230.887331 306.565509 
L 231.090121 306.61768 
L 231.104606 306.663264 
L 231.191516 306.630511 
L 231.292911 306.544698 
L 231.307396 306.571661 
L 231.770915 306.634766 
L 231.886795 306.662827 
L 232.060615 306.670135 
L 232.205464 306.665464 
L 232.379284 306.728636 
L 232.509649 306.719431 
L 232.813834 306.680406 
L 233.016623 306.717172 
L 233.190443 306.679796 
L 234.001602 306.646643 
L 234.421667 306.65487 
L 235.087976 306.654661 
L 235.580465 306.65898 
L 235.986045 306.640843 
L 236.695809 306.647546 
L 237.304178 306.545029 
L 237.463513 306.602423 
L 237.767698 306.615766 
L 238.086367 306.632737 
L 238.289157 306.624315 
L 239.89699 306.631844 
L 258.090128 306.632027 
L 542.024752 306.632027 
L 542.024752 306.632027 
" clip-path="url(#p9dbdf4b5d5)" style="fill: none; stroke: #d62728; stroke-width: 1.5; stroke-linecap: square"/>
   </g>
   <g id="patch_3">
    <path d="M 55.344554 390.04 
L 55.344554 26.16 
" style="fill: none; stroke: #000000; stroke-width: 0.8; stroke-linejoin: miter; stroke-linecap: square"/>
   </g>
   <g id="patch_4">
    <path d="M 565.2 390.04 
L 565.2 26.16 
" style="fill: none; stroke: #000000; stroke-width: 0.8; stroke-linejoin: miter; stroke-linecap: square"/>
   </g>
   <g id="patch_5">
    <path d="M 55.344554 390.04 
L 565.2 390.04 
" style="fill: none; stroke: #000000; stroke-width: 0.8; stroke-linejoin: miter; stroke-linecap: square"/>
   </g>
   <g id="patch_6">
    <path d="M 55.344554 26.16 
L 565.2 26.16 
" style="fill: none; stroke: #000000; stroke-width: 0.8; stroke-linejoin: miter; stroke-linecap: square"/>
   </g>
   <g id="text_16">
    <!-- Convergence of Residuals -->
    <g transform="translate(232.648214 20.16) scale(0.12 -0.12)">
     <defs>
      <path id="DejaVuSans-43" d="M 4122 4306 
L 4122 3641 
Q 3803 3938 3442 4084 
Q 3081 4231 2675 4231 
Q 1875 4231 1450 3742 
Q 1025 3253 1025 2328 
Q 1025 1406 1450 917 
Q 1875 428 2675 428 
Q 3081 428 3442 575 
Q 3803 722 4122 1019 
L 4122 359 
Q 3791 134 3420 21 
Q 3050 -91 2638 -91 
Q 1578 -91 968 557 
Q 359 1206 359 2328 
Q 359 3453 968 4101 
Q 1578 4750 2638 4750 
Q 3056 4750 3426 4639 
Q 3797 4528 4122 4306 
z
" transform="scale(0.015625)"/>
      <path id="DejaVuSans-76" d="M 191 3500 
L 800 3500 
L 1894 563 
L 2988 3500 
L 3597 3500 
L 2284 0 
L 1503 0 
L 191 3500 
z
" transform="scale(0.015625)"/>
      <path id="DejaVuSans-67" d="M 2906 1791 
Q 2906 2416 2648 2759 
Q 2391 3103 1925 3103 
Q 1463 3103 1205 2759 
Q 947 2416 947 1791 
Q 947 1169 1205 825 
Q 1463 481 1925 481 
Q 2391 481 2648 825 
Q 2906 1169 2906 1791 
z
M 3481 434 
Q 3481 -459 3084 -895 
Q 2688 -1331 1869 -1331 
Q 1566 -1331 1297 -1286 
Q 1028 -1241 775 -1147 
L 775 -588 
Q 1028 -725 1275 -790 
Q 1522 -856 1778 -856 
Q 2344 -856 2625 -561 
Q 2906 -266 2906 331 
L 2906 616 
Q 2728 306 2450 153 
Q 2172 0 1784 0 
Q 1141 0 747 490 
Q 353 981 353 1791 
Q 353 2603 747 3093 
Q 1141 3584 1784 3584 
Q 2172 3584 2450 3431 
Q 2728 3278 2906 2969 
L 2906 3500 
L 3481 3500 
L 3481 434 
z
" transform="scale(0.015625)"/>
      <path id="DejaVuSans-63" d="M 3122 3366 
L 3122 2828 
Q 2878 2963 2633 3030 
Q 2388 3097 2138 3097 
Q 1578 3097 1268 2742 
Q 959 2388 959 1747 
Q 959 1106 1268 751 
Q 1578 397 2138 397 
Q 2388 397 2633 464 
Q 2878 531 3122 666 
L 3122 134 
Q 2881 22 2623 -34 
Q 2366 -91 2075 -91 
Q 1284 -91 818 406 
Q 353 903 353 1747 
Q 353 2603 823 3093 
Q 1294 3584 2113 3584 
Q 2378 3584 2631 3529 
Q 2884 3475 3122 3366 
z
" transform="scale(0.015625)"/>
      <path id="DejaVuSans-20" transform="scale(0.015625)"/>
      <path id="DejaVuSans-66" d="M 2375 4863 
L 2375 4384 
L 1825 4384 
Q 1516 4384 1395 4259 
Q 1275 4134 1275 3809 
L 1275 3500 
L 2222 3500 
L 2222 3053 
L 1275 3053 
L 1275 0 
L 697 0 
L 697 3053 
L 147 3053 
L 147 3500 
L 697 3500 
L 697 3744 
Q 697 4328 969 4595 
Q 1241 4863 1831 4863 
L 2375 4863 
z
" transform="scale(0.015625)"/>
     </defs>
     <use xlink:href="#DejaVuSans-43"/>
     <use xlink:href="#DejaVuSans-6f" transform="translate(69.824219 0)"/>
     <use xlink:href="#DejaVuSans-6e" transform="translate(131.005859 0)"/>
     <use xlink:href="#DejaVuSans-76" transform="translate(194.384766 0)"/>
     <use xlink:href="#DejaVuSans-65" transform="translate(253.564453 0)"/>
     <use xlink:href="#DejaVuSans-72" transform="translate(315.087891 0)"/>
     <use xlink:href="#DejaVuSans-67" transform="translate(354.451172 0)"/>
     <use xlink:href="#DejaVuSans-65" transform="translate(417.927734 0)"/>
     <use xlink:href="#DejaVuSans-6e" transform="translate(479.451172 0)"/>
     <use xlink:href="#DejaVuSans-63" transform="translate(542.830078 0)"/>
     <use xlink:href="#DejaVuSans-65" transform="translate(597.810547 0)"/>
     <use xlink:href="#DejaVuSans-20" transform="translate(659.333984 0)"/>
     <use xlink:href="#DejaVuSans-6f" transform="translate(691.121094 0)"/>
     <use xlink:href="#DejaVuSans-66" transform="translate(752.302734 0)"/>
     <use xlink:href="#DejaVuSans-20" transform="translate(787.507812 0)"/>
     <use xlink:href="#DejaVuSans-52" transform="translate(819.294922 0)"/>
     <use xlink:href="#DejaVuSans-65" transform="translate(884.277344 0)"/>
     <use xlink:href="#DejaVuSans-73" transform="translate(945.800781 0)"/>
     <use xlink:href="#DejaVuSans-69" transform="translate(997.900391 0)"/>
     <use xlink:href="#DejaVuSans-64" transform="translate(1025.683594 0)"/>
     <use xlink:href="#DejaVuSans-75" transform="translate(1089.160156 0)"/>
     <use xlink:href="#DejaVuSans-61" transform="translate(1152.539062 0)"/>
     <use xlink:href="#DejaVuSans-6c" transform="translate(1213.818359 0)"/>
     <use xlink:href="#DejaVuSans-73" transform="translate(1241.601562 0)"/>
    </g>
   </g>
   <g id="legend_1">
    <g id="patch_7">
     <path d="M 430.867187 92.8725 
L 558.2 92.8725 
Q 560.2 92.8725 560.2 90.8725 
L 560.2 33.16 
Q 560.2 31.16 558.2 31.16 
L 430.867187 31.16 
Q 428.867187 31.16 428.867187 33.16 
L 428.867187 90.8725 
Q 428.867187 92.8725 430.867187 92.8725 
z
" style="fill: #ffffff; opacity: 0.8; stroke: #cccccc; stroke-linejoin: miter"/>
    </g>
    <g id="line2d_31">
     <path d="M 432.867187 39.258437 
L 442.867187 39.258437 
L 452.867187 39.258437 
" style="fill: none; stroke: #1f77b4; stroke-width: 1.5; stroke-linecap: square"/>
    </g>
    <g id="text_17">
     <!-- Grid Size: 32x32 -->
     <g transform="translate(460.867187 42.758437) scale(0.1 -0.1)">
      <defs>
       <path id="DejaVuSans-47" d="M 3809 666 
L 3809 1919 
L 2778 1919 
L 2778 2438 
L 4434 2438 
L 4434 434 
Q 4069 175 3628 42 
Q 3188 -91 2688 -91 
Q 1594 -91 976 548 
Q 359 1188 359 2328 
Q 359 3472 976 4111 
Q 1594 4750 2688 4750 
Q 3144 4750 3555 4637 
Q 3966 4525 4313 4306 
L 4313 3634 
Q 3963 3931 3569 4081 
Q 3175 4231 2741 4231 
Q 1884 4231 1454 3753 
Q 1025 3275 1025 2328 
Q 1025 1384 1454 906 
Q 1884 428 2741 428 
Q 3075 428 3337 486 
Q 3600 544 3809 666 
z
" transform="scale(0.015625)"/>
       <path id="DejaVuSans-53" d="M 3425 4513 
L 3425 3897 
Q 3066 4069 2747 4153 
Q 2428 4238 2131 4238 
Q 1616 4238 1336 4038 
Q 1056 3838 1056 3469 
Q 1056 3159 1242 3001 
Q 1428 2844 1947 2747 
L 2328 2669 
Q 3034 2534 3370 2195 
Q 3706 1856 3706 1288 
Q 3706 609 3251 259 
Q 2797 -91 1919 -91 
Q 1588 -91 1214 -16 
Q 841 59 441 206 
L 441 856 
Q 825 641 1194 531 
Q 1563 422 1919 422 
Q 2459 422 2753 634 
Q 3047 847 3047 1241 
Q 3047 1584 2836 1778 
Q 2625 1972 2144 2069 
L 1759 2144 
Q 1053 2284 737 2584 
Q 422 2884 422 3419 
Q 422 4038 858 4394 
Q 1294 4750 2059 4750 
Q 2388 4750 2728 4690 
Q 3069 4631 3425 4513 
z
" transform="scale(0.015625)"/>
       <path id="DejaVuSans-7a" d="M 353 3500 
L 3084 3500 
L 3084 2975 
L 922 459 
L 3084 459 
L 3084 0 
L 275 0 
L 275 525 
L 2438 3041 
L 353 3041 
L 353 3500 
z
" transform="scale(0.015625)"/>
       <path id="DejaVuSans-3a" d="M 750 794 
L 1409 794 
L 1409 0 
L 750 0 
L 750 794 
z
M 750 3309 
L 1409 3309 
L 1409 2516 
L 750 2516 
L 750 3309 
z
" transform="scale(0.015625)"/>
       <path id="DejaVuSans-78" d="M 3513 3500 
L 2247 1797 
L 3578 0 
L 2900 0 
L 1881 1375 
L 863 0 
L 184 0 
L 1544 1831 
L 300 3500 
L 978 3500 
L 1906 2253 
L 2834 3500 
L 3513 3500 
z
" transform="scale(0.015625)"/>
      </defs>
      <use xlink:href="#DejaVuSans-47"/>
      <use xlink:href="#DejaVuSans-72" transform="translate(77.490234 0)"/>
      <use xlink:href="#DejaVuSans-69" transform="translate(118.603516 0)"/>
      <use xlink:href="#DejaVuSans-64" transform="translate(146.386719 0)"/>
      <use xlink:href="#DejaVuSans-20" transform="translate(209.863281 0)"/>
      <use xlink:href="#DejaVuSans-53" transform="translate(241.650391 0)"/>
      <use xlink:href="#DejaVuSans-69" transform="translate(305.126953 0)"/>
      <use xlink:href="#DejaVuSans-7a" transform="translate(332.910156 0)"/>
      <use xlink:href="#DejaVuSans-65" transform="translate(385.400391 0)"/>
      <use xlink:href="#DejaVuSans-3a" transform="translate(446.923828 0)"/>
      <use xlink:href="#DejaVuSans-20" transform="translate(480.615234 0)"/>
      <use xlink:href="#DejaVuSans-33" transform="translate(512.402344 0)"/>
      <use xlink:href="#DejaVuSans-32" transform="translate(576.025391 0)"/>
      <use xlink:href="#DejaVuSans-78" transform="translate(639.648438 0)"/>
      <use xlink:href="#DejaVuSans-33" transform="translate(698.828125 0)"/>
      <use xlink:href="#DejaVuSans-32" transform="translate(762.451172 0)"/>
     </g>
    </g>
    <g id="line2d_32">
     <path d="M 432.867187 53.936562 
L 442.867187 53.936562 
L 452.867187 53.936562 
" style="fill: none; stroke: #ff7f0e; stroke-width: 1.5; stroke-linecap: square"/>
    </g>
    <g id="text_18">
     <!-- Grid Size: 96x96 -->
     <g transform="translate(460.867187 57.436562) scale(0.1 -0.1)">
      <defs>
       <path id="DejaVuSans-39" d="M 703 97 
L 703 672 
Q 941 559 1184 500 
Q 1428 441 1663 441 
Q 2288 441 2617 861 
Q 2947 1281 2994 2138 
Q 2813 1869 2534 1725 
Q 2256 1581 1919 1581 
Q 1219 1581 811 2004 
Q 403 2428 403 3163 
Q 403 3881 828 4315 
Q 1253 4750 1959 4750 
Q 2769 4750 3195 4129 
Q 3622 3509 3622 2328 
Q 3622 1225 3098 567 
Q 2575 -91 1691 -91 
Q 1453 -91 1209 -44 
Q 966 3 703 97 
z
M 1959 2075 
Q 2384 2075 2632 2365 
Q 2881 2656 2881 3163 
Q 2881 3666 2632 3958 
Q 2384 4250 1959 4250 
Q 1534 4250 1286 3958 
Q 1038 3666 1038 3163 
Q 1038 2656 1286 2365 
Q 1534 2075 1959 2075 
z
" transform="scale(0.015625)"/>
       <path id="DejaVuSans-36" d="M 2113 2584 
Q 1688 2584 1439 2293 
Q 1191 2003 1191 1497 
Q 1191 994 1439 701 
Q 1688 409 2113 409 
Q 2538 409 2786 701 
Q 3034 994 3034 1497 
Q 3034 2003 2786 2293 
Q 2538 2584 2113 2584 
z
M 3366 4563 
L 3366 3988 
Q 3128 4100 2886 4159 
Q 2644 4219 2406 4219 
Q 1781 4219 1451 3797 
Q 1122 3375 1075 2522 
Q 1259 2794 1537 2939 
Q 1816 3084 2150 3084 
Q 2853 3084 3261 2657 
Q 3669 2231 3669 1497 
Q 3669 778 3244 343 
Q 2819 -91 2113 -91 
Q 1303 -91 875 529 
Q 447 1150 447 2328 
Q 447 3434 972 4092 
Q 1497 4750 2381 4750 
Q 2619 4750 2861 4703 
Q 3103 4656 3366 4563 
z
" transform="scale(0.015625)"/>
      </defs>
      <use xlink:href="#DejaVuSans-47"/>
      <use xlink:href="#DejaVuSans-72" transform="translate(77.490234 0)"/>
      <use xlink:href="#DejaVuSans-69" transform="translate(118.603516 0)"/>
      <use xlink:href="#DejaVuSans-64" transform="translate(146.386719 0)"/>
      <use xlink:href="#DejaVuSans-20" transform="translate(209.863281 0)"/>
      <use xlink:href="#DejaVuSans-53" transform="translate(241.650391 0)"/>
      <use xlink:href="#DejaVuSans-69" transform="translate(305.126953 0)"/>
      <use xlink:href="#DejaVuSans-7a" transform="translate(332.910156 0)"/>
      <use xlink:href="#DejaVuSans-65" transform="translate(385.400391 0)"/>
      <use xlink:href="#DejaVuSans-3a" transform="translate(446.923828 0)"/>
      <use xlink:href="#DejaVuSans-20" transform="translate(480.615234 0)"/>
      <use xlink:href="#DejaVuSans-39" transform="translate(512.402344 0)"/>
      <use xlink:href="#DejaVuSans-36" transform="translate(576.025391 0)"/>
      <use xlink:href="#DejaVuSans-78" transform="translate(639.648438 0)"/>
      <use xlink:href="#DejaVuSans-39" transform="translate(698.828125 0)"/>
      <use xlink:href="#DejaVuSans-36" transform="translate(762.451172 0)"/>
     </g>
    </g>
    <g id="line2d_33">
     <path d="M 432.867187 68.614687 
L 442.867187 68.614687 
L 452.867187 68.614687 
" style="fill: none; stroke: #2ca02c; stroke-width: 1.5; stroke-linecap: square"/>
    </g>
    <g id="text_19">
     <!-- Grid Size: 160x160 -->
     <g transform="translate(460.867187 72.114687) scale(0.1 -0.1)">
      <use xlink:href="#DejaVuSans-47"/>
      <use xlink:href="#DejaVuSans-72" transform="translate(77.490234 0)"/>
      <use xlink:href="#DejaVuSans-69" transform="translate(118.603516 0)"/>
      <use xlink:href="#DejaVuSans-64" transform="translate(146.386719 0)"/>
      <use xlink:href="#DejaVuSans-20" transform="translate(209.863281 0)"/>
      <use xlink:href="#DejaVuSans-53" transform="translate(241.650391 0)"/>
      <use xlink:href="#DejaVuSans-69" transform="translate(305.126953 0)"/>
      <use xlink:href="#DejaVuSans-7a" transform="translate(332.910156 0)"/>
      <use xlink:href="#DejaVuSans-65" transform="translate(385.400391 0)"/>
      <use xlink:href="#DejaVuSans-3a" transform="translate(446.923828 0)"/>
      <use xlink:href="#DejaVuSans-20" transform="translate(480.615234 0)"/>
      <use xlink:href="#DejaVuSans-31" transform="translate(512.402344 0)"/>
      <use xlink:href="#DejaVuSans-36" transform="translate(576.025391 0)"/>
      <use xlink:href="#DejaVuSans-30" transform="translate(639.648438 0)"/>
      <use xlink:href="#DejaVuSans-78" transform="translate(703.271484 0)"/>
      <use xlink:href="#DejaVuSans-31" transform="translate(762.451172 0)"/>
      <use xlink:href="#DejaVuSans-36" transform="translate(826.074219 0)"/>
      <use xlink:href="#DejaVuSans-30" transform="translate(889.697266 0)"/>
     </g>
    </g>
    <g id="line2d_34">
     <path d="M 432.867187 83.292812 
L 442.867187 83.292812 
L 452.867187 83.292812 
" style="fill: none; stroke: #d62728; stroke-width: 1.5; stroke-linecap: square"/>
    </g>
    <g id="text_20">
     <!-- Grid Size: 224x224 -->
     <g transform="translate(460.867187 86.792812) scale(0.1 -0.1)">
      <use xlink:href="#DejaVuSans-47"/>
      <use xlink:href="#DejaVuSans-72" transform="translate(77.490234 0)"/>
      <use xlink:href="#DejaVuSans-69" transform="translate(118.603516 0)"/>
      <use xlink:href="#DejaVuSans-64" transform="translate(146.386719 0)"/>
      <use xlink:href="#DejaVuSans-20" transform="translate(209.863281 0)"/>
      <use xlink:href="#DejaVuSans-53" transform="translate(241.650391 0)"/>
      <use xlink:href="#DejaVuSans-69" transform="translate(305.126953 0)"/>
      <use xlink:href="#DejaVuSans-7a" transform="translate(332.910156 0)"/>
      <use xlink:href="#DejaVuSans-65" transform="translate(385.400391 0)"/>
      <use xlink:href="#DejaVuSans-3a" transform="translate(446.923828 0)"/>
      <use xlink:href="#DejaVuSans-20" transform="translate(480.615234 0)"/>
      <use xlink:href="#DejaVuSans-32" transform="translate(512.402344 0)"/>
      <use xlink:href="#DejaVuSans-32" transform="translate(576.025391 0)"/>
      <use xlink:href="#DejaVuSans-34" transform="translate(639.648438 0)"/>
      <use xlink:href="#DejaVuSans-78" transform="translate(703.271484 0)"/>
      <use xlink:href="#DejaVuSans-32" transform="translate(762.451172 0)"/>
      <use xlink:href="#DejaVuSans-32" transform="translate(826.074219 0)"/>
      <use xlink:href="#DejaVuSans-34" transform="translate(889.697266 0)"/>
     </g>
    </g>
   </g>
  </g>
 </g>
 <defs>
  <clipPath id="p9dbdf4b5d5">
   <rect x="55.344554" y="26.16" width="509.855446" height="363.88"/>
  </clipPath>
 </defs>
</svg>
