<?xml version="1.0" encoding="utf-8" standalone="no"?>
<!DOCTYPE svg PUBLIC "-//W3C//DTD SVG 1.1//EN"
  "http://www.w3.org/Graphics/SVG/1.1/DTD/svg11.dtd">
<svg xmlns:xlink="http://www.w3.org/1999/xlink" width="576pt" height="432pt" viewBox="0 0 576 432" xmlns="http://www.w3.org/2000/svg" version="1.1">
 <metadata>
  <rdf:RDF xmlns:dc="http://purl.org/dc/elements/1.1/" xmlns:cc="http://creativecommons.org/ns#" xmlns:rdf="http://www.w3.org/1999/02/22-rdf-syntax-ns#">
   <cc:Work>
    <dc:type rdf:resource="http://purl.org/dc/dcmitype/StillImage"/>
    <dc:date>2025-12-04T20:14:32.074203</dc:date>
    <dc:format>image/svg+xml</dc:format>
    <dc:creator>
     <cc:Agent>
      <dc:title>Matplotlib v3.10.5, https://matplotlib.org/</dc:title>
     </cc:Agent>
    </dc:creator>
   </cc:Work>
  </rdf:RDF>
 </metadata>
 <defs>
  <style type="text/css">*{stroke-linejoin: round; stroke-linecap: butt}</style>
 </defs>
 <g id="figure_1">
  <g id="patch_1">
   <path d="M 0 432 
L 576 432 
L 576 0 
L 0 0 
z
" style="fill: #ffffff"/>
  </g>
  <g id="axes_1">
   <g id="patch_2">
    <path d="M 59.714964 390.04 
L 565.2 390.04 
L 565.2 26.16 
L 59.714964 26.16 
z
" style="fill: #ffffff"/>
   </g>
   <g id="matplotlib.axis_1">
    <g id="xtick_1">
     <g id="line2d_1">
      <path d="M 82.691556 390.04 
L 82.691556 26.16 
" clip-path="url(#p059730b8fc)" style="fill: none; stroke: #b0b0b0; stroke-width: 0.8; stroke-linecap: square"/>
     </g>
     <g id="line2d_2">
      <defs>
       <path id="m5c2c6084eb" d="M 0 0 
L 0 3.5 
" style="stroke: #000000; stroke-width: 0.8"/>
      </defs>
      <g>
       <use xlink:href="#m5c2c6084eb" x="82.691556" y="390.04" style="stroke: #000000; stroke-width: 0.8"/>
      </g>
     </g>
     <g id="text_1">
      <!-- 0 -->
      <g transform="translate(79.510306 404.638438) scale(0.1 -0.1)">
       <defs>
        <path id="DejaVuSans-30" d="M 2034 4250 
Q 1547 4250 1301 3770 
Q 1056 3291 1056 2328 
Q 1056 1369 1301 889 
Q 1547 409 2034 409 
Q 2525 409 2770 889 
Q 3016 1369 3016 2328 
Q 3016 3291 2770 3770 
Q 2525 4250 2034 4250 
z
M 2034 4750 
Q 2819 4750 3233 4129 
Q 3647 3509 3647 2328 
Q 3647 1150 3233 529 
Q 2819 -91 2034 -91 
Q 1250 -91 836 529 
Q 422 1150 422 2328 
Q 422 3509 836 4129 
Q 1250 4750 2034 4750 
z
" transform="scale(0.015625)"/>
       </defs>
       <use xlink:href="#DejaVuSans-30"/>
      </g>
     </g>
    </g>
    <g id="xtick_2">
     <g id="line2d_3">
      <path d="M 154.495652 390.04 
L 154.495652 26.16 
" clip-path="url(#p059730b8fc)" style="fill: none; stroke: #b0b0b0; stroke-width: 0.8; stroke-linecap: square"/>
     </g>
     <g id="line2d_4">
      <g>
       <use xlink:href="#m5c2c6084eb" x="154.495652" y="390.04" style="stroke: #000000; stroke-width: 0.8"/>
      </g>
     </g>
     <g id="text_2">
      <!-- 5000 -->
      <g transform="translate(141.770652 404.638438) scale(0.1 -0.1)">
       <defs>
        <path id="DejaVuSans-35" d="M 691 4666 
L 3169 4666 
L 3169 4134 
L 1269 4134 
L 1269 2991 
Q 1406 3038 1543 3061 
Q 1681 3084 1819 3084 
Q 2600 3084 3056 2656 
Q 3513 2228 3513 1497 
Q 3513 744 3044 326 
Q 2575 -91 1722 -91 
Q 1428 -91 1123 -41 
Q 819 9 494 109 
L 494 744 
Q 775 591 1075 516 
Q 1375 441 1709 441 
Q 2250 441 2565 725 
Q 2881 1009 2881 1497 
Q 2881 1984 2565 2268 
Q 2250 2553 1709 2553 
Q 1456 2553 1204 2497 
Q 953 2441 691 2322 
L 691 4666 
z
" transform="scale(0.015625)"/>
       </defs>
       <use xlink:href="#DejaVuSans-35"/>
       <use xlink:href="#DejaVuSans-30" transform="translate(63.623047 0)"/>
       <use xlink:href="#DejaVuSans-30" transform="translate(127.246094 0)"/>
       <use xlink:href="#DejaVuSans-30" transform="translate(190.869141 0)"/>
      </g>
     </g>
    </g>
    <g id="xtick_3">
     <g id="line2d_5">
      <path d="M 226.299747 390.04 
L 226.299747 26.16 
" clip-path="url(#p059730b8fc)" style="fill: none; stroke: #b0b0b0; stroke-width: 0.8; stroke-linecap: square"/>
     </g>
     <g id="line2d_6">
      <g>
       <use xlink:href="#m5c2c6084eb" x="226.299747" y="390.04" style="stroke: #000000; stroke-width: 0.8"/>
      </g>
     </g>
     <g id="text_3">
      <!-- 10000 -->
      <g transform="translate(210.393497 404.638438) scale(0.1 -0.1)">
       <defs>
        <path id="DejaVuSans-31" d="M 794 531 
L 1825 531 
L 1825 4091 
L 703 3866 
L 703 4441 
L 1819 4666 
L 2450 4666 
L 2450 531 
L 3481 531 
L 3481 0 
L 794 0 
L 794 531 
z
" transform="scale(0.015625)"/>
       </defs>
       <use xlink:href="#DejaVuSans-31"/>
       <use xlink:href="#DejaVuSans-30" transform="translate(63.623047 0)"/>
       <use xlink:href="#DejaVuSans-30" transform="translate(127.246094 0)"/>
       <use xlink:href="#DejaVuSans-30" transform="translate(190.869141 0)"/>
       <use xlink:href="#DejaVuSans-30" transform="translate(254.492188 0)"/>
      </g>
     </g>
    </g>
    <g id="xtick_4">
     <g id="line2d_7">
      <path d="M 298.103843 390.04 
L 298.103843 26.16 
" clip-path="url(#p059730b8fc)" style="fill: none; stroke: #b0b0b0; stroke-width: 0.8; stroke-linecap: square"/>
     </g>
     <g id="line2d_8">
      <g>
       <use xlink:href="#m5c2c6084eb" x="298.103843" y="390.04" style="stroke: #000000; stroke-width: 0.8"/>
      </g>
     </g>
     <g id="text_4">
      <!-- 15000 -->
      <g transform="translate(282.197593 404.638438) scale(0.1 -0.1)">
       <use xlink:href="#DejaVuSans-31"/>
       <use xlink:href="#DejaVuSans-35" transform="translate(63.623047 0)"/>
       <use xlink:href="#DejaVuSans-30" transform="translate(127.246094 0)"/>
       <use xlink:href="#DejaVuSans-30" transform="translate(190.869141 0)"/>
       <use xlink:href="#DejaVuSans-30" transform="translate(254.492188 0)"/>
      </g>
     </g>
    </g>
    <g id="xtick_5">
     <g id="line2d_9">
      <path d="M 369.907939 390.04 
L 369.907939 26.16 
" clip-path="url(#p059730b8fc)" style="fill: none; stroke: #b0b0b0; stroke-width: 0.8; stroke-linecap: square"/>
     </g>
     <g id="line2d_10">
      <g>
       <use xlink:href="#m5c2c6084eb" x="369.907939" y="390.04" style="stroke: #000000; stroke-width: 0.8"/>
      </g>
     </g>
     <g id="text_5">
      <!-- 20000 -->
      <g transform="translate(354.001689 404.638438) scale(0.1 -0.1)">
       <defs>
        <path id="DejaVuSans-32" d="M 1228 531 
L 3431 531 
L 3431 0 
L 469 0 
L 469 531 
Q 828 903 1448 1529 
Q 2069 2156 2228 2338 
Q 2531 2678 2651 2914 
Q 2772 3150 2772 3378 
Q 2772 3750 2511 3984 
Q 2250 4219 1831 4219 
Q 1534 4219 1204 4116 
Q 875 4013 500 3803 
L 500 4441 
Q 881 4594 1212 4672 
Q 1544 4750 1819 4750 
Q 2544 4750 2975 4387 
Q 3406 4025 3406 3419 
Q 3406 3131 3298 2873 
Q 3191 2616 2906 2266 
Q 2828 2175 2409 1742 
Q 1991 1309 1228 531 
z
" transform="scale(0.015625)"/>
       </defs>
       <use xlink:href="#DejaVuSans-32"/>
       <use xlink:href="#DejaVuSans-30" transform="translate(63.623047 0)"/>
       <use xlink:href="#DejaVuSans-30" transform="translate(127.246094 0)"/>
       <use xlink:href="#DejaVuSans-30" transform="translate(190.869141 0)"/>
       <use xlink:href="#DejaVuSans-30" transform="translate(254.492188 0)"/>
      </g>
     </g>
    </g>
    <g id="xtick_6">
     <g id="line2d_11">
      <path d="M 441.712034 390.04 
L 441.712034 26.16 
" clip-path="url(#p059730b8fc)" style="fill: none; stroke: #b0b0b0; stroke-width: 0.8; stroke-linecap: square"/>
     </g>
     <g id="line2d_12">
      <g>
       <use xlink:href="#m5c2c6084eb" x="441.712034" y="390.04" style="stroke: #000000; stroke-width: 0.8"/>
      </g>
     </g>
     <g id="text_6">
      <!-- 25000 -->
      <g transform="translate(425.805784 404.638438) scale(0.1 -0.1)">
       <use xlink:href="#DejaVuSans-32"/>
       <use xlink:href="#DejaVuSans-35" transform="translate(63.623047 0)"/>
       <use xlink:href="#DejaVuSans-30" transform="translate(127.246094 0)"/>
       <use xlink:href="#DejaVuSans-30" transform="translate(190.869141 0)"/>
       <use xlink:href="#DejaVuSans-30" transform="translate(254.492188 0)"/>
      </g>
     </g>
    </g>
    <g id="xtick_7">
     <g id="line2d_13">
      <path d="M 513.51613 390.04 
L 513.51613 26.16 
" clip-path="url(#p059730b8fc)" style="fill: none; stroke: #b0b0b0; stroke-width: 0.8; stroke-linecap: square"/>
     </g>
     <g id="line2d_14">
      <g>
       <use xlink:href="#m5c2c6084eb" x="513.51613" y="390.04" style="stroke: #000000; stroke-width: 0.8"/>
      </g>
     </g>
     <g id="text_7">
      <!-- 30000 -->
      <g transform="translate(497.60988 404.638438) scale(0.1 -0.1)">
       <defs>
        <path id="DejaVuSans-33" d="M 2597 2516 
Q 3050 2419 3304 2112 
Q 3559 1806 3559 1356 
Q 3559 666 3084 287 
Q 2609 -91 1734 -91 
Q 1441 -91 1130 -33 
Q 819 25 488 141 
L 488 750 
Q 750 597 1062 519 
Q 1375 441 1716 441 
Q 2309 441 2620 675 
Q 2931 909 2931 1356 
Q 2931 1769 2642 2001 
Q 2353 2234 1838 2234 
L 1294 2234 
L 1294 2753 
L 1863 2753 
Q 2328 2753 2575 2939 
Q 2822 3125 2822 3475 
Q 2822 3834 2567 4026 
Q 2313 4219 1838 4219 
Q 1578 4219 1281 4162 
Q 984 4106 628 3988 
L 628 4550 
Q 988 4650 1302 4700 
Q 1616 4750 1894 4750 
Q 2613 4750 3031 4423 
Q 3450 4097 3450 3541 
Q 3450 3153 3228 2886 
Q 3006 2619 2597 2516 
z
" transform="scale(0.015625)"/>
       </defs>
       <use xlink:href="#DejaVuSans-33"/>
       <use xlink:href="#DejaVuSans-30" transform="translate(63.623047 0)"/>
       <use xlink:href="#DejaVuSans-30" transform="translate(127.246094 0)"/>
       <use xlink:href="#DejaVuSans-30" transform="translate(190.869141 0)"/>
       <use xlink:href="#DejaVuSans-30" transform="translate(254.492188 0)"/>
      </g>
     </g>
    </g>
    <g id="text_8">
     <!-- Iteration -->
     <g transform="translate(291.248888 418.316562) scale(0.1 -0.1)">
      <defs>
       <path id="DejaVuSans-49" d="M 628 4666 
L 1259 4666 
L 1259 0 
L 628 0 
L 628 4666 
z
" transform="scale(0.015625)"/>
       <path id="DejaVuSans-74" d="M 1172 4494 
L 1172 3500 
L 2356 3500 
L 2356 3053 
L 1172 3053 
L 1172 1153 
Q 1172 725 1289 603 
Q 1406 481 1766 481 
L 2356 481 
L 2356 0 
L 1766 0 
Q 1100 0 847 248 
Q 594 497 594 1153 
L 594 3053 
L 172 3053 
L 172 3500 
L 594 3500 
L 594 4494 
L 1172 4494 
z
" transform="scale(0.015625)"/>
       <path id="DejaVuSans-65" d="M 3597 1894 
L 3597 1613 
L 953 1613 
Q 991 1019 1311 708 
Q 1631 397 2203 397 
Q 2534 397 2845 478 
Q 3156 559 3463 722 
L 3463 178 
Q 3153 47 2828 -22 
Q 2503 -91 2169 -91 
Q 1331 -91 842 396 
Q 353 884 353 1716 
Q 353 2575 817 3079 
Q 1281 3584 2069 3584 
Q 2775 3584 3186 3129 
Q 3597 2675 3597 1894 
z
M 3022 2063 
Q 3016 2534 2758 2815 
Q 2500 3097 2075 3097 
Q 1594 3097 1305 2825 
Q 1016 2553 972 2059 
L 3022 2063 
z
" transform="scale(0.015625)"/>
       <path id="DejaVuSans-72" d="M 2631 2963 
Q 2534 3019 2420 3045 
Q 2306 3072 2169 3072 
Q 1681 3072 1420 2755 
Q 1159 2438 1159 1844 
L 1159 0 
L 581 0 
L 581 3500 
L 1159 3500 
L 1159 2956 
Q 1341 3275 1631 3429 
Q 1922 3584 2338 3584 
Q 2397 3584 2469 3576 
Q 2541 3569 2628 3553 
L 2631 2963 
z
" transform="scale(0.015625)"/>
       <path id="DejaVuSans-61" d="M 2194 1759 
Q 1497 1759 1228 1600 
Q 959 1441 959 1056 
Q 959 750 1161 570 
Q 1363 391 1709 391 
Q 2188 391 2477 730 
Q 2766 1069 2766 1631 
L 2766 1759 
L 2194 1759 
z
M 3341 1997 
L 3341 0 
L 2766 0 
L 2766 531 
Q 2569 213 2275 61 
Q 1981 -91 1556 -91 
Q 1019 -91 701 211 
Q 384 513 384 1019 
Q 384 1609 779 1909 
Q 1175 2209 1959 2209 
L 2766 2209 
L 2766 2266 
Q 2766 2663 2505 2880 
Q 2244 3097 1772 3097 
Q 1472 3097 1187 3025 
Q 903 2953 641 2809 
L 641 3341 
Q 956 3463 1253 3523 
Q 1550 3584 1831 3584 
Q 2591 3584 2966 3190 
Q 3341 2797 3341 1997 
z
" transform="scale(0.015625)"/>
       <path id="DejaVuSans-69" d="M 603 3500 
L 1178 3500 
L 1178 0 
L 603 0 
L 603 3500 
z
M 603 4863 
L 1178 4863 
L 1178 4134 
L 603 4134 
L 603 4863 
z
" transform="scale(0.015625)"/>
       <path id="DejaVuSans-6f" d="M 1959 3097 
Q 1497 3097 1228 2736 
Q 959 2375 959 1747 
Q 959 1119 1226 758 
Q 1494 397 1959 397 
Q 2419 397 2687 759 
Q 2956 1122 2956 1747 
Q 2956 2369 2687 2733 
Q 2419 3097 1959 3097 
z
M 1959 3584 
Q 2709 3584 3137 3096 
Q 3566 2609 3566 1747 
Q 3566 888 3137 398 
Q 2709 -91 1959 -91 
Q 1206 -91 779 398 
Q 353 888 353 1747 
Q 353 2609 779 3096 
Q 1206 3584 1959 3584 
z
" transform="scale(0.015625)"/>
       <path id="DejaVuSans-6e" d="M 3513 2113 
L 3513 0 
L 2938 0 
L 2938 2094 
Q 2938 2591 2744 2837 
Q 2550 3084 2163 3084 
Q 1697 3084 1428 2787 
Q 1159 2491 1159 1978 
L 1159 0 
L 581 0 
L 581 3500 
L 1159 3500 
L 1159 2956 
Q 1366 3272 1645 3428 
Q 1925 3584 2291 3584 
Q 2894 3584 3203 3211 
Q 3513 2838 3513 2113 
z
" transform="scale(0.015625)"/>
      </defs>
      <use xlink:href="#DejaVuSans-49"/>
      <use xlink:href="#DejaVuSans-74" transform="translate(29.492188 0)"/>
      <use xlink:href="#DejaVuSans-65" transform="translate(68.701172 0)"/>
      <use xlink:href="#DejaVuSans-72" transform="translate(130.224609 0)"/>
      <use xlink:href="#DejaVuSans-61" transform="translate(171.337891 0)"/>
      <use xlink:href="#DejaVuSans-74" transform="translate(232.617188 0)"/>
      <use xlink:href="#DejaVuSans-69" transform="translate(271.826172 0)"/>
      <use xlink:href="#DejaVuSans-6f" transform="translate(299.609375 0)"/>
      <use xlink:href="#DejaVuSans-6e" transform="translate(360.791016 0)"/>
     </g>
    </g>
   </g>
   <g id="matplotlib.axis_2">
    <g id="ytick_1">
     <g id="line2d_15">
      <path d="M 59.714964 345.132431 
L 565.2 345.132431 
" clip-path="url(#p059730b8fc)" style="fill: none; stroke: #b0b0b0; stroke-width: 0.8; stroke-linecap: square"/>
     </g>
     <g id="line2d_16">
      <defs>
       <path id="m273e03ae8d" d="M 0 0 
L -3.5 0 
" style="stroke: #000000; stroke-width: 0.8"/>
      </defs>
      <g>
       <use xlink:href="#m273e03ae8d" x="59.714964" y="345.132431" style="stroke: #000000; stroke-width: 0.8"/>
      </g>
     </g>
     <g id="text_9">
      <!-- $\mathdefault{10^{-23}}$ -->
      <g transform="translate(24.814964 348.93165) scale(0.1 -0.1)">
       <defs>
        <path id="DejaVuSans-2212" d="M 678 2272 
L 4684 2272 
L 4684 1741 
L 678 1741 
L 678 2272 
z
" transform="scale(0.015625)"/>
       </defs>
       <use xlink:href="#DejaVuSans-31" transform="translate(0 0.765625)"/>
       <use xlink:href="#DejaVuSans-30" transform="translate(63.623047 0.765625)"/>
       <use xlink:href="#DejaVuSans-2212" transform="translate(128.203125 39.046875) scale(0.7)"/>
       <use xlink:href="#DejaVuSans-32" transform="translate(186.855469 39.046875) scale(0.7)"/>
       <use xlink:href="#DejaVuSans-33" transform="translate(231.391602 39.046875) scale(0.7)"/>
      </g>
     </g>
    </g>
    <g id="ytick_2">
     <g id="line2d_17">
      <path d="M 59.714964 297.948594 
L 565.2 297.948594 
" clip-path="url(#p059730b8fc)" style="fill: none; stroke: #b0b0b0; stroke-width: 0.8; stroke-linecap: square"/>
     </g>
     <g id="line2d_18">
      <g>
       <use xlink:href="#m273e03ae8d" x="59.714964" y="297.948594" style="stroke: #000000; stroke-width: 0.8"/>
      </g>
     </g>
     <g id="text_10">
      <!-- $\mathdefault{10^{-18}}$ -->
      <g transform="translate(24.814964 301.747813) scale(0.1 -0.1)">
       <defs>
        <path id="DejaVuSans-38" d="M 2034 2216 
Q 1584 2216 1326 1975 
Q 1069 1734 1069 1313 
Q 1069 891 1326 650 
Q 1584 409 2034 409 
Q 2484 409 2743 651 
Q 3003 894 3003 1313 
Q 3003 1734 2745 1975 
Q 2488 2216 2034 2216 
z
M 1403 2484 
Q 997 2584 770 2862 
Q 544 3141 544 3541 
Q 544 4100 942 4425 
Q 1341 4750 2034 4750 
Q 2731 4750 3128 4425 
Q 3525 4100 3525 3541 
Q 3525 3141 3298 2862 
Q 3072 2584 2669 2484 
Q 3125 2378 3379 2068 
Q 3634 1759 3634 1313 
Q 3634 634 3220 271 
Q 2806 -91 2034 -91 
Q 1263 -91 848 271 
Q 434 634 434 1313 
Q 434 1759 690 2068 
Q 947 2378 1403 2484 
z
M 1172 3481 
Q 1172 3119 1398 2916 
Q 1625 2713 2034 2713 
Q 2441 2713 2670 2916 
Q 2900 3119 2900 3481 
Q 2900 3844 2670 4047 
Q 2441 4250 2034 4250 
Q 1625 4250 1398 4047 
Q 1172 3844 1172 3481 
z
" transform="scale(0.015625)"/>
       </defs>
       <use xlink:href="#DejaVuSans-31" transform="translate(0 0.765625)"/>
       <use xlink:href="#DejaVuSans-30" transform="translate(63.623047 0.765625)"/>
       <use xlink:href="#DejaVuSans-2212" transform="translate(128.203125 39.046875) scale(0.7)"/>
       <use xlink:href="#DejaVuSans-31" transform="translate(186.855469 39.046875) scale(0.7)"/>
       <use xlink:href="#DejaVuSans-38" transform="translate(231.391602 39.046875) scale(0.7)"/>
      </g>
     </g>
    </g>
    <g id="ytick_3">
     <g id="line2d_19">
      <path d="M 59.714964 250.764757 
L 565.2 250.764757 
" clip-path="url(#p059730b8fc)" style="fill: none; stroke: #b0b0b0; stroke-width: 0.8; stroke-linecap: square"/>
     </g>
     <g id="line2d_20">
      <g>
       <use xlink:href="#m273e03ae8d" x="59.714964" y="250.764757" style="stroke: #000000; stroke-width: 0.8"/>
      </g>
     </g>
     <g id="text_11">
      <!-- $\mathdefault{10^{-13}}$ -->
      <g transform="translate(24.814964 254.563976) scale(0.1 -0.1)">
       <use xlink:href="#DejaVuSans-31" transform="translate(0 0.765625)"/>
       <use xlink:href="#DejaVuSans-30" transform="translate(63.623047 0.765625)"/>
       <use xlink:href="#DejaVuSans-2212" transform="translate(128.203125 39.046875) scale(0.7)"/>
       <use xlink:href="#DejaVuSans-31" transform="translate(186.855469 39.046875) scale(0.7)"/>
       <use xlink:href="#DejaVuSans-33" transform="translate(231.391602 39.046875) scale(0.7)"/>
      </g>
     </g>
    </g>
    <g id="ytick_4">
     <g id="line2d_21">
      <path d="M 59.714964 203.58092 
L 565.2 203.58092 
" clip-path="url(#p059730b8fc)" style="fill: none; stroke: #b0b0b0; stroke-width: 0.8; stroke-linecap: square"/>
     </g>
     <g id="line2d_22">
      <g>
       <use xlink:href="#m273e03ae8d" x="59.714964" y="203.58092" style="stroke: #000000; stroke-width: 0.8"/>
      </g>
     </g>
     <g id="text_12">
      <!-- $\mathdefault{10^{-8}}$ -->
      <g transform="translate(29.214964 207.380138) scale(0.1 -0.1)">
       <use xlink:href="#DejaVuSans-31" transform="translate(0 0.765625)"/>
       <use xlink:href="#DejaVuSans-30" transform="translate(63.623047 0.765625)"/>
       <use xlink:href="#DejaVuSans-2212" transform="translate(128.203125 39.046875) scale(0.7)"/>
       <use xlink:href="#DejaVuSans-38" transform="translate(186.855469 39.046875) scale(0.7)"/>
      </g>
     </g>
    </g>
    <g id="ytick_5">
     <g id="line2d_23">
      <path d="M 59.714964 156.397083 
L 565.2 156.397083 
" clip-path="url(#p059730b8fc)" style="fill: none; stroke: #b0b0b0; stroke-width: 0.8; stroke-linecap: square"/>
     </g>
     <g id="line2d_24">
      <g>
       <use xlink:href="#m273e03ae8d" x="59.714964" y="156.397083" style="stroke: #000000; stroke-width: 0.8"/>
      </g>
     </g>
     <g id="text_13">
      <!-- $\mathdefault{10^{-3}}$ -->
      <g transform="translate(29.214964 160.196301) scale(0.1 -0.1)">
       <use xlink:href="#DejaVuSans-31" transform="translate(0 0.765625)"/>
       <use xlink:href="#DejaVuSans-30" transform="translate(63.623047 0.765625)"/>
       <use xlink:href="#DejaVuSans-2212" transform="translate(128.203125 39.046875) scale(0.7)"/>
       <use xlink:href="#DejaVuSans-33" transform="translate(186.855469 39.046875) scale(0.7)"/>
      </g>
     </g>
    </g>
    <g id="ytick_6">
     <g id="line2d_25">
      <path d="M 59.714964 109.213245 
L 565.2 109.213245 
" clip-path="url(#p059730b8fc)" style="fill: none; stroke: #b0b0b0; stroke-width: 0.8; stroke-linecap: square"/>
     </g>
     <g id="line2d_26">
      <g>
       <use xlink:href="#m273e03ae8d" x="59.714964" y="109.213245" style="stroke: #000000; stroke-width: 0.8"/>
      </g>
     </g>
     <g id="text_14">
      <!-- $\mathdefault{10^{2}}$ -->
      <g transform="translate(35.114964 113.012464) scale(0.1 -0.1)">
       <use xlink:href="#DejaVuSans-31" transform="translate(0 0.765625)"/>
       <use xlink:href="#DejaVuSans-30" transform="translate(63.623047 0.765625)"/>
       <use xlink:href="#DejaVuSans-32" transform="translate(128.203125 39.046875) scale(0.7)"/>
      </g>
     </g>
    </g>
    <g id="ytick_7">
     <g id="line2d_27">
      <path d="M 59.714964 62.029408 
L 565.2 62.029408 
" clip-path="url(#p059730b8fc)" style="fill: none; stroke: #b0b0b0; stroke-width: 0.8; stroke-linecap: square"/>
     </g>
     <g id="line2d_28">
      <g>
       <use xlink:href="#m273e03ae8d" x="59.714964" y="62.029408" style="stroke: #000000; stroke-width: 0.8"/>
      </g>
     </g>
     <g id="text_15">
      <!-- $\mathdefault{10^{7}}$ -->
      <g transform="translate(35.114964 65.828627) scale(0.1 -0.1)">
       <defs>
        <path id="DejaVuSans-37" d="M 525 4666 
L 3525 4666 
L 3525 4397 
L 1831 0 
L 1172 0 
L 2766 4134 
L 525 4134 
L 525 4666 
z
" transform="scale(0.015625)"/>
       </defs>
       <use xlink:href="#DejaVuSans-31" transform="translate(0 0.684375)"/>
       <use xlink:href="#DejaVuSans-30" transform="translate(63.623047 0.684375)"/>
       <use xlink:href="#DejaVuSans-37" transform="translate(128.203125 38.965625) scale(0.7)"/>
      </g>
     </g>
    </g>
    <g id="text_16">
     <!-- Residual -->
     <g transform="translate(18.735276 229.215625) rotate(-90) scale(0.1 -0.1)">
      <defs>
       <path id="DejaVuSans-52" d="M 2841 2188 
Q 3044 2119 3236 1894 
Q 3428 1669 3622 1275 
L 4263 0 
L 3584 0 
L 2988 1197 
Q 2756 1666 2539 1819 
Q 2322 1972 1947 1972 
L 1259 1972 
L 1259 0 
L 628 0 
L 628 4666 
L 2053 4666 
Q 2853 4666 3247 4331 
Q 3641 3997 3641 3322 
Q 3641 2881 3436 2590 
Q 3231 2300 2841 2188 
z
M 1259 4147 
L 1259 2491 
L 2053 2491 
Q 2509 2491 2742 2702 
Q 2975 2913 2975 3322 
Q 2975 3731 2742 3939 
Q 2509 4147 2053 4147 
L 1259 4147 
z
" transform="scale(0.015625)"/>
       <path id="DejaVuSans-73" d="M 2834 3397 
L 2834 2853 
Q 2591 2978 2328 3040 
Q 2066 3103 1784 3103 
Q 1356 3103 1142 2972 
Q 928 2841 928 2578 
Q 928 2378 1081 2264 
Q 1234 2150 1697 2047 
L 1894 2003 
Q 2506 1872 2764 1633 
Q 3022 1394 3022 966 
Q 3022 478 2636 193 
Q 2250 -91 1575 -91 
Q 1294 -91 989 -36 
Q 684 19 347 128 
L 347 722 
Q 666 556 975 473 
Q 1284 391 1588 391 
Q 1994 391 2212 530 
Q 2431 669 2431 922 
Q 2431 1156 2273 1281 
Q 2116 1406 1581 1522 
L 1381 1569 
Q 847 1681 609 1914 
Q 372 2147 372 2553 
Q 372 3047 722 3315 
Q 1072 3584 1716 3584 
Q 2034 3584 2315 3537 
Q 2597 3491 2834 3397 
z
" transform="scale(0.015625)"/>
       <path id="DejaVuSans-64" d="M 2906 2969 
L 2906 4863 
L 3481 4863 
L 3481 0 
L 2906 0 
L 2906 525 
Q 2725 213 2448 61 
Q 2172 -91 1784 -91 
Q 1150 -91 751 415 
Q 353 922 353 1747 
Q 353 2572 751 3078 
Q 1150 3584 1784 3584 
Q 2172 3584 2448 3432 
Q 2725 3281 2906 2969 
z
M 947 1747 
Q 947 1113 1208 752 
Q 1469 391 1925 391 
Q 2381 391 2643 752 
Q 2906 1113 2906 1747 
Q 2906 2381 2643 2742 
Q 2381 3103 1925 3103 
Q 1469 3103 1208 2742 
Q 947 2381 947 1747 
z
" transform="scale(0.015625)"/>
       <path id="DejaVuSans-75" d="M 544 1381 
L 544 3500 
L 1119 3500 
L 1119 1403 
Q 1119 906 1312 657 
Q 1506 409 1894 409 
Q 2359 409 2629 706 
Q 2900 1003 2900 1516 
L 2900 3500 
L 3475 3500 
L 3475 0 
L 2900 0 
L 2900 538 
Q 2691 219 2414 64 
Q 2138 -91 1772 -91 
Q 1169 -91 856 284 
Q 544 659 544 1381 
z
M 1991 3584 
L 1991 3584 
z
" transform="scale(0.015625)"/>
       <path id="DejaVuSans-6c" d="M 603 4863 
L 1178 4863 
L 1178 0 
L 603 0 
L 603 4863 
z
" transform="scale(0.015625)"/>
      </defs>
      <use xlink:href="#DejaVuSans-52"/>
      <use xlink:href="#DejaVuSans-65" transform="translate(64.982422 0)"/>
      <use xlink:href="#DejaVuSans-73" transform="translate(126.505859 0)"/>
      <use xlink:href="#DejaVuSans-69" transform="translate(178.605469 0)"/>
      <use xlink:href="#DejaVuSans-64" transform="translate(206.388672 0)"/>
      <use xlink:href="#DejaVuSans-75" transform="translate(269.865234 0)"/>
      <use xlink:href="#DejaVuSans-61" transform="translate(333.244141 0)"/>
      <use xlink:href="#DejaVuSans-6c" transform="translate(394.523438 0)"/>
     </g>
    </g>
   </g>
   <g id="line2d_29">
    <path d="M 82.691556 75.280054 
L 82.849525 104.783741 
L 83.294711 118.412995 
L 92.241501 371.308627 
L 92.255862 371.279374 
L 92.471274 372.9749 
L 92.729769 373.49692 
L 93.390366 373.462387 
L 542.223407 373.462387 
L 542.223407 373.462387 
" clip-path="url(#p059730b8fc)" style="fill: none; stroke: #1f77b4; stroke-width: 1.5; stroke-linecap: square"/>
   </g>
   <g id="line2d_30">
    <path d="M 82.691556 56.894891 
L 82.849525 89.563022 
L 83.093659 95.94672 
L 83.45268 99.784674 
L 83.955308 102.830226 
L 84.745153 106.154758 
L 86.296122 111.575134 
L 90.590007 125.521741 
L 158.014052 342.22963 
L 158.128939 342.600984 
L 158.31563 343.148249 
L 159.277805 345.979274 
L 159.37833 346.241662 
L 159.72299 347.144563 
L 159.89532 347.627782 
L 160.469753 349.074889 
L 160.670804 349.570509 
L 160.685165 349.492625 
L 160.742608 349.748486 
L 160.814412 349.805619 
L 161.001103 350.296027 
L 161.317041 350.883501 
L 161.460649 351.200853 
L 161.47501 351.136562 
L 161.575536 351.292085 
L 161.719144 351.613639 
L 161.762226 351.571141 
L 161.776587 351.574062 
L 161.920195 351.898679 
L 162.293577 352.447184 
L 161.963278 351.841056 
L 162.307937 352.433377 
L 162.322298 352.245307 
L 162.408463 352.463826 
L 162.53771 352.681319 
L 162.666958 352.797515 
L 162.681319 352.770943 
L 162.69568 352.891164 
L 162.724401 352.879749 
L 162.796205 352.85467 
L 162.868009 353.057675 
L 162.896731 353.023346 
L 162.939813 353.114101 
L 162.968535 353.084216 
L 163.212669 353.371788 
L 163.241391 353.288115 
L 163.284473 353.340006 
L 163.41372 353.673802 
L 163.528607 353.532042 
L 163.657854 353.727185 
L 163.686576 353.808278 
L 163.744019 353.693535 
L 163.772741 353.754444 
L 163.873267 353.598937 
L 164.002514 353.873903 
L 164.10304 353.735461 
L 164.146122 353.860158 
L 164.203566 353.906245 
L 164.174844 353.790904 
L 164.232287 353.795571 
L 164.246648 353.766853 
L 164.27537 353.881461 
L 164.28973 353.871071 
L 164.347174 353.723071 
L 164.418978 353.973029 
L 164.562586 353.936034 
L 164.605668 354.055394 
L 164.663112 353.906014 
L 164.706194 353.999087 
L 164.777998 353.873103 
L 164.907246 354.007286 
L 164.921606 353.956915 
L 164.993411 354.049587 
L 165.007771 354.01267 
L 165.122658 354.216451 
L 165.15138 354.189885 
L 165.16574 354.123976 
L 165.237544 354.282786 
L 165.323709 354.248989 
L 165.352431 354.267155 
L 165.697091 354.358023 
L 165.725812 354.273212 
L 165.797616 354.40403 
L 165.811977 354.333828 
L 165.85506 354.407637 
L 165.912503 354.299832 
L 165.926864 354.294016 
L 165.941225 354.371865 
L 165.955585 354.436336 
L 166.013029 354.298989 
L 166.056111 354.376797 
L 166.099194 354.441745 
L 166.170998 354.396403 
L 173.652984 354.519041 
L 542.223407 354.519041 
L 542.223407 354.519041 
" clip-path="url(#p059730b8fc)" style="fill: none; stroke: #ff7f0e; stroke-width: 1.5; stroke-linecap: square"/>
   </g>
   <g id="line2d_31">
    <path d="M 82.691556 48.287997 
L 82.849525 82.76106 
L 83.093659 89.312166 
L 83.46704 93.540219 
L 83.955308 96.612537 
L 84.544102 98.94131 
L 85.276504 100.936929 
L 86.195596 102.786436 
L 87.444987 104.77971 
L 89.383698 107.418917 
L 92.701047 111.520159 
L 99.378828 119.361391 
L 132.064052 157.134364 
L 284.03024 332.506421 
L 284.762642 333.316435 
L 285.207827 333.810965 
L 286.672631 335.393345 
L 289.085249 337.864085 
L 289.472991 338.239052 
L 289.645321 338.428229 
L 289.717125 338.476183 
L 289.875094 338.663222 
L 289.889455 338.640008 
L 289.961259 338.734242 
L 290.478248 339.23275 
L 290.564413 339.268317 
L 290.736743 339.437923 
L 291.497866 340.09488 
L 291.612753 340.245068 
L 291.627114 340.202868 
L 292.273351 340.763652 
L 293.809958 341.921194 
L 293.824319 341.851353 
L 293.881762 342.025241 
L 293.896123 342.022557 
L 293.924845 341.976949 
L 293.996649 342.060805 
L 294.111535 342.169634 
L 294.140257 342.121904 
L 294.973184 342.76272 
L 295.001906 342.728173 
L 295.059349 342.756961 
L 295.174236 342.870829 
L 295.188597 342.810994 
L 295.260401 342.900432 
L 295.274762 342.846902 
L 295.404009 342.967071 
L 295.461452 343.044147 
L 295.475813 342.985403 
L 295.5907 343.097933 
L 295.605061 343.054152 
L 295.648143 343.127991 
L 295.691225 343.105411 
L 295.834834 343.187471 
L 295.863555 343.156217 
L 296.021524 343.361733 
L 296.064607 343.298798 
L 296.136411 343.34748 
L 296.29438 343.452633 
L 296.308741 343.434376 
L 296.366184 343.487771 
L 296.423627 343.421716 
L 296.524153 343.572869 
L 296.552875 343.54105 
L 296.954978 343.822368 
L 296.969338 343.77952 
L 297.069864 343.744206 
L 297.084225 343.77265 
L 297.199111 343.913498 
L 297.112947 343.747509 
L 297.213472 343.854416 
L 297.270916 343.817566 
L 297.285276 343.90038 
L 297.313998 343.859627 
L 297.486328 343.999438 
L 297.644297 343.944361 
L 297.730462 344.08507 
L 297.759183 344.064775 
L 297.888431 344.075426 
L 297.917152 344.035241 
L 298.103843 344.187272 
L 298.118204 344.156801 
L 298.175647 344.285745 
L 298.190008 344.240504 
L 298.434142 344.332514 
L 298.563389 344.442846 
L 298.620833 344.310605 
L 298.592111 344.457137 
L 298.678276 344.389518 
L 298.692637 344.34575 
L 298.75008 344.448936 
L 298.778802 344.523079 
L 298.864966 344.481199 
L 299.022935 344.574171 
L 299.037296 344.546435 
L 299.1091 344.560308 
L 299.238348 344.657786 
L 299.396317 344.796046 
L 299.468121 344.766347 
L 299.45376 344.836742 
L 299.482482 344.845805 
L 299.611729 344.89698 
L 299.712255 344.78201 
L 299.726616 344.867543 
L 299.841502 344.839878 
L 299.855863 344.875616 
L 299.913306 344.783338 
L 299.942028 344.814032 
L 299.999471 344.845799 
L 300.042554 344.761199 
L 300.099997 344.980761 
L 300.186162 344.959329 
L 300.214883 344.917764 
L 300.257966 345.002728 
L 300.272327 344.982366 
L 300.286688 345.045874 
L 300.358492 344.866984 
L 300.473378 344.979778 
L 300.5021 344.938288 
L 300.588265 344.910122 
L 300.573904 345.012679 
L 300.602626 344.952796 
L 300.645708 345.053761 
L 300.688791 344.93525 
L 300.703151 344.933591 
L 301.162698 345.189996 
L 301.177058 345.092726 
L 301.320667 344.999598 
L 301.335027 345.009398 
L 301.464275 345.208651 
L 301.478636 345.181066 
L 301.5648 345.094089 
L 301.607883 345.131824 
L 301.622244 345.142934 
L 301.636605 345.082761 
L 301.650965 345.01391 
L 301.73713 345.11338 
L 301.866378 345.294211 
L 301.995625 345.179336 
L 302.139233 345.237005 
L 302.282841 345.260053 
L 302.42645 345.389927 
L 302.498254 345.304751 
L 302.541336 345.355674 
L 302.713666 345.326722 
L 302.756748 345.365587 
L 302.828553 345.299386 
L 303.101408 345.414498 
L 303.273738 345.3333 
L 303.359903 345.370846 
L 303.48915 345.429714 
L 303.546594 345.516535 
L 303.589676 345.448381 
L 303.733284 345.594577 
L 303.790727 345.543152 
L 303.848171 345.562581 
L 304.063583 345.61088 
L 304.149748 345.545892 
L 304.17847 345.594062 
L 304.293356 345.661261 
L 304.379521 345.570144 
L 304.408243 345.625124 
L 304.580572 345.719103 
L 304.594933 345.766206 
L 304.638016 345.695865 
L 304.681098 345.70094 
L 304.752902 345.676315 
L 304.767263 345.643629 
L 304.939593 345.618825 
L 305.198088 345.627715 
L 305.312974 345.620716 
L 305.456582 345.684 
L 305.58583 345.639669 
L 305.77252 345.734156 
L 305.786881 345.706169 
L 305.94485 345.730247 
L 306.002294 345.688351 
L 306.074098 345.769601 
L 306.088459 345.724569 
L 306.188984 345.761135 
L 306.361314 345.834789 
L 317.376062 345.910995 
L 542.223407 345.910995 
L 542.223407 345.910995 
" clip-path="url(#p059730b8fc)" style="fill: none; stroke: #2ca02c; stroke-width: 1.5; stroke-linecap: square"/>
   </g>
   <g id="line2d_32">
    <path d="M 82.691556 42.7 
L 82.863886 78.830522 
L 83.122381 85.513406 
L 83.495762 89.585649 
L 83.98403 92.5716 
L 84.601545 94.985864 
L 85.333947 96.972999 
L 86.209957 98.710032 
L 87.243936 100.26211 
L 88.478966 101.711628 
L 90.044296 103.196598 
L 92.184058 104.903134 
L 95.372159 107.139364 
L 100.398446 110.370698 
L 108.900051 115.542811 
L 128.976476 127.428068 
L 436.355449 308.50672 
L 437.231459 309.021673 
L 440.706777 311.067923 
L 446.206971 314.304263 
L 465.349943 325.475349 
L 465.680241 325.662736 
L 467.073241 326.453645 
L 468.236467 327.113446 
L 468.98323 327.539537 
L 469.227364 327.674271 
L 478.547535 332.653953 
L 478.6337 332.682705 
L 478.648061 332.698747 
L 478.949638 332.857486 
L 480.19903 333.470703 
L 480.299555 333.497506 
L 481.390978 334.00612 
L 481.735637 334.194556 
L 481.749998 334.161729 
L 481.836163 334.221568 
L 482.065936 334.298164 
L 482.223905 334.399062 
L 482.367513 334.446803 
L 482.626008 334.549026 
L 482.740895 334.595469 
L 482.884503 334.664943 
L 482.985029 334.688984 
L 483.114276 334.795806 
L 483.128637 334.785224 
L 483.746152 335.058275 
L 483.760513 335.03258 
L 483.817956 335.106861 
L 483.846678 335.082977 
L 483.990286 335.164256 
L 484.334946 335.296943 
L 484.349306 335.268419 
L 484.449832 335.317638 
L 484.622162 335.396321 
L 484.76577 335.446323 
L 490.107995 337.337867 
L 490.122356 337.286066 
L 490.151077 337.368235 
L 490.251603 337.396459 
L 490.265964 337.387441 
L 490.36649 337.403276 
L 490.38085 337.373988 
L 490.567541 337.484512 
L 490.581902 337.46523 
L 490.624984 337.444485 
L 490.639345 337.518131 
L 490.668067 337.492326 
L 490.797314 337.561545 
L 490.883479 337.554875 
L 490.89784 337.571826 
L 491.012726 337.66885 
L 490.955283 337.538764 
L 491.027087 337.648273 
L 491.386108 337.666607 
L 491.400469 337.742081 
L 491.457912 337.636015 
L 491.500994 337.694702 
L 491.730767 337.764873 
L 491.802571 337.741435 
L 491.816932 337.786072 
L 491.931819 337.860663 
L 491.989262 337.831389 
L 492.046705 337.86214 
L 492.319561 337.936113 
L 492.463169 338.015652 
L 492.592417 337.972162 
L 492.736025 338.029333 
L 492.83655 338.035923 
L 492.779107 338.069269 
L 492.850911 338.046875 
L 492.965798 338.099166 
L 492.980159 338.037387 
L 493.037602 338.118644 
L 493.066324 338.095069 
L 493.166849 338.171438 
L 493.209932 338.132055 
L 493.224293 338.099506 
L 493.238653 338.16319 
L 493.296097 338.185374 
L 493.35354 338.231239 
L 493.324818 338.15836 
L 493.396622 338.182871 
L 493.410983 338.145231 
L 493.454066 338.217028 
L 493.497148 338.225898 
L 493.770004 338.265372 
L 493.841808 338.224685 
L 493.856169 338.278081 
L 493.985416 338.330353 
L 494.042859 338.294509 
L 494.085942 338.357344 
L 494.186467 338.380552 
L 494.200828 338.347802 
L 494.272632 338.327629 
L 494.258272 338.397407 
L 494.286993 338.410644 
L 494.444962 338.384825 
L 494.473684 338.368355 
L 494.57421 338.468608 
L 494.789622 338.457144 
L 494.832704 338.507252 
L 494.904508 338.466137 
L 495.10556 338.494056 
L 495.220446 338.614548 
L 495.249168 338.573228 
L 495.364055 338.512882 
L 495.378415 338.555001 
L 495.407137 338.544598 
L 495.536384 338.687889 
L 495.622549 338.627817 
L 495.665632 338.654734 
L 495.852322 338.717257 
L 495.938487 338.763383 
L 495.952848 338.683668 
L 495.967209 338.663674 
L 495.995931 338.733889 
L 496.053374 338.730748 
L 496.16826 338.770746 
L 496.182621 338.730125 
L 496.426755 338.826681 
L 496.441116 338.78585 
L 496.51292 338.814712 
L 496.570363 338.890109 
L 496.613446 338.769549 
L 496.915023 338.863676 
L 496.972466 338.911786 
L 496.986827 338.804412 
L 497.015549 338.842837 
L 497.144796 338.843958 
L 497.245322 338.934363 
L 497.274044 338.877562 
L 497.288404 338.804827 
L 497.374569 338.914311 
L 497.432013 338.967418 
L 497.489456 338.909808 
L 497.532538 339.02127 
L 497.618703 338.975838 
L 497.647425 338.960705 
L 497.690507 339.033759 
L 497.704868 339.041819 
L 497.719229 339.072852 
L 497.791033 338.985908 
L 497.805394 339.011118 
L 497.862837 339.057336 
L 497.90592 339.009709 
L 497.992085 339.077796 
L 498.020806 339.046064 
L 499.84463 339.276454 
L 499.945156 339.248502 
L 499.959517 339.275817 
L 500.088764 339.439825 
L 500.117486 339.364464 
L 500.146207 339.325371 
L 500.18929 339.437039 
L 500.203651 339.433418 
L 500.462145 339.368553 
L 500.53395 339.40958 
L 500.562671 339.382729 
L 500.577032 339.338869 
L 500.634475 339.430368 
L 500.663197 339.418729 
L 500.921692 339.451621 
L 501.323795 339.477744 
L 501.381238 339.550646 
L 501.438681 339.53043 
L 501.510485 339.484473 
L 501.539207 339.556696 
L 501.76898 339.646665 
L 501.883867 339.542252 
L 501.898227 339.618644 
L 501.912588 339.626258 
L 501.955671 339.540196 
L 501.998753 339.600813 
L 502.084918 339.532219 
L 502.142361 339.629991 
L 502.214165 339.600485 
L 502.587547 339.586791 
L 502.673712 339.5985 
L 502.688072 339.630897 
L 503.664608 339.639611 
L 503.750773 339.666549 
L 503.779495 339.645241 
L 503.851299 339.598977 
L 503.88002 339.629486 
L 503.966185 339.70444 
L 503.994907 339.679153 
L 504.109793 339.643497 
L 504.239041 339.614761 
L 504.39701 339.73765 
L 504.411371 339.703415 
L 504.598061 339.656721 
L 504.684226 339.744547 
L 504.712948 339.733217 
L 505.488432 339.817789 
L 505.603319 339.82744 
L 505.962339 339.848741 
L 506.077226 339.856307 
L 506.206473 339.859281 
L 506.479329 339.947901 
L 507.585112 340.10819 
L 507.685637 340.057907 
L 507.699998 340.087226 
L 507.929771 340.087996 
L 508.059019 340.03196 
L 508.346235 340.080069 
L 508.446761 340.099348 
L 508.461122 340.086786 
L 508.60473 340.067484 
L 508.705256 340.120651 
L 509.092998 340.135483 
L 509.236606 340.099346 
L 509.250967 340.112235 
L 509.466379 340.088111 
L 509.624348 340.120621 
L 509.796678 340.182735 
L 509.811039 340.162534 
L 513.243274 340.171953 
L 513.372522 340.186651 
L 514.018759 340.194226 
L 514.234171 340.220673 
L 514.363418 340.17147 
L 514.550109 340.217012 
L 515.110181 340.242037 
L 515.282511 340.235651 
L 515.483562 340.246323 
L 515.943108 340.260584 
L 516.14416 340.277048 
L 516.431376 340.285432 
L 516.718593 340.288517 
L 518.370087 340.29786 
L 527.575372 340.296862 
L 542.223407 340.296862 
L 542.223407 340.296862 
" clip-path="url(#p059730b8fc)" style="fill: none; stroke: #d62728; stroke-width: 1.5; stroke-linecap: square"/>
   </g>
   <g id="patch_3">
    <path d="M 59.714964 390.04 
L 59.714964 26.16 
" style="fill: none; stroke: #000000; stroke-width: 0.8; stroke-linejoin: miter; stroke-linecap: square"/>
   </g>
   <g id="patch_4">
    <path d="M 565.2 390.04 
L 565.2 26.16 
" style="fill: none; stroke: #000000; stroke-width: 0.8; stroke-linejoin: miter; stroke-linecap: square"/>
   </g>
   <g id="patch_5">
    <path d="M 59.714964 390.04 
L 565.2 390.04 
" style="fill: none; stroke: #000000; stroke-width: 0.8; stroke-linejoin: miter; stroke-linecap: square"/>
   </g>
   <g id="patch_6">
    <path d="M 59.714964 26.16 
L 565.2 26.16 
" style="fill: none; stroke: #000000; stroke-width: 0.8; stroke-linejoin: miter; stroke-linecap: square"/>
   </g>
   <g id="text_17">
    <!-- Convergence of Residuals -->
    <g transform="translate(234.833419 20.16) scale(0.12 -0.12)">
     <defs>
      <path id="DejaVuSans-43" d="M 4122 4306 
L 4122 3641 
Q 3803 3938 3442 4084 
Q 3081 4231 2675 4231 
Q 1875 4231 1450 3742 
Q 1025 3253 1025 2328 
Q 1025 1406 1450 917 
Q 1875 428 2675 428 
Q 3081 428 3442 575 
Q 3803 722 4122 1019 
L 4122 359 
Q 3791 134 3420 21 
Q 3050 -91 2638 -91 
Q 1578 -91 968 557 
Q 359 1206 359 2328 
Q 359 3453 968 4101 
Q 1578 4750 2638 4750 
Q 3056 4750 3426 4639 
Q 3797 4528 4122 4306 
z
" transform="scale(0.015625)"/>
      <path id="DejaVuSans-76" d="M 191 3500 
L 800 3500 
L 1894 563 
L 2988 3500 
L 3597 3500 
L 2284 0 
L 1503 0 
L 191 3500 
z
" transform="scale(0.015625)"/>
      <path id="DejaVuSans-67" d="M 2906 1791 
Q 2906 2416 2648 2759 
Q 2391 3103 1925 3103 
Q 1463 3103 1205 2759 
Q 947 2416 947 1791 
Q 947 1169 1205 825 
Q 1463 481 1925 481 
Q 2391 481 2648 825 
Q 2906 1169 2906 1791 
z
M 3481 434 
Q 3481 -459 3084 -895 
Q 2688 -1331 1869 -1331 
Q 1566 -1331 1297 -1286 
Q 1028 -1241 775 -1147 
L 775 -588 
Q 1028 -725 1275 -790 
Q 1522 -856 1778 -856 
Q 2344 -856 2625 -561 
Q 2906 -266 2906 331 
L 2906 616 
Q 2728 306 2450 153 
Q 2172 0 1784 0 
Q 1141 0 747 490 
Q 353 981 353 1791 
Q 353 2603 747 3093 
Q 1141 3584 1784 3584 
Q 2172 3584 2450 3431 
Q 2728 3278 2906 2969 
L 2906 3500 
L 3481 3500 
L 3481 434 
z
" transform="scale(0.015625)"/>
      <path id="DejaVuSans-63" d="M 3122 3366 
L 3122 2828 
Q 2878 2963 2633 3030 
Q 2388 3097 2138 3097 
Q 1578 3097 1268 2742 
Q 959 2388 959 1747 
Q 959 1106 1268 751 
Q 1578 397 2138 397 
Q 2388 397 2633 464 
Q 2878 531 3122 666 
L 3122 134 
Q 2881 22 2623 -34 
Q 2366 -91 2075 -91 
Q 1284 -91 818 406 
Q 353 903 353 1747 
Q 353 2603 823 3093 
Q 1294 3584 2113 3584 
Q 2378 3584 2631 3529 
Q 2884 3475 3122 3366 
z
" transform="scale(0.015625)"/>
      <path id="DejaVuSans-20" transform="scale(0.015625)"/>
      <path id="DejaVuSans-66" d="M 2375 4863 
L 2375 4384 
L 1825 4384 
Q 1516 4384 1395 4259 
Q 1275 4134 1275 3809 
L 1275 3500 
L 2222 3500 
L 2222 3053 
L 1275 3053 
L 1275 0 
L 697 0 
L 697 3053 
L 147 3053 
L 147 3500 
L 697 3500 
L 697 3744 
Q 697 4328 969 4595 
Q 1241 4863 1831 4863 
L 2375 4863 
z
" transform="scale(0.015625)"/>
     </defs>
     <use xlink:href="#DejaVuSans-43"/>
     <use xlink:href="#DejaVuSans-6f" transform="translate(69.824219 0)"/>
     <use xlink:href="#DejaVuSans-6e" transform="translate(131.005859 0)"/>
     <use xlink:href="#DejaVuSans-76" transform="translate(194.384766 0)"/>
     <use xlink:href="#DejaVuSans-65" transform="translate(253.564453 0)"/>
     <use xlink:href="#DejaVuSans-72" transform="translate(315.087891 0)"/>
     <use xlink:href="#DejaVuSans-67" transform="translate(354.451172 0)"/>
     <use xlink:href="#DejaVuSans-65" transform="translate(417.927734 0)"/>
     <use xlink:href="#DejaVuSans-6e" transform="translate(479.451172 0)"/>
     <use xlink:href="#DejaVuSans-63" transform="translate(542.830078 0)"/>
     <use xlink:href="#DejaVuSans-65" transform="translate(597.810547 0)"/>
     <use xlink:href="#DejaVuSans-20" transform="translate(659.333984 0)"/>
     <use xlink:href="#DejaVuSans-6f" transform="translate(691.121094 0)"/>
     <use xlink:href="#DejaVuSans-66" transform="translate(752.302734 0)"/>
     <use xlink:href="#DejaVuSans-20" transform="translate(787.507812 0)"/>
     <use xlink:href="#DejaVuSans-52" transform="translate(819.294922 0)"/>
     <use xlink:href="#DejaVuSans-65" transform="translate(884.277344 0)"/>
     <use xlink:href="#DejaVuSans-73" transform="translate(945.800781 0)"/>
     <use xlink:href="#DejaVuSans-69" transform="translate(997.900391 0)"/>
     <use xlink:href="#DejaVuSans-64" transform="translate(1025.683594 0)"/>
     <use xlink:href="#DejaVuSans-75" transform="translate(1089.160156 0)"/>
     <use xlink:href="#DejaVuSans-61" transform="translate(1152.539062 0)"/>
     <use xlink:href="#DejaVuSans-6c" transform="translate(1213.818359 0)"/>
     <use xlink:href="#DejaVuSans-73" transform="translate(1241.601562 0)"/>
    </g>
   </g>
   <g id="legend_1">
    <g id="patch_7">
     <path d="M 430.867187 92.8725 
L 558.2 92.8725 
Q 560.2 92.8725 560.2 90.8725 
L 560.2 33.16 
Q 560.2 31.16 558.2 31.16 
L 430.867187 31.16 
Q 428.867187 31.16 428.867187 33.16 
L 428.867187 90.8725 
Q 428.867187 92.8725 430.867187 92.8725 
z
" style="fill: #ffffff; opacity: 0.8; stroke: #cccccc; stroke-linejoin: miter"/>
    </g>
    <g id="line2d_33">
     <path d="M 432.867187 39.258437 
L 442.867187 39.258437 
L 452.867187 39.258437 
" style="fill: none; stroke: #1f77b4; stroke-width: 1.5; stroke-linecap: square"/>
    </g>
    <g id="text_18">
     <!-- Grid Size: 32x32 -->
     <g transform="translate(460.867187 42.758437) scale(0.1 -0.1)">
      <defs>
       <path id="DejaVuSans-47" d="M 3809 666 
L 3809 1919 
L 2778 1919 
L 2778 2438 
L 4434 2438 
L 4434 434 
Q 4069 175 3628 42 
Q 3188 -91 2688 -91 
Q 1594 -91 976 548 
Q 359 1188 359 2328 
Q 359 3472 976 4111 
Q 1594 4750 2688 4750 
Q 3144 4750 3555 4637 
Q 3966 4525 4313 4306 
L 4313 3634 
Q 3963 3931 3569 4081 
Q 3175 4231 2741 4231 
Q 1884 4231 1454 3753 
Q 1025 3275 1025 2328 
Q 1025 1384 1454 906 
Q 1884 428 2741 428 
Q 3075 428 3337 486 
Q 3600 544 3809 666 
z
" transform="scale(0.015625)"/>
       <path id="DejaVuSans-53" d="M 3425 4513 
L 3425 3897 
Q 3066 4069 2747 4153 
Q 2428 4238 2131 4238 
Q 1616 4238 1336 4038 
Q 1056 3838 1056 3469 
Q 1056 3159 1242 3001 
Q 1428 2844 1947 2747 
L 2328 2669 
Q 3034 2534 3370 2195 
Q 3706 1856 3706 1288 
Q 3706 609 3251 259 
Q 2797 -91 1919 -91 
Q 1588 -91 1214 -16 
Q 841 59 441 206 
L 441 856 
Q 825 641 1194 531 
Q 1563 422 1919 422 
Q 2459 422 2753 634 
Q 3047 847 3047 1241 
Q 3047 1584 2836 1778 
Q 2625 1972 2144 2069 
L 1759 2144 
Q 1053 2284 737 2584 
Q 422 2884 422 3419 
Q 422 4038 858 4394 
Q 1294 4750 2059 4750 
Q 2388 4750 2728 4690 
Q 3069 4631 3425 4513 
z
" transform="scale(0.015625)"/>
       <path id="DejaVuSans-7a" d="M 353 3500 
L 3084 3500 
L 3084 2975 
L 922 459 
L 3084 459 
L 3084 0 
L 275 0 
L 275 525 
L 2438 3041 
L 353 3041 
L 353 3500 
z
" transform="scale(0.015625)"/>
       <path id="DejaVuSans-3a" d="M 750 794 
L 1409 794 
L 1409 0 
L 750 0 
L 750 794 
z
M 750 3309 
L 1409 3309 
L 1409 2516 
L 750 2516 
L 750 3309 
z
" transform="scale(0.015625)"/>
       <path id="DejaVuSans-78" d="M 3513 3500 
L 2247 1797 
L 3578 0 
L 2900 0 
L 1881 1375 
L 863 0 
L 184 0 
L 1544 1831 
L 300 3500 
L 978 3500 
L 1906 2253 
L 2834 3500 
L 3513 3500 
z
" transform="scale(0.015625)"/>
      </defs>
      <use xlink:href="#DejaVuSans-47"/>
      <use xlink:href="#DejaVuSans-72" transform="translate(77.490234 0)"/>
      <use xlink:href="#DejaVuSans-69" transform="translate(118.603516 0)"/>
      <use xlink:href="#DejaVuSans-64" transform="translate(146.386719 0)"/>
      <use xlink:href="#DejaVuSans-20" transform="translate(209.863281 0)"/>
      <use xlink:href="#DejaVuSans-53" transform="translate(241.650391 0)"/>
      <use xlink:href="#DejaVuSans-69" transform="translate(305.126953 0)"/>
      <use xlink:href="#DejaVuSans-7a" transform="translate(332.910156 0)"/>
      <use xlink:href="#DejaVuSans-65" transform="translate(385.400391 0)"/>
      <use xlink:href="#DejaVuSans-3a" transform="translate(446.923828 0)"/>
      <use xlink:href="#DejaVuSans-20" transform="translate(480.615234 0)"/>
      <use xlink:href="#DejaVuSans-33" transform="translate(512.402344 0)"/>
      <use xlink:href="#DejaVuSans-32" transform="translate(576.025391 0)"/>
      <use xlink:href="#DejaVuSans-78" transform="translate(639.648438 0)"/>
      <use xlink:href="#DejaVuSans-33" transform="translate(698.828125 0)"/>
      <use xlink:href="#DejaVuSans-32" transform="translate(762.451172 0)"/>
     </g>
    </g>
    <g id="line2d_34">
     <path d="M 432.867187 53.936562 
L 442.867187 53.936562 
L 452.867187 53.936562 
" style="fill: none; stroke: #ff7f0e; stroke-width: 1.5; stroke-linecap: square"/>
    </g>
    <g id="text_19">
     <!-- Grid Size: 96x96 -->
     <g transform="translate(460.867187 57.436562) scale(0.1 -0.1)">
      <defs>
       <path id="DejaVuSans-39" d="M 703 97 
L 703 672 
Q 941 559 1184 500 
Q 1428 441 1663 441 
Q 2288 441 2617 861 
Q 2947 1281 2994 2138 
Q 2813 1869 2534 1725 
Q 2256 1581 1919 1581 
Q 1219 1581 811 2004 
Q 403 2428 403 3163 
Q 403 3881 828 4315 
Q 1253 4750 1959 4750 
Q 2769 4750 3195 4129 
Q 3622 3509 3622 2328 
Q 3622 1225 3098 567 
Q 2575 -91 1691 -91 
Q 1453 -91 1209 -44 
Q 966 3 703 97 
z
M 1959 2075 
Q 2384 2075 2632 2365 
Q 2881 2656 2881 3163 
Q 2881 3666 2632 3958 
Q 2384 4250 1959 4250 
Q 1534 4250 1286 3958 
Q 1038 3666 1038 3163 
Q 1038 2656 1286 2365 
Q 1534 2075 1959 2075 
z
" transform="scale(0.015625)"/>
       <path id="DejaVuSans-36" d="M 2113 2584 
Q 1688 2584 1439 2293 
Q 1191 2003 1191 1497 
Q 1191 994 1439 701 
Q 1688 409 2113 409 
Q 2538 409 2786 701 
Q 3034 994 3034 1497 
Q 3034 2003 2786 2293 
Q 2538 2584 2113 2584 
z
M 3366 4563 
L 3366 3988 
Q 3128 4100 2886 4159 
Q 2644 4219 2406 4219 
Q 1781 4219 1451 3797 
Q 1122 3375 1075 2522 
Q 1259 2794 1537 2939 
Q 1816 3084 2150 3084 
Q 2853 3084 3261 2657 
Q 3669 2231 3669 1497 
Q 3669 778 3244 343 
Q 2819 -91 2113 -91 
Q 1303 -91 875 529 
Q 447 1150 447 2328 
Q 447 3434 972 4092 
Q 1497 4750 2381 4750 
Q 2619 4750 2861 4703 
Q 3103 4656 3366 4563 
z
" transform="scale(0.015625)"/>
      </defs>
      <use xlink:href="#DejaVuSans-47"/>
      <use xlink:href="#DejaVuSans-72" transform="translate(77.490234 0)"/>
      <use xlink:href="#DejaVuSans-69" transform="translate(118.603516 0)"/>
      <use xlink:href="#DejaVuSans-64" transform="translate(146.386719 0)"/>
      <use xlink:href="#DejaVuSans-20" transform="translate(209.863281 0)"/>
      <use xlink:href="#DejaVuSans-53" transform="translate(241.650391 0)"/>
      <use xlink:href="#DejaVuSans-69" transform="translate(305.126953 0)"/>
      <use xlink:href="#DejaVuSans-7a" transform="translate(332.910156 0)"/>
      <use xlink:href="#DejaVuSans-65" transform="translate(385.400391 0)"/>
      <use xlink:href="#DejaVuSans-3a" transform="translate(446.923828 0)"/>
      <use xlink:href="#DejaVuSans-20" transform="translate(480.615234 0)"/>
      <use xlink:href="#DejaVuSans-39" transform="translate(512.402344 0)"/>
      <use xlink:href="#DejaVuSans-36" transform="translate(576.025391 0)"/>
      <use xlink:href="#DejaVuSans-78" transform="translate(639.648438 0)"/>
      <use xlink:href="#DejaVuSans-39" transform="translate(698.828125 0)"/>
      <use xlink:href="#DejaVuSans-36" transform="translate(762.451172 0)"/>
     </g>
    </g>
    <g id="line2d_35">
     <path d="M 432.867187 68.614687 
L 442.867187 68.614687 
L 452.867187 68.614687 
" style="fill: none; stroke: #2ca02c; stroke-width: 1.5; stroke-linecap: square"/>
    </g>
    <g id="text_20">
     <!-- Grid Size: 160x160 -->
     <g transform="translate(460.867187 72.114687) scale(0.1 -0.1)">
      <use xlink:href="#DejaVuSans-47"/>
      <use xlink:href="#DejaVuSans-72" transform="translate(77.490234 0)"/>
      <use xlink:href="#DejaVuSans-69" transform="translate(118.603516 0)"/>
      <use xlink:href="#DejaVuSans-64" transform="translate(146.386719 0)"/>
      <use xlink:href="#DejaVuSans-20" transform="translate(209.863281 0)"/>
      <use xlink:href="#DejaVuSans-53" transform="translate(241.650391 0)"/>
      <use xlink:href="#DejaVuSans-69" transform="translate(305.126953 0)"/>
      <use xlink:href="#DejaVuSans-7a" transform="translate(332.910156 0)"/>
      <use xlink:href="#DejaVuSans-65" transform="translate(385.400391 0)"/>
      <use xlink:href="#DejaVuSans-3a" transform="translate(446.923828 0)"/>
      <use xlink:href="#DejaVuSans-20" transform="translate(480.615234 0)"/>
      <use xlink:href="#DejaVuSans-31" transform="translate(512.402344 0)"/>
      <use xlink:href="#DejaVuSans-36" transform="translate(576.025391 0)"/>
      <use xlink:href="#DejaVuSans-30" transform="translate(639.648438 0)"/>
      <use xlink:href="#DejaVuSans-78" transform="translate(703.271484 0)"/>
      <use xlink:href="#DejaVuSans-31" transform="translate(762.451172 0)"/>
      <use xlink:href="#DejaVuSans-36" transform="translate(826.074219 0)"/>
      <use xlink:href="#DejaVuSans-30" transform="translate(889.697266 0)"/>
     </g>
    </g>
    <g id="line2d_36">
     <path d="M 432.867187 83.292812 
L 442.867187 83.292812 
L 452.867187 83.292812 
" style="fill: none; stroke: #d62728; stroke-width: 1.5; stroke-linecap: square"/>
    </g>
    <g id="text_21">
     <!-- Grid Size: 224x224 -->
     <g transform="translate(460.867187 86.792812) scale(0.1 -0.1)">
      <defs>
       <path id="DejaVuSans-34" d="M 2419 4116 
L 825 1625 
L 2419 1625 
L 2419 4116 
z
M 2253 4666 
L 3047 4666 
L 3047 1625 
L 3713 1625 
L 3713 1100 
L 3047 1100 
L 3047 0 
L 2419 0 
L 2419 1100 
L 313 1100 
L 313 1709 
L 2253 4666 
z
" transform="scale(0.015625)"/>
      </defs>
      <use xlink:href="#DejaVuSans-47"/>
      <use xlink:href="#DejaVuSans-72" transform="translate(77.490234 0)"/>
      <use xlink:href="#DejaVuSans-69" transform="translate(118.603516 0)"/>
      <use xlink:href="#DejaVuSans-64" transform="translate(146.386719 0)"/>
      <use xlink:href="#DejaVuSans-20" transform="translate(209.863281 0)"/>
      <use xlink:href="#DejaVuSans-53" transform="translate(241.650391 0)"/>
      <use xlink:href="#DejaVuSans-69" transform="translate(305.126953 0)"/>
      <use xlink:href="#DejaVuSans-7a" transform="translate(332.910156 0)"/>
      <use xlink:href="#DejaVuSans-65" transform="translate(385.400391 0)"/>
      <use xlink:href="#DejaVuSans-3a" transform="translate(446.923828 0)"/>
      <use xlink:href="#DejaVuSans-20" transform="translate(480.615234 0)"/>
      <use xlink:href="#DejaVuSans-32" transform="translate(512.402344 0)"/>
      <use xlink:href="#DejaVuSans-32" transform="translate(576.025391 0)"/>
      <use xlink:href="#DejaVuSans-34" transform="translate(639.648438 0)"/>
      <use xlink:href="#DejaVuSans-78" transform="translate(703.271484 0)"/>
      <use xlink:href="#DejaVuSans-32" transform="translate(762.451172 0)"/>
      <use xlink:href="#DejaVuSans-32" transform="translate(826.074219 0)"/>
      <use xlink:href="#DejaVuSans-34" transform="translate(889.697266 0)"/>
     </g>
    </g>
   </g>
  </g>
 </g>
 <defs>
  <clipPath id="p059730b8fc">
   <rect x="59.714964" y="26.16" width="505.485036" height="363.88"/>
  </clipPath>
 </defs>
</svg>
